M48
METRIC,TZ
T1C0.200
T2C0.250
T3C0.250
T4C0.300
T5C0.400
T6C0.500
T7C0.550
T8C0.700
%
G90
G05
T1
X68238Y-75620
X68650Y-78300
X69430Y-81370
X69450Y-80750
X69600Y-75900
X69700Y-83300
X69800Y-82400
X70196Y-76896
X70200Y-81500
X70400Y-79100
X70518Y-79829
X71500Y-81500
X71500Y-83100
X72488Y-82470
X72750Y-78900
X73750Y-79200
X74150Y-80250
X74250Y-76750
X75050Y-77900
X76900Y-81450
X77800Y-79800
X77900Y-78550
X78600Y-80650
X79150Y-81450
X79250Y-82700
X79850Y-81150
X80225Y-83235
X80250Y-78200
X82050Y-78226
X82050Y-80800
X83450Y-78100
X83450Y-80900
X84100Y-82600
X84750Y-78100
X85025Y-79525
X85625Y-75575
X86350Y-75450
X86362Y-78450
X86366Y-76395
X86369Y-77396
X86950Y-82726
X87734Y-79366
X88737Y-79366
X88850Y-81876
X89738Y-79366
X90725Y-79357
X91725Y-79360
X92729Y-79360
X93458Y-79364
X93862Y-75650
X93874Y-76900
X93887Y-78125
X93911Y-78950
X94100Y-77550
X94600Y-81400
X95750Y-82150
X95850Y-79725
X96000Y-79150
X98400Y-83500
X98675Y-74850
X99002Y-83127
X99650Y-83075
X100250Y-83450
X100650Y-74925
X101100Y-83275
X102100Y-83550
X103500Y-75600
X103850Y-82675
X104441Y-79205
X104541Y-77255
X104741Y-75755
X104891Y-81805
X105041Y-76755
X105091Y-79705
X105100Y-80500
X105691Y-76105
X105781Y-83562
X105850Y-82250
X105950Y-77450
X106000Y-76650
X106264Y-81245
X106768Y-82510
X106850Y-77000
X107023Y-77800
X107203Y-78539
X107250Y-81400
X107350Y-79650
X108104Y-76338
X108282Y-81824
X108914Y-80744
X109562Y-81248
X109603Y-82347
X110057Y-80753
X111476Y-82706
X112450Y-75550
X113050Y-76250
X113063Y-82066
X113300Y-80400
X119880Y-76657
X122865Y-78714
X123380Y-76865
X126299Y-78463
X126999Y-78463
X128073Y-78239
X131454Y-77623
X132084Y-82243
X133073Y-77127
X133225Y-79128
X133472Y-76120
X133728Y-78528
X134114Y-79211
X134257Y-76413
X134381Y-81843
X134425Y-77155
X134435Y-78380
X134960Y-79253
X135471Y-80869
X135810Y-82510
X137305Y-76526
X137405Y-81243
X137515Y-77654
X137635Y-82501
X138189Y-79291
X139363Y-77581
X139765Y-81593
X140175Y-77635
X140773Y-81909
X140793Y-77293
X141370Y-78650
X145541Y-77909
X146995Y-75500
X150077Y-79959
X152861Y-80062
X153659Y-75433
X154557Y-78002
X154573Y-76987
X155264Y-78736
X155927Y-78024
X155975Y-76886
X156552Y-77507
X156685Y-78386
X157566Y-78567
X157860Y-76971
T2
X108857Y-76961
X108864Y-78945
X110900Y-78570
X117234Y-78147
X136062Y-76575
X142174Y-76240
T3
X98400Y-77900
X98400Y-79000
X98400Y-80100
X99100Y-77100
X99100Y-80900
X99600Y-77900
X99600Y-79000
X99600Y-80100
X100300Y-77100
X100300Y-80900
X101000Y-77900
X101000Y-79000
X101000Y-80100
X101600Y-77100
X101600Y-80900
X102200Y-77900
X102200Y-79000
X102200Y-80100
T4
X69700Y-77750
X111729Y-80328
X113800Y-77700
X113800Y-78700
X114950Y-78150
X122338Y-80092
X130602Y-76031
X131973Y-83026
X140154Y-76609
X144862Y-79270
X146561Y-76336
X147871Y-77023
X155638Y-75557
X156060Y-79209
T5
X118395Y-77920
X119934Y-79444
X121089Y-76335
X122102Y-76324
X126361Y-76644
X127224Y-77278
X129333Y-76544
X131357Y-78430
X131970Y-79135
X138674Y-78137
X147188Y-79119
X149854Y-76314
X150700Y-76915
X157958Y-75694
X159207Y-79430
X159223Y-77464
T8
X114569Y-83377
X121089Y-83387
T6
G00X123979Y-82266
M15
G01X123979Y-82916
M16
G05
G00X130979Y-82266
M15
G01X130979Y-82916
M16
G05
T7
G00X124829Y-79891
M15
G01X125129Y-79891
M16
G05
G00X129829Y-79891
M15
G01X130129Y-79891
M16
G05
M30
