M48
; DRILL file {KiCad 8.0.6} date 2024-11-20T18:33:51-0500
; FORMAT={-:-/ absolute / inch / decimal}
; #@! TF.CreationDate,2024-11-20T18:33:51-05:00
; #@! TF.GenerationSoftware,Kicad,Pcbnew,8.0.6
; #@! TF.FileFunction,Plated,1,4,PTH
FMAT,2
INCH
; #@! TA.AperFunction,Plated,PTH,ViaDrill
T1C0.0079
; #@! TA.AperFunction,Plated,PTH,ViaDrill
T2C0.0098
; #@! TA.AperFunction,Plated,PTH,ComponentDrill
T3C0.0098
; #@! TA.AperFunction,Plated,PTH,ViaDrill
T4C0.0118
; #@! TA.AperFunction,Plated,PTH,ViaDrill
T5C0.0157
; #@! TA.AperFunction,Plated,PTH,ComponentDrill
T6C0.0197
; #@! TA.AperFunction,Plated,PTH,ComponentDrill
T7C0.0217
; #@! TA.AperFunction,Plated,PTH,ComponentDrill
T8C0.0276
%
G90
G05
T1
X2.6865Y-2.9772
X2.7028Y-3.0827
X2.7335Y-3.2035
X2.7343Y-3.1791
X2.7402Y-2.9882
X2.7441Y-3.2795
X2.748Y-3.2441
X2.7636Y-3.0274
X2.7638Y-3.2087
X2.7717Y-3.1142
X2.7763Y-3.1429
X2.815Y-3.2087
X2.815Y-3.2717
X2.8538Y-3.2469
X2.8642Y-3.1063
X2.9035Y-3.1181
X2.9193Y-3.1594
X2.9232Y-3.0217
X2.9547Y-3.0669
X3.0276Y-3.2067
X3.063Y-3.1417
X3.0669Y-3.0925
X3.0945Y-3.1752
X3.1161Y-3.2067
X3.1201Y-3.2559
X3.1437Y-3.1949
X3.1584Y-3.277
X3.1594Y-3.0787
X3.2303Y-3.0797
X3.2303Y-3.1811
X3.2854Y-3.0748
X3.2854Y-3.185
X3.311Y-3.252
X3.3366Y-3.0748
X3.3474Y-3.1309
X3.3711Y-2.9754
X3.3996Y-2.9705
X3.4001Y-3.0886
X3.4002Y-3.0077
X3.4004Y-3.0471
X3.4232Y-3.2569
X3.4541Y-3.1247
X3.4936Y-3.1247
X3.498Y-3.2234
X3.533Y-3.1247
X3.5718Y-3.1243
X3.6112Y-3.1244
X3.6507Y-3.1244
X3.6795Y-3.1246
X3.6954Y-2.9783
X3.6958Y-3.0275
X3.6964Y-3.0758
X3.6973Y-3.1082
X3.7047Y-3.0531
X3.7244Y-3.2047
X3.7697Y-3.2343
X3.7736Y-3.1388
X3.7795Y-3.1161
X3.874Y-3.2874
X3.8848Y-2.9469
X3.8977Y-3.2727
X3.9232Y-3.2707
X3.9469Y-3.2854
X3.9626Y-2.9498
X3.9803Y-3.2785
X4.0197Y-3.2894
X4.0748Y-2.9764
X4.0886Y-3.2549
X4.1119Y-3.1183
X4.1158Y-3.0415
X4.1237Y-2.9825
X4.1296Y-3.2207
X4.1355Y-3.0219
X4.1375Y-3.138
X4.1378Y-3.1693
X4.1611Y-2.9963
X4.1646Y-3.2898
X4.1673Y-3.2382
X4.1713Y-3.0492
X4.1732Y-3.0177
X4.1836Y-3.1986
X4.2034Y-3.2484
X4.2067Y-3.0315
X4.2135Y-3.063
X4.2206Y-3.0921
X4.2224Y-3.2047
X4.2264Y-3.1358
X4.2561Y-3.0055
X4.2631Y-3.2214
X4.2879Y-3.1789
X4.3135Y-3.1987
X4.3151Y-3.242
X4.3329Y-3.1792
X4.3888Y-3.2561
X4.4272Y-2.9744
X4.4508Y-3.002
X4.4513Y-3.231
X4.4606Y-3.1654
X4.7197Y-3.018
X4.8372Y-3.099
X4.8575Y-3.0262
X4.9724Y-3.0891
X4.9999Y-3.0891
X5.0423Y-3.0803
X5.1753Y-3.056
X5.2001Y-3.2379
X5.2391Y-3.0365
X5.2451Y-3.1153
X5.2548Y-2.9969
X5.2649Y-3.0916
X5.2801Y-3.1185
X5.2857Y-3.0084
X5.2906Y-3.2222
X5.2923Y-3.0376
X5.2927Y-3.0858
X5.3134Y-3.1202
X5.3335Y-3.1838
X5.3469Y-3.2484
X5.4057Y-3.0128
X5.4096Y-3.1986
X5.414Y-3.0572
X5.4187Y-3.2481
X5.4405Y-3.1217
X5.4867Y-3.0544
X5.5025Y-3.2123
X5.5187Y-3.0565
X5.5422Y-3.2248
X5.543Y-3.043
X5.5657Y-3.0965
X5.73Y-3.0673
X5.7872Y-2.9724
X5.9085Y-3.148
X6.0181Y-3.1521
X6.0496Y-2.9698
X6.0849Y-3.0709
X6.0855Y-3.031
X6.1128Y-3.0998
X6.1389Y-3.0718
X6.1408Y-3.027
X6.1635Y-3.0515
X6.1687Y-3.0861
X6.2034Y-3.0932
X6.2149Y-3.0304
T2
X4.2857Y-3.03
X4.286Y-3.1081
X4.3661Y-3.0933
X4.6155Y-3.0766
X5.3568Y-3.0148
X5.5974Y-3.0016
T3
X3.874Y-3.0669
X3.874Y-3.1102
X3.874Y-3.1535
X3.9016Y-3.0354
X3.9016Y-3.185
X3.9213Y-3.0669
X3.9213Y-3.1102
X3.9213Y-3.1535
X3.9488Y-3.0354
X3.9488Y-3.185
X3.9764Y-3.0669
X3.9764Y-3.1102
X3.9764Y-3.1535
X4.0Y-3.0354
X4.0Y-3.185
X4.0236Y-3.0669
X4.0236Y-3.1102
X4.0236Y-3.1535
T4
X2.7441Y-3.061
X4.3988Y-3.1625
X4.4803Y-3.0591
X4.4803Y-3.0984
X4.5256Y-3.0768
X4.8165Y-3.1532
X5.1418Y-2.9934
X5.1958Y-3.2687
X5.5179Y-3.0161
X5.7032Y-3.1209
X5.7701Y-3.0054
X5.8217Y-3.0324
X6.1275Y-2.9747
X6.1441Y-3.1185
T5
X4.6612Y-3.0677
X4.7218Y-3.1277
X4.7673Y-3.0053
X4.8072Y-3.0049
X4.9748Y-3.0175
X5.0088Y-3.0425
X5.0919Y-3.0135
X5.1715Y-3.0878
X5.1957Y-3.1156
X5.4596Y-3.0763
X5.7948Y-3.1149
X5.8998Y-3.0045
X5.9331Y-3.0281
X6.2188Y-2.9801
X6.268Y-3.1272
X6.2686Y-3.0498
T8
X4.5106Y-3.2826
X4.7673Y-3.2829
T6
G00X4.8811Y-3.2388
M15
G01X4.8811Y-3.2644
M16
G05
G00X5.1567Y-3.2388
M15
G01X5.1567Y-3.2644
M16
G05
T7
G00X4.9145Y-3.1453
M15
G01X4.9263Y-3.1453
M16
G05
G00X5.1114Y-3.1453
M15
G01X5.1232Y-3.1453
M16
G05
M30
