%TF.GenerationSoftware,KiCad,Pcbnew,8.0.6*%
%TF.CreationDate,2024-11-20T18:33:45-05:00*%
%TF.ProjectId,OSSG_v0p5,4f535347-5f76-4307-9035-2e6b69636164,v0.4*%
%TF.SameCoordinates,Original*%
%TF.FileFunction,Legend,Top*%
%TF.FilePolarity,Positive*%
%FSLAX46Y46*%
G04 Gerber Fmt 4.6, Leading zero omitted, Abs format (unit mm)*
G04 Created by KiCad (PCBNEW 8.0.6) date 2024-11-20 18:33:45*
%MOMM*%
%LPD*%
G01*
G04 APERTURE LIST*
G04 Aperture macros list*
%AMRoundRect*
0 Rectangle with rounded corners*
0 $1 Rounding radius*
0 $2 $3 $4 $5 $6 $7 $8 $9 X,Y pos of 4 corners*
0 Add a 4 corners polygon primitive as box body*
4,1,4,$2,$3,$4,$5,$6,$7,$8,$9,$2,$3,0*
0 Add four circle primitives for the rounded corners*
1,1,$1+$1,$2,$3*
1,1,$1+$1,$4,$5*
1,1,$1+$1,$6,$7*
1,1,$1+$1,$8,$9*
0 Add four rect primitives between the rounded corners*
20,1,$1+$1,$2,$3,$4,$5,0*
20,1,$1+$1,$4,$5,$6,$7,0*
20,1,$1+$1,$6,$7,$8,$9,0*
20,1,$1+$1,$8,$9,$2,$3,0*%
G04 Aperture macros list end*
%ADD10C,0.150000*%
%ADD11C,0.100000*%
%ADD12C,0.120000*%
%ADD13C,0.127000*%
%ADD14C,0.200000*%
%ADD15C,0.912000*%
%ADD16C,0.000100*%
%ADD17C,0.001000*%
%ADD18RoundRect,0.135000X0.135000X0.185000X-0.135000X0.185000X-0.135000X-0.185000X0.135000X-0.185000X0*%
%ADD19C,0.500000*%
%ADD20R,0.600000X0.522000*%
%ADD21R,0.510000X0.400000*%
%ADD22RoundRect,0.140000X-0.140000X-0.170000X0.140000X-0.170000X0.140000X0.170000X-0.140000X0.170000X0*%
%ADD23RoundRect,0.140000X0.140000X0.170000X-0.140000X0.170000X-0.140000X-0.170000X0.140000X-0.170000X0*%
%ADD24R,0.900000X1.200000*%
%ADD25R,0.400000X1.350000*%
%ADD26O,0.890000X1.550000*%
%ADD27R,1.200000X1.550000*%
%ADD28R,1.500000X1.550000*%
%ADD29O,1.250000X0.950000*%
%ADD30RoundRect,0.140000X-0.170000X0.140000X-0.170000X-0.140000X0.170000X-0.140000X0.170000X0.140000X0*%
%ADD31R,0.280000X0.170000*%
%ADD32R,0.280000X0.520000*%
%ADD33RoundRect,0.050000X0.365000X0.075000X-0.365000X0.075000X-0.365000X-0.075000X0.365000X-0.075000X0*%
%ADD34RoundRect,0.050000X0.075000X-0.365000X0.075000X0.365000X-0.075000X0.365000X-0.075000X-0.365000X0*%
%ADD35RoundRect,0.200000X-2.050000X-2.050000X2.050000X-2.050000X2.050000X2.050000X-2.050000X2.050000X0*%
%ADD36RoundRect,0.135000X0.185000X-0.135000X0.185000X0.135000X-0.185000X0.135000X-0.185000X-0.135000X0*%
%ADD37RoundRect,0.135000X-0.185000X0.135000X-0.185000X-0.135000X0.185000X-0.135000X0.185000X0.135000X0*%
%ADD38C,0.750000*%
%ADD39R,1.550000X1.000000*%
%ADD40RoundRect,0.135000X-0.135000X-0.185000X0.135000X-0.185000X0.135000X0.185000X-0.135000X0.185000X0*%
%ADD41R,1.600000X2.300000*%
%ADD42RoundRect,0.150000X0.512500X0.150000X-0.512500X0.150000X-0.512500X-0.150000X0.512500X-0.150000X0*%
%ADD43RoundRect,0.250000X0.450000X-0.262500X0.450000X0.262500X-0.450000X0.262500X-0.450000X-0.262500X0*%
%ADD44RoundRect,0.250000X-0.325000X-0.650000X0.325000X-0.650000X0.325000X0.650000X-0.325000X0.650000X0*%
%ADD45RoundRect,0.062500X0.287500X0.062500X-0.287500X0.062500X-0.287500X-0.062500X0.287500X-0.062500X0*%
%ADD46R,0.800000X1.600000*%
%ADD47RoundRect,0.062500X0.337500X0.062500X-0.337500X0.062500X-0.337500X-0.062500X0.337500X-0.062500X0*%
%ADD48R,1.700000X1.400000*%
%ADD49RoundRect,0.140000X0.170000X-0.140000X0.170000X0.140000X-0.170000X0.140000X-0.170000X-0.140000X0*%
%ADD50RoundRect,0.147500X0.147500X0.172500X-0.147500X0.172500X-0.147500X-0.172500X0.147500X-0.172500X0*%
%ADD51R,0.400000X0.500000*%
%ADD52RoundRect,0.062500X0.062500X-0.350000X0.062500X0.350000X-0.062500X0.350000X-0.062500X-0.350000X0*%
%ADD53RoundRect,0.062500X0.350000X-0.062500X0.350000X0.062500X-0.350000X0.062500X-0.350000X-0.062500X0*%
%ADD54R,2.600000X2.600000*%
%ADD55RoundRect,0.150000X0.587500X0.150000X-0.587500X0.150000X-0.587500X-0.150000X0.587500X-0.150000X0*%
%ADD56C,1.100000*%
%ADD57R,0.700000X1.600000*%
%ADD58RoundRect,0.150000X-0.150000X0.675000X-0.150000X-0.675000X0.150000X-0.675000X0.150000X0.675000X0*%
G04 APERTURE END LIST*
D10*
X158051427Y-78242036D02*
G75*
G02*
X157691411Y-78242036I-180008J0D01*
G01*
X157691411Y-78242036D02*
G75*
G02*
X158051427Y-78242036I180008J0D01*
G01*
X98445339Y-76780950D02*
G75*
G02*
X98085323Y-76780950I-180008J0D01*
G01*
X98085323Y-76780950D02*
G75*
G02*
X98445339Y-76780950I180008J0D01*
G01*
X154865284Y-79628098D02*
G75*
G02*
X154505268Y-79628098I-180008J0D01*
G01*
X154505268Y-79628098D02*
G75*
G02*
X154865284Y-79628098I180008J0D01*
G01*
X109161079Y-80641944D02*
G75*
G02*
X108801063Y-80641944I-180008J0D01*
G01*
X108801063Y-80641944D02*
G75*
G02*
X109161079Y-80641944I180008J0D01*
G01*
X135959000Y-78877577D02*
G75*
G02*
X135598984Y-78877577I-180008J0D01*
G01*
X135598984Y-78877577D02*
G75*
G02*
X135959000Y-78877577I180008J0D01*
G01*
X111416330Y-82834838D02*
X111494331Y-82517957D01*
D11*
X113087300Y-79603021D02*
X113182538Y-79603021D01*
X113182538Y-79603021D02*
X113230157Y-79626831D01*
X113230157Y-79626831D02*
X113277776Y-79674450D01*
X113277776Y-79674450D02*
X113301586Y-79769688D01*
X113301586Y-79769688D02*
X113301586Y-79936354D01*
X113301586Y-79936354D02*
X113277776Y-80031592D01*
X113277776Y-80031592D02*
X113230157Y-80079212D01*
X113230157Y-80079212D02*
X113182538Y-80103021D01*
X113182538Y-80103021D02*
X113087300Y-80103021D01*
X113087300Y-80103021D02*
X113039681Y-80079212D01*
X113039681Y-80079212D02*
X112992062Y-80031592D01*
X112992062Y-80031592D02*
X112968253Y-79936354D01*
X112968253Y-79936354D02*
X112968253Y-79769688D01*
X112968253Y-79769688D02*
X112992062Y-79674450D01*
X112992062Y-79674450D02*
X113039681Y-79626831D01*
X113039681Y-79626831D02*
X113087300Y-79603021D01*
X113682539Y-79841116D02*
X113515872Y-79841116D01*
X113515872Y-80103021D02*
X113515872Y-79603021D01*
X113515872Y-79603021D02*
X113753967Y-79603021D01*
X114111110Y-79841116D02*
X113944443Y-79841116D01*
X113944443Y-80103021D02*
X113944443Y-79603021D01*
X113944443Y-79603021D02*
X114182538Y-79603021D01*
X120990475Y-79676109D02*
X121085713Y-79676109D01*
X121085713Y-79676109D02*
X121133332Y-79699919D01*
X121133332Y-79699919D02*
X121180951Y-79747538D01*
X121180951Y-79747538D02*
X121204761Y-79842776D01*
X121204761Y-79842776D02*
X121204761Y-80009442D01*
X121204761Y-80009442D02*
X121180951Y-80104680D01*
X121180951Y-80104680D02*
X121133332Y-80152300D01*
X121133332Y-80152300D02*
X121085713Y-80176109D01*
X121085713Y-80176109D02*
X120990475Y-80176109D01*
X120990475Y-80176109D02*
X120942856Y-80152300D01*
X120942856Y-80152300D02*
X120895237Y-80104680D01*
X120895237Y-80104680D02*
X120871428Y-80009442D01*
X120871428Y-80009442D02*
X120871428Y-79842776D01*
X120871428Y-79842776D02*
X120895237Y-79747538D01*
X120895237Y-79747538D02*
X120942856Y-79699919D01*
X120942856Y-79699919D02*
X120990475Y-79676109D01*
X121419047Y-80176109D02*
X121419047Y-79676109D01*
X121419047Y-79676109D02*
X121704761Y-80176109D01*
X121704761Y-80176109D02*
X121704761Y-79676109D01*
X69078571Y-77426109D02*
X68911905Y-77188014D01*
X68792857Y-77426109D02*
X68792857Y-76926109D01*
X68792857Y-76926109D02*
X68983333Y-76926109D01*
X68983333Y-76926109D02*
X69030952Y-76949919D01*
X69030952Y-76949919D02*
X69054762Y-76973728D01*
X69054762Y-76973728D02*
X69078571Y-77021347D01*
X69078571Y-77021347D02*
X69078571Y-77092776D01*
X69078571Y-77092776D02*
X69054762Y-77140395D01*
X69054762Y-77140395D02*
X69030952Y-77164204D01*
X69030952Y-77164204D02*
X68983333Y-77188014D01*
X68983333Y-77188014D02*
X68792857Y-77188014D01*
X69269048Y-76973728D02*
X69292857Y-76949919D01*
X69292857Y-76949919D02*
X69340476Y-76926109D01*
X69340476Y-76926109D02*
X69459524Y-76926109D01*
X69459524Y-76926109D02*
X69507143Y-76949919D01*
X69507143Y-76949919D02*
X69530952Y-76973728D01*
X69530952Y-76973728D02*
X69554762Y-77021347D01*
X69554762Y-77021347D02*
X69554762Y-77068966D01*
X69554762Y-77068966D02*
X69530952Y-77140395D01*
X69530952Y-77140395D02*
X69245238Y-77426109D01*
X69245238Y-77426109D02*
X69554762Y-77426109D01*
X69745238Y-76973728D02*
X69769047Y-76949919D01*
X69769047Y-76949919D02*
X69816666Y-76926109D01*
X69816666Y-76926109D02*
X69935714Y-76926109D01*
X69935714Y-76926109D02*
X69983333Y-76949919D01*
X69983333Y-76949919D02*
X70007142Y-76973728D01*
X70007142Y-76973728D02*
X70030952Y-77021347D01*
X70030952Y-77021347D02*
X70030952Y-77068966D01*
X70030952Y-77068966D02*
X70007142Y-77140395D01*
X70007142Y-77140395D02*
X69721428Y-77426109D01*
X69721428Y-77426109D02*
X70030952Y-77426109D01*
X91816666Y-81526109D02*
X91650000Y-81288014D01*
X91530952Y-81526109D02*
X91530952Y-81026109D01*
X91530952Y-81026109D02*
X91721428Y-81026109D01*
X91721428Y-81026109D02*
X91769047Y-81049919D01*
X91769047Y-81049919D02*
X91792857Y-81073728D01*
X91792857Y-81073728D02*
X91816666Y-81121347D01*
X91816666Y-81121347D02*
X91816666Y-81192776D01*
X91816666Y-81192776D02*
X91792857Y-81240395D01*
X91792857Y-81240395D02*
X91769047Y-81264204D01*
X91769047Y-81264204D02*
X91721428Y-81288014D01*
X91721428Y-81288014D02*
X91530952Y-81288014D01*
X92292857Y-81526109D02*
X92007143Y-81526109D01*
X92150000Y-81526109D02*
X92150000Y-81026109D01*
X92150000Y-81026109D02*
X92102381Y-81097538D01*
X92102381Y-81097538D02*
X92054762Y-81145157D01*
X92054762Y-81145157D02*
X92007143Y-81168966D01*
X78519047Y-83226109D02*
X78519047Y-83630871D01*
X78519047Y-83630871D02*
X78542857Y-83678490D01*
X78542857Y-83678490D02*
X78566666Y-83702300D01*
X78566666Y-83702300D02*
X78614285Y-83726109D01*
X78614285Y-83726109D02*
X78709523Y-83726109D01*
X78709523Y-83726109D02*
X78757142Y-83702300D01*
X78757142Y-83702300D02*
X78780952Y-83678490D01*
X78780952Y-83678490D02*
X78804761Y-83630871D01*
X78804761Y-83630871D02*
X78804761Y-83226109D01*
X79304762Y-83726109D02*
X79019048Y-83726109D01*
X79161905Y-83726109D02*
X79161905Y-83226109D01*
X79161905Y-83226109D02*
X79114286Y-83297538D01*
X79114286Y-83297538D02*
X79066667Y-83345157D01*
X79066667Y-83345157D02*
X79019048Y-83368966D01*
X106562223Y-83623054D02*
X106514604Y-83599245D01*
X106514604Y-83599245D02*
X106466985Y-83551626D01*
X106466985Y-83551626D02*
X106395557Y-83480197D01*
X106395557Y-83480197D02*
X106347938Y-83456387D01*
X106347938Y-83456387D02*
X106300319Y-83456387D01*
X106324128Y-83575435D02*
X106276509Y-83551626D01*
X106276509Y-83551626D02*
X106228890Y-83504006D01*
X106228890Y-83504006D02*
X106205081Y-83408768D01*
X106205081Y-83408768D02*
X106205081Y-83242102D01*
X106205081Y-83242102D02*
X106228890Y-83146864D01*
X106228890Y-83146864D02*
X106276509Y-83099245D01*
X106276509Y-83099245D02*
X106324128Y-83075435D01*
X106324128Y-83075435D02*
X106419366Y-83075435D01*
X106419366Y-83075435D02*
X106466985Y-83099245D01*
X106466985Y-83099245D02*
X106514604Y-83146864D01*
X106514604Y-83146864D02*
X106538414Y-83242102D01*
X106538414Y-83242102D02*
X106538414Y-83408768D01*
X106538414Y-83408768D02*
X106514604Y-83504006D01*
X106514604Y-83504006D02*
X106466985Y-83551626D01*
X106466985Y-83551626D02*
X106419366Y-83575435D01*
X106419366Y-83575435D02*
X106324128Y-83575435D01*
X107014605Y-83575435D02*
X106728891Y-83575435D01*
X106871748Y-83575435D02*
X106871748Y-83075435D01*
X106871748Y-83075435D02*
X106824129Y-83146864D01*
X106824129Y-83146864D02*
X106776510Y-83194483D01*
X106776510Y-83194483D02*
X106728891Y-83218292D01*
X134421110Y-80085615D02*
X134397301Y-80109425D01*
X134397301Y-80109425D02*
X134325872Y-80133234D01*
X134325872Y-80133234D02*
X134278253Y-80133234D01*
X134278253Y-80133234D02*
X134206825Y-80109425D01*
X134206825Y-80109425D02*
X134159206Y-80061805D01*
X134159206Y-80061805D02*
X134135396Y-80014186D01*
X134135396Y-80014186D02*
X134111587Y-79918948D01*
X134111587Y-79918948D02*
X134111587Y-79847520D01*
X134111587Y-79847520D02*
X134135396Y-79752282D01*
X134135396Y-79752282D02*
X134159206Y-79704663D01*
X134159206Y-79704663D02*
X134206825Y-79657044D01*
X134206825Y-79657044D02*
X134278253Y-79633234D01*
X134278253Y-79633234D02*
X134325872Y-79633234D01*
X134325872Y-79633234D02*
X134397301Y-79657044D01*
X134397301Y-79657044D02*
X134421110Y-79680853D01*
X134897301Y-80133234D02*
X134611587Y-80133234D01*
X134754444Y-80133234D02*
X134754444Y-79633234D01*
X134754444Y-79633234D02*
X134706825Y-79704663D01*
X134706825Y-79704663D02*
X134659206Y-79752282D01*
X134659206Y-79752282D02*
X134611587Y-79776091D01*
X135135396Y-80133234D02*
X135230634Y-80133234D01*
X135230634Y-80133234D02*
X135278253Y-80109425D01*
X135278253Y-80109425D02*
X135302062Y-80085615D01*
X135302062Y-80085615D02*
X135349681Y-80014186D01*
X135349681Y-80014186D02*
X135373491Y-79918948D01*
X135373491Y-79918948D02*
X135373491Y-79728472D01*
X135373491Y-79728472D02*
X135349681Y-79680853D01*
X135349681Y-79680853D02*
X135325872Y-79657044D01*
X135325872Y-79657044D02*
X135278253Y-79633234D01*
X135278253Y-79633234D02*
X135183015Y-79633234D01*
X135183015Y-79633234D02*
X135135396Y-79657044D01*
X135135396Y-79657044D02*
X135111586Y-79680853D01*
X135111586Y-79680853D02*
X135087777Y-79728472D01*
X135087777Y-79728472D02*
X135087777Y-79847520D01*
X135087777Y-79847520D02*
X135111586Y-79895139D01*
X135111586Y-79895139D02*
X135135396Y-79918948D01*
X135135396Y-79918948D02*
X135183015Y-79942758D01*
X135183015Y-79942758D02*
X135278253Y-79942758D01*
X135278253Y-79942758D02*
X135325872Y-79918948D01*
X135325872Y-79918948D02*
X135349681Y-79895139D01*
X135349681Y-79895139D02*
X135373491Y-79847520D01*
X158031767Y-79853228D02*
X158007958Y-79877038D01*
X158007958Y-79877038D02*
X157936529Y-79900847D01*
X157936529Y-79900847D02*
X157888910Y-79900847D01*
X157888910Y-79900847D02*
X157817482Y-79877038D01*
X157817482Y-79877038D02*
X157769863Y-79829418D01*
X157769863Y-79829418D02*
X157746053Y-79781799D01*
X157746053Y-79781799D02*
X157722244Y-79686561D01*
X157722244Y-79686561D02*
X157722244Y-79615133D01*
X157722244Y-79615133D02*
X157746053Y-79519895D01*
X157746053Y-79519895D02*
X157769863Y-79472276D01*
X157769863Y-79472276D02*
X157817482Y-79424657D01*
X157817482Y-79424657D02*
X157888910Y-79400847D01*
X157888910Y-79400847D02*
X157936529Y-79400847D01*
X157936529Y-79400847D02*
X158007958Y-79424657D01*
X158007958Y-79424657D02*
X158031767Y-79448466D01*
X158507958Y-79900847D02*
X158222244Y-79900847D01*
X158365101Y-79900847D02*
X158365101Y-79400847D01*
X158365101Y-79400847D02*
X158317482Y-79472276D01*
X158317482Y-79472276D02*
X158269863Y-79519895D01*
X158269863Y-79519895D02*
X158222244Y-79543704D01*
X158936529Y-79567514D02*
X158936529Y-79900847D01*
X158817481Y-79377038D02*
X158698434Y-79734180D01*
X158698434Y-79734180D02*
X159007957Y-79734180D01*
X129260947Y-75943561D02*
X129260947Y-75443561D01*
X129260947Y-75443561D02*
X129379995Y-75443561D01*
X129379995Y-75443561D02*
X129451423Y-75467371D01*
X129451423Y-75467371D02*
X129499042Y-75514990D01*
X129499042Y-75514990D02*
X129522852Y-75562609D01*
X129522852Y-75562609D02*
X129546661Y-75657847D01*
X129546661Y-75657847D02*
X129546661Y-75729275D01*
X129546661Y-75729275D02*
X129522852Y-75824513D01*
X129522852Y-75824513D02*
X129499042Y-75872132D01*
X129499042Y-75872132D02*
X129451423Y-75919752D01*
X129451423Y-75919752D02*
X129379995Y-75943561D01*
X129379995Y-75943561D02*
X129260947Y-75943561D01*
X129713328Y-75443561D02*
X130022852Y-75443561D01*
X130022852Y-75443561D02*
X129856185Y-75634037D01*
X129856185Y-75634037D02*
X129927614Y-75634037D01*
X129927614Y-75634037D02*
X129975233Y-75657847D01*
X129975233Y-75657847D02*
X129999042Y-75681656D01*
X129999042Y-75681656D02*
X130022852Y-75729275D01*
X130022852Y-75729275D02*
X130022852Y-75848323D01*
X130022852Y-75848323D02*
X129999042Y-75895942D01*
X129999042Y-75895942D02*
X129975233Y-75919752D01*
X129975233Y-75919752D02*
X129927614Y-75943561D01*
X129927614Y-75943561D02*
X129784757Y-75943561D01*
X129784757Y-75943561D02*
X129737138Y-75919752D01*
X129737138Y-75919752D02*
X129713328Y-75895942D01*
X127325657Y-80973952D02*
X127325657Y-81331095D01*
X127325657Y-81331095D02*
X127301848Y-81402523D01*
X127301848Y-81402523D02*
X127254229Y-81450143D01*
X127254229Y-81450143D02*
X127182800Y-81473952D01*
X127182800Y-81473952D02*
X127135181Y-81473952D01*
X127516133Y-80973952D02*
X127825657Y-80973952D01*
X127825657Y-80973952D02*
X127658990Y-81164428D01*
X127658990Y-81164428D02*
X127730419Y-81164428D01*
X127730419Y-81164428D02*
X127778038Y-81188238D01*
X127778038Y-81188238D02*
X127801847Y-81212047D01*
X127801847Y-81212047D02*
X127825657Y-81259666D01*
X127825657Y-81259666D02*
X127825657Y-81378714D01*
X127825657Y-81378714D02*
X127801847Y-81426333D01*
X127801847Y-81426333D02*
X127778038Y-81450143D01*
X127778038Y-81450143D02*
X127730419Y-81473952D01*
X127730419Y-81473952D02*
X127587562Y-81473952D01*
X127587562Y-81473952D02*
X127539943Y-81450143D01*
X127539943Y-81450143D02*
X127516133Y-81426333D01*
X111827520Y-83319959D02*
X111803711Y-83343769D01*
X111803711Y-83343769D02*
X111732282Y-83367578D01*
X111732282Y-83367578D02*
X111684663Y-83367578D01*
X111684663Y-83367578D02*
X111613235Y-83343769D01*
X111613235Y-83343769D02*
X111565616Y-83296149D01*
X111565616Y-83296149D02*
X111541806Y-83248530D01*
X111541806Y-83248530D02*
X111517997Y-83153292D01*
X111517997Y-83153292D02*
X111517997Y-83081864D01*
X111517997Y-83081864D02*
X111541806Y-82986626D01*
X111541806Y-82986626D02*
X111565616Y-82939007D01*
X111565616Y-82939007D02*
X111613235Y-82891388D01*
X111613235Y-82891388D02*
X111684663Y-82867578D01*
X111684663Y-82867578D02*
X111732282Y-82867578D01*
X111732282Y-82867578D02*
X111803711Y-82891388D01*
X111803711Y-82891388D02*
X111827520Y-82915197D01*
X112303711Y-83367578D02*
X112017997Y-83367578D01*
X112160854Y-83367578D02*
X112160854Y-82867578D01*
X112160854Y-82867578D02*
X112113235Y-82939007D01*
X112113235Y-82939007D02*
X112065616Y-82986626D01*
X112065616Y-82986626D02*
X112017997Y-83010435D01*
X112613234Y-82867578D02*
X112660853Y-82867578D01*
X112660853Y-82867578D02*
X112708472Y-82891388D01*
X112708472Y-82891388D02*
X112732282Y-82915197D01*
X112732282Y-82915197D02*
X112756091Y-82962816D01*
X112756091Y-82962816D02*
X112779901Y-83058054D01*
X112779901Y-83058054D02*
X112779901Y-83177102D01*
X112779901Y-83177102D02*
X112756091Y-83272340D01*
X112756091Y-83272340D02*
X112732282Y-83319959D01*
X112732282Y-83319959D02*
X112708472Y-83343769D01*
X112708472Y-83343769D02*
X112660853Y-83367578D01*
X112660853Y-83367578D02*
X112613234Y-83367578D01*
X112613234Y-83367578D02*
X112565615Y-83343769D01*
X112565615Y-83343769D02*
X112541806Y-83319959D01*
X112541806Y-83319959D02*
X112517996Y-83272340D01*
X112517996Y-83272340D02*
X112494187Y-83177102D01*
X112494187Y-83177102D02*
X112494187Y-83058054D01*
X112494187Y-83058054D02*
X112517996Y-82962816D01*
X112517996Y-82962816D02*
X112541806Y-82915197D01*
X112541806Y-82915197D02*
X112565615Y-82891388D01*
X112565615Y-82891388D02*
X112613234Y-82867578D01*
X68852380Y-75773728D02*
X68804761Y-75749919D01*
X68804761Y-75749919D02*
X68757142Y-75702300D01*
X68757142Y-75702300D02*
X68685714Y-75630871D01*
X68685714Y-75630871D02*
X68638095Y-75607061D01*
X68638095Y-75607061D02*
X68590476Y-75607061D01*
X68614285Y-75726109D02*
X68566666Y-75702300D01*
X68566666Y-75702300D02*
X68519047Y-75654680D01*
X68519047Y-75654680D02*
X68495238Y-75559442D01*
X68495238Y-75559442D02*
X68495238Y-75392776D01*
X68495238Y-75392776D02*
X68519047Y-75297538D01*
X68519047Y-75297538D02*
X68566666Y-75249919D01*
X68566666Y-75249919D02*
X68614285Y-75226109D01*
X68614285Y-75226109D02*
X68709523Y-75226109D01*
X68709523Y-75226109D02*
X68757142Y-75249919D01*
X68757142Y-75249919D02*
X68804761Y-75297538D01*
X68804761Y-75297538D02*
X68828571Y-75392776D01*
X68828571Y-75392776D02*
X68828571Y-75559442D01*
X68828571Y-75559442D02*
X68804761Y-75654680D01*
X68804761Y-75654680D02*
X68757142Y-75702300D01*
X68757142Y-75702300D02*
X68709523Y-75726109D01*
X68709523Y-75726109D02*
X68614285Y-75726109D01*
X69280952Y-75226109D02*
X69042857Y-75226109D01*
X69042857Y-75226109D02*
X69019048Y-75464204D01*
X69019048Y-75464204D02*
X69042857Y-75440395D01*
X69042857Y-75440395D02*
X69090476Y-75416585D01*
X69090476Y-75416585D02*
X69209524Y-75416585D01*
X69209524Y-75416585D02*
X69257143Y-75440395D01*
X69257143Y-75440395D02*
X69280952Y-75464204D01*
X69280952Y-75464204D02*
X69304762Y-75511823D01*
X69304762Y-75511823D02*
X69304762Y-75630871D01*
X69304762Y-75630871D02*
X69280952Y-75678490D01*
X69280952Y-75678490D02*
X69257143Y-75702300D01*
X69257143Y-75702300D02*
X69209524Y-75726109D01*
X69209524Y-75726109D02*
X69090476Y-75726109D01*
X69090476Y-75726109D02*
X69042857Y-75702300D01*
X69042857Y-75702300D02*
X69019048Y-75678490D01*
X96569047Y-74526109D02*
X96569047Y-74930871D01*
X96569047Y-74930871D02*
X96592857Y-74978490D01*
X96592857Y-74978490D02*
X96616666Y-75002300D01*
X96616666Y-75002300D02*
X96664285Y-75026109D01*
X96664285Y-75026109D02*
X96759523Y-75026109D01*
X96759523Y-75026109D02*
X96807142Y-75002300D01*
X96807142Y-75002300D02*
X96830952Y-74978490D01*
X96830952Y-74978490D02*
X96854761Y-74930871D01*
X96854761Y-74930871D02*
X96854761Y-74526109D01*
X97069048Y-74573728D02*
X97092857Y-74549919D01*
X97092857Y-74549919D02*
X97140476Y-74526109D01*
X97140476Y-74526109D02*
X97259524Y-74526109D01*
X97259524Y-74526109D02*
X97307143Y-74549919D01*
X97307143Y-74549919D02*
X97330952Y-74573728D01*
X97330952Y-74573728D02*
X97354762Y-74621347D01*
X97354762Y-74621347D02*
X97354762Y-74668966D01*
X97354762Y-74668966D02*
X97330952Y-74740395D01*
X97330952Y-74740395D02*
X97045238Y-75026109D01*
X97045238Y-75026109D02*
X97354762Y-75026109D01*
X74576109Y-81183333D02*
X74338014Y-81349999D01*
X74576109Y-81469047D02*
X74076109Y-81469047D01*
X74076109Y-81469047D02*
X74076109Y-81278571D01*
X74076109Y-81278571D02*
X74099919Y-81230952D01*
X74099919Y-81230952D02*
X74123728Y-81207142D01*
X74123728Y-81207142D02*
X74171347Y-81183333D01*
X74171347Y-81183333D02*
X74242776Y-81183333D01*
X74242776Y-81183333D02*
X74290395Y-81207142D01*
X74290395Y-81207142D02*
X74314204Y-81230952D01*
X74314204Y-81230952D02*
X74338014Y-81278571D01*
X74338014Y-81278571D02*
X74338014Y-81469047D01*
X74076109Y-81016666D02*
X74076109Y-80707142D01*
X74076109Y-80707142D02*
X74266585Y-80873809D01*
X74266585Y-80873809D02*
X74266585Y-80802380D01*
X74266585Y-80802380D02*
X74290395Y-80754761D01*
X74290395Y-80754761D02*
X74314204Y-80730952D01*
X74314204Y-80730952D02*
X74361823Y-80707142D01*
X74361823Y-80707142D02*
X74480871Y-80707142D01*
X74480871Y-80707142D02*
X74528490Y-80730952D01*
X74528490Y-80730952D02*
X74552300Y-80754761D01*
X74552300Y-80754761D02*
X74576109Y-80802380D01*
X74576109Y-80802380D02*
X74576109Y-80945237D01*
X74576109Y-80945237D02*
X74552300Y-80992856D01*
X74552300Y-80992856D02*
X74528490Y-81016666D01*
X74178571Y-75826109D02*
X74011905Y-75588014D01*
X73892857Y-75826109D02*
X73892857Y-75326109D01*
X73892857Y-75326109D02*
X74083333Y-75326109D01*
X74083333Y-75326109D02*
X74130952Y-75349919D01*
X74130952Y-75349919D02*
X74154762Y-75373728D01*
X74154762Y-75373728D02*
X74178571Y-75421347D01*
X74178571Y-75421347D02*
X74178571Y-75492776D01*
X74178571Y-75492776D02*
X74154762Y-75540395D01*
X74154762Y-75540395D02*
X74130952Y-75564204D01*
X74130952Y-75564204D02*
X74083333Y-75588014D01*
X74083333Y-75588014D02*
X73892857Y-75588014D01*
X74369048Y-75373728D02*
X74392857Y-75349919D01*
X74392857Y-75349919D02*
X74440476Y-75326109D01*
X74440476Y-75326109D02*
X74559524Y-75326109D01*
X74559524Y-75326109D02*
X74607143Y-75349919D01*
X74607143Y-75349919D02*
X74630952Y-75373728D01*
X74630952Y-75373728D02*
X74654762Y-75421347D01*
X74654762Y-75421347D02*
X74654762Y-75468966D01*
X74654762Y-75468966D02*
X74630952Y-75540395D01*
X74630952Y-75540395D02*
X74345238Y-75826109D01*
X74345238Y-75826109D02*
X74654762Y-75826109D01*
X74964285Y-75326109D02*
X75011904Y-75326109D01*
X75011904Y-75326109D02*
X75059523Y-75349919D01*
X75059523Y-75349919D02*
X75083333Y-75373728D01*
X75083333Y-75373728D02*
X75107142Y-75421347D01*
X75107142Y-75421347D02*
X75130952Y-75516585D01*
X75130952Y-75516585D02*
X75130952Y-75635633D01*
X75130952Y-75635633D02*
X75107142Y-75730871D01*
X75107142Y-75730871D02*
X75083333Y-75778490D01*
X75083333Y-75778490D02*
X75059523Y-75802300D01*
X75059523Y-75802300D02*
X75011904Y-75826109D01*
X75011904Y-75826109D02*
X74964285Y-75826109D01*
X74964285Y-75826109D02*
X74916666Y-75802300D01*
X74916666Y-75802300D02*
X74892857Y-75778490D01*
X74892857Y-75778490D02*
X74869047Y-75730871D01*
X74869047Y-75730871D02*
X74845238Y-75635633D01*
X74845238Y-75635633D02*
X74845238Y-75516585D01*
X74845238Y-75516585D02*
X74869047Y-75421347D01*
X74869047Y-75421347D02*
X74892857Y-75373728D01*
X74892857Y-75373728D02*
X74916666Y-75349919D01*
X74916666Y-75349919D02*
X74964285Y-75326109D01*
X105666666Y-79776109D02*
X105500000Y-79538014D01*
X105380952Y-79776109D02*
X105380952Y-79276109D01*
X105380952Y-79276109D02*
X105571428Y-79276109D01*
X105571428Y-79276109D02*
X105619047Y-79299919D01*
X105619047Y-79299919D02*
X105642857Y-79323728D01*
X105642857Y-79323728D02*
X105666666Y-79371347D01*
X105666666Y-79371347D02*
X105666666Y-79442776D01*
X105666666Y-79442776D02*
X105642857Y-79490395D01*
X105642857Y-79490395D02*
X105619047Y-79514204D01*
X105619047Y-79514204D02*
X105571428Y-79538014D01*
X105571428Y-79538014D02*
X105380952Y-79538014D01*
X106095238Y-79276109D02*
X106000000Y-79276109D01*
X106000000Y-79276109D02*
X105952381Y-79299919D01*
X105952381Y-79299919D02*
X105928571Y-79323728D01*
X105928571Y-79323728D02*
X105880952Y-79395157D01*
X105880952Y-79395157D02*
X105857143Y-79490395D01*
X105857143Y-79490395D02*
X105857143Y-79680871D01*
X105857143Y-79680871D02*
X105880952Y-79728490D01*
X105880952Y-79728490D02*
X105904762Y-79752300D01*
X105904762Y-79752300D02*
X105952381Y-79776109D01*
X105952381Y-79776109D02*
X106047619Y-79776109D01*
X106047619Y-79776109D02*
X106095238Y-79752300D01*
X106095238Y-79752300D02*
X106119047Y-79728490D01*
X106119047Y-79728490D02*
X106142857Y-79680871D01*
X106142857Y-79680871D02*
X106142857Y-79561823D01*
X106142857Y-79561823D02*
X106119047Y-79514204D01*
X106119047Y-79514204D02*
X106095238Y-79490395D01*
X106095238Y-79490395D02*
X106047619Y-79466585D01*
X106047619Y-79466585D02*
X105952381Y-79466585D01*
X105952381Y-79466585D02*
X105904762Y-79490395D01*
X105904762Y-79490395D02*
X105880952Y-79514204D01*
X105880952Y-79514204D02*
X105857143Y-79561823D01*
X135995355Y-83338372D02*
X135828689Y-83100277D01*
X135709641Y-83338372D02*
X135709641Y-82838372D01*
X135709641Y-82838372D02*
X135900117Y-82838372D01*
X135900117Y-82838372D02*
X135947736Y-82862182D01*
X135947736Y-82862182D02*
X135971546Y-82885991D01*
X135971546Y-82885991D02*
X135995355Y-82933610D01*
X135995355Y-82933610D02*
X135995355Y-83005039D01*
X135995355Y-83005039D02*
X135971546Y-83052658D01*
X135971546Y-83052658D02*
X135947736Y-83076467D01*
X135947736Y-83076467D02*
X135900117Y-83100277D01*
X135900117Y-83100277D02*
X135709641Y-83100277D01*
X136471546Y-83338372D02*
X136185832Y-83338372D01*
X136328689Y-83338372D02*
X136328689Y-82838372D01*
X136328689Y-82838372D02*
X136281070Y-82909801D01*
X136281070Y-82909801D02*
X136233451Y-82957420D01*
X136233451Y-82957420D02*
X136185832Y-82981229D01*
X136638212Y-82838372D02*
X136971545Y-82838372D01*
X136971545Y-82838372D02*
X136757260Y-83338372D01*
X116828571Y-75628490D02*
X116804762Y-75652300D01*
X116804762Y-75652300D02*
X116733333Y-75676109D01*
X116733333Y-75676109D02*
X116685714Y-75676109D01*
X116685714Y-75676109D02*
X116614286Y-75652300D01*
X116614286Y-75652300D02*
X116566667Y-75604680D01*
X116566667Y-75604680D02*
X116542857Y-75557061D01*
X116542857Y-75557061D02*
X116519048Y-75461823D01*
X116519048Y-75461823D02*
X116519048Y-75390395D01*
X116519048Y-75390395D02*
X116542857Y-75295157D01*
X116542857Y-75295157D02*
X116566667Y-75247538D01*
X116566667Y-75247538D02*
X116614286Y-75199919D01*
X116614286Y-75199919D02*
X116685714Y-75176109D01*
X116685714Y-75176109D02*
X116733333Y-75176109D01*
X116733333Y-75176109D02*
X116804762Y-75199919D01*
X116804762Y-75199919D02*
X116828571Y-75223728D01*
X117304762Y-75676109D02*
X117019048Y-75676109D01*
X117161905Y-75676109D02*
X117161905Y-75176109D01*
X117161905Y-75176109D02*
X117114286Y-75247538D01*
X117114286Y-75247538D02*
X117066667Y-75295157D01*
X117066667Y-75295157D02*
X117019048Y-75318966D01*
X117590476Y-75390395D02*
X117542857Y-75366585D01*
X117542857Y-75366585D02*
X117519047Y-75342776D01*
X117519047Y-75342776D02*
X117495238Y-75295157D01*
X117495238Y-75295157D02*
X117495238Y-75271347D01*
X117495238Y-75271347D02*
X117519047Y-75223728D01*
X117519047Y-75223728D02*
X117542857Y-75199919D01*
X117542857Y-75199919D02*
X117590476Y-75176109D01*
X117590476Y-75176109D02*
X117685714Y-75176109D01*
X117685714Y-75176109D02*
X117733333Y-75199919D01*
X117733333Y-75199919D02*
X117757142Y-75223728D01*
X117757142Y-75223728D02*
X117780952Y-75271347D01*
X117780952Y-75271347D02*
X117780952Y-75295157D01*
X117780952Y-75295157D02*
X117757142Y-75342776D01*
X117757142Y-75342776D02*
X117733333Y-75366585D01*
X117733333Y-75366585D02*
X117685714Y-75390395D01*
X117685714Y-75390395D02*
X117590476Y-75390395D01*
X117590476Y-75390395D02*
X117542857Y-75414204D01*
X117542857Y-75414204D02*
X117519047Y-75438014D01*
X117519047Y-75438014D02*
X117495238Y-75485633D01*
X117495238Y-75485633D02*
X117495238Y-75580871D01*
X117495238Y-75580871D02*
X117519047Y-75628490D01*
X117519047Y-75628490D02*
X117542857Y-75652300D01*
X117542857Y-75652300D02*
X117590476Y-75676109D01*
X117590476Y-75676109D02*
X117685714Y-75676109D01*
X117685714Y-75676109D02*
X117733333Y-75652300D01*
X117733333Y-75652300D02*
X117757142Y-75628490D01*
X117757142Y-75628490D02*
X117780952Y-75580871D01*
X117780952Y-75580871D02*
X117780952Y-75485633D01*
X117780952Y-75485633D02*
X117757142Y-75438014D01*
X117757142Y-75438014D02*
X117733333Y-75414204D01*
X117733333Y-75414204D02*
X117685714Y-75390395D01*
X70083334Y-82502300D02*
X70154762Y-82526109D01*
X70154762Y-82526109D02*
X70273810Y-82526109D01*
X70273810Y-82526109D02*
X70321429Y-82502300D01*
X70321429Y-82502300D02*
X70345238Y-82478490D01*
X70345238Y-82478490D02*
X70369048Y-82430871D01*
X70369048Y-82430871D02*
X70369048Y-82383252D01*
X70369048Y-82383252D02*
X70345238Y-82335633D01*
X70345238Y-82335633D02*
X70321429Y-82311823D01*
X70321429Y-82311823D02*
X70273810Y-82288014D01*
X70273810Y-82288014D02*
X70178572Y-82264204D01*
X70178572Y-82264204D02*
X70130953Y-82240395D01*
X70130953Y-82240395D02*
X70107143Y-82216585D01*
X70107143Y-82216585D02*
X70083334Y-82168966D01*
X70083334Y-82168966D02*
X70083334Y-82121347D01*
X70083334Y-82121347D02*
X70107143Y-82073728D01*
X70107143Y-82073728D02*
X70130953Y-82049919D01*
X70130953Y-82049919D02*
X70178572Y-82026109D01*
X70178572Y-82026109D02*
X70297619Y-82026109D01*
X70297619Y-82026109D02*
X70369048Y-82049919D01*
X70535714Y-82026109D02*
X70654762Y-82526109D01*
X70654762Y-82526109D02*
X70750000Y-82168966D01*
X70750000Y-82168966D02*
X70845238Y-82526109D01*
X70845238Y-82526109D02*
X70964286Y-82026109D01*
X71416667Y-82526109D02*
X71130953Y-82526109D01*
X71273810Y-82526109D02*
X71273810Y-82026109D01*
X71273810Y-82026109D02*
X71226191Y-82097538D01*
X71226191Y-82097538D02*
X71178572Y-82145157D01*
X71178572Y-82145157D02*
X71130953Y-82168966D01*
X139802315Y-75904049D02*
X139754696Y-75880240D01*
X139754696Y-75880240D02*
X139707077Y-75832621D01*
X139707077Y-75832621D02*
X139635649Y-75761192D01*
X139635649Y-75761192D02*
X139588030Y-75737382D01*
X139588030Y-75737382D02*
X139540411Y-75737382D01*
X139564220Y-75856430D02*
X139516601Y-75832621D01*
X139516601Y-75832621D02*
X139468982Y-75785001D01*
X139468982Y-75785001D02*
X139445173Y-75689763D01*
X139445173Y-75689763D02*
X139445173Y-75523097D01*
X139445173Y-75523097D02*
X139468982Y-75427859D01*
X139468982Y-75427859D02*
X139516601Y-75380240D01*
X139516601Y-75380240D02*
X139564220Y-75356430D01*
X139564220Y-75356430D02*
X139659458Y-75356430D01*
X139659458Y-75356430D02*
X139707077Y-75380240D01*
X139707077Y-75380240D02*
X139754696Y-75427859D01*
X139754696Y-75427859D02*
X139778506Y-75523097D01*
X139778506Y-75523097D02*
X139778506Y-75689763D01*
X139778506Y-75689763D02*
X139754696Y-75785001D01*
X139754696Y-75785001D02*
X139707077Y-75832621D01*
X139707077Y-75832621D02*
X139659458Y-75856430D01*
X139659458Y-75856430D02*
X139564220Y-75856430D01*
X139945173Y-75356430D02*
X140254697Y-75356430D01*
X140254697Y-75356430D02*
X140088030Y-75546906D01*
X140088030Y-75546906D02*
X140159459Y-75546906D01*
X140159459Y-75546906D02*
X140207078Y-75570716D01*
X140207078Y-75570716D02*
X140230887Y-75594525D01*
X140230887Y-75594525D02*
X140254697Y-75642144D01*
X140254697Y-75642144D02*
X140254697Y-75761192D01*
X140254697Y-75761192D02*
X140230887Y-75808811D01*
X140230887Y-75808811D02*
X140207078Y-75832621D01*
X140207078Y-75832621D02*
X140159459Y-75856430D01*
X140159459Y-75856430D02*
X140016602Y-75856430D01*
X140016602Y-75856430D02*
X139968983Y-75832621D01*
X139968983Y-75832621D02*
X139945173Y-75808811D01*
X72116666Y-78526109D02*
X71950000Y-78288014D01*
X71830952Y-78526109D02*
X71830952Y-78026109D01*
X71830952Y-78026109D02*
X72021428Y-78026109D01*
X72021428Y-78026109D02*
X72069047Y-78049919D01*
X72069047Y-78049919D02*
X72092857Y-78073728D01*
X72092857Y-78073728D02*
X72116666Y-78121347D01*
X72116666Y-78121347D02*
X72116666Y-78192776D01*
X72116666Y-78192776D02*
X72092857Y-78240395D01*
X72092857Y-78240395D02*
X72069047Y-78264204D01*
X72069047Y-78264204D02*
X72021428Y-78288014D01*
X72021428Y-78288014D02*
X71830952Y-78288014D01*
X72545238Y-78192776D02*
X72545238Y-78526109D01*
X72426190Y-78002300D02*
X72307143Y-78359442D01*
X72307143Y-78359442D02*
X72616666Y-78359442D01*
X138942696Y-82281794D02*
X138704601Y-82281794D01*
X138704601Y-82281794D02*
X138704601Y-81781794D01*
X139371268Y-82281794D02*
X139085554Y-82281794D01*
X139228411Y-82281794D02*
X139228411Y-81781794D01*
X139228411Y-81781794D02*
X139180792Y-81853223D01*
X139180792Y-81853223D02*
X139133173Y-81900842D01*
X139133173Y-81900842D02*
X139085554Y-81924651D01*
X91816666Y-80528490D02*
X91792857Y-80552300D01*
X91792857Y-80552300D02*
X91721428Y-80576109D01*
X91721428Y-80576109D02*
X91673809Y-80576109D01*
X91673809Y-80576109D02*
X91602381Y-80552300D01*
X91602381Y-80552300D02*
X91554762Y-80504680D01*
X91554762Y-80504680D02*
X91530952Y-80457061D01*
X91530952Y-80457061D02*
X91507143Y-80361823D01*
X91507143Y-80361823D02*
X91507143Y-80290395D01*
X91507143Y-80290395D02*
X91530952Y-80195157D01*
X91530952Y-80195157D02*
X91554762Y-80147538D01*
X91554762Y-80147538D02*
X91602381Y-80099919D01*
X91602381Y-80099919D02*
X91673809Y-80076109D01*
X91673809Y-80076109D02*
X91721428Y-80076109D01*
X91721428Y-80076109D02*
X91792857Y-80099919D01*
X91792857Y-80099919D02*
X91816666Y-80123728D01*
X92292857Y-80576109D02*
X92007143Y-80576109D01*
X92150000Y-80576109D02*
X92150000Y-80076109D01*
X92150000Y-80076109D02*
X92102381Y-80147538D01*
X92102381Y-80147538D02*
X92054762Y-80195157D01*
X92054762Y-80195157D02*
X92007143Y-80218966D01*
X107965072Y-80742956D02*
X107917453Y-80719147D01*
X107917453Y-80719147D02*
X107869834Y-80671528D01*
X107869834Y-80671528D02*
X107798406Y-80600099D01*
X107798406Y-80600099D02*
X107750787Y-80576289D01*
X107750787Y-80576289D02*
X107703168Y-80576289D01*
X107726977Y-80695337D02*
X107679358Y-80671528D01*
X107679358Y-80671528D02*
X107631739Y-80623908D01*
X107631739Y-80623908D02*
X107607930Y-80528670D01*
X107607930Y-80528670D02*
X107607930Y-80362004D01*
X107607930Y-80362004D02*
X107631739Y-80266766D01*
X107631739Y-80266766D02*
X107679358Y-80219147D01*
X107679358Y-80219147D02*
X107726977Y-80195337D01*
X107726977Y-80195337D02*
X107822215Y-80195337D01*
X107822215Y-80195337D02*
X107869834Y-80219147D01*
X107869834Y-80219147D02*
X107917453Y-80266766D01*
X107917453Y-80266766D02*
X107941263Y-80362004D01*
X107941263Y-80362004D02*
X107941263Y-80528670D01*
X107941263Y-80528670D02*
X107917453Y-80623908D01*
X107917453Y-80623908D02*
X107869834Y-80671528D01*
X107869834Y-80671528D02*
X107822215Y-80695337D01*
X107822215Y-80695337D02*
X107726977Y-80695337D01*
X108131740Y-80242956D02*
X108155549Y-80219147D01*
X108155549Y-80219147D02*
X108203168Y-80195337D01*
X108203168Y-80195337D02*
X108322216Y-80195337D01*
X108322216Y-80195337D02*
X108369835Y-80219147D01*
X108369835Y-80219147D02*
X108393644Y-80242956D01*
X108393644Y-80242956D02*
X108417454Y-80290575D01*
X108417454Y-80290575D02*
X108417454Y-80338194D01*
X108417454Y-80338194D02*
X108393644Y-80409623D01*
X108393644Y-80409623D02*
X108107930Y-80695337D01*
X108107930Y-80695337D02*
X108417454Y-80695337D01*
X152824105Y-80276286D02*
X152824105Y-80681048D01*
X152824105Y-80681048D02*
X152847915Y-80728667D01*
X152847915Y-80728667D02*
X152871724Y-80752477D01*
X152871724Y-80752477D02*
X152919343Y-80776286D01*
X152919343Y-80776286D02*
X153014581Y-80776286D01*
X153014581Y-80776286D02*
X153062200Y-80752477D01*
X153062200Y-80752477D02*
X153086010Y-80728667D01*
X153086010Y-80728667D02*
X153109819Y-80681048D01*
X153109819Y-80681048D02*
X153109819Y-80276286D01*
X153586010Y-80276286D02*
X153347915Y-80276286D01*
X153347915Y-80276286D02*
X153324106Y-80514381D01*
X153324106Y-80514381D02*
X153347915Y-80490572D01*
X153347915Y-80490572D02*
X153395534Y-80466762D01*
X153395534Y-80466762D02*
X153514582Y-80466762D01*
X153514582Y-80466762D02*
X153562201Y-80490572D01*
X153562201Y-80490572D02*
X153586010Y-80514381D01*
X153586010Y-80514381D02*
X153609820Y-80562000D01*
X153609820Y-80562000D02*
X153609820Y-80681048D01*
X153609820Y-80681048D02*
X153586010Y-80728667D01*
X153586010Y-80728667D02*
X153562201Y-80752477D01*
X153562201Y-80752477D02*
X153514582Y-80776286D01*
X153514582Y-80776286D02*
X153395534Y-80776286D01*
X153395534Y-80776286D02*
X153347915Y-80752477D01*
X153347915Y-80752477D02*
X153324106Y-80728667D01*
X118963802Y-77688937D02*
X118963802Y-78093699D01*
X118963802Y-78093699D02*
X118987612Y-78141318D01*
X118987612Y-78141318D02*
X119011421Y-78165128D01*
X119011421Y-78165128D02*
X119059040Y-78188937D01*
X119059040Y-78188937D02*
X119154278Y-78188937D01*
X119154278Y-78188937D02*
X119201897Y-78165128D01*
X119201897Y-78165128D02*
X119225707Y-78141318D01*
X119225707Y-78141318D02*
X119249516Y-78093699D01*
X119249516Y-78093699D02*
X119249516Y-77688937D01*
X119439993Y-77688937D02*
X119773326Y-77688937D01*
X119773326Y-77688937D02*
X119559041Y-78188937D01*
X132823313Y-75652310D02*
X132656647Y-75414215D01*
X132537599Y-75652310D02*
X132537599Y-75152310D01*
X132537599Y-75152310D02*
X132728075Y-75152310D01*
X132728075Y-75152310D02*
X132775694Y-75176120D01*
X132775694Y-75176120D02*
X132799504Y-75199929D01*
X132799504Y-75199929D02*
X132823313Y-75247548D01*
X132823313Y-75247548D02*
X132823313Y-75318977D01*
X132823313Y-75318977D02*
X132799504Y-75366596D01*
X132799504Y-75366596D02*
X132775694Y-75390405D01*
X132775694Y-75390405D02*
X132728075Y-75414215D01*
X132728075Y-75414215D02*
X132537599Y-75414215D01*
X133299504Y-75652310D02*
X133013790Y-75652310D01*
X133156647Y-75652310D02*
X133156647Y-75152310D01*
X133156647Y-75152310D02*
X133109028Y-75223739D01*
X133109028Y-75223739D02*
X133061409Y-75271358D01*
X133061409Y-75271358D02*
X133013790Y-75295167D01*
X133728075Y-75318977D02*
X133728075Y-75652310D01*
X133609027Y-75128501D02*
X133489980Y-75485643D01*
X133489980Y-75485643D02*
X133799503Y-75485643D01*
X72578571Y-77526109D02*
X72411905Y-77288014D01*
X72292857Y-77526109D02*
X72292857Y-77026109D01*
X72292857Y-77026109D02*
X72483333Y-77026109D01*
X72483333Y-77026109D02*
X72530952Y-77049919D01*
X72530952Y-77049919D02*
X72554762Y-77073728D01*
X72554762Y-77073728D02*
X72578571Y-77121347D01*
X72578571Y-77121347D02*
X72578571Y-77192776D01*
X72578571Y-77192776D02*
X72554762Y-77240395D01*
X72554762Y-77240395D02*
X72530952Y-77264204D01*
X72530952Y-77264204D02*
X72483333Y-77288014D01*
X72483333Y-77288014D02*
X72292857Y-77288014D01*
X72769048Y-77073728D02*
X72792857Y-77049919D01*
X72792857Y-77049919D02*
X72840476Y-77026109D01*
X72840476Y-77026109D02*
X72959524Y-77026109D01*
X72959524Y-77026109D02*
X73007143Y-77049919D01*
X73007143Y-77049919D02*
X73030952Y-77073728D01*
X73030952Y-77073728D02*
X73054762Y-77121347D01*
X73054762Y-77121347D02*
X73054762Y-77168966D01*
X73054762Y-77168966D02*
X73030952Y-77240395D01*
X73030952Y-77240395D02*
X72745238Y-77526109D01*
X72745238Y-77526109D02*
X73054762Y-77526109D01*
X73530952Y-77526109D02*
X73245238Y-77526109D01*
X73388095Y-77526109D02*
X73388095Y-77026109D01*
X73388095Y-77026109D02*
X73340476Y-77097538D01*
X73340476Y-77097538D02*
X73292857Y-77145157D01*
X73292857Y-77145157D02*
X73245238Y-77168966D01*
X124744632Y-78186576D02*
X124577965Y-78186576D01*
X124577965Y-78448481D02*
X124577965Y-77948481D01*
X124577965Y-77948481D02*
X124816060Y-77948481D01*
X125268441Y-78448481D02*
X124982727Y-78448481D01*
X125125584Y-78448481D02*
X125125584Y-77948481D01*
X125125584Y-77948481D02*
X125077965Y-78019910D01*
X125077965Y-78019910D02*
X125030346Y-78067529D01*
X125030346Y-78067529D02*
X124982727Y-78091338D01*
X89566667Y-76633252D02*
X89804762Y-76633252D01*
X89519048Y-76776109D02*
X89685714Y-76276109D01*
X89685714Y-76276109D02*
X89852381Y-76776109D01*
X90019047Y-76514204D02*
X90185714Y-76514204D01*
X90257142Y-76776109D02*
X90019047Y-76776109D01*
X90019047Y-76776109D02*
X90019047Y-76276109D01*
X90019047Y-76276109D02*
X90257142Y-76276109D01*
X90733333Y-76776109D02*
X90447619Y-76776109D01*
X90590476Y-76776109D02*
X90590476Y-76276109D01*
X90590476Y-76276109D02*
X90542857Y-76347538D01*
X90542857Y-76347538D02*
X90495238Y-76395157D01*
X90495238Y-76395157D02*
X90447619Y-76418966D01*
X88554261Y-78576109D02*
X88554261Y-78076109D01*
X88839975Y-78576109D02*
X88625690Y-78290395D01*
X88839975Y-78076109D02*
X88554261Y-78361823D01*
X89054261Y-78314204D02*
X89220928Y-78314204D01*
X89292356Y-78576109D02*
X89054261Y-78576109D01*
X89054261Y-78576109D02*
X89054261Y-78076109D01*
X89054261Y-78076109D02*
X89292356Y-78076109D01*
X89506642Y-78314204D02*
X89673309Y-78314204D01*
X89744737Y-78576109D02*
X89506642Y-78576109D01*
X89506642Y-78576109D02*
X89506642Y-78076109D01*
X89506642Y-78076109D02*
X89744737Y-78076109D01*
X89959023Y-78576109D02*
X89959023Y-78076109D01*
X89959023Y-78076109D02*
X90149499Y-78076109D01*
X90149499Y-78076109D02*
X90197118Y-78099919D01*
X90197118Y-78099919D02*
X90220928Y-78123728D01*
X90220928Y-78123728D02*
X90244737Y-78171347D01*
X90244737Y-78171347D02*
X90244737Y-78242776D01*
X90244737Y-78242776D02*
X90220928Y-78290395D01*
X90220928Y-78290395D02*
X90197118Y-78314204D01*
X90197118Y-78314204D02*
X90149499Y-78338014D01*
X90149499Y-78338014D02*
X89959023Y-78338014D01*
X90554261Y-78076109D02*
X90649499Y-78076109D01*
X90649499Y-78076109D02*
X90697118Y-78099919D01*
X90697118Y-78099919D02*
X90744737Y-78147538D01*
X90744737Y-78147538D02*
X90768547Y-78242776D01*
X90768547Y-78242776D02*
X90768547Y-78409442D01*
X90768547Y-78409442D02*
X90744737Y-78504680D01*
X90744737Y-78504680D02*
X90697118Y-78552300D01*
X90697118Y-78552300D02*
X90649499Y-78576109D01*
X90649499Y-78576109D02*
X90554261Y-78576109D01*
X90554261Y-78576109D02*
X90506642Y-78552300D01*
X90506642Y-78552300D02*
X90459023Y-78504680D01*
X90459023Y-78504680D02*
X90435214Y-78409442D01*
X90435214Y-78409442D02*
X90435214Y-78242776D01*
X90435214Y-78242776D02*
X90459023Y-78147538D01*
X90459023Y-78147538D02*
X90506642Y-78099919D01*
X90506642Y-78099919D02*
X90554261Y-78076109D01*
X90982833Y-78076109D02*
X90982833Y-78480871D01*
X90982833Y-78480871D02*
X91006643Y-78528490D01*
X91006643Y-78528490D02*
X91030452Y-78552300D01*
X91030452Y-78552300D02*
X91078071Y-78576109D01*
X91078071Y-78576109D02*
X91173309Y-78576109D01*
X91173309Y-78576109D02*
X91220928Y-78552300D01*
X91220928Y-78552300D02*
X91244738Y-78528490D01*
X91244738Y-78528490D02*
X91268547Y-78480871D01*
X91268547Y-78480871D02*
X91268547Y-78076109D01*
X91435215Y-78076109D02*
X91720929Y-78076109D01*
X91578072Y-78576109D02*
X91578072Y-78076109D01*
X109422440Y-83755199D02*
X109255774Y-83517104D01*
X109136726Y-83755199D02*
X109136726Y-83255199D01*
X109136726Y-83255199D02*
X109327202Y-83255199D01*
X109327202Y-83255199D02*
X109374821Y-83279009D01*
X109374821Y-83279009D02*
X109398631Y-83302818D01*
X109398631Y-83302818D02*
X109422440Y-83350437D01*
X109422440Y-83350437D02*
X109422440Y-83421866D01*
X109422440Y-83421866D02*
X109398631Y-83469485D01*
X109398631Y-83469485D02*
X109374821Y-83493294D01*
X109374821Y-83493294D02*
X109327202Y-83517104D01*
X109327202Y-83517104D02*
X109136726Y-83517104D01*
X109874821Y-83255199D02*
X109636726Y-83255199D01*
X109636726Y-83255199D02*
X109612917Y-83493294D01*
X109612917Y-83493294D02*
X109636726Y-83469485D01*
X109636726Y-83469485D02*
X109684345Y-83445675D01*
X109684345Y-83445675D02*
X109803393Y-83445675D01*
X109803393Y-83445675D02*
X109851012Y-83469485D01*
X109851012Y-83469485D02*
X109874821Y-83493294D01*
X109874821Y-83493294D02*
X109898631Y-83540913D01*
X109898631Y-83540913D02*
X109898631Y-83659961D01*
X109898631Y-83659961D02*
X109874821Y-83707580D01*
X109874821Y-83707580D02*
X109851012Y-83731390D01*
X109851012Y-83731390D02*
X109803393Y-83755199D01*
X109803393Y-83755199D02*
X109684345Y-83755199D01*
X109684345Y-83755199D02*
X109636726Y-83731390D01*
X109636726Y-83731390D02*
X109612917Y-83707580D01*
X156439446Y-78972630D02*
X156439446Y-79377392D01*
X156439446Y-79377392D02*
X156463256Y-79425011D01*
X156463256Y-79425011D02*
X156487065Y-79448821D01*
X156487065Y-79448821D02*
X156534684Y-79472630D01*
X156534684Y-79472630D02*
X156629922Y-79472630D01*
X156629922Y-79472630D02*
X156677541Y-79448821D01*
X156677541Y-79448821D02*
X156701351Y-79425011D01*
X156701351Y-79425011D02*
X156725160Y-79377392D01*
X156725160Y-79377392D02*
X156725160Y-78972630D01*
X157177542Y-78972630D02*
X157082304Y-78972630D01*
X157082304Y-78972630D02*
X157034685Y-78996440D01*
X157034685Y-78996440D02*
X157010875Y-79020249D01*
X157010875Y-79020249D02*
X156963256Y-79091678D01*
X156963256Y-79091678D02*
X156939447Y-79186916D01*
X156939447Y-79186916D02*
X156939447Y-79377392D01*
X156939447Y-79377392D02*
X156963256Y-79425011D01*
X156963256Y-79425011D02*
X156987066Y-79448821D01*
X156987066Y-79448821D02*
X157034685Y-79472630D01*
X157034685Y-79472630D02*
X157129923Y-79472630D01*
X157129923Y-79472630D02*
X157177542Y-79448821D01*
X157177542Y-79448821D02*
X157201351Y-79425011D01*
X157201351Y-79425011D02*
X157225161Y-79377392D01*
X157225161Y-79377392D02*
X157225161Y-79258344D01*
X157225161Y-79258344D02*
X157201351Y-79210725D01*
X157201351Y-79210725D02*
X157177542Y-79186916D01*
X157177542Y-79186916D02*
X157129923Y-79163106D01*
X157129923Y-79163106D02*
X157034685Y-79163106D01*
X157034685Y-79163106D02*
X156987066Y-79186916D01*
X156987066Y-79186916D02*
X156963256Y-79210725D01*
X156963256Y-79210725D02*
X156939447Y-79258344D01*
X147020087Y-81267652D02*
X146853421Y-81029557D01*
X146734373Y-81267652D02*
X146734373Y-80767652D01*
X146734373Y-80767652D02*
X146924849Y-80767652D01*
X146924849Y-80767652D02*
X146972468Y-80791462D01*
X146972468Y-80791462D02*
X146996278Y-80815271D01*
X146996278Y-80815271D02*
X147020087Y-80862890D01*
X147020087Y-80862890D02*
X147020087Y-80934319D01*
X147020087Y-80934319D02*
X146996278Y-80981938D01*
X146996278Y-80981938D02*
X146972468Y-81005747D01*
X146972468Y-81005747D02*
X146924849Y-81029557D01*
X146924849Y-81029557D02*
X146734373Y-81029557D01*
X147186754Y-80767652D02*
X147520087Y-80767652D01*
X147520087Y-80767652D02*
X147305802Y-81267652D01*
X74528490Y-83083333D02*
X74552300Y-83107142D01*
X74552300Y-83107142D02*
X74576109Y-83178571D01*
X74576109Y-83178571D02*
X74576109Y-83226190D01*
X74576109Y-83226190D02*
X74552300Y-83297618D01*
X74552300Y-83297618D02*
X74504680Y-83345237D01*
X74504680Y-83345237D02*
X74457061Y-83369047D01*
X74457061Y-83369047D02*
X74361823Y-83392856D01*
X74361823Y-83392856D02*
X74290395Y-83392856D01*
X74290395Y-83392856D02*
X74195157Y-83369047D01*
X74195157Y-83369047D02*
X74147538Y-83345237D01*
X74147538Y-83345237D02*
X74099919Y-83297618D01*
X74099919Y-83297618D02*
X74076109Y-83226190D01*
X74076109Y-83226190D02*
X74076109Y-83178571D01*
X74076109Y-83178571D02*
X74099919Y-83107142D01*
X74099919Y-83107142D02*
X74123728Y-83083333D01*
X74242776Y-82654761D02*
X74576109Y-82654761D01*
X74052300Y-82773809D02*
X74409442Y-82892856D01*
X74409442Y-82892856D02*
X74409442Y-82583333D01*
X79878571Y-75876109D02*
X79711905Y-75638014D01*
X79592857Y-75876109D02*
X79592857Y-75376109D01*
X79592857Y-75376109D02*
X79783333Y-75376109D01*
X79783333Y-75376109D02*
X79830952Y-75399919D01*
X79830952Y-75399919D02*
X79854762Y-75423728D01*
X79854762Y-75423728D02*
X79878571Y-75471347D01*
X79878571Y-75471347D02*
X79878571Y-75542776D01*
X79878571Y-75542776D02*
X79854762Y-75590395D01*
X79854762Y-75590395D02*
X79830952Y-75614204D01*
X79830952Y-75614204D02*
X79783333Y-75638014D01*
X79783333Y-75638014D02*
X79592857Y-75638014D01*
X80354762Y-75876109D02*
X80069048Y-75876109D01*
X80211905Y-75876109D02*
X80211905Y-75376109D01*
X80211905Y-75376109D02*
X80164286Y-75447538D01*
X80164286Y-75447538D02*
X80116667Y-75495157D01*
X80116667Y-75495157D02*
X80069048Y-75518966D01*
X80592857Y-75876109D02*
X80688095Y-75876109D01*
X80688095Y-75876109D02*
X80735714Y-75852300D01*
X80735714Y-75852300D02*
X80759523Y-75828490D01*
X80759523Y-75828490D02*
X80807142Y-75757061D01*
X80807142Y-75757061D02*
X80830952Y-75661823D01*
X80830952Y-75661823D02*
X80830952Y-75471347D01*
X80830952Y-75471347D02*
X80807142Y-75423728D01*
X80807142Y-75423728D02*
X80783333Y-75399919D01*
X80783333Y-75399919D02*
X80735714Y-75376109D01*
X80735714Y-75376109D02*
X80640476Y-75376109D01*
X80640476Y-75376109D02*
X80592857Y-75399919D01*
X80592857Y-75399919D02*
X80569047Y-75423728D01*
X80569047Y-75423728D02*
X80545238Y-75471347D01*
X80545238Y-75471347D02*
X80545238Y-75590395D01*
X80545238Y-75590395D02*
X80569047Y-75638014D01*
X80569047Y-75638014D02*
X80592857Y-75661823D01*
X80592857Y-75661823D02*
X80640476Y-75685633D01*
X80640476Y-75685633D02*
X80735714Y-75685633D01*
X80735714Y-75685633D02*
X80783333Y-75661823D01*
X80783333Y-75661823D02*
X80807142Y-75638014D01*
X80807142Y-75638014D02*
X80830952Y-75590395D01*
X137011881Y-75943986D02*
X136988072Y-75967796D01*
X136988072Y-75967796D02*
X136916643Y-75991605D01*
X136916643Y-75991605D02*
X136869024Y-75991605D01*
X136869024Y-75991605D02*
X136797596Y-75967796D01*
X136797596Y-75967796D02*
X136749977Y-75920176D01*
X136749977Y-75920176D02*
X136726167Y-75872557D01*
X136726167Y-75872557D02*
X136702358Y-75777319D01*
X136702358Y-75777319D02*
X136702358Y-75705891D01*
X136702358Y-75705891D02*
X136726167Y-75610653D01*
X136726167Y-75610653D02*
X136749977Y-75563034D01*
X136749977Y-75563034D02*
X136797596Y-75515415D01*
X136797596Y-75515415D02*
X136869024Y-75491605D01*
X136869024Y-75491605D02*
X136916643Y-75491605D01*
X136916643Y-75491605D02*
X136988072Y-75515415D01*
X136988072Y-75515415D02*
X137011881Y-75539224D01*
X137488072Y-75991605D02*
X137202358Y-75991605D01*
X137345215Y-75991605D02*
X137345215Y-75491605D01*
X137345215Y-75491605D02*
X137297596Y-75563034D01*
X137297596Y-75563034D02*
X137249977Y-75610653D01*
X137249977Y-75610653D02*
X137202358Y-75634462D01*
X137654738Y-75491605D02*
X137988071Y-75491605D01*
X137988071Y-75491605D02*
X137773786Y-75991605D01*
X134723466Y-75965463D02*
X134723466Y-76370225D01*
X134723466Y-76370225D02*
X134747276Y-76417844D01*
X134747276Y-76417844D02*
X134771085Y-76441654D01*
X134771085Y-76441654D02*
X134818704Y-76465463D01*
X134818704Y-76465463D02*
X134913942Y-76465463D01*
X134913942Y-76465463D02*
X134961561Y-76441654D01*
X134961561Y-76441654D02*
X134985371Y-76417844D01*
X134985371Y-76417844D02*
X135009180Y-76370225D01*
X135009180Y-76370225D02*
X135009180Y-75965463D01*
X135318705Y-76179749D02*
X135271086Y-76155939D01*
X135271086Y-76155939D02*
X135247276Y-76132130D01*
X135247276Y-76132130D02*
X135223467Y-76084511D01*
X135223467Y-76084511D02*
X135223467Y-76060701D01*
X135223467Y-76060701D02*
X135247276Y-76013082D01*
X135247276Y-76013082D02*
X135271086Y-75989273D01*
X135271086Y-75989273D02*
X135318705Y-75965463D01*
X135318705Y-75965463D02*
X135413943Y-75965463D01*
X135413943Y-75965463D02*
X135461562Y-75989273D01*
X135461562Y-75989273D02*
X135485371Y-76013082D01*
X135485371Y-76013082D02*
X135509181Y-76060701D01*
X135509181Y-76060701D02*
X135509181Y-76084511D01*
X135509181Y-76084511D02*
X135485371Y-76132130D01*
X135485371Y-76132130D02*
X135461562Y-76155939D01*
X135461562Y-76155939D02*
X135413943Y-76179749D01*
X135413943Y-76179749D02*
X135318705Y-76179749D01*
X135318705Y-76179749D02*
X135271086Y-76203558D01*
X135271086Y-76203558D02*
X135247276Y-76227368D01*
X135247276Y-76227368D02*
X135223467Y-76274987D01*
X135223467Y-76274987D02*
X135223467Y-76370225D01*
X135223467Y-76370225D02*
X135247276Y-76417844D01*
X135247276Y-76417844D02*
X135271086Y-76441654D01*
X135271086Y-76441654D02*
X135318705Y-76465463D01*
X135318705Y-76465463D02*
X135413943Y-76465463D01*
X135413943Y-76465463D02*
X135461562Y-76441654D01*
X135461562Y-76441654D02*
X135485371Y-76417844D01*
X135485371Y-76417844D02*
X135509181Y-76370225D01*
X135509181Y-76370225D02*
X135509181Y-76274987D01*
X135509181Y-76274987D02*
X135485371Y-76227368D01*
X135485371Y-76227368D02*
X135461562Y-76203558D01*
X135461562Y-76203558D02*
X135413943Y-76179749D01*
X149591641Y-75803646D02*
X149567832Y-75827456D01*
X149567832Y-75827456D02*
X149496403Y-75851265D01*
X149496403Y-75851265D02*
X149448784Y-75851265D01*
X149448784Y-75851265D02*
X149377356Y-75827456D01*
X149377356Y-75827456D02*
X149329737Y-75779836D01*
X149329737Y-75779836D02*
X149305927Y-75732217D01*
X149305927Y-75732217D02*
X149282118Y-75636979D01*
X149282118Y-75636979D02*
X149282118Y-75565551D01*
X149282118Y-75565551D02*
X149305927Y-75470313D01*
X149305927Y-75470313D02*
X149329737Y-75422694D01*
X149329737Y-75422694D02*
X149377356Y-75375075D01*
X149377356Y-75375075D02*
X149448784Y-75351265D01*
X149448784Y-75351265D02*
X149496403Y-75351265D01*
X149496403Y-75351265D02*
X149567832Y-75375075D01*
X149567832Y-75375075D02*
X149591641Y-75398884D01*
X150067832Y-75851265D02*
X149782118Y-75851265D01*
X149924975Y-75851265D02*
X149924975Y-75351265D01*
X149924975Y-75351265D02*
X149877356Y-75422694D01*
X149877356Y-75422694D02*
X149829737Y-75470313D01*
X149829737Y-75470313D02*
X149782118Y-75494122D01*
X150258308Y-75398884D02*
X150282117Y-75375075D01*
X150282117Y-75375075D02*
X150329736Y-75351265D01*
X150329736Y-75351265D02*
X150448784Y-75351265D01*
X150448784Y-75351265D02*
X150496403Y-75375075D01*
X150496403Y-75375075D02*
X150520212Y-75398884D01*
X150520212Y-75398884D02*
X150544022Y-75446503D01*
X150544022Y-75446503D02*
X150544022Y-75494122D01*
X150544022Y-75494122D02*
X150520212Y-75565551D01*
X150520212Y-75565551D02*
X150234498Y-75851265D01*
X150234498Y-75851265D02*
X150544022Y-75851265D01*
X121316568Y-75736924D02*
X121292759Y-75760734D01*
X121292759Y-75760734D02*
X121221330Y-75784543D01*
X121221330Y-75784543D02*
X121173711Y-75784543D01*
X121173711Y-75784543D02*
X121102283Y-75760734D01*
X121102283Y-75760734D02*
X121054664Y-75713114D01*
X121054664Y-75713114D02*
X121030854Y-75665495D01*
X121030854Y-75665495D02*
X121007045Y-75570257D01*
X121007045Y-75570257D02*
X121007045Y-75498829D01*
X121007045Y-75498829D02*
X121030854Y-75403591D01*
X121030854Y-75403591D02*
X121054664Y-75355972D01*
X121054664Y-75355972D02*
X121102283Y-75308353D01*
X121102283Y-75308353D02*
X121173711Y-75284543D01*
X121173711Y-75284543D02*
X121221330Y-75284543D01*
X121221330Y-75284543D02*
X121292759Y-75308353D01*
X121292759Y-75308353D02*
X121316568Y-75332162D01*
X121792759Y-75784543D02*
X121507045Y-75784543D01*
X121649902Y-75784543D02*
X121649902Y-75284543D01*
X121649902Y-75284543D02*
X121602283Y-75355972D01*
X121602283Y-75355972D02*
X121554664Y-75403591D01*
X121554664Y-75403591D02*
X121507045Y-75427400D01*
X122221330Y-75284543D02*
X122126092Y-75284543D01*
X122126092Y-75284543D02*
X122078473Y-75308353D01*
X122078473Y-75308353D02*
X122054663Y-75332162D01*
X122054663Y-75332162D02*
X122007044Y-75403591D01*
X122007044Y-75403591D02*
X121983235Y-75498829D01*
X121983235Y-75498829D02*
X121983235Y-75689305D01*
X121983235Y-75689305D02*
X122007044Y-75736924D01*
X122007044Y-75736924D02*
X122030854Y-75760734D01*
X122030854Y-75760734D02*
X122078473Y-75784543D01*
X122078473Y-75784543D02*
X122173711Y-75784543D01*
X122173711Y-75784543D02*
X122221330Y-75760734D01*
X122221330Y-75760734D02*
X122245139Y-75736924D01*
X122245139Y-75736924D02*
X122268949Y-75689305D01*
X122268949Y-75689305D02*
X122268949Y-75570257D01*
X122268949Y-75570257D02*
X122245139Y-75522638D01*
X122245139Y-75522638D02*
X122221330Y-75498829D01*
X122221330Y-75498829D02*
X122173711Y-75475019D01*
X122173711Y-75475019D02*
X122078473Y-75475019D01*
X122078473Y-75475019D02*
X122030854Y-75498829D01*
X122030854Y-75498829D02*
X122007044Y-75522638D01*
X122007044Y-75522638D02*
X121983235Y-75570257D01*
X147035718Y-77272538D02*
X146869052Y-77034443D01*
X146750004Y-77272538D02*
X146750004Y-76772538D01*
X146750004Y-76772538D02*
X146940480Y-76772538D01*
X146940480Y-76772538D02*
X146988099Y-76796348D01*
X146988099Y-76796348D02*
X147011909Y-76820157D01*
X147011909Y-76820157D02*
X147035718Y-76867776D01*
X147035718Y-76867776D02*
X147035718Y-76939205D01*
X147035718Y-76939205D02*
X147011909Y-76986824D01*
X147011909Y-76986824D02*
X146988099Y-77010633D01*
X146988099Y-77010633D02*
X146940480Y-77034443D01*
X146940480Y-77034443D02*
X146750004Y-77034443D01*
X147273814Y-77272538D02*
X147369052Y-77272538D01*
X147369052Y-77272538D02*
X147416671Y-77248729D01*
X147416671Y-77248729D02*
X147440480Y-77224919D01*
X147440480Y-77224919D02*
X147488099Y-77153490D01*
X147488099Y-77153490D02*
X147511909Y-77058252D01*
X147511909Y-77058252D02*
X147511909Y-76867776D01*
X147511909Y-76867776D02*
X147488099Y-76820157D01*
X147488099Y-76820157D02*
X147464290Y-76796348D01*
X147464290Y-76796348D02*
X147416671Y-76772538D01*
X147416671Y-76772538D02*
X147321433Y-76772538D01*
X147321433Y-76772538D02*
X147273814Y-76796348D01*
X147273814Y-76796348D02*
X147250004Y-76820157D01*
X147250004Y-76820157D02*
X147226195Y-76867776D01*
X147226195Y-76867776D02*
X147226195Y-76986824D01*
X147226195Y-76986824D02*
X147250004Y-77034443D01*
X147250004Y-77034443D02*
X147273814Y-77058252D01*
X147273814Y-77058252D02*
X147321433Y-77082062D01*
X147321433Y-77082062D02*
X147416671Y-77082062D01*
X147416671Y-77082062D02*
X147464290Y-77058252D01*
X147464290Y-77058252D02*
X147488099Y-77034443D01*
X147488099Y-77034443D02*
X147511909Y-76986824D01*
X68128490Y-79371428D02*
X68152300Y-79395237D01*
X68152300Y-79395237D02*
X68176109Y-79466666D01*
X68176109Y-79466666D02*
X68176109Y-79514285D01*
X68176109Y-79514285D02*
X68152300Y-79585713D01*
X68152300Y-79585713D02*
X68104680Y-79633332D01*
X68104680Y-79633332D02*
X68057061Y-79657142D01*
X68057061Y-79657142D02*
X67961823Y-79680951D01*
X67961823Y-79680951D02*
X67890395Y-79680951D01*
X67890395Y-79680951D02*
X67795157Y-79657142D01*
X67795157Y-79657142D02*
X67747538Y-79633332D01*
X67747538Y-79633332D02*
X67699919Y-79585713D01*
X67699919Y-79585713D02*
X67676109Y-79514285D01*
X67676109Y-79514285D02*
X67676109Y-79466666D01*
X67676109Y-79466666D02*
X67699919Y-79395237D01*
X67699919Y-79395237D02*
X67723728Y-79371428D01*
X67723728Y-79180951D02*
X67699919Y-79157142D01*
X67699919Y-79157142D02*
X67676109Y-79109523D01*
X67676109Y-79109523D02*
X67676109Y-78990475D01*
X67676109Y-78990475D02*
X67699919Y-78942856D01*
X67699919Y-78942856D02*
X67723728Y-78919047D01*
X67723728Y-78919047D02*
X67771347Y-78895237D01*
X67771347Y-78895237D02*
X67818966Y-78895237D01*
X67818966Y-78895237D02*
X67890395Y-78919047D01*
X67890395Y-78919047D02*
X68176109Y-79204761D01*
X68176109Y-79204761D02*
X68176109Y-78895237D01*
X67676109Y-78585714D02*
X67676109Y-78538095D01*
X67676109Y-78538095D02*
X67699919Y-78490476D01*
X67699919Y-78490476D02*
X67723728Y-78466666D01*
X67723728Y-78466666D02*
X67771347Y-78442857D01*
X67771347Y-78442857D02*
X67866585Y-78419047D01*
X67866585Y-78419047D02*
X67985633Y-78419047D01*
X67985633Y-78419047D02*
X68080871Y-78442857D01*
X68080871Y-78442857D02*
X68128490Y-78466666D01*
X68128490Y-78466666D02*
X68152300Y-78490476D01*
X68152300Y-78490476D02*
X68176109Y-78538095D01*
X68176109Y-78538095D02*
X68176109Y-78585714D01*
X68176109Y-78585714D02*
X68152300Y-78633333D01*
X68152300Y-78633333D02*
X68128490Y-78657142D01*
X68128490Y-78657142D02*
X68080871Y-78680952D01*
X68080871Y-78680952D02*
X67985633Y-78704761D01*
X67985633Y-78704761D02*
X67866585Y-78704761D01*
X67866585Y-78704761D02*
X67771347Y-78680952D01*
X67771347Y-78680952D02*
X67723728Y-78657142D01*
X67723728Y-78657142D02*
X67699919Y-78633333D01*
X67699919Y-78633333D02*
X67676109Y-78585714D01*
X153482101Y-76331795D02*
X153482101Y-75831795D01*
X153482101Y-75831795D02*
X153601149Y-75831795D01*
X153601149Y-75831795D02*
X153672577Y-75855605D01*
X153672577Y-75855605D02*
X153720196Y-75903224D01*
X153720196Y-75903224D02*
X153744006Y-75950843D01*
X153744006Y-75950843D02*
X153767815Y-76046081D01*
X153767815Y-76046081D02*
X153767815Y-76117509D01*
X153767815Y-76117509D02*
X153744006Y-76212747D01*
X153744006Y-76212747D02*
X153720196Y-76260366D01*
X153720196Y-76260366D02*
X153672577Y-76307986D01*
X153672577Y-76307986D02*
X153601149Y-76331795D01*
X153601149Y-76331795D02*
X153482101Y-76331795D01*
X153958292Y-75879414D02*
X153982101Y-75855605D01*
X153982101Y-75855605D02*
X154029720Y-75831795D01*
X154029720Y-75831795D02*
X154148768Y-75831795D01*
X154148768Y-75831795D02*
X154196387Y-75855605D01*
X154196387Y-75855605D02*
X154220196Y-75879414D01*
X154220196Y-75879414D02*
X154244006Y-75927033D01*
X154244006Y-75927033D02*
X154244006Y-75974652D01*
X154244006Y-75974652D02*
X154220196Y-76046081D01*
X154220196Y-76046081D02*
X153934482Y-76331795D01*
X153934482Y-76331795D02*
X154244006Y-76331795D01*
X145577889Y-75695277D02*
X145411223Y-75457182D01*
X145292175Y-75695277D02*
X145292175Y-75195277D01*
X145292175Y-75195277D02*
X145482651Y-75195277D01*
X145482651Y-75195277D02*
X145530270Y-75219087D01*
X145530270Y-75219087D02*
X145554080Y-75242896D01*
X145554080Y-75242896D02*
X145577889Y-75290515D01*
X145577889Y-75290515D02*
X145577889Y-75361944D01*
X145577889Y-75361944D02*
X145554080Y-75409563D01*
X145554080Y-75409563D02*
X145530270Y-75433372D01*
X145530270Y-75433372D02*
X145482651Y-75457182D01*
X145482651Y-75457182D02*
X145292175Y-75457182D01*
X146054080Y-75695277D02*
X145768366Y-75695277D01*
X145911223Y-75695277D02*
X145911223Y-75195277D01*
X145911223Y-75195277D02*
X145863604Y-75266706D01*
X145863604Y-75266706D02*
X145815985Y-75314325D01*
X145815985Y-75314325D02*
X145768366Y-75338134D01*
X146244556Y-75242896D02*
X146268365Y-75219087D01*
X146268365Y-75219087D02*
X146315984Y-75195277D01*
X146315984Y-75195277D02*
X146435032Y-75195277D01*
X146435032Y-75195277D02*
X146482651Y-75219087D01*
X146482651Y-75219087D02*
X146506460Y-75242896D01*
X146506460Y-75242896D02*
X146530270Y-75290515D01*
X146530270Y-75290515D02*
X146530270Y-75338134D01*
X146530270Y-75338134D02*
X146506460Y-75409563D01*
X146506460Y-75409563D02*
X146220746Y-75695277D01*
X146220746Y-75695277D02*
X146530270Y-75695277D01*
X132032316Y-81795640D02*
X131865650Y-81557545D01*
X131746602Y-81795640D02*
X131746602Y-81295640D01*
X131746602Y-81295640D02*
X131937078Y-81295640D01*
X131937078Y-81295640D02*
X131984697Y-81319450D01*
X131984697Y-81319450D02*
X132008507Y-81343259D01*
X132008507Y-81343259D02*
X132032316Y-81390878D01*
X132032316Y-81390878D02*
X132032316Y-81462307D01*
X132032316Y-81462307D02*
X132008507Y-81509926D01*
X132008507Y-81509926D02*
X131984697Y-81533735D01*
X131984697Y-81533735D02*
X131937078Y-81557545D01*
X131937078Y-81557545D02*
X131746602Y-81557545D01*
X132508507Y-81795640D02*
X132222793Y-81795640D01*
X132365650Y-81795640D02*
X132365650Y-81295640D01*
X132365650Y-81295640D02*
X132318031Y-81367069D01*
X132318031Y-81367069D02*
X132270412Y-81414688D01*
X132270412Y-81414688D02*
X132222793Y-81438497D01*
X132960887Y-81295640D02*
X132722792Y-81295640D01*
X132722792Y-81295640D02*
X132698983Y-81533735D01*
X132698983Y-81533735D02*
X132722792Y-81509926D01*
X132722792Y-81509926D02*
X132770411Y-81486116D01*
X132770411Y-81486116D02*
X132889459Y-81486116D01*
X132889459Y-81486116D02*
X132937078Y-81509926D01*
X132937078Y-81509926D02*
X132960887Y-81533735D01*
X132960887Y-81533735D02*
X132984697Y-81581354D01*
X132984697Y-81581354D02*
X132984697Y-81700402D01*
X132984697Y-81700402D02*
X132960887Y-81748021D01*
X132960887Y-81748021D02*
X132937078Y-81771831D01*
X132937078Y-81771831D02*
X132889459Y-81795640D01*
X132889459Y-81795640D02*
X132770411Y-81795640D01*
X132770411Y-81795640D02*
X132722792Y-81771831D01*
X132722792Y-81771831D02*
X132698983Y-81748021D01*
X77228490Y-77883333D02*
X77252300Y-77907142D01*
X77252300Y-77907142D02*
X77276109Y-77978571D01*
X77276109Y-77978571D02*
X77276109Y-78026190D01*
X77276109Y-78026190D02*
X77252300Y-78097618D01*
X77252300Y-78097618D02*
X77204680Y-78145237D01*
X77204680Y-78145237D02*
X77157061Y-78169047D01*
X77157061Y-78169047D02*
X77061823Y-78192856D01*
X77061823Y-78192856D02*
X76990395Y-78192856D01*
X76990395Y-78192856D02*
X76895157Y-78169047D01*
X76895157Y-78169047D02*
X76847538Y-78145237D01*
X76847538Y-78145237D02*
X76799919Y-78097618D01*
X76799919Y-78097618D02*
X76776109Y-78026190D01*
X76776109Y-78026190D02*
X76776109Y-77978571D01*
X76776109Y-77978571D02*
X76799919Y-77907142D01*
X76799919Y-77907142D02*
X76823728Y-77883333D01*
X76823728Y-77692856D02*
X76799919Y-77669047D01*
X76799919Y-77669047D02*
X76776109Y-77621428D01*
X76776109Y-77621428D02*
X76776109Y-77502380D01*
X76776109Y-77502380D02*
X76799919Y-77454761D01*
X76799919Y-77454761D02*
X76823728Y-77430952D01*
X76823728Y-77430952D02*
X76871347Y-77407142D01*
X76871347Y-77407142D02*
X76918966Y-77407142D01*
X76918966Y-77407142D02*
X76990395Y-77430952D01*
X76990395Y-77430952D02*
X77276109Y-77716666D01*
X77276109Y-77716666D02*
X77276109Y-77407142D01*
X149406833Y-81475285D02*
X149240167Y-81237190D01*
X149121119Y-81475285D02*
X149121119Y-80975285D01*
X149121119Y-80975285D02*
X149311595Y-80975285D01*
X149311595Y-80975285D02*
X149359214Y-80999095D01*
X149359214Y-80999095D02*
X149383024Y-81022904D01*
X149383024Y-81022904D02*
X149406833Y-81070523D01*
X149406833Y-81070523D02*
X149406833Y-81141952D01*
X149406833Y-81141952D02*
X149383024Y-81189571D01*
X149383024Y-81189571D02*
X149359214Y-81213380D01*
X149359214Y-81213380D02*
X149311595Y-81237190D01*
X149311595Y-81237190D02*
X149121119Y-81237190D01*
X149692548Y-81189571D02*
X149644929Y-81165761D01*
X149644929Y-81165761D02*
X149621119Y-81141952D01*
X149621119Y-81141952D02*
X149597310Y-81094333D01*
X149597310Y-81094333D02*
X149597310Y-81070523D01*
X149597310Y-81070523D02*
X149621119Y-81022904D01*
X149621119Y-81022904D02*
X149644929Y-80999095D01*
X149644929Y-80999095D02*
X149692548Y-80975285D01*
X149692548Y-80975285D02*
X149787786Y-80975285D01*
X149787786Y-80975285D02*
X149835405Y-80999095D01*
X149835405Y-80999095D02*
X149859214Y-81022904D01*
X149859214Y-81022904D02*
X149883024Y-81070523D01*
X149883024Y-81070523D02*
X149883024Y-81094333D01*
X149883024Y-81094333D02*
X149859214Y-81141952D01*
X149859214Y-81141952D02*
X149835405Y-81165761D01*
X149835405Y-81165761D02*
X149787786Y-81189571D01*
X149787786Y-81189571D02*
X149692548Y-81189571D01*
X149692548Y-81189571D02*
X149644929Y-81213380D01*
X149644929Y-81213380D02*
X149621119Y-81237190D01*
X149621119Y-81237190D02*
X149597310Y-81284809D01*
X149597310Y-81284809D02*
X149597310Y-81380047D01*
X149597310Y-81380047D02*
X149621119Y-81427666D01*
X149621119Y-81427666D02*
X149644929Y-81451476D01*
X149644929Y-81451476D02*
X149692548Y-81475285D01*
X149692548Y-81475285D02*
X149787786Y-81475285D01*
X149787786Y-81475285D02*
X149835405Y-81451476D01*
X149835405Y-81451476D02*
X149859214Y-81427666D01*
X149859214Y-81427666D02*
X149883024Y-81380047D01*
X149883024Y-81380047D02*
X149883024Y-81284809D01*
X149883024Y-81284809D02*
X149859214Y-81237190D01*
X149859214Y-81237190D02*
X149835405Y-81213380D01*
X149835405Y-81213380D02*
X149787786Y-81189571D01*
X140709363Y-82597516D02*
X140661744Y-82573707D01*
X140661744Y-82573707D02*
X140614125Y-82526088D01*
X140614125Y-82526088D02*
X140542697Y-82454659D01*
X140542697Y-82454659D02*
X140495078Y-82430849D01*
X140495078Y-82430849D02*
X140447459Y-82430849D01*
X140471268Y-82549897D02*
X140423649Y-82526088D01*
X140423649Y-82526088D02*
X140376030Y-82478468D01*
X140376030Y-82478468D02*
X140352221Y-82383230D01*
X140352221Y-82383230D02*
X140352221Y-82216564D01*
X140352221Y-82216564D02*
X140376030Y-82121326D01*
X140376030Y-82121326D02*
X140423649Y-82073707D01*
X140423649Y-82073707D02*
X140471268Y-82049897D01*
X140471268Y-82049897D02*
X140566506Y-82049897D01*
X140566506Y-82049897D02*
X140614125Y-82073707D01*
X140614125Y-82073707D02*
X140661744Y-82121326D01*
X140661744Y-82121326D02*
X140685554Y-82216564D01*
X140685554Y-82216564D02*
X140685554Y-82383230D01*
X140685554Y-82383230D02*
X140661744Y-82478468D01*
X140661744Y-82478468D02*
X140614125Y-82526088D01*
X140614125Y-82526088D02*
X140566506Y-82549897D01*
X140566506Y-82549897D02*
X140471268Y-82549897D01*
X141114126Y-82216564D02*
X141114126Y-82549897D01*
X140995078Y-82026088D02*
X140876031Y-82383230D01*
X140876031Y-82383230D02*
X141185554Y-82383230D01*
X75276109Y-77283333D02*
X75038014Y-77449999D01*
X75276109Y-77569047D02*
X74776109Y-77569047D01*
X74776109Y-77569047D02*
X74776109Y-77378571D01*
X74776109Y-77378571D02*
X74799919Y-77330952D01*
X74799919Y-77330952D02*
X74823728Y-77307142D01*
X74823728Y-77307142D02*
X74871347Y-77283333D01*
X74871347Y-77283333D02*
X74942776Y-77283333D01*
X74942776Y-77283333D02*
X74990395Y-77307142D01*
X74990395Y-77307142D02*
X75014204Y-77330952D01*
X75014204Y-77330952D02*
X75038014Y-77378571D01*
X75038014Y-77378571D02*
X75038014Y-77569047D01*
X74823728Y-77092856D02*
X74799919Y-77069047D01*
X74799919Y-77069047D02*
X74776109Y-77021428D01*
X74776109Y-77021428D02*
X74776109Y-76902380D01*
X74776109Y-76902380D02*
X74799919Y-76854761D01*
X74799919Y-76854761D02*
X74823728Y-76830952D01*
X74823728Y-76830952D02*
X74871347Y-76807142D01*
X74871347Y-76807142D02*
X74918966Y-76807142D01*
X74918966Y-76807142D02*
X74990395Y-76830952D01*
X74990395Y-76830952D02*
X75276109Y-77116666D01*
X75276109Y-77116666D02*
X75276109Y-76807142D01*
X129419000Y-78628827D02*
X129395191Y-78652637D01*
X129395191Y-78652637D02*
X129323762Y-78676446D01*
X129323762Y-78676446D02*
X129276143Y-78676446D01*
X129276143Y-78676446D02*
X129204715Y-78652637D01*
X129204715Y-78652637D02*
X129157096Y-78605017D01*
X129157096Y-78605017D02*
X129133286Y-78557398D01*
X129133286Y-78557398D02*
X129109477Y-78462160D01*
X129109477Y-78462160D02*
X129109477Y-78390732D01*
X129109477Y-78390732D02*
X129133286Y-78295494D01*
X129133286Y-78295494D02*
X129157096Y-78247875D01*
X129157096Y-78247875D02*
X129204715Y-78200256D01*
X129204715Y-78200256D02*
X129276143Y-78176446D01*
X129276143Y-78176446D02*
X129323762Y-78176446D01*
X129323762Y-78176446D02*
X129395191Y-78200256D01*
X129395191Y-78200256D02*
X129419000Y-78224065D01*
X129895191Y-78676446D02*
X129609477Y-78676446D01*
X129752334Y-78676446D02*
X129752334Y-78176446D01*
X129752334Y-78176446D02*
X129704715Y-78247875D01*
X129704715Y-78247875D02*
X129657096Y-78295494D01*
X129657096Y-78295494D02*
X129609477Y-78319303D01*
X130347571Y-78176446D02*
X130109476Y-78176446D01*
X130109476Y-78176446D02*
X130085667Y-78414541D01*
X130085667Y-78414541D02*
X130109476Y-78390732D01*
X130109476Y-78390732D02*
X130157095Y-78366922D01*
X130157095Y-78366922D02*
X130276143Y-78366922D01*
X130276143Y-78366922D02*
X130323762Y-78390732D01*
X130323762Y-78390732D02*
X130347571Y-78414541D01*
X130347571Y-78414541D02*
X130371381Y-78462160D01*
X130371381Y-78462160D02*
X130371381Y-78581208D01*
X130371381Y-78581208D02*
X130347571Y-78628827D01*
X130347571Y-78628827D02*
X130323762Y-78652637D01*
X130323762Y-78652637D02*
X130276143Y-78676446D01*
X130276143Y-78676446D02*
X130157095Y-78676446D01*
X130157095Y-78676446D02*
X130109476Y-78652637D01*
X130109476Y-78652637D02*
X130085667Y-78628827D01*
X112866666Y-77428490D02*
X112842857Y-77452300D01*
X112842857Y-77452300D02*
X112771428Y-77476109D01*
X112771428Y-77476109D02*
X112723809Y-77476109D01*
X112723809Y-77476109D02*
X112652381Y-77452300D01*
X112652381Y-77452300D02*
X112604762Y-77404680D01*
X112604762Y-77404680D02*
X112580952Y-77357061D01*
X112580952Y-77357061D02*
X112557143Y-77261823D01*
X112557143Y-77261823D02*
X112557143Y-77190395D01*
X112557143Y-77190395D02*
X112580952Y-77095157D01*
X112580952Y-77095157D02*
X112604762Y-77047538D01*
X112604762Y-77047538D02*
X112652381Y-76999919D01*
X112652381Y-76999919D02*
X112723809Y-76976109D01*
X112723809Y-76976109D02*
X112771428Y-76976109D01*
X112771428Y-76976109D02*
X112842857Y-76999919D01*
X112842857Y-76999919D02*
X112866666Y-77023728D01*
X113104762Y-77476109D02*
X113200000Y-77476109D01*
X113200000Y-77476109D02*
X113247619Y-77452300D01*
X113247619Y-77452300D02*
X113271428Y-77428490D01*
X113271428Y-77428490D02*
X113319047Y-77357061D01*
X113319047Y-77357061D02*
X113342857Y-77261823D01*
X113342857Y-77261823D02*
X113342857Y-77071347D01*
X113342857Y-77071347D02*
X113319047Y-77023728D01*
X113319047Y-77023728D02*
X113295238Y-76999919D01*
X113295238Y-76999919D02*
X113247619Y-76976109D01*
X113247619Y-76976109D02*
X113152381Y-76976109D01*
X113152381Y-76976109D02*
X113104762Y-76999919D01*
X113104762Y-76999919D02*
X113080952Y-77023728D01*
X113080952Y-77023728D02*
X113057143Y-77071347D01*
X113057143Y-77071347D02*
X113057143Y-77190395D01*
X113057143Y-77190395D02*
X113080952Y-77238014D01*
X113080952Y-77238014D02*
X113104762Y-77261823D01*
X113104762Y-77261823D02*
X113152381Y-77285633D01*
X113152381Y-77285633D02*
X113247619Y-77285633D01*
X113247619Y-77285633D02*
X113295238Y-77261823D01*
X113295238Y-77261823D02*
X113319047Y-77238014D01*
X113319047Y-77238014D02*
X113342857Y-77190395D01*
X110438120Y-83441836D02*
X110414311Y-83465646D01*
X110414311Y-83465646D02*
X110342882Y-83489455D01*
X110342882Y-83489455D02*
X110295263Y-83489455D01*
X110295263Y-83489455D02*
X110223835Y-83465646D01*
X110223835Y-83465646D02*
X110176216Y-83418026D01*
X110176216Y-83418026D02*
X110152406Y-83370407D01*
X110152406Y-83370407D02*
X110128597Y-83275169D01*
X110128597Y-83275169D02*
X110128597Y-83203741D01*
X110128597Y-83203741D02*
X110152406Y-83108503D01*
X110152406Y-83108503D02*
X110176216Y-83060884D01*
X110176216Y-83060884D02*
X110223835Y-83013265D01*
X110223835Y-83013265D02*
X110295263Y-82989455D01*
X110295263Y-82989455D02*
X110342882Y-82989455D01*
X110342882Y-82989455D02*
X110414311Y-83013265D01*
X110414311Y-83013265D02*
X110438120Y-83037074D01*
X110914311Y-83489455D02*
X110628597Y-83489455D01*
X110771454Y-83489455D02*
X110771454Y-82989455D01*
X110771454Y-82989455D02*
X110723835Y-83060884D01*
X110723835Y-83060884D02*
X110676216Y-83108503D01*
X110676216Y-83108503D02*
X110628597Y-83132312D01*
X111390501Y-83489455D02*
X111104787Y-83489455D01*
X111247644Y-83489455D02*
X111247644Y-82989455D01*
X111247644Y-82989455D02*
X111200025Y-83060884D01*
X111200025Y-83060884D02*
X111152406Y-83108503D01*
X111152406Y-83108503D02*
X111104787Y-83132312D01*
X121278571Y-78052684D02*
X121111905Y-77814589D01*
X120992857Y-78052684D02*
X120992857Y-77552684D01*
X120992857Y-77552684D02*
X121183333Y-77552684D01*
X121183333Y-77552684D02*
X121230952Y-77576494D01*
X121230952Y-77576494D02*
X121254762Y-77600303D01*
X121254762Y-77600303D02*
X121278571Y-77647922D01*
X121278571Y-77647922D02*
X121278571Y-77719351D01*
X121278571Y-77719351D02*
X121254762Y-77766970D01*
X121254762Y-77766970D02*
X121230952Y-77790779D01*
X121230952Y-77790779D02*
X121183333Y-77814589D01*
X121183333Y-77814589D02*
X120992857Y-77814589D01*
X121754762Y-78052684D02*
X121469048Y-78052684D01*
X121611905Y-78052684D02*
X121611905Y-77552684D01*
X121611905Y-77552684D02*
X121564286Y-77624113D01*
X121564286Y-77624113D02*
X121516667Y-77671732D01*
X121516667Y-77671732D02*
X121469048Y-77695541D01*
X122040476Y-77766970D02*
X121992857Y-77743160D01*
X121992857Y-77743160D02*
X121969047Y-77719351D01*
X121969047Y-77719351D02*
X121945238Y-77671732D01*
X121945238Y-77671732D02*
X121945238Y-77647922D01*
X121945238Y-77647922D02*
X121969047Y-77600303D01*
X121969047Y-77600303D02*
X121992857Y-77576494D01*
X121992857Y-77576494D02*
X122040476Y-77552684D01*
X122040476Y-77552684D02*
X122135714Y-77552684D01*
X122135714Y-77552684D02*
X122183333Y-77576494D01*
X122183333Y-77576494D02*
X122207142Y-77600303D01*
X122207142Y-77600303D02*
X122230952Y-77647922D01*
X122230952Y-77647922D02*
X122230952Y-77671732D01*
X122230952Y-77671732D02*
X122207142Y-77719351D01*
X122207142Y-77719351D02*
X122183333Y-77743160D01*
X122183333Y-77743160D02*
X122135714Y-77766970D01*
X122135714Y-77766970D02*
X122040476Y-77766970D01*
X122040476Y-77766970D02*
X121992857Y-77790779D01*
X121992857Y-77790779D02*
X121969047Y-77814589D01*
X121969047Y-77814589D02*
X121945238Y-77862208D01*
X121945238Y-77862208D02*
X121945238Y-77957446D01*
X121945238Y-77957446D02*
X121969047Y-78005065D01*
X121969047Y-78005065D02*
X121992857Y-78028875D01*
X121992857Y-78028875D02*
X122040476Y-78052684D01*
X122040476Y-78052684D02*
X122135714Y-78052684D01*
X122135714Y-78052684D02*
X122183333Y-78028875D01*
X122183333Y-78028875D02*
X122207142Y-78005065D01*
X122207142Y-78005065D02*
X122230952Y-77957446D01*
X122230952Y-77957446D02*
X122230952Y-77862208D01*
X122230952Y-77862208D02*
X122207142Y-77814589D01*
X122207142Y-77814589D02*
X122183333Y-77790779D01*
X122183333Y-77790779D02*
X122135714Y-77766970D01*
X146994007Y-79854170D02*
X146827341Y-79616075D01*
X146708293Y-79854170D02*
X146708293Y-79354170D01*
X146708293Y-79354170D02*
X146898769Y-79354170D01*
X146898769Y-79354170D02*
X146946388Y-79377980D01*
X146946388Y-79377980D02*
X146970198Y-79401789D01*
X146970198Y-79401789D02*
X146994007Y-79449408D01*
X146994007Y-79449408D02*
X146994007Y-79520837D01*
X146994007Y-79520837D02*
X146970198Y-79568456D01*
X146970198Y-79568456D02*
X146946388Y-79592265D01*
X146946388Y-79592265D02*
X146898769Y-79616075D01*
X146898769Y-79616075D02*
X146708293Y-79616075D01*
X147470198Y-79854170D02*
X147184484Y-79854170D01*
X147327341Y-79854170D02*
X147327341Y-79354170D01*
X147327341Y-79354170D02*
X147279722Y-79425599D01*
X147279722Y-79425599D02*
X147232103Y-79473218D01*
X147232103Y-79473218D02*
X147184484Y-79497027D01*
X147946388Y-79854170D02*
X147660674Y-79854170D01*
X147803531Y-79854170D02*
X147803531Y-79354170D01*
X147803531Y-79354170D02*
X147755912Y-79425599D01*
X147755912Y-79425599D02*
X147708293Y-79473218D01*
X147708293Y-79473218D02*
X147660674Y-79497027D01*
X106370339Y-75293373D02*
X106370339Y-75698135D01*
X106370339Y-75698135D02*
X106394149Y-75745754D01*
X106394149Y-75745754D02*
X106417958Y-75769564D01*
X106417958Y-75769564D02*
X106465577Y-75793373D01*
X106465577Y-75793373D02*
X106560815Y-75793373D01*
X106560815Y-75793373D02*
X106608434Y-75769564D01*
X106608434Y-75769564D02*
X106632244Y-75745754D01*
X106632244Y-75745754D02*
X106656053Y-75698135D01*
X106656053Y-75698135D02*
X106656053Y-75293373D01*
X106846530Y-75293373D02*
X107156054Y-75293373D01*
X107156054Y-75293373D02*
X106989387Y-75483849D01*
X106989387Y-75483849D02*
X107060816Y-75483849D01*
X107060816Y-75483849D02*
X107108435Y-75507659D01*
X107108435Y-75507659D02*
X107132244Y-75531468D01*
X107132244Y-75531468D02*
X107156054Y-75579087D01*
X107156054Y-75579087D02*
X107156054Y-75698135D01*
X107156054Y-75698135D02*
X107132244Y-75745754D01*
X107132244Y-75745754D02*
X107108435Y-75769564D01*
X107108435Y-75769564D02*
X107060816Y-75793373D01*
X107060816Y-75793373D02*
X106917959Y-75793373D01*
X106917959Y-75793373D02*
X106870340Y-75769564D01*
X106870340Y-75769564D02*
X106846530Y-75745754D01*
X95558412Y-79173490D02*
X95534603Y-79197300D01*
X95534603Y-79197300D02*
X95463174Y-79221109D01*
X95463174Y-79221109D02*
X95415555Y-79221109D01*
X95415555Y-79221109D02*
X95344127Y-79197300D01*
X95344127Y-79197300D02*
X95296508Y-79149680D01*
X95296508Y-79149680D02*
X95272698Y-79102061D01*
X95272698Y-79102061D02*
X95248889Y-79006823D01*
X95248889Y-79006823D02*
X95248889Y-78935395D01*
X95248889Y-78935395D02*
X95272698Y-78840157D01*
X95272698Y-78840157D02*
X95296508Y-78792538D01*
X95296508Y-78792538D02*
X95344127Y-78744919D01*
X95344127Y-78744919D02*
X95415555Y-78721109D01*
X95415555Y-78721109D02*
X95463174Y-78721109D01*
X95463174Y-78721109D02*
X95534603Y-78744919D01*
X95534603Y-78744919D02*
X95558412Y-78768728D01*
X95986984Y-78721109D02*
X95891746Y-78721109D01*
X95891746Y-78721109D02*
X95844127Y-78744919D01*
X95844127Y-78744919D02*
X95820317Y-78768728D01*
X95820317Y-78768728D02*
X95772698Y-78840157D01*
X95772698Y-78840157D02*
X95748889Y-78935395D01*
X95748889Y-78935395D02*
X95748889Y-79125871D01*
X95748889Y-79125871D02*
X95772698Y-79173490D01*
X95772698Y-79173490D02*
X95796508Y-79197300D01*
X95796508Y-79197300D02*
X95844127Y-79221109D01*
X95844127Y-79221109D02*
X95939365Y-79221109D01*
X95939365Y-79221109D02*
X95986984Y-79197300D01*
X95986984Y-79197300D02*
X96010793Y-79173490D01*
X96010793Y-79173490D02*
X96034603Y-79125871D01*
X96034603Y-79125871D02*
X96034603Y-79006823D01*
X96034603Y-79006823D02*
X96010793Y-78959204D01*
X96010793Y-78959204D02*
X95986984Y-78935395D01*
X95986984Y-78935395D02*
X95939365Y-78911585D01*
X95939365Y-78911585D02*
X95844127Y-78911585D01*
X95844127Y-78911585D02*
X95796508Y-78935395D01*
X95796508Y-78935395D02*
X95772698Y-78959204D01*
X95772698Y-78959204D02*
X95748889Y-79006823D01*
X149290187Y-78055707D02*
X149290187Y-78460469D01*
X149290187Y-78460469D02*
X149313997Y-78508088D01*
X149313997Y-78508088D02*
X149337806Y-78531898D01*
X149337806Y-78531898D02*
X149385425Y-78555707D01*
X149385425Y-78555707D02*
X149480663Y-78555707D01*
X149480663Y-78555707D02*
X149528282Y-78531898D01*
X149528282Y-78531898D02*
X149552092Y-78508088D01*
X149552092Y-78508088D02*
X149575901Y-78460469D01*
X149575901Y-78460469D02*
X149575901Y-78055707D01*
X150028283Y-78222374D02*
X150028283Y-78555707D01*
X149909235Y-78031898D02*
X149790188Y-78389040D01*
X149790188Y-78389040D02*
X150099711Y-78389040D01*
X88016666Y-82928490D02*
X87992857Y-82952300D01*
X87992857Y-82952300D02*
X87921428Y-82976109D01*
X87921428Y-82976109D02*
X87873809Y-82976109D01*
X87873809Y-82976109D02*
X87802381Y-82952300D01*
X87802381Y-82952300D02*
X87754762Y-82904680D01*
X87754762Y-82904680D02*
X87730952Y-82857061D01*
X87730952Y-82857061D02*
X87707143Y-82761823D01*
X87707143Y-82761823D02*
X87707143Y-82690395D01*
X87707143Y-82690395D02*
X87730952Y-82595157D01*
X87730952Y-82595157D02*
X87754762Y-82547538D01*
X87754762Y-82547538D02*
X87802381Y-82499919D01*
X87802381Y-82499919D02*
X87873809Y-82476109D01*
X87873809Y-82476109D02*
X87921428Y-82476109D01*
X87921428Y-82476109D02*
X87992857Y-82499919D01*
X87992857Y-82499919D02*
X88016666Y-82523728D01*
X88183333Y-82476109D02*
X88516666Y-82476109D01*
X88516666Y-82476109D02*
X88302381Y-82976109D01*
X94608412Y-79173490D02*
X94584603Y-79197300D01*
X94584603Y-79197300D02*
X94513174Y-79221109D01*
X94513174Y-79221109D02*
X94465555Y-79221109D01*
X94465555Y-79221109D02*
X94394127Y-79197300D01*
X94394127Y-79197300D02*
X94346508Y-79149680D01*
X94346508Y-79149680D02*
X94322698Y-79102061D01*
X94322698Y-79102061D02*
X94298889Y-79006823D01*
X94298889Y-79006823D02*
X94298889Y-78935395D01*
X94298889Y-78935395D02*
X94322698Y-78840157D01*
X94322698Y-78840157D02*
X94346508Y-78792538D01*
X94346508Y-78792538D02*
X94394127Y-78744919D01*
X94394127Y-78744919D02*
X94465555Y-78721109D01*
X94465555Y-78721109D02*
X94513174Y-78721109D01*
X94513174Y-78721109D02*
X94584603Y-78744919D01*
X94584603Y-78744919D02*
X94608412Y-78768728D01*
X95060793Y-78721109D02*
X94822698Y-78721109D01*
X94822698Y-78721109D02*
X94798889Y-78959204D01*
X94798889Y-78959204D02*
X94822698Y-78935395D01*
X94822698Y-78935395D02*
X94870317Y-78911585D01*
X94870317Y-78911585D02*
X94989365Y-78911585D01*
X94989365Y-78911585D02*
X95036984Y-78935395D01*
X95036984Y-78935395D02*
X95060793Y-78959204D01*
X95060793Y-78959204D02*
X95084603Y-79006823D01*
X95084603Y-79006823D02*
X95084603Y-79125871D01*
X95084603Y-79125871D02*
X95060793Y-79173490D01*
X95060793Y-79173490D02*
X95036984Y-79197300D01*
X95036984Y-79197300D02*
X94989365Y-79221109D01*
X94989365Y-79221109D02*
X94870317Y-79221109D01*
X94870317Y-79221109D02*
X94822698Y-79197300D01*
X94822698Y-79197300D02*
X94798889Y-79173490D01*
X117108826Y-82622577D02*
X117180254Y-82646386D01*
X117180254Y-82646386D02*
X117299302Y-82646386D01*
X117299302Y-82646386D02*
X117346921Y-82622577D01*
X117346921Y-82622577D02*
X117370730Y-82598767D01*
X117370730Y-82598767D02*
X117394540Y-82551148D01*
X117394540Y-82551148D02*
X117394540Y-82503529D01*
X117394540Y-82503529D02*
X117370730Y-82455910D01*
X117370730Y-82455910D02*
X117346921Y-82432100D01*
X117346921Y-82432100D02*
X117299302Y-82408291D01*
X117299302Y-82408291D02*
X117204064Y-82384481D01*
X117204064Y-82384481D02*
X117156445Y-82360672D01*
X117156445Y-82360672D02*
X117132635Y-82336862D01*
X117132635Y-82336862D02*
X117108826Y-82289243D01*
X117108826Y-82289243D02*
X117108826Y-82241624D01*
X117108826Y-82241624D02*
X117132635Y-82194005D01*
X117132635Y-82194005D02*
X117156445Y-82170196D01*
X117156445Y-82170196D02*
X117204064Y-82146386D01*
X117204064Y-82146386D02*
X117323111Y-82146386D01*
X117323111Y-82146386D02*
X117394540Y-82170196D01*
X117561206Y-82146386D02*
X117680254Y-82646386D01*
X117680254Y-82646386D02*
X117775492Y-82289243D01*
X117775492Y-82289243D02*
X117870730Y-82646386D01*
X117870730Y-82646386D02*
X117989778Y-82146386D01*
X118156445Y-82194005D02*
X118180254Y-82170196D01*
X118180254Y-82170196D02*
X118227873Y-82146386D01*
X118227873Y-82146386D02*
X118346921Y-82146386D01*
X118346921Y-82146386D02*
X118394540Y-82170196D01*
X118394540Y-82170196D02*
X118418349Y-82194005D01*
X118418349Y-82194005D02*
X118442159Y-82241624D01*
X118442159Y-82241624D02*
X118442159Y-82289243D01*
X118442159Y-82289243D02*
X118418349Y-82360672D01*
X118418349Y-82360672D02*
X118132635Y-82646386D01*
X118132635Y-82646386D02*
X118442159Y-82646386D01*
X142474865Y-77728281D02*
X142308199Y-77490186D01*
X142189151Y-77728281D02*
X142189151Y-77228281D01*
X142189151Y-77228281D02*
X142379627Y-77228281D01*
X142379627Y-77228281D02*
X142427246Y-77252091D01*
X142427246Y-77252091D02*
X142451056Y-77275900D01*
X142451056Y-77275900D02*
X142474865Y-77323519D01*
X142474865Y-77323519D02*
X142474865Y-77394948D01*
X142474865Y-77394948D02*
X142451056Y-77442567D01*
X142451056Y-77442567D02*
X142427246Y-77466376D01*
X142427246Y-77466376D02*
X142379627Y-77490186D01*
X142379627Y-77490186D02*
X142189151Y-77490186D01*
X142951056Y-77728281D02*
X142665342Y-77728281D01*
X142808199Y-77728281D02*
X142808199Y-77228281D01*
X142808199Y-77228281D02*
X142760580Y-77299710D01*
X142760580Y-77299710D02*
X142712961Y-77347329D01*
X142712961Y-77347329D02*
X142665342Y-77371138D01*
X143260579Y-77228281D02*
X143308198Y-77228281D01*
X143308198Y-77228281D02*
X143355817Y-77252091D01*
X143355817Y-77252091D02*
X143379627Y-77275900D01*
X143379627Y-77275900D02*
X143403436Y-77323519D01*
X143403436Y-77323519D02*
X143427246Y-77418757D01*
X143427246Y-77418757D02*
X143427246Y-77537805D01*
X143427246Y-77537805D02*
X143403436Y-77633043D01*
X143403436Y-77633043D02*
X143379627Y-77680662D01*
X143379627Y-77680662D02*
X143355817Y-77704472D01*
X143355817Y-77704472D02*
X143308198Y-77728281D01*
X143308198Y-77728281D02*
X143260579Y-77728281D01*
X143260579Y-77728281D02*
X143212960Y-77704472D01*
X143212960Y-77704472D02*
X143189151Y-77680662D01*
X143189151Y-77680662D02*
X143165341Y-77633043D01*
X143165341Y-77633043D02*
X143141532Y-77537805D01*
X143141532Y-77537805D02*
X143141532Y-77418757D01*
X143141532Y-77418757D02*
X143165341Y-77323519D01*
X143165341Y-77323519D02*
X143189151Y-77275900D01*
X143189151Y-77275900D02*
X143212960Y-77252091D01*
X143212960Y-77252091D02*
X143260579Y-77228281D01*
X158197774Y-75788045D02*
X158173965Y-75811855D01*
X158173965Y-75811855D02*
X158102536Y-75835664D01*
X158102536Y-75835664D02*
X158054917Y-75835664D01*
X158054917Y-75835664D02*
X157983489Y-75811855D01*
X157983489Y-75811855D02*
X157935870Y-75764235D01*
X157935870Y-75764235D02*
X157912060Y-75716616D01*
X157912060Y-75716616D02*
X157888251Y-75621378D01*
X157888251Y-75621378D02*
X157888251Y-75549950D01*
X157888251Y-75549950D02*
X157912060Y-75454712D01*
X157912060Y-75454712D02*
X157935870Y-75407093D01*
X157935870Y-75407093D02*
X157983489Y-75359474D01*
X157983489Y-75359474D02*
X158054917Y-75335664D01*
X158054917Y-75335664D02*
X158102536Y-75335664D01*
X158102536Y-75335664D02*
X158173965Y-75359474D01*
X158173965Y-75359474D02*
X158197774Y-75383283D01*
X158673965Y-75835664D02*
X158388251Y-75835664D01*
X158531108Y-75835664D02*
X158531108Y-75335664D01*
X158531108Y-75335664D02*
X158483489Y-75407093D01*
X158483489Y-75407093D02*
X158435870Y-75454712D01*
X158435870Y-75454712D02*
X158388251Y-75478521D01*
X158840631Y-75335664D02*
X159150155Y-75335664D01*
X159150155Y-75335664D02*
X158983488Y-75526140D01*
X158983488Y-75526140D02*
X159054917Y-75526140D01*
X159054917Y-75526140D02*
X159102536Y-75549950D01*
X159102536Y-75549950D02*
X159126345Y-75573759D01*
X159126345Y-75573759D02*
X159150155Y-75621378D01*
X159150155Y-75621378D02*
X159150155Y-75740426D01*
X159150155Y-75740426D02*
X159126345Y-75788045D01*
X159126345Y-75788045D02*
X159102536Y-75811855D01*
X159102536Y-75811855D02*
X159054917Y-75835664D01*
X159054917Y-75835664D02*
X158912060Y-75835664D01*
X158912060Y-75835664D02*
X158864441Y-75811855D01*
X158864441Y-75811855D02*
X158840631Y-75788045D01*
X76228490Y-77783333D02*
X76252300Y-77807142D01*
X76252300Y-77807142D02*
X76276109Y-77878571D01*
X76276109Y-77878571D02*
X76276109Y-77926190D01*
X76276109Y-77926190D02*
X76252300Y-77997618D01*
X76252300Y-77997618D02*
X76204680Y-78045237D01*
X76204680Y-78045237D02*
X76157061Y-78069047D01*
X76157061Y-78069047D02*
X76061823Y-78092856D01*
X76061823Y-78092856D02*
X75990395Y-78092856D01*
X75990395Y-78092856D02*
X75895157Y-78069047D01*
X75895157Y-78069047D02*
X75847538Y-78045237D01*
X75847538Y-78045237D02*
X75799919Y-77997618D01*
X75799919Y-77997618D02*
X75776109Y-77926190D01*
X75776109Y-77926190D02*
X75776109Y-77878571D01*
X75776109Y-77878571D02*
X75799919Y-77807142D01*
X75799919Y-77807142D02*
X75823728Y-77783333D01*
X75776109Y-77616666D02*
X75776109Y-77307142D01*
X75776109Y-77307142D02*
X75966585Y-77473809D01*
X75966585Y-77473809D02*
X75966585Y-77402380D01*
X75966585Y-77402380D02*
X75990395Y-77354761D01*
X75990395Y-77354761D02*
X76014204Y-77330952D01*
X76014204Y-77330952D02*
X76061823Y-77307142D01*
X76061823Y-77307142D02*
X76180871Y-77307142D01*
X76180871Y-77307142D02*
X76228490Y-77330952D01*
X76228490Y-77330952D02*
X76252300Y-77354761D01*
X76252300Y-77354761D02*
X76276109Y-77402380D01*
X76276109Y-77402380D02*
X76276109Y-77545237D01*
X76276109Y-77545237D02*
X76252300Y-77592856D01*
X76252300Y-77592856D02*
X76228490Y-77616666D01*
X130680496Y-75617748D02*
X130513830Y-75379653D01*
X130394782Y-75617748D02*
X130394782Y-75117748D01*
X130394782Y-75117748D02*
X130585258Y-75117748D01*
X130585258Y-75117748D02*
X130632877Y-75141558D01*
X130632877Y-75141558D02*
X130656687Y-75165367D01*
X130656687Y-75165367D02*
X130680496Y-75212986D01*
X130680496Y-75212986D02*
X130680496Y-75284415D01*
X130680496Y-75284415D02*
X130656687Y-75332034D01*
X130656687Y-75332034D02*
X130632877Y-75355843D01*
X130632877Y-75355843D02*
X130585258Y-75379653D01*
X130585258Y-75379653D02*
X130394782Y-75379653D01*
X131156687Y-75617748D02*
X130870973Y-75617748D01*
X131013830Y-75617748D02*
X131013830Y-75117748D01*
X131013830Y-75117748D02*
X130966211Y-75189177D01*
X130966211Y-75189177D02*
X130918592Y-75236796D01*
X130918592Y-75236796D02*
X130870973Y-75260605D01*
X131323353Y-75117748D02*
X131632877Y-75117748D01*
X131632877Y-75117748D02*
X131466210Y-75308224D01*
X131466210Y-75308224D02*
X131537639Y-75308224D01*
X131537639Y-75308224D02*
X131585258Y-75332034D01*
X131585258Y-75332034D02*
X131609067Y-75355843D01*
X131609067Y-75355843D02*
X131632877Y-75403462D01*
X131632877Y-75403462D02*
X131632877Y-75522510D01*
X131632877Y-75522510D02*
X131609067Y-75570129D01*
X131609067Y-75570129D02*
X131585258Y-75593939D01*
X131585258Y-75593939D02*
X131537639Y-75617748D01*
X131537639Y-75617748D02*
X131394782Y-75617748D01*
X131394782Y-75617748D02*
X131347163Y-75593939D01*
X131347163Y-75593939D02*
X131323353Y-75570129D01*
X133792223Y-81629887D02*
X133625557Y-81391792D01*
X133506509Y-81629887D02*
X133506509Y-81129887D01*
X133506509Y-81129887D02*
X133696985Y-81129887D01*
X133696985Y-81129887D02*
X133744604Y-81153697D01*
X133744604Y-81153697D02*
X133768414Y-81177506D01*
X133768414Y-81177506D02*
X133792223Y-81225125D01*
X133792223Y-81225125D02*
X133792223Y-81296554D01*
X133792223Y-81296554D02*
X133768414Y-81344173D01*
X133768414Y-81344173D02*
X133744604Y-81367982D01*
X133744604Y-81367982D02*
X133696985Y-81391792D01*
X133696985Y-81391792D02*
X133506509Y-81391792D01*
X134268414Y-81629887D02*
X133982700Y-81629887D01*
X134125557Y-81629887D02*
X134125557Y-81129887D01*
X134125557Y-81129887D02*
X134077938Y-81201316D01*
X134077938Y-81201316D02*
X134030319Y-81248935D01*
X134030319Y-81248935D02*
X133982700Y-81272744D01*
X134696985Y-81129887D02*
X134601747Y-81129887D01*
X134601747Y-81129887D02*
X134554128Y-81153697D01*
X134554128Y-81153697D02*
X134530318Y-81177506D01*
X134530318Y-81177506D02*
X134482699Y-81248935D01*
X134482699Y-81248935D02*
X134458890Y-81344173D01*
X134458890Y-81344173D02*
X134458890Y-81534649D01*
X134458890Y-81534649D02*
X134482699Y-81582268D01*
X134482699Y-81582268D02*
X134506509Y-81606078D01*
X134506509Y-81606078D02*
X134554128Y-81629887D01*
X134554128Y-81629887D02*
X134649366Y-81629887D01*
X134649366Y-81629887D02*
X134696985Y-81606078D01*
X134696985Y-81606078D02*
X134720794Y-81582268D01*
X134720794Y-81582268D02*
X134744604Y-81534649D01*
X134744604Y-81534649D02*
X134744604Y-81415601D01*
X134744604Y-81415601D02*
X134720794Y-81367982D01*
X134720794Y-81367982D02*
X134696985Y-81344173D01*
X134696985Y-81344173D02*
X134649366Y-81320363D01*
X134649366Y-81320363D02*
X134554128Y-81320363D01*
X134554128Y-81320363D02*
X134506509Y-81344173D01*
X134506509Y-81344173D02*
X134482699Y-81367982D01*
X134482699Y-81367982D02*
X134458890Y-81415601D01*
X82369047Y-75226109D02*
X82369047Y-75630871D01*
X82369047Y-75630871D02*
X82392857Y-75678490D01*
X82392857Y-75678490D02*
X82416666Y-75702300D01*
X82416666Y-75702300D02*
X82464285Y-75726109D01*
X82464285Y-75726109D02*
X82559523Y-75726109D01*
X82559523Y-75726109D02*
X82607142Y-75702300D01*
X82607142Y-75702300D02*
X82630952Y-75678490D01*
X82630952Y-75678490D02*
X82654761Y-75630871D01*
X82654761Y-75630871D02*
X82654761Y-75226109D01*
X82916667Y-75726109D02*
X83011905Y-75726109D01*
X83011905Y-75726109D02*
X83059524Y-75702300D01*
X83059524Y-75702300D02*
X83083333Y-75678490D01*
X83083333Y-75678490D02*
X83130952Y-75607061D01*
X83130952Y-75607061D02*
X83154762Y-75511823D01*
X83154762Y-75511823D02*
X83154762Y-75321347D01*
X83154762Y-75321347D02*
X83130952Y-75273728D01*
X83130952Y-75273728D02*
X83107143Y-75249919D01*
X83107143Y-75249919D02*
X83059524Y-75226109D01*
X83059524Y-75226109D02*
X82964286Y-75226109D01*
X82964286Y-75226109D02*
X82916667Y-75249919D01*
X82916667Y-75249919D02*
X82892857Y-75273728D01*
X82892857Y-75273728D02*
X82869048Y-75321347D01*
X82869048Y-75321347D02*
X82869048Y-75440395D01*
X82869048Y-75440395D02*
X82892857Y-75488014D01*
X82892857Y-75488014D02*
X82916667Y-75511823D01*
X82916667Y-75511823D02*
X82964286Y-75535633D01*
X82964286Y-75535633D02*
X83059524Y-75535633D01*
X83059524Y-75535633D02*
X83107143Y-75511823D01*
X83107143Y-75511823D02*
X83130952Y-75488014D01*
X83130952Y-75488014D02*
X83154762Y-75440395D01*
D12*
%TO.C,R22*%
X71303641Y-77830000D02*
X70996359Y-77830000D01*
X71303641Y-77070000D02*
X70996359Y-77070000D01*
%TO.C,R1*%
X93470749Y-81698825D02*
X93163467Y-81698825D01*
X93470749Y-80938825D02*
X93163467Y-80938825D01*
D13*
%TO.C,U1*%
X75675000Y-83840000D02*
X75675000Y-82100000D01*
X78325000Y-82100000D02*
X78325000Y-83840000D01*
X78325000Y-83840000D02*
X75675000Y-83840000D01*
D11*
X75472000Y-80568000D02*
G75*
G02*
X75372000Y-80568000I-50000J0D01*
G01*
X75372000Y-80568000D02*
G75*
G02*
X75472000Y-80568000I50000J0D01*
G01*
D12*
%TO.C,Q1*%
X108176762Y-82729454D02*
X106526762Y-82729454D01*
X106526762Y-80929454D02*
X107826762Y-80929454D01*
%TO.C,C19*%
X132719206Y-79990638D02*
X132934878Y-79990638D01*
X132719206Y-79270638D02*
X132934878Y-79270638D01*
%TO.C,C14*%
X158942386Y-78972375D02*
X158726714Y-78972375D01*
X158942386Y-78252375D02*
X158726714Y-78252375D01*
%TO.C,D3*%
X128960985Y-77322776D02*
X128960985Y-75322776D01*
X128960985Y-75322776D02*
X125060985Y-75322776D01*
X128960985Y-77322776D02*
X125060985Y-77322776D01*
%TO.C,J3*%
X125719107Y-79400740D02*
X125719107Y-78950740D01*
X126169107Y-78950740D02*
X125719107Y-78950740D01*
X123719107Y-83980740D02*
X123719107Y-83580740D01*
X123719107Y-81610740D02*
X123719107Y-79630740D01*
X123719107Y-79630740D02*
X124139107Y-79630740D01*
X131239107Y-83580740D02*
X131239107Y-83980740D01*
X131239107Y-81610740D02*
X131239107Y-79630740D01*
X131239107Y-79630740D02*
X130819107Y-79630740D01*
%TO.C,C10*%
X111714913Y-81513049D02*
X111714913Y-81728721D01*
X112434913Y-81513049D02*
X112434913Y-81728721D01*
D13*
%TO.C,Q5*%
X69740750Y-76680000D02*
X69740750Y-75520000D01*
X71300750Y-76680000D02*
X69740750Y-76680000D01*
X71300750Y-75520000D02*
X71300750Y-76680000D01*
X69740750Y-75520000D02*
X71300750Y-75520000D01*
D11*
X69468750Y-75798000D02*
G75*
G02*
X69368750Y-75798000I-50000J0D01*
G01*
X69368750Y-75798000D02*
G75*
G02*
X69468750Y-75798000I50000J0D01*
G01*
D13*
%TO.C,U2*%
X103800000Y-82245000D02*
X103800000Y-82500000D01*
X103800000Y-75755000D02*
X103800000Y-75500000D01*
X103800000Y-82500000D02*
X103545000Y-82500000D01*
X96800000Y-75755000D02*
X96800000Y-75500000D01*
X96800000Y-75500000D02*
X97055000Y-75500000D01*
X96800000Y-82245000D02*
X96800000Y-82500000D01*
X103800000Y-75500000D02*
X103545000Y-75500000D01*
X96800000Y-82500000D02*
X97055000Y-82500000D01*
D14*
X96200000Y-76200000D02*
G75*
G02*
X96000000Y-76200000I-100000J0D01*
G01*
X96000000Y-76200000D02*
G75*
G02*
X96200000Y-76200000I100000J0D01*
G01*
D12*
%TO.C,R3*%
X75430000Y-81253641D02*
X75430000Y-80946359D01*
X74670000Y-81253641D02*
X74670000Y-80946359D01*
%TO.C,R20*%
X73630000Y-76153641D02*
X73630000Y-75846359D01*
X72870000Y-76153641D02*
X72870000Y-75846359D01*
%TO.C,R6*%
X107114354Y-79477505D02*
X107114354Y-79784787D01*
X106354354Y-79477505D02*
X106354354Y-79784787D01*
%TO.C,R17*%
X134636041Y-82870930D02*
X134636041Y-82563648D01*
X135396041Y-82870930D02*
X135396041Y-82563648D01*
%TO.C,C18*%
X118222044Y-76471726D02*
X118222044Y-76687398D01*
X117502044Y-76471726D02*
X117502044Y-76687398D01*
%TO.C,SW1*%
X73000000Y-83950000D02*
X68300000Y-83950000D01*
X68200000Y-82375000D02*
X68200000Y-81825000D01*
X69225000Y-80250000D02*
X68300000Y-80250000D01*
X73000000Y-80250000D02*
X72075000Y-80250000D01*
X73100000Y-82375000D02*
X73100000Y-81825000D01*
D13*
%TO.C,Q3*%
X140507040Y-76621522D02*
X140507040Y-75461522D01*
X142067040Y-75461522D02*
X142067040Y-76621522D01*
X140507040Y-75461522D02*
X142067040Y-75461522D01*
X142067040Y-76621522D02*
X140507040Y-76621522D01*
D11*
X142439040Y-76343522D02*
G75*
G02*
X142339040Y-76343522I-50000J0D01*
G01*
X142339040Y-76343522D02*
G75*
G02*
X142439040Y-76343522I50000J0D01*
G01*
D12*
%TO.C,R4*%
X73446359Y-78680000D02*
X73753641Y-78680000D01*
X73446359Y-77920000D02*
X73753641Y-77920000D01*
%TO.C,L1*%
X140762558Y-78054084D02*
X140762558Y-77214084D01*
X136312558Y-78054084D02*
X136312558Y-77214084D01*
X136312558Y-81214084D02*
X140762558Y-81214084D01*
X140762558Y-78054084D02*
X140762558Y-81214084D01*
X140762558Y-77214084D02*
X136332558Y-77214084D01*
X136312558Y-78054084D02*
X136312558Y-81214084D01*
%TO.C,C1*%
X93425520Y-80680210D02*
X93209848Y-80680210D01*
X93425520Y-79960210D02*
X93209848Y-79960210D01*
%TO.C,Q2*%
X110120543Y-82738473D02*
X108820543Y-82738473D01*
X108470543Y-80938473D02*
X110120543Y-80938473D01*
%TO.C,U5*%
X152513260Y-76916117D02*
X153313260Y-76916117D01*
X152513260Y-80036117D02*
X154313260Y-80036117D01*
X152513260Y-80036117D02*
X151713260Y-80036117D01*
X152513260Y-76916117D02*
X151713260Y-76916117D01*
D14*
%TO.C,U7*%
X118914269Y-77687863D02*
G75*
G02*
X118714269Y-77687863I-100000J0D01*
G01*
X118714269Y-77687863D02*
G75*
G02*
X118914269Y-77687863I100000J0D01*
G01*
D12*
%TO.C,R14*%
X132691744Y-76461567D02*
X132384462Y-76461567D01*
X132691744Y-75701567D02*
X132384462Y-75701567D01*
%TO.C,R21*%
X71420000Y-76153641D02*
X71420000Y-75846359D01*
X72180000Y-76153641D02*
X72180000Y-75846359D01*
%TO.C,F1*%
X124115387Y-77133964D02*
X124115387Y-76679836D01*
X122645387Y-77133964D02*
X122645387Y-76679836D01*
%TO.C,AE1*%
X93626881Y-74109416D02*
X93626881Y-79109416D01*
X89390629Y-75791416D02*
X90813133Y-75791416D01*
X89390629Y-77611416D02*
X90813133Y-77611416D01*
X86626881Y-79109416D02*
X93626881Y-79109416D01*
X86626881Y-79109416D02*
X86626881Y-74109416D01*
X86626881Y-74109416D02*
X93626881Y-74109416D01*
%TO.C,R5*%
X108247605Y-83742660D02*
X107940323Y-83742660D01*
X108247605Y-82982660D02*
X107940323Y-82982660D01*
%TO.C,U6*%
X156225427Y-78631198D02*
X155225427Y-78631198D01*
X157225427Y-76411198D02*
X155225427Y-76411198D01*
%TO.C,R7*%
X148541146Y-80890534D02*
X148848428Y-80890534D01*
X148541146Y-80130534D02*
X148848428Y-80130534D01*
%TO.C,C4*%
X74690000Y-82892164D02*
X74690000Y-83107836D01*
X75410000Y-82892164D02*
X75410000Y-83107836D01*
%TO.C,R19*%
X79870000Y-77053641D02*
X79870000Y-76746359D01*
X80630000Y-77053641D02*
X80630000Y-76746359D01*
%TO.C,C17*%
X138812866Y-76807219D02*
X139028538Y-76807219D01*
X138812866Y-76087219D02*
X139028538Y-76087219D01*
%TO.C,U8*%
X135209248Y-76751457D02*
X132209248Y-76751457D01*
X133709248Y-78971457D02*
X132209248Y-78971457D01*
%TO.C,C12*%
X148129239Y-76479389D02*
X148344911Y-76479389D01*
X148129239Y-75759389D02*
X148344911Y-75759389D01*
%TO.C,C16*%
X120780868Y-76476106D02*
X120780868Y-76691778D01*
X120060868Y-76476106D02*
X120060868Y-76691778D01*
%TO.C,R9*%
X146507496Y-77147665D02*
X146507496Y-77454947D01*
X145747496Y-77147665D02*
X145747496Y-77454947D01*
%TO.C,C20*%
X68423522Y-79557836D02*
X68423522Y-79342164D01*
X69143522Y-79557836D02*
X69143522Y-79342164D01*
D11*
%TO.C,D2*%
X153194833Y-76298232D02*
G75*
G02*
X153094833Y-76298232I-50000J0D01*
G01*
X153094833Y-76298232D02*
G75*
G02*
X153194833Y-76298232I50000J0D01*
G01*
D12*
%TO.C,R12*%
X144175627Y-75361163D02*
X144482909Y-75361163D01*
X144175627Y-76121163D02*
X144482909Y-76121163D01*
%TO.C,R15*%
X132496626Y-82978167D02*
X132496626Y-82670885D01*
X133256626Y-82978167D02*
X133256626Y-82670885D01*
%TO.C,C2*%
X77410000Y-79092164D02*
X77410000Y-79307836D01*
X76690000Y-79092164D02*
X76690000Y-79307836D01*
%TO.C,R8*%
X150970853Y-80278070D02*
X150663571Y-80278070D01*
X150970853Y-81038070D02*
X150663571Y-81038070D01*
D10*
%TO.C,Q4*%
X144892489Y-81549202D02*
X144892489Y-78599202D01*
X144362489Y-78409202D02*
X144002489Y-78409202D01*
X141417489Y-81554202D02*
X141417489Y-79124202D01*
D12*
%TO.C,R2*%
X74670000Y-79353641D02*
X74670000Y-79046359D01*
X75430000Y-79353641D02*
X75430000Y-79046359D01*
%TO.C,C15*%
X129700864Y-77239477D02*
X129700864Y-77023805D01*
X130420864Y-77239477D02*
X130420864Y-77023805D01*
%TO.C,C9*%
X113313381Y-78392164D02*
X113313381Y-78607836D01*
X112593381Y-78392164D02*
X112593381Y-78607836D01*
%TO.C,C11*%
X111460914Y-81511194D02*
X111460914Y-81726866D01*
X110740914Y-81511194D02*
X110740914Y-81726866D01*
%TO.C,R18*%
X121530123Y-78243756D02*
X121222841Y-78243756D01*
X121530123Y-79003756D02*
X121222841Y-79003756D01*
%TO.C,R11*%
X146458592Y-79434877D02*
X146458592Y-79127595D01*
X145698592Y-79434877D02*
X145698592Y-79127595D01*
%TO.C,U3*%
X107740000Y-79590205D02*
X107740000Y-80065205D01*
X111960000Y-76320205D02*
X111960000Y-75845205D01*
X111960000Y-75845205D02*
X111485000Y-75845205D01*
X111960000Y-80065205D02*
X111485000Y-80065205D01*
X111960000Y-79590205D02*
X111960000Y-80065205D01*
X107740000Y-76320205D02*
X107740000Y-75845205D01*
X107740000Y-75845205D02*
X108215000Y-75845205D01*
%TO.C,C6*%
X95281746Y-77562164D02*
X95281746Y-77777836D01*
X96001746Y-77562164D02*
X96001746Y-77777836D01*
%TO.C,U4*%
X148489303Y-79876677D02*
X150164303Y-79876677D01*
X148489303Y-76756677D02*
X149139303Y-76756677D01*
X148489303Y-79876677D02*
X147839303Y-79876677D01*
X148489303Y-76756677D02*
X147839303Y-76756677D01*
%TO.C,C7*%
X87542164Y-81465500D02*
X87757836Y-81465500D01*
X87542164Y-82185500D02*
X87757836Y-82185500D01*
%TO.C,C5*%
X95018254Y-77562164D02*
X95018254Y-77777836D01*
X94298254Y-77562164D02*
X94298254Y-77777836D01*
D10*
%TO.C,SW2*%
X113388842Y-80386871D02*
X122088842Y-80386871D01*
X122088842Y-80386871D02*
X122088842Y-83386871D01*
X115988842Y-85386871D02*
X115988842Y-83386871D01*
X122088842Y-83386871D02*
X113388842Y-83386871D01*
X113388842Y-83386871D02*
X113388842Y-80386871D01*
X114388842Y-85386871D02*
X115988842Y-85386871D01*
X114388842Y-83386871D02*
X114388842Y-85386871D01*
D12*
%TO.C,R10*%
X143196193Y-76076672D02*
X143196193Y-76383954D01*
X142436193Y-76076672D02*
X142436193Y-76383954D01*
%TO.C,C13*%
X158717718Y-77270974D02*
X158717718Y-77055302D01*
X157997718Y-77270974D02*
X157997718Y-77055302D01*
%TO.C,C3*%
X76410000Y-79307836D02*
X76410000Y-79092164D01*
X75690000Y-79307836D02*
X75690000Y-79092164D01*
%TO.C,R13*%
X130687832Y-76657147D02*
X130687832Y-76349865D01*
X131447832Y-76657147D02*
X131447832Y-76349865D01*
%TO.C,R16*%
X133599985Y-82975176D02*
X133599985Y-82667894D01*
X134359985Y-82975176D02*
X134359985Y-82667894D01*
%TO.C,U9*%
X80913563Y-79525000D02*
X80913563Y-81475000D01*
X86033563Y-79525000D02*
X86033563Y-76075000D01*
X86033563Y-79525000D02*
X86033563Y-81475000D01*
X80913563Y-79525000D02*
X80913563Y-77575000D01*
%TD*%
%LPC*%
D15*
%TO.C,U1*%
X77456000Y-82800000D02*
G75*
G02*
X76544000Y-82800000I-456000J0D01*
G01*
X76544000Y-82800000D02*
G75*
G02*
X77456000Y-82800000I456000J0D01*
G01*
D16*
%TO.C,U7*%
X118994269Y-76277863D02*
X118794269Y-76477863D01*
X118634269Y-76477863D01*
X118634269Y-75987863D01*
X118994269Y-75987863D01*
X118994269Y-76277863D01*
G36*
X118994269Y-76277863D02*
G01*
X118794269Y-76477863D01*
X118634269Y-76477863D01*
X118634269Y-75987863D01*
X118994269Y-75987863D01*
X118994269Y-76277863D01*
G37*
X119644269Y-77287863D02*
X119284269Y-77287863D01*
X119284269Y-76997863D01*
X119484269Y-76797863D01*
X119644269Y-76797863D01*
X119644269Y-77287863D01*
G36*
X119644269Y-77287863D02*
G01*
X119284269Y-77287863D01*
X119284269Y-76997863D01*
X119484269Y-76797863D01*
X119644269Y-76797863D01*
X119644269Y-77287863D01*
G37*
D17*
X119539269Y-76637863D02*
X119139269Y-77037863D01*
X118739269Y-76637863D01*
X119139269Y-76237863D01*
X119539269Y-76637863D01*
G36*
X119539269Y-76637863D02*
G01*
X119139269Y-77037863D01*
X118739269Y-76637863D01*
X119139269Y-76237863D01*
X119539269Y-76637863D01*
G37*
D16*
X119644269Y-76477863D02*
X119484269Y-76477863D01*
X119284269Y-76277863D01*
X119284269Y-75987863D01*
X119644269Y-75987863D01*
X119644269Y-76477863D01*
G36*
X119644269Y-76477863D02*
G01*
X119484269Y-76477863D01*
X119284269Y-76277863D01*
X119284269Y-75987863D01*
X119644269Y-75987863D01*
X119644269Y-76477863D01*
G37*
X118994269Y-76997863D02*
X118994269Y-77287863D01*
X118634269Y-77287863D01*
X118634269Y-76797863D01*
X118794269Y-76797863D01*
X118994269Y-76997863D01*
G36*
X118994269Y-76997863D02*
G01*
X118994269Y-77287863D01*
X118634269Y-77287863D01*
X118634269Y-76797863D01*
X118794269Y-76797863D01*
X118994269Y-76997863D01*
G37*
%TO.C,Q4*%
D12*
X144142489Y-81124202D02*
X143642489Y-81124202D01*
X143642489Y-80274202D01*
X144142489Y-80274202D01*
X144142489Y-81124202D01*
G36*
X144142489Y-81124202D02*
G01*
X143642489Y-81124202D01*
X143642489Y-80274202D01*
X144142489Y-80274202D01*
X144142489Y-81124202D01*
G37*
X142842489Y-81124202D02*
X142342489Y-81124202D01*
X142342489Y-80274202D01*
X142842489Y-80274202D01*
X142842489Y-81124202D01*
G36*
X142842489Y-81124202D02*
G01*
X142342489Y-81124202D01*
X142342489Y-80274202D01*
X142842489Y-80274202D01*
X142842489Y-81124202D01*
G37*
%TD*%
D18*
%TO.C,R22*%
X71660000Y-77450000D03*
X70640000Y-77450000D03*
%TD*%
%TO.C,R1*%
X93827108Y-81318825D03*
X92807108Y-81318825D03*
%TD*%
D19*
%TO.C,U1*%
X77000000Y-82800000D03*
D20*
X76100000Y-80726000D03*
X76100000Y-81548000D03*
X77900000Y-81548000D03*
X77900000Y-80726000D03*
X77000000Y-80726000D03*
%TD*%
D21*
%TO.C,Q1*%
X107821762Y-82329454D03*
X107821762Y-81329454D03*
X106531762Y-81829454D03*
%TD*%
D22*
%TO.C,C19*%
X132347042Y-79630638D03*
X133307042Y-79630638D03*
%TD*%
D23*
%TO.C,C14*%
X159314550Y-78612375D03*
X158354550Y-78612375D03*
%TD*%
D24*
%TO.C,D3*%
X128360985Y-76322776D03*
X125060985Y-76322776D03*
%TD*%
D25*
%TO.C,J3*%
X126179107Y-79890740D03*
X126829107Y-79890740D03*
X127479107Y-79890740D03*
X128129107Y-79890740D03*
X128779107Y-79890740D03*
D26*
X130979107Y-82590740D03*
X123979107Y-82590740D03*
D27*
X130379107Y-82590740D03*
X124579107Y-82590740D03*
D28*
X126479107Y-82590740D03*
D29*
X129979107Y-79890740D03*
D28*
X128479107Y-82590740D03*
D29*
X124979107Y-79890740D03*
%TD*%
D30*
%TO.C,C10*%
X112074913Y-81140885D03*
X112074913Y-82100885D03*
%TD*%
D31*
%TO.C,Q5*%
X70195750Y-75925000D03*
X70195750Y-76275000D03*
D32*
X70845750Y-76100000D03*
%TD*%
D33*
%TO.C,U2*%
X96860000Y-76250000D03*
X96860000Y-76750000D03*
X96860000Y-77250000D03*
X96860000Y-77750000D03*
X96860000Y-78250000D03*
X96860000Y-78750000D03*
X96860000Y-79250000D03*
X96860000Y-79750000D03*
X96860000Y-80250000D03*
X96860000Y-80750000D03*
X96860000Y-81250000D03*
X96860000Y-81750000D03*
D34*
X97550000Y-82440000D03*
X98050000Y-82440000D03*
X98550000Y-82440000D03*
X99050000Y-82440000D03*
X99550000Y-82440000D03*
X100050000Y-82440000D03*
X100550000Y-82440000D03*
X101050000Y-82440000D03*
X101550000Y-82440000D03*
X102050000Y-82440000D03*
X102550000Y-82440000D03*
X103050000Y-82440000D03*
D33*
X103740000Y-81750000D03*
X103740000Y-81250000D03*
X103740000Y-80750000D03*
X103740000Y-80250000D03*
X103740000Y-79750000D03*
X103740000Y-79250000D03*
X103740000Y-78750000D03*
X103740000Y-78250000D03*
X103740000Y-77750000D03*
X103740000Y-77250000D03*
X103740000Y-76750000D03*
X103740000Y-76250000D03*
D34*
X103050000Y-75560000D03*
X102550000Y-75560000D03*
X102050000Y-75560000D03*
X101550000Y-75560000D03*
X101050000Y-75560000D03*
X100550000Y-75560000D03*
X100050000Y-75560000D03*
X99550000Y-75560000D03*
X99050000Y-75560000D03*
X98550000Y-75560000D03*
X98050000Y-75560000D03*
X97550000Y-75560000D03*
D35*
X100300000Y-79000000D03*
D19*
X98400000Y-79000000D03*
X102200000Y-77900000D03*
X101000000Y-79000000D03*
X99100000Y-77100000D03*
X98400000Y-80100000D03*
X101000000Y-80100000D03*
X99600000Y-80100000D03*
X100300000Y-77100000D03*
X100300000Y-80900000D03*
X101600000Y-77100000D03*
X99600000Y-79000000D03*
X101600000Y-80900000D03*
X101000000Y-77900000D03*
X98400000Y-77900000D03*
X102200000Y-79000000D03*
X99600000Y-77900000D03*
X102200000Y-80100000D03*
X99100000Y-80900000D03*
%TD*%
D36*
%TO.C,R3*%
X75050000Y-81610000D03*
X75050000Y-80590000D03*
%TD*%
%TO.C,R20*%
X73250000Y-76510000D03*
X73250000Y-75490000D03*
%TD*%
D37*
%TO.C,R6*%
X106734354Y-79121146D03*
X106734354Y-80141146D03*
%TD*%
D36*
%TO.C,R17*%
X135016041Y-83227289D03*
X135016041Y-82207289D03*
%TD*%
D30*
%TO.C,C18*%
X117862044Y-76099562D03*
X117862044Y-77059562D03*
%TD*%
D38*
%TO.C,SW1*%
X70650000Y-83475000D03*
X70650000Y-80725000D03*
D39*
X68025000Y-81250000D03*
X73275000Y-81250000D03*
X68025000Y-82950000D03*
X73275000Y-82950000D03*
%TD*%
D31*
%TO.C,Q3*%
X141612040Y-76216522D03*
X141612040Y-75866522D03*
D32*
X140962040Y-76041522D03*
%TD*%
D40*
%TO.C,R4*%
X73090000Y-78300000D03*
X74110000Y-78300000D03*
%TD*%
D41*
%TO.C,L1*%
X140122558Y-79204084D03*
X136962558Y-79204084D03*
%TD*%
D23*
%TO.C,C1*%
X93797684Y-80320210D03*
X92837684Y-80320210D03*
%TD*%
D21*
%TO.C,Q2*%
X108825543Y-81338473D03*
X108825543Y-82338473D03*
X110115543Y-81838473D03*
%TD*%
D42*
%TO.C,U5*%
X153650760Y-79426117D03*
X153650760Y-78476117D03*
X153650760Y-77526117D03*
X151375760Y-77526117D03*
X151375760Y-78476117D03*
X151375760Y-79426117D03*
%TD*%
D18*
%TO.C,R14*%
X133048103Y-76081567D03*
X132028103Y-76081567D03*
%TD*%
D36*
%TO.C,R21*%
X71800000Y-76510000D03*
X71800000Y-75490000D03*
%TD*%
D43*
%TO.C,F1*%
X123380387Y-77819400D03*
X123380387Y-75994400D03*
%TD*%
D44*
%TO.C,AE1*%
X88626881Y-76701416D03*
X91576881Y-76701416D03*
%TD*%
D18*
%TO.C,R5*%
X108603964Y-83362660D03*
X107583964Y-83362660D03*
%TD*%
D45*
%TO.C,U6*%
X157225427Y-78271198D03*
X157225427Y-77771198D03*
X157225427Y-77271198D03*
X157225427Y-76771198D03*
X155225427Y-76771198D03*
X155225427Y-77271198D03*
X155225427Y-77771198D03*
X155225427Y-78271198D03*
D46*
X156225427Y-77521198D03*
%TD*%
D40*
%TO.C,R7*%
X148184787Y-80510534D03*
X149204787Y-80510534D03*
%TD*%
D30*
%TO.C,C4*%
X75050000Y-82520000D03*
X75050000Y-83480000D03*
%TD*%
D36*
%TO.C,R19*%
X80250000Y-77410000D03*
X80250000Y-76390000D03*
%TD*%
D22*
%TO.C,C17*%
X138440702Y-76447219D03*
X139400702Y-76447219D03*
%TD*%
D47*
%TO.C,U8*%
X135159248Y-78611457D03*
X135159248Y-78111457D03*
X135159248Y-77611457D03*
X135159248Y-77111457D03*
X132259248Y-77111457D03*
X132259248Y-77611457D03*
X132259248Y-78111457D03*
X132259248Y-78611457D03*
D48*
X133709248Y-77861457D03*
%TD*%
D22*
%TO.C,C12*%
X147757075Y-76119389D03*
X148717075Y-76119389D03*
%TD*%
D30*
%TO.C,C16*%
X120420868Y-76103942D03*
X120420868Y-77063942D03*
%TD*%
D37*
%TO.C,R9*%
X146127496Y-76791306D03*
X146127496Y-77811306D03*
%TD*%
D49*
%TO.C,C20*%
X68783522Y-79930000D03*
X68783522Y-78970000D03*
%TD*%
D50*
%TO.C,D2*%
X152539833Y-76298232D03*
X151569833Y-76298232D03*
%TD*%
D40*
%TO.C,R12*%
X143819268Y-75741163D03*
X144839268Y-75741163D03*
%TD*%
D36*
%TO.C,R15*%
X132876626Y-83334526D03*
X132876626Y-82314526D03*
%TD*%
D30*
%TO.C,C2*%
X77050000Y-78720000D03*
X77050000Y-79680000D03*
%TD*%
D18*
%TO.C,R8*%
X151327212Y-80658070D03*
X150307212Y-80658070D03*
%TD*%
D51*
%TO.C,Q4*%
X144172489Y-78819202D03*
X143522489Y-78819202D03*
X142872489Y-78819202D03*
X142222489Y-78819202D03*
X142232489Y-81789202D03*
X142882489Y-81789202D03*
X143532489Y-81789202D03*
X144182489Y-81789202D03*
%TD*%
D36*
%TO.C,R2*%
X75050000Y-79710000D03*
X75050000Y-78690000D03*
%TD*%
D49*
%TO.C,C15*%
X130060864Y-77611641D03*
X130060864Y-76651641D03*
%TD*%
D30*
%TO.C,C9*%
X112953381Y-78020000D03*
X112953381Y-78980000D03*
%TD*%
%TO.C,C11*%
X111100914Y-81139030D03*
X111100914Y-82099030D03*
%TD*%
D18*
%TO.C,R18*%
X121886482Y-78623756D03*
X120866482Y-78623756D03*
%TD*%
D36*
%TO.C,R11*%
X146078592Y-79791236D03*
X146078592Y-78771236D03*
%TD*%
D52*
%TO.C,U3*%
X108600000Y-79892705D03*
X109100000Y-79892705D03*
X109600000Y-79892705D03*
X110100000Y-79892705D03*
X110600000Y-79892705D03*
X111100000Y-79892705D03*
D53*
X111787500Y-79205205D03*
X111787500Y-78705205D03*
X111787500Y-78205205D03*
X111787500Y-77705205D03*
X111787500Y-77205205D03*
X111787500Y-76705205D03*
D52*
X111100000Y-76017705D03*
X110600000Y-76017705D03*
X110100000Y-76017705D03*
X109600000Y-76017705D03*
X109100000Y-76017705D03*
X108600000Y-76017705D03*
D53*
X107912500Y-76705205D03*
X107912500Y-77205205D03*
X107912500Y-77705205D03*
X107912500Y-78205205D03*
X107912500Y-78705205D03*
X107912500Y-79205205D03*
D54*
X109850000Y-77955205D03*
%TD*%
D30*
%TO.C,C6*%
X95641746Y-77190000D03*
X95641746Y-78150000D03*
%TD*%
D55*
%TO.C,U4*%
X149426803Y-79266677D03*
X149426803Y-77366677D03*
X147551803Y-78316677D03*
%TD*%
D22*
%TO.C,C7*%
X87170000Y-81825500D03*
X88130000Y-81825500D03*
%TD*%
D30*
%TO.C,C5*%
X94658254Y-77190000D03*
X94658254Y-78150000D03*
%TD*%
D56*
%TO.C,SW2*%
X114568842Y-83376871D03*
X121088842Y-83386871D03*
D57*
X114888842Y-79586871D03*
X118888842Y-79586871D03*
X116788842Y-79586871D03*
%TD*%
D37*
%TO.C,R10*%
X142816193Y-75720313D03*
X142816193Y-76740313D03*
%TD*%
D49*
%TO.C,C13*%
X158357718Y-77643138D03*
X158357718Y-76683138D03*
%TD*%
%TO.C,C3*%
X76050000Y-79680000D03*
X76050000Y-78720000D03*
%TD*%
D36*
%TO.C,R13*%
X131067832Y-77013506D03*
X131067832Y-75993506D03*
%TD*%
%TO.C,R16*%
X133979985Y-83331535D03*
X133979985Y-82311535D03*
%TD*%
D58*
%TO.C,U9*%
X85378563Y-76900000D03*
X84108563Y-76900000D03*
X82838563Y-76900000D03*
X81568563Y-76900000D03*
X81568563Y-82150000D03*
X82838563Y-82150000D03*
X84108563Y-82150000D03*
X85378563Y-82150000D03*
%TD*%
%LPD*%
M02*
