%TF.GenerationSoftware,KiCad,Pcbnew,8.0.6*%
%TF.CreationDate,2024-11-20T18:33:45-05:00*%
%TF.ProjectId,OSSG_v0p5,4f535347-5f76-4307-9035-2e6b69636164,v0.4*%
%TF.SameCoordinates,Original*%
%TF.FileFunction,Copper,L2,Inr*%
%TF.FilePolarity,Positive*%
%FSLAX46Y46*%
G04 Gerber Fmt 4.6, Leading zero omitted, Abs format (unit mm)*
G04 Created by KiCad (PCBNEW 8.0.6) date 2024-11-20 18:33:45*
%MOMM*%
%LPD*%
G01*
G04 APERTURE LIST*
%TA.AperFunction,ComponentPad*%
%ADD10O,0.890000X1.550000*%
%TD*%
%TA.AperFunction,ComponentPad*%
%ADD11O,1.250000X0.950000*%
%TD*%
%TA.AperFunction,ComponentPad*%
%ADD12C,0.500000*%
%TD*%
%TA.AperFunction,ComponentPad*%
%ADD13C,1.100000*%
%TD*%
%TA.AperFunction,ViaPad*%
%ADD14C,0.500000*%
%TD*%
%TA.AperFunction,ViaPad*%
%ADD15C,0.450000*%
%TD*%
%TA.AperFunction,ViaPad*%
%ADD16C,0.650000*%
%TD*%
%TA.AperFunction,ViaPad*%
%ADD17C,0.800000*%
%TD*%
%TA.AperFunction,ViaPad*%
%ADD18C,1.000000*%
%TD*%
%TA.AperFunction,ViaPad*%
%ADD19C,0.600000*%
%TD*%
%TA.AperFunction,ViaPad*%
%ADD20C,0.700000*%
%TD*%
G04 APERTURE END LIST*
D10*
%TO.N,BATT1-*%
%TO.C,J3*%
X130979107Y-82590740D03*
X123979107Y-82590740D03*
D11*
X129979107Y-79890740D03*
X124979107Y-79890740D03*
%TD*%
D12*
%TO.N,BATT1-*%
%TO.C,U2*%
X98400000Y-79000000D03*
X102200000Y-77900000D03*
X101000000Y-79000000D03*
X99100000Y-77100000D03*
X98400000Y-80100000D03*
X101000000Y-80100000D03*
X99600000Y-80100000D03*
X100300000Y-77100000D03*
X100300000Y-80900000D03*
X101600000Y-77100000D03*
X99600000Y-79000000D03*
X101600000Y-80900000D03*
X101000000Y-77900000D03*
X98400000Y-77900000D03*
X102200000Y-79000000D03*
X99600000Y-77900000D03*
X102200000Y-80100000D03*
X99100000Y-80900000D03*
%TD*%
D13*
%TO.N,*%
%TO.C,SW2*%
X114568842Y-83376871D03*
X121088842Y-83386871D03*
%TD*%
D14*
%TO.N,EN*%
X106264024Y-81244906D03*
D15*
X95850000Y-79725000D03*
%TO.N,RGB*%
X79850000Y-81150000D03*
X99650000Y-83075000D03*
X74250000Y-76750000D03*
D16*
%TO.N,BATT+*%
X122338382Y-80092335D03*
D17*
X159206944Y-79430058D03*
X159222902Y-77464300D03*
X157958262Y-75694077D03*
D15*
%TO.N,HUD+*%
X70517853Y-79829334D03*
X69430000Y-81370000D03*
%TO.N,RTS*%
X108103740Y-76338432D03*
X107250000Y-81400000D03*
X107350000Y-79650000D03*
X107022929Y-77800460D03*
%TO.N,IO0*%
X106767619Y-82509877D03*
X109602604Y-82347282D03*
%TO.N,DTR*%
X107203359Y-78539039D03*
X108282068Y-81823656D03*
D18*
%TO.N,VBUS*%
X126360799Y-76643861D03*
X149853663Y-76314464D03*
X127224115Y-77278476D03*
D15*
X141369858Y-78650111D03*
X146994871Y-75499849D03*
D16*
X113800000Y-78700000D03*
D18*
X150700201Y-76914527D03*
D15*
%TO.N,TX_ESP*%
X112450000Y-75550000D03*
%TO.N,RX_ESP*%
X113050000Y-76250000D03*
X106850000Y-77000000D03*
%TO.N,+3V3*%
X80250000Y-78200000D03*
X105781301Y-83561655D03*
X105850000Y-82250000D03*
X70195750Y-76895750D03*
X95750000Y-82150000D03*
D16*
X111728727Y-80328351D03*
D15*
X94600000Y-81400000D03*
X103500000Y-75600000D03*
X69600000Y-75900000D03*
X75050000Y-77900000D03*
X94100000Y-77550000D03*
D17*
X118394985Y-77919675D03*
D15*
X71500000Y-83100000D03*
D17*
X119933591Y-79444228D03*
D16*
X131972762Y-83026192D03*
D15*
X77900000Y-78550000D03*
X101100000Y-83275000D03*
X98675000Y-74850000D03*
%TO.N,USB-*%
X126298713Y-78463089D03*
X110056674Y-80752907D03*
%TO.N,USB+*%
X126998713Y-78463089D03*
X109561698Y-81247883D03*
D19*
%TO.N,PSEN*%
X136061510Y-76575220D03*
D20*
X146561072Y-76335989D03*
X147870713Y-77022823D03*
D15*
%TO.N,BATT1-*%
X86365978Y-76395473D03*
X72487500Y-82470000D03*
X156684822Y-78386429D03*
X100250000Y-83450000D03*
X135810133Y-82510205D03*
D19*
X108857163Y-76960761D03*
D15*
X134114032Y-79210880D03*
X91725000Y-79360221D03*
X133471543Y-76120176D03*
D20*
X155637711Y-75556992D03*
D15*
X137405096Y-81243364D03*
X69800000Y-82400000D03*
X69700000Y-83300000D03*
D16*
X113800000Y-77700000D03*
D15*
X138188988Y-79291242D03*
X140772773Y-81908792D03*
D20*
X156060441Y-79209422D03*
D15*
X139764685Y-81592586D03*
X156551717Y-77507381D03*
X90724579Y-79356853D03*
X82050000Y-78225500D03*
X93873563Y-76899500D03*
X93862472Y-75650000D03*
X134434819Y-78379661D03*
X93911041Y-78949500D03*
X140174828Y-77634956D03*
X137635098Y-82500578D03*
X137305303Y-76525730D03*
D19*
X110899695Y-78569517D03*
D15*
X111476258Y-82705720D03*
X155927117Y-78023742D03*
X108913796Y-80744229D03*
X122865457Y-78713732D03*
X88737346Y-79366419D03*
X152860858Y-80062216D03*
X86369347Y-77395893D03*
X134424875Y-77155052D03*
X119879671Y-76656732D03*
X77800000Y-79800000D03*
X133225052Y-79128151D03*
X89737766Y-79366419D03*
X134256811Y-76412787D03*
X93458326Y-79364204D03*
X128073316Y-78238505D03*
X137515167Y-77653704D03*
X157859542Y-76971134D03*
X86350000Y-75450000D03*
X150077042Y-79958564D03*
X93887472Y-78125000D03*
X139362773Y-77580695D03*
X87733557Y-79366419D03*
X68650000Y-78300000D03*
D19*
X108863649Y-78945427D03*
D15*
X74150000Y-80250000D03*
X113062508Y-82066434D03*
X88850000Y-81875500D03*
X153658593Y-75432702D03*
D17*
X129332992Y-76543861D03*
D15*
X133727888Y-78527669D03*
X123380387Y-76864554D03*
X157565825Y-78567349D03*
D16*
X114950000Y-78150000D03*
D15*
X92728789Y-79360221D03*
D16*
X140153708Y-76608881D03*
D15*
X133073351Y-77127011D03*
X86362472Y-78450000D03*
X134959554Y-79253266D03*
X155975420Y-76885782D03*
D16*
X144862389Y-79269721D03*
D20*
%TO.N,+5V*%
X130602116Y-76031481D03*
D17*
X131969967Y-79135492D03*
D16*
X69700000Y-77750000D03*
D17*
X121088507Y-76334582D03*
X122102359Y-76323815D03*
D15*
X68237500Y-75620000D03*
D17*
X131356646Y-78429654D03*
D15*
X70400000Y-79100000D03*
X69450000Y-80750000D03*
D17*
%TO.N,Net-(C15-Pad1)*%
X138674054Y-78137383D03*
D15*
X131453662Y-77622634D03*
D17*
%TO.N,Net-(Q3-Pad3)*%
X147187751Y-79119443D03*
D14*
X140793271Y-77292906D03*
D15*
%TO.N,SWITCH*%
X85025000Y-79525000D03*
X72750000Y-78900000D03*
%TO.N,i2S2_CLK*%
X71500000Y-81500000D03*
X80224505Y-83235085D03*
%TO.N,i2S2_Data*%
X96000000Y-79150000D03*
%TO.N,i2S2_WS*%
X76900000Y-81450000D03*
X73750000Y-79200000D03*
X79150000Y-81450000D03*
%TO.N,VDD_SDIO*%
X86950000Y-82725500D03*
X104891312Y-81805026D03*
%TO.N,SIO1*%
X106000000Y-76650000D03*
X84750000Y-78100000D03*
%TO.N,PSRAM_CS*%
X105691312Y-76105026D03*
X105091312Y-79705026D03*
X85625000Y-75575000D03*
%TO.N,SIO3*%
X84100000Y-82600000D03*
X104441312Y-79205026D03*
%TO.N,SCLK*%
X105950000Y-77450000D03*
X83450000Y-80900000D03*
%TO.N,SIO2*%
X83450000Y-78100000D03*
X105041312Y-76755026D03*
%TO.N,SIO0*%
X104541312Y-77255026D03*
X82050000Y-80800000D03*
%TO.N,ALRT*%
X154572913Y-76987269D03*
X100650000Y-74925000D03*
X135470804Y-80868542D03*
%TO.N,TOUCH1*%
X102100000Y-83550000D03*
%TO.N,SCL*%
X154557237Y-78001569D03*
X104741312Y-75755026D03*
D14*
X134381136Y-81843044D03*
%TO.N,SDA*%
X103850000Y-82675000D03*
X155263950Y-78735805D03*
X132083808Y-82243314D03*
D15*
%TO.N,i2S1_Data*%
X99002251Y-83127205D03*
X78600000Y-80650000D03*
%TO.N,DAC*%
X79250000Y-82700000D03*
X98400000Y-83500000D03*
X70200000Y-81500000D03*
D19*
%TO.N,Net-(Q3-Pad1)*%
X117234007Y-78146620D03*
X142173543Y-76239882D03*
D14*
X145541377Y-77909329D03*
D15*
%TO.N,IO9*%
X113300000Y-80400000D03*
X105100000Y-80500000D03*
%TD*%
%TA.AperFunction,Conductor*%
%TO.N,BATT1-*%
G36*
X105684000Y-74372262D02*
G01*
X105688664Y-74372728D01*
X105780213Y-74391056D01*
X105795472Y-74401279D01*
X105799500Y-74414588D01*
X105799500Y-75039882D01*
X105830022Y-75113571D01*
X105830023Y-75113572D01*
X105830024Y-75113574D01*
X105886426Y-75169976D01*
X105886427Y-75169976D01*
X105886428Y-75169977D01*
X105960117Y-75200500D01*
X105960118Y-75200500D01*
X112255110Y-75200500D01*
X112272081Y-75207529D01*
X112279110Y-75224500D01*
X112272081Y-75241471D01*
X112266006Y-75245884D01*
X112239036Y-75259625D01*
X112159625Y-75339036D01*
X112108648Y-75439085D01*
X112091081Y-75550000D01*
X112108648Y-75660914D01*
X112159625Y-75760963D01*
X112159626Y-75760964D01*
X112159628Y-75760967D01*
X112239033Y-75840372D01*
X112239035Y-75840373D01*
X112239036Y-75840374D01*
X112339085Y-75891351D01*
X112339086Y-75891351D01*
X112339088Y-75891352D01*
X112450000Y-75908919D01*
X112560912Y-75891352D01*
X112660967Y-75840372D01*
X112740372Y-75760967D01*
X112791352Y-75660912D01*
X112808919Y-75550000D01*
X112791352Y-75439088D01*
X112791351Y-75439086D01*
X112791351Y-75439085D01*
X112740374Y-75339036D01*
X112740373Y-75339035D01*
X112740372Y-75339033D01*
X112660967Y-75259628D01*
X112660964Y-75259626D01*
X112660963Y-75259625D01*
X112633994Y-75245884D01*
X112622065Y-75231916D01*
X112623506Y-75213604D01*
X112637474Y-75201675D01*
X112644890Y-75200500D01*
X146734940Y-75200500D01*
X146751911Y-75207529D01*
X146758940Y-75224500D01*
X146751911Y-75241469D01*
X146727030Y-75266351D01*
X146704496Y-75288885D01*
X146653519Y-75388934D01*
X146635952Y-75499849D01*
X146653519Y-75610763D01*
X146704496Y-75710812D01*
X146704497Y-75710813D01*
X146704499Y-75710816D01*
X146783904Y-75790221D01*
X146783906Y-75790222D01*
X146783907Y-75790223D01*
X146883956Y-75841200D01*
X146883957Y-75841200D01*
X146883959Y-75841201D01*
X146994871Y-75858768D01*
X147105783Y-75841201D01*
X147119151Y-75834390D01*
X147205834Y-75790223D01*
X147205833Y-75790223D01*
X147205838Y-75790221D01*
X147285243Y-75710816D01*
X147336223Y-75610761D01*
X147353790Y-75499849D01*
X147336223Y-75388937D01*
X147336222Y-75388935D01*
X147336222Y-75388934D01*
X147285245Y-75288885D01*
X147285244Y-75288884D01*
X147285243Y-75288882D01*
X147237830Y-75241469D01*
X147230802Y-75224500D01*
X147237831Y-75207529D01*
X147254802Y-75200500D01*
X157718793Y-75200500D01*
X157735764Y-75207529D01*
X157742793Y-75224500D01*
X157735764Y-75241471D01*
X157731768Y-75244690D01*
X157627134Y-75311933D01*
X157532884Y-75420705D01*
X157473098Y-75551617D01*
X157473097Y-75551620D01*
X157452615Y-75694077D01*
X157473097Y-75836534D01*
X157473098Y-75836536D01*
X157528988Y-75958918D01*
X157532885Y-75967450D01*
X157627134Y-76076220D01*
X157748209Y-76154030D01*
X157886301Y-76194577D01*
X157886302Y-76194577D01*
X158030222Y-76194577D01*
X158030223Y-76194577D01*
X158168315Y-76154030D01*
X158289390Y-76076220D01*
X158383639Y-75967450D01*
X158443427Y-75836534D01*
X158463909Y-75694077D01*
X158443427Y-75551620D01*
X158383639Y-75420704D01*
X158289390Y-75311934D01*
X158289389Y-75311933D01*
X158184756Y-75244690D01*
X158174279Y-75229602D01*
X158177541Y-75211525D01*
X158192629Y-75201048D01*
X158197731Y-75200500D01*
X159585939Y-75200500D01*
X159601164Y-75205948D01*
X159705279Y-75291393D01*
X159708603Y-75294716D01*
X159794053Y-75398837D01*
X159799500Y-75414060D01*
X159799500Y-79734205D01*
X159793762Y-79749777D01*
X159720337Y-79835883D01*
X159705867Y-79844010D01*
X159529801Y-79872180D01*
X159511933Y-79867920D01*
X159502310Y-79852273D01*
X159506570Y-79834405D01*
X159513031Y-79828293D01*
X159538072Y-79812201D01*
X159632321Y-79703431D01*
X159692109Y-79572515D01*
X159712591Y-79430058D01*
X159692109Y-79287601D01*
X159632321Y-79156685D01*
X159538072Y-79047915D01*
X159538071Y-79047914D01*
X159416999Y-78970106D01*
X159416994Y-78970104D01*
X159337531Y-78946772D01*
X159278905Y-78929558D01*
X159134983Y-78929558D01*
X159097769Y-78940485D01*
X158996893Y-78970104D01*
X158996888Y-78970106D01*
X158875816Y-79047914D01*
X158781566Y-79156686D01*
X158733516Y-79261900D01*
X158721779Y-79287601D01*
X158701297Y-79430058D01*
X158721779Y-79572515D01*
X158781567Y-79703431D01*
X158875816Y-79812201D01*
X158996891Y-79890011D01*
X159043591Y-79903723D01*
X159057894Y-79915249D01*
X159059858Y-79933512D01*
X159048332Y-79947815D01*
X159040622Y-79950450D01*
X134985942Y-83799199D01*
X134982150Y-83799500D01*
X131458422Y-83799500D01*
X131441451Y-83792471D01*
X131434422Y-83775500D01*
X131441451Y-83758529D01*
X131445088Y-83755545D01*
X131586606Y-83660984D01*
X131719351Y-83528239D01*
X131784076Y-83431371D01*
X131799349Y-83421166D01*
X131814927Y-83423321D01*
X131839633Y-83435910D01*
X131839634Y-83435910D01*
X131839636Y-83435911D01*
X131972762Y-83456996D01*
X132105888Y-83435911D01*
X132109800Y-83433918D01*
X132225978Y-83374722D01*
X132225977Y-83374722D01*
X132225982Y-83374720D01*
X132321290Y-83279412D01*
X132382481Y-83159318D01*
X132403566Y-83026192D01*
X132382481Y-82893066D01*
X132382480Y-82893064D01*
X132382480Y-82893063D01*
X132321292Y-82772975D01*
X132321291Y-82772974D01*
X132321290Y-82772972D01*
X132225982Y-82677664D01*
X132225979Y-82677662D01*
X132225978Y-82677661D01*
X132145145Y-82636475D01*
X132133216Y-82622507D01*
X132134657Y-82604195D01*
X132148625Y-82592266D01*
X132152276Y-82591388D01*
X132194720Y-82584666D01*
X132294775Y-82533686D01*
X132374180Y-82454281D01*
X132425160Y-82354226D01*
X132442727Y-82243314D01*
X132425160Y-82132402D01*
X132425159Y-82132400D01*
X132425159Y-82132399D01*
X132374182Y-82032350D01*
X132374181Y-82032349D01*
X132374180Y-82032347D01*
X132294775Y-81952942D01*
X132294772Y-81952940D01*
X132294771Y-81952939D01*
X132194722Y-81901962D01*
X132083808Y-81884395D01*
X131972896Y-81901962D01*
X131972895Y-81901962D01*
X131972891Y-81901963D01*
X131904471Y-81936824D01*
X131886159Y-81938265D01*
X131872192Y-81926335D01*
X131871403Y-81924624D01*
X131837612Y-81843044D01*
X134022217Y-81843044D01*
X134039784Y-81953958D01*
X134090761Y-82054007D01*
X134090762Y-82054008D01*
X134090764Y-82054011D01*
X134170169Y-82133416D01*
X134170171Y-82133417D01*
X134170172Y-82133418D01*
X134270221Y-82184395D01*
X134270222Y-82184395D01*
X134270224Y-82184396D01*
X134381136Y-82201963D01*
X134492048Y-82184396D01*
X134592103Y-82133416D01*
X134671508Y-82054011D01*
X134722488Y-81953956D01*
X134740055Y-81843044D01*
X134722488Y-81732132D01*
X134722487Y-81732130D01*
X134722487Y-81732129D01*
X134671510Y-81632080D01*
X134671509Y-81632079D01*
X134671508Y-81632077D01*
X134592103Y-81552672D01*
X134592100Y-81552670D01*
X134592099Y-81552669D01*
X134492050Y-81501692D01*
X134381136Y-81484125D01*
X134270221Y-81501692D01*
X134170172Y-81552669D01*
X134090761Y-81632080D01*
X134039784Y-81732129D01*
X134022217Y-81843044D01*
X131837612Y-81843044D01*
X131823647Y-81809328D01*
X131719351Y-81653240D01*
X131586606Y-81520495D01*
X131430518Y-81416199D01*
X131257089Y-81344364D01*
X131257082Y-81344362D01*
X131233107Y-81339593D01*
X131233107Y-82820740D01*
X131229107Y-82830397D01*
X131229107Y-82216012D01*
X131191047Y-82124126D01*
X131120721Y-82053800D01*
X131028835Y-82015740D01*
X130929379Y-82015740D01*
X130837493Y-82053800D01*
X130767167Y-82124126D01*
X130729107Y-82216012D01*
X130729107Y-82844740D01*
X130026108Y-82844740D01*
X130026107Y-82844741D01*
X130026107Y-83014606D01*
X130062728Y-83198715D01*
X130062731Y-83198722D01*
X130134566Y-83372151D01*
X130238862Y-83528239D01*
X130371607Y-83660984D01*
X130513126Y-83755545D01*
X130523331Y-83770818D01*
X130519747Y-83788834D01*
X130504474Y-83799039D01*
X130499792Y-83799500D01*
X124458422Y-83799500D01*
X124441451Y-83792471D01*
X124434422Y-83775500D01*
X124441451Y-83758529D01*
X124445088Y-83755545D01*
X124586606Y-83660984D01*
X124719351Y-83528239D01*
X124823647Y-83372151D01*
X124895482Y-83198722D01*
X124895485Y-83198715D01*
X124932106Y-83014606D01*
X124932107Y-83014598D01*
X124932107Y-82844741D01*
X124932106Y-82844740D01*
X124229107Y-82844740D01*
X124229107Y-82336739D01*
X124233107Y-82336739D01*
X124233108Y-82336740D01*
X124932106Y-82336740D01*
X124932107Y-82336739D01*
X124932107Y-82166881D01*
X124932106Y-82166873D01*
X130026107Y-82166873D01*
X130026107Y-82336739D01*
X130026108Y-82336740D01*
X130725106Y-82336740D01*
X130725107Y-82336739D01*
X130725107Y-81339593D01*
X130701131Y-81344362D01*
X130701124Y-81344364D01*
X130527695Y-81416199D01*
X130371607Y-81520495D01*
X130238862Y-81653240D01*
X130134566Y-81809328D01*
X130062731Y-81982757D01*
X130062728Y-81982764D01*
X130026107Y-82166873D01*
X124932106Y-82166873D01*
X124895485Y-81982764D01*
X124895482Y-81982757D01*
X124823647Y-81809328D01*
X124719351Y-81653240D01*
X124586606Y-81520495D01*
X124430518Y-81416199D01*
X124257089Y-81344364D01*
X124257082Y-81344362D01*
X124233107Y-81339593D01*
X124233107Y-82336739D01*
X124229107Y-82336739D01*
X124229107Y-82216012D01*
X124191047Y-82124126D01*
X124120721Y-82053800D01*
X124028835Y-82015740D01*
X123929379Y-82015740D01*
X123837493Y-82053800D01*
X123767167Y-82124126D01*
X123729107Y-82216012D01*
X123729107Y-82844740D01*
X123026108Y-82844740D01*
X123026107Y-82844741D01*
X123026107Y-83014606D01*
X123062728Y-83198715D01*
X123062731Y-83198722D01*
X123134566Y-83372151D01*
X123238862Y-83528239D01*
X123371607Y-83660984D01*
X123513126Y-83755545D01*
X123523331Y-83770818D01*
X123519747Y-83788834D01*
X123504474Y-83799039D01*
X123499792Y-83799500D01*
X121640171Y-83799500D01*
X121623200Y-83792471D01*
X121616171Y-83775500D01*
X121620419Y-83761867D01*
X121655552Y-83710967D01*
X121669062Y-83691394D01*
X121669063Y-83691392D01*
X121669065Y-83691388D01*
X121712659Y-83576437D01*
X121725079Y-83543689D01*
X121744120Y-83386871D01*
X121725079Y-83230053D01*
X121704892Y-83176823D01*
X121669065Y-83082353D01*
X121669062Y-83082348D01*
X121579325Y-82952341D01*
X121579323Y-82952339D01*
X121579321Y-82952336D01*
X121461086Y-82847591D01*
X121461080Y-82847587D01*
X121321208Y-82774175D01*
X121244517Y-82755273D01*
X121167827Y-82736371D01*
X121009857Y-82736371D01*
X120958730Y-82748972D01*
X120856475Y-82774175D01*
X120716603Y-82847587D01*
X120716597Y-82847591D01*
X120598362Y-82952336D01*
X120508618Y-83082353D01*
X120452605Y-83230051D01*
X120433564Y-83386870D01*
X120433564Y-83386871D01*
X120452605Y-83543690D01*
X120508618Y-83691388D01*
X120508620Y-83691392D01*
X120557265Y-83761867D01*
X120561120Y-83779826D01*
X120551146Y-83795252D01*
X120537513Y-83799500D01*
X115113268Y-83799500D01*
X115096297Y-83792471D01*
X115089268Y-83775500D01*
X115093516Y-83761867D01*
X115130279Y-83708606D01*
X115149062Y-83681394D01*
X115149063Y-83681392D01*
X115149065Y-83681388D01*
X115182205Y-83594003D01*
X115205079Y-83533689D01*
X115224120Y-83376871D01*
X115205079Y-83220053D01*
X115184481Y-83165740D01*
X115149065Y-83072353D01*
X115145268Y-83066852D01*
X115059325Y-82942341D01*
X115059323Y-82942339D01*
X115059321Y-82942336D01*
X114941086Y-82837591D01*
X114941080Y-82837587D01*
X114801208Y-82764175D01*
X114688399Y-82736371D01*
X114647827Y-82726371D01*
X114489857Y-82726371D01*
X114449285Y-82736371D01*
X114336475Y-82764175D01*
X114196603Y-82837587D01*
X114196597Y-82837591D01*
X114078362Y-82942336D01*
X113988618Y-83072353D01*
X113932605Y-83220051D01*
X113913564Y-83376870D01*
X113913564Y-83376871D01*
X113932605Y-83533690D01*
X113988618Y-83681388D01*
X113988620Y-83681392D01*
X114044168Y-83761867D01*
X114048023Y-83779826D01*
X114038049Y-83795252D01*
X114024416Y-83799500D01*
X106097143Y-83799500D01*
X106080172Y-83792471D01*
X106073143Y-83775500D01*
X106075759Y-83764604D01*
X106122652Y-83672569D01*
X106122652Y-83672568D01*
X106122653Y-83672567D01*
X106140220Y-83561655D01*
X106122653Y-83450743D01*
X106122652Y-83450741D01*
X106122652Y-83450740D01*
X106071675Y-83350691D01*
X106071674Y-83350690D01*
X106071673Y-83350688D01*
X105992268Y-83271283D01*
X105992265Y-83271281D01*
X105992264Y-83271280D01*
X105892215Y-83220303D01*
X105781301Y-83202736D01*
X105670386Y-83220303D01*
X105570337Y-83271280D01*
X105490926Y-83350691D01*
X105439949Y-83450740D01*
X105422382Y-83561655D01*
X105439949Y-83672569D01*
X105486843Y-83764604D01*
X105488284Y-83782917D01*
X105476355Y-83796884D01*
X105465459Y-83799500D01*
X102409479Y-83799500D01*
X102392508Y-83792471D01*
X102385479Y-83775500D01*
X102389634Y-83762711D01*
X102389515Y-83762650D01*
X102389901Y-83761892D01*
X102390064Y-83761391D01*
X102390373Y-83760965D01*
X102441351Y-83660914D01*
X102441351Y-83660913D01*
X102441352Y-83660912D01*
X102458919Y-83550000D01*
X102441352Y-83439088D01*
X102441351Y-83439086D01*
X102441351Y-83439085D01*
X102390374Y-83339036D01*
X102390373Y-83339035D01*
X102390372Y-83339033D01*
X102310967Y-83259628D01*
X102310964Y-83259626D01*
X102310963Y-83259625D01*
X102210914Y-83208648D01*
X102100000Y-83191081D01*
X101989085Y-83208648D01*
X101889036Y-83259625D01*
X101809625Y-83339036D01*
X101758648Y-83439085D01*
X101741081Y-83550000D01*
X101758648Y-83660914D01*
X101809626Y-83760965D01*
X101809936Y-83761391D01*
X101810018Y-83761734D01*
X101810485Y-83762650D01*
X101810265Y-83762761D01*
X101814226Y-83779252D01*
X101804630Y-83794915D01*
X101790521Y-83799500D01*
X98659780Y-83799500D01*
X98642809Y-83792471D01*
X98635780Y-83775500D01*
X98642808Y-83758530D01*
X98690372Y-83710967D01*
X98741352Y-83610912D01*
X98758919Y-83500000D01*
X98748871Y-83436563D01*
X98753160Y-83418703D01*
X98768821Y-83409105D01*
X98786683Y-83413394D01*
X98789540Y-83415833D01*
X98791284Y-83417577D01*
X98791286Y-83417578D01*
X98791287Y-83417579D01*
X98891336Y-83468556D01*
X98891337Y-83468556D01*
X98891339Y-83468557D01*
X99002251Y-83486124D01*
X99113163Y-83468557D01*
X99213218Y-83417577D01*
X99292623Y-83338172D01*
X99318097Y-83288174D01*
X99332064Y-83276245D01*
X99350376Y-83277686D01*
X99358892Y-83284956D01*
X99359622Y-83285960D01*
X99359626Y-83285964D01*
X99359628Y-83285967D01*
X99439033Y-83365372D01*
X99439035Y-83365373D01*
X99439036Y-83365374D01*
X99539085Y-83416351D01*
X99539086Y-83416351D01*
X99539088Y-83416352D01*
X99650000Y-83433919D01*
X99760912Y-83416352D01*
X99860967Y-83365372D01*
X99940372Y-83285967D01*
X99945960Y-83275000D01*
X100741081Y-83275000D01*
X100758648Y-83385914D01*
X100809625Y-83485963D01*
X100809626Y-83485964D01*
X100809628Y-83485967D01*
X100889033Y-83565372D01*
X100889035Y-83565373D01*
X100889036Y-83565374D01*
X100989085Y-83616351D01*
X100989086Y-83616351D01*
X100989088Y-83616352D01*
X101100000Y-83633919D01*
X101210912Y-83616352D01*
X101310967Y-83565372D01*
X101390372Y-83485967D01*
X101441352Y-83385912D01*
X101458919Y-83275000D01*
X101441352Y-83164088D01*
X101441351Y-83164086D01*
X101441351Y-83164085D01*
X101390374Y-83064036D01*
X101390373Y-83064035D01*
X101390372Y-83064033D01*
X101310967Y-82984628D01*
X101310964Y-82984626D01*
X101310963Y-82984625D01*
X101210914Y-82933648D01*
X101100000Y-82916081D01*
X100989085Y-82933648D01*
X100889036Y-82984625D01*
X100809625Y-83064036D01*
X100758648Y-83164085D01*
X100741081Y-83275000D01*
X99945960Y-83275000D01*
X99991352Y-83185912D01*
X100008919Y-83075000D01*
X99991352Y-82964088D01*
X99991351Y-82964086D01*
X99991351Y-82964085D01*
X99940374Y-82864036D01*
X99940373Y-82864035D01*
X99940372Y-82864033D01*
X99860967Y-82784628D01*
X99860964Y-82784626D01*
X99860963Y-82784625D01*
X99760914Y-82733648D01*
X99650000Y-82716081D01*
X99539085Y-82733648D01*
X99439036Y-82784625D01*
X99359625Y-82864036D01*
X99334152Y-82914030D01*
X99320184Y-82925959D01*
X99301872Y-82924518D01*
X99293352Y-82917241D01*
X99292626Y-82916242D01*
X99292624Y-82916240D01*
X99292623Y-82916238D01*
X99213218Y-82836833D01*
X99213215Y-82836831D01*
X99213214Y-82836830D01*
X99113165Y-82785853D01*
X99002251Y-82768286D01*
X98891336Y-82785853D01*
X98791287Y-82836830D01*
X98711876Y-82916241D01*
X98660899Y-83016290D01*
X98643332Y-83127205D01*
X98653379Y-83190640D01*
X98649090Y-83208501D01*
X98633428Y-83218099D01*
X98615567Y-83213810D01*
X98612709Y-83211370D01*
X98610967Y-83209628D01*
X98610964Y-83209626D01*
X98610963Y-83209625D01*
X98510914Y-83158648D01*
X98400000Y-83141081D01*
X98289085Y-83158648D01*
X98189036Y-83209625D01*
X98109625Y-83289036D01*
X98058648Y-83389085D01*
X98041081Y-83500000D01*
X98058648Y-83610914D01*
X98109625Y-83710963D01*
X98109626Y-83710964D01*
X98109628Y-83710967D01*
X98157191Y-83758530D01*
X98164220Y-83775500D01*
X98157191Y-83792471D01*
X98140220Y-83799500D01*
X71232873Y-83799500D01*
X71215902Y-83792471D01*
X71208873Y-83775500D01*
X71210700Y-83766316D01*
X71235981Y-83705279D01*
X71255309Y-83658618D01*
X71279500Y-83537000D01*
X71279500Y-83424679D01*
X71286529Y-83407708D01*
X71303500Y-83400679D01*
X71314396Y-83403295D01*
X71389085Y-83441351D01*
X71389086Y-83441351D01*
X71389088Y-83441352D01*
X71500000Y-83458919D01*
X71610912Y-83441352D01*
X71710967Y-83390372D01*
X71790372Y-83310967D01*
X71836694Y-83220053D01*
X71841351Y-83210914D01*
X71841351Y-83210913D01*
X71841352Y-83210912D01*
X71858919Y-83100000D01*
X71841352Y-82989088D01*
X71841351Y-82989086D01*
X71841351Y-82989085D01*
X71790374Y-82889036D01*
X71790373Y-82889035D01*
X71790372Y-82889033D01*
X71710967Y-82809628D01*
X71710964Y-82809626D01*
X71710963Y-82809625D01*
X71610914Y-82758648D01*
X71500000Y-82741081D01*
X71389085Y-82758648D01*
X71289036Y-82809625D01*
X71209625Y-82889036D01*
X71158647Y-82989087D01*
X71158647Y-82989088D01*
X71151753Y-83032615D01*
X71142156Y-83048277D01*
X71124294Y-83052564D01*
X71111080Y-83045832D01*
X71051283Y-82986035D01*
X71018437Y-82964088D01*
X70948176Y-82917141D01*
X70833620Y-82869692D01*
X70833613Y-82869689D01*
X70712004Y-82845500D01*
X70712000Y-82845500D01*
X70588000Y-82845500D01*
X70587995Y-82845500D01*
X70466386Y-82869689D01*
X70466379Y-82869692D01*
X70351823Y-82917141D01*
X70248719Y-82986033D01*
X70161033Y-83073719D01*
X70092141Y-83176823D01*
X70044692Y-83291379D01*
X70044689Y-83291386D01*
X70020500Y-83412995D01*
X70020500Y-83537004D01*
X70044689Y-83658613D01*
X70044692Y-83658620D01*
X70089300Y-83766316D01*
X70089300Y-83784685D01*
X70076311Y-83797673D01*
X70067127Y-83799500D01*
X67414061Y-83799500D01*
X67398836Y-83794052D01*
X67294720Y-83708606D01*
X67291393Y-83705279D01*
X67205948Y-83601163D01*
X67200500Y-83585938D01*
X67200500Y-82733581D01*
X76495500Y-82733581D01*
X76495500Y-82866419D01*
X76508807Y-82916081D01*
X76528713Y-82990374D01*
X76529881Y-82994730D01*
X76596300Y-83109770D01*
X76690230Y-83203700D01*
X76805270Y-83270119D01*
X76933581Y-83304500D01*
X76933582Y-83304500D01*
X77066418Y-83304500D01*
X77066419Y-83304500D01*
X77194730Y-83270119D01*
X77255410Y-83235085D01*
X79865586Y-83235085D01*
X79883153Y-83345999D01*
X79934130Y-83446048D01*
X79934131Y-83446049D01*
X79934133Y-83446052D01*
X80013538Y-83525457D01*
X80013540Y-83525458D01*
X80013541Y-83525459D01*
X80113590Y-83576436D01*
X80113591Y-83576436D01*
X80113593Y-83576437D01*
X80224505Y-83594004D01*
X80335417Y-83576437D01*
X80435472Y-83525457D01*
X80514877Y-83446052D01*
X80565857Y-83345997D01*
X80583424Y-83235085D01*
X80565857Y-83124173D01*
X80565856Y-83124171D01*
X80565856Y-83124170D01*
X80514879Y-83024121D01*
X80514878Y-83024120D01*
X80514877Y-83024118D01*
X80435472Y-82944713D01*
X80435469Y-82944711D01*
X80435468Y-82944710D01*
X80335419Y-82893733D01*
X80224505Y-82876166D01*
X80113590Y-82893733D01*
X80013541Y-82944710D01*
X79934130Y-83024121D01*
X79883153Y-83124170D01*
X79865586Y-83235085D01*
X77255410Y-83235085D01*
X77309770Y-83203700D01*
X77403700Y-83109770D01*
X77470119Y-82994730D01*
X77504500Y-82866419D01*
X77504500Y-82733581D01*
X77495502Y-82700000D01*
X78891081Y-82700000D01*
X78908648Y-82810914D01*
X78959625Y-82910963D01*
X78959626Y-82910964D01*
X78959628Y-82910967D01*
X79039033Y-82990372D01*
X79039035Y-82990373D01*
X79039036Y-82990374D01*
X79139085Y-83041351D01*
X79139086Y-83041351D01*
X79139088Y-83041352D01*
X79250000Y-83058919D01*
X79360912Y-83041352D01*
X79460967Y-82990372D01*
X79540372Y-82910967D01*
X79591352Y-82810912D01*
X79608919Y-82700000D01*
X79593080Y-82600000D01*
X83741081Y-82600000D01*
X83758648Y-82710914D01*
X83809625Y-82810963D01*
X83809626Y-82810964D01*
X83809628Y-82810967D01*
X83889033Y-82890372D01*
X83889035Y-82890373D01*
X83889036Y-82890374D01*
X83989085Y-82941351D01*
X83989086Y-82941351D01*
X83989088Y-82941352D01*
X84100000Y-82958919D01*
X84210912Y-82941352D01*
X84310967Y-82890372D01*
X84390372Y-82810967D01*
X84433919Y-82725500D01*
X86591081Y-82725500D01*
X86608648Y-82836414D01*
X86659625Y-82936463D01*
X86659626Y-82936464D01*
X86659628Y-82936467D01*
X86739033Y-83015872D01*
X86739035Y-83015873D01*
X86739036Y-83015874D01*
X86839085Y-83066851D01*
X86839086Y-83066851D01*
X86839088Y-83066852D01*
X86950000Y-83084419D01*
X87060912Y-83066852D01*
X87160967Y-83015872D01*
X87240372Y-82936467D01*
X87290753Y-82837587D01*
X87291351Y-82836414D01*
X87291351Y-82836413D01*
X87291352Y-82836412D01*
X87308919Y-82725500D01*
X87300920Y-82675000D01*
X103491081Y-82675000D01*
X103508648Y-82785914D01*
X103559625Y-82885963D01*
X103559626Y-82885964D01*
X103559628Y-82885967D01*
X103639033Y-82965372D01*
X103639035Y-82965373D01*
X103639036Y-82965374D01*
X103739085Y-83016351D01*
X103739086Y-83016351D01*
X103739088Y-83016352D01*
X103850000Y-83033919D01*
X103960912Y-83016352D01*
X104060967Y-82965372D01*
X104140372Y-82885967D01*
X104191352Y-82785912D01*
X104208919Y-82675000D01*
X104191352Y-82564088D01*
X104191351Y-82564086D01*
X104191351Y-82564085D01*
X104140374Y-82464036D01*
X104140373Y-82464035D01*
X104140372Y-82464033D01*
X104060967Y-82384628D01*
X104060964Y-82384626D01*
X104060963Y-82384625D01*
X103960914Y-82333648D01*
X103850000Y-82316081D01*
X103739085Y-82333648D01*
X103639036Y-82384625D01*
X103559625Y-82464036D01*
X103508648Y-82564085D01*
X103491081Y-82675000D01*
X87300920Y-82675000D01*
X87291352Y-82614588D01*
X87291351Y-82614586D01*
X87291351Y-82614585D01*
X87240374Y-82514536D01*
X87240373Y-82514535D01*
X87240372Y-82514533D01*
X87160967Y-82435128D01*
X87160964Y-82435126D01*
X87160963Y-82435125D01*
X87060914Y-82384148D01*
X86950000Y-82366581D01*
X86839085Y-82384148D01*
X86739036Y-82435125D01*
X86659625Y-82514536D01*
X86608648Y-82614585D01*
X86591081Y-82725500D01*
X84433919Y-82725500D01*
X84436291Y-82720844D01*
X84441351Y-82710914D01*
X84441351Y-82710913D01*
X84441352Y-82710912D01*
X84458919Y-82600000D01*
X84441352Y-82489088D01*
X84441351Y-82489086D01*
X84441351Y-82489085D01*
X84390374Y-82389036D01*
X84390373Y-82389035D01*
X84390372Y-82389033D01*
X84310967Y-82309628D01*
X84310964Y-82309626D01*
X84310963Y-82309625D01*
X84210914Y-82258648D01*
X84100000Y-82241081D01*
X83989085Y-82258648D01*
X83889036Y-82309625D01*
X83809625Y-82389036D01*
X83758648Y-82489085D01*
X83741081Y-82600000D01*
X79593080Y-82600000D01*
X79591352Y-82589088D01*
X79591351Y-82589086D01*
X79591351Y-82589085D01*
X79540374Y-82489036D01*
X79540373Y-82489035D01*
X79540372Y-82489033D01*
X79460967Y-82409628D01*
X79460964Y-82409626D01*
X79460963Y-82409625D01*
X79360914Y-82358648D01*
X79250000Y-82341081D01*
X79139085Y-82358648D01*
X79039036Y-82409625D01*
X78959625Y-82489036D01*
X78908648Y-82589085D01*
X78891081Y-82700000D01*
X77495502Y-82700000D01*
X77470119Y-82605270D01*
X77403700Y-82490230D01*
X77309770Y-82396300D01*
X77194730Y-82329881D01*
X77194729Y-82329880D01*
X77194728Y-82329880D01*
X77079145Y-82298910D01*
X77066419Y-82295500D01*
X76933581Y-82295500D01*
X76920855Y-82298910D01*
X76805271Y-82329880D01*
X76690230Y-82396300D01*
X76596300Y-82490230D01*
X76529880Y-82605271D01*
X76504712Y-82699201D01*
X76495500Y-82733581D01*
X67200500Y-82733581D01*
X67200500Y-82150000D01*
X95391081Y-82150000D01*
X95408648Y-82260914D01*
X95459625Y-82360963D01*
X95459626Y-82360964D01*
X95459628Y-82360967D01*
X95539033Y-82440372D01*
X95539035Y-82440373D01*
X95539036Y-82440374D01*
X95639085Y-82491351D01*
X95639086Y-82491351D01*
X95639088Y-82491352D01*
X95750000Y-82508919D01*
X95860912Y-82491352D01*
X95960967Y-82440372D01*
X96040372Y-82360967D01*
X96091352Y-82260912D01*
X96093080Y-82250000D01*
X105491081Y-82250000D01*
X105508648Y-82360914D01*
X105559625Y-82460963D01*
X105559626Y-82460964D01*
X105559628Y-82460967D01*
X105639033Y-82540372D01*
X105639035Y-82540373D01*
X105639036Y-82540374D01*
X105739085Y-82591351D01*
X105739086Y-82591351D01*
X105739088Y-82591352D01*
X105850000Y-82608919D01*
X105960912Y-82591352D01*
X106060967Y-82540372D01*
X106091462Y-82509877D01*
X106408700Y-82509877D01*
X106426267Y-82620791D01*
X106477244Y-82720840D01*
X106477245Y-82720841D01*
X106477247Y-82720844D01*
X106556652Y-82800249D01*
X106556654Y-82800250D01*
X106556655Y-82800251D01*
X106656704Y-82851228D01*
X106656705Y-82851228D01*
X106656707Y-82851229D01*
X106767619Y-82868796D01*
X106878531Y-82851229D01*
X106978586Y-82800249D01*
X107057991Y-82720844D01*
X107108971Y-82620789D01*
X107126538Y-82509877D01*
X107108971Y-82398965D01*
X107108970Y-82398963D01*
X107108970Y-82398962D01*
X107082638Y-82347282D01*
X109243685Y-82347282D01*
X109261252Y-82458196D01*
X109312229Y-82558245D01*
X109312230Y-82558246D01*
X109312232Y-82558249D01*
X109391637Y-82637654D01*
X109391639Y-82637655D01*
X109391640Y-82637656D01*
X109491689Y-82688633D01*
X109491690Y-82688633D01*
X109491692Y-82688634D01*
X109602604Y-82706201D01*
X109713516Y-82688634D01*
X109813571Y-82637654D01*
X109892976Y-82558249D01*
X109943956Y-82458194D01*
X109961523Y-82347282D01*
X109943956Y-82236370D01*
X109943955Y-82236368D01*
X109943955Y-82236367D01*
X109908546Y-82166873D01*
X123026107Y-82166873D01*
X123026107Y-82336739D01*
X123026108Y-82336740D01*
X123725106Y-82336740D01*
X123725107Y-82336739D01*
X123725107Y-81339593D01*
X123701131Y-81344362D01*
X123701124Y-81344364D01*
X123527695Y-81416199D01*
X123371607Y-81520495D01*
X123238862Y-81653240D01*
X123134566Y-81809328D01*
X123062731Y-81982757D01*
X123062728Y-81982764D01*
X123026107Y-82166873D01*
X109908546Y-82166873D01*
X109892978Y-82136318D01*
X109892977Y-82136317D01*
X109892976Y-82136315D01*
X109813571Y-82056910D01*
X109813568Y-82056908D01*
X109813567Y-82056907D01*
X109713518Y-82005930D01*
X109602604Y-81988363D01*
X109491689Y-82005930D01*
X109391640Y-82056907D01*
X109312229Y-82136318D01*
X109261252Y-82236367D01*
X109243685Y-82347282D01*
X107082638Y-82347282D01*
X107057993Y-82298913D01*
X107057992Y-82298912D01*
X107057991Y-82298910D01*
X106978586Y-82219505D01*
X106978583Y-82219503D01*
X106978582Y-82219502D01*
X106878533Y-82168525D01*
X106767619Y-82150958D01*
X106656704Y-82168525D01*
X106556655Y-82219502D01*
X106477244Y-82298913D01*
X106426267Y-82398962D01*
X106408700Y-82509877D01*
X106091462Y-82509877D01*
X106140372Y-82460967D01*
X106191352Y-82360912D01*
X106208919Y-82250000D01*
X106191352Y-82139088D01*
X106191351Y-82139086D01*
X106191351Y-82139085D01*
X106140374Y-82039036D01*
X106140373Y-82039035D01*
X106140372Y-82039033D01*
X106060967Y-81959628D01*
X106060964Y-81959626D01*
X106060963Y-81959625D01*
X105960914Y-81908648D01*
X105850000Y-81891081D01*
X105739085Y-81908648D01*
X105639036Y-81959625D01*
X105559625Y-82039036D01*
X105508648Y-82139085D01*
X105491081Y-82250000D01*
X96093080Y-82250000D01*
X96108919Y-82150000D01*
X96091352Y-82039088D01*
X96091351Y-82039086D01*
X96091351Y-82039085D01*
X96040374Y-81939036D01*
X96040373Y-81939035D01*
X96040372Y-81939033D01*
X95960967Y-81859628D01*
X95960964Y-81859626D01*
X95960963Y-81859625D01*
X95860914Y-81808648D01*
X95838046Y-81805026D01*
X104532393Y-81805026D01*
X104549960Y-81915940D01*
X104600937Y-82015989D01*
X104600938Y-82015990D01*
X104600940Y-82015993D01*
X104680345Y-82095398D01*
X104680347Y-82095399D01*
X104680348Y-82095400D01*
X104780397Y-82146377D01*
X104780398Y-82146377D01*
X104780400Y-82146378D01*
X104891312Y-82163945D01*
X105002224Y-82146378D01*
X105102279Y-82095398D01*
X105181684Y-82015993D01*
X105232664Y-81915938D01*
X105247280Y-81823656D01*
X107923149Y-81823656D01*
X107940716Y-81934570D01*
X107991693Y-82034619D01*
X107991694Y-82034620D01*
X107991696Y-82034623D01*
X108071101Y-82114028D01*
X108071103Y-82114029D01*
X108071104Y-82114030D01*
X108171153Y-82165007D01*
X108171154Y-82165007D01*
X108171156Y-82165008D01*
X108282068Y-82182575D01*
X108392980Y-82165008D01*
X108493035Y-82114028D01*
X108572440Y-82034623D01*
X108623420Y-81934568D01*
X108640987Y-81823656D01*
X108623420Y-81712744D01*
X108623419Y-81712742D01*
X108623419Y-81712741D01*
X108572442Y-81612692D01*
X108572441Y-81612691D01*
X108572440Y-81612689D01*
X108493035Y-81533284D01*
X108493032Y-81533282D01*
X108493031Y-81533281D01*
X108392982Y-81482304D01*
X108282068Y-81464737D01*
X108171153Y-81482304D01*
X108071104Y-81533281D01*
X107991693Y-81612692D01*
X107940716Y-81712741D01*
X107923149Y-81823656D01*
X105247280Y-81823656D01*
X105250231Y-81805026D01*
X105232664Y-81694114D01*
X105232663Y-81694112D01*
X105232663Y-81694111D01*
X105181686Y-81594062D01*
X105181685Y-81594061D01*
X105181684Y-81594059D01*
X105102279Y-81514654D01*
X105102276Y-81514652D01*
X105102275Y-81514651D01*
X105002226Y-81463674D01*
X104891312Y-81446107D01*
X104780397Y-81463674D01*
X104680348Y-81514651D01*
X104600937Y-81594062D01*
X104549960Y-81694111D01*
X104532393Y-81805026D01*
X95838046Y-81805026D01*
X95750000Y-81791081D01*
X95639085Y-81808648D01*
X95539036Y-81859625D01*
X95459625Y-81939036D01*
X95408648Y-82039085D01*
X95391081Y-82150000D01*
X67200500Y-82150000D01*
X67200500Y-81370000D01*
X69071081Y-81370000D01*
X69088648Y-81480914D01*
X69139625Y-81580963D01*
X69139626Y-81580964D01*
X69139628Y-81580967D01*
X69219033Y-81660372D01*
X69219035Y-81660373D01*
X69219036Y-81660374D01*
X69319085Y-81711351D01*
X69319086Y-81711351D01*
X69319088Y-81711352D01*
X69430000Y-81728919D01*
X69540912Y-81711352D01*
X69541676Y-81710963D01*
X69640963Y-81660374D01*
X69640962Y-81660374D01*
X69640967Y-81660372D01*
X69720372Y-81580967D01*
X69761626Y-81500000D01*
X69841081Y-81500000D01*
X69858648Y-81610914D01*
X69909625Y-81710963D01*
X69909626Y-81710964D01*
X69909628Y-81710967D01*
X69989033Y-81790372D01*
X69989035Y-81790373D01*
X69989036Y-81790374D01*
X70089085Y-81841351D01*
X70089086Y-81841351D01*
X70089088Y-81841352D01*
X70200000Y-81858919D01*
X70310912Y-81841352D01*
X70410967Y-81790372D01*
X70490372Y-81710967D01*
X70541352Y-81610912D01*
X70558919Y-81500000D01*
X71141081Y-81500000D01*
X71158648Y-81610914D01*
X71209625Y-81710963D01*
X71209626Y-81710964D01*
X71209628Y-81710967D01*
X71289033Y-81790372D01*
X71289035Y-81790373D01*
X71289036Y-81790374D01*
X71389085Y-81841351D01*
X71389086Y-81841351D01*
X71389088Y-81841352D01*
X71500000Y-81858919D01*
X71610912Y-81841352D01*
X71710967Y-81790372D01*
X71790372Y-81710967D01*
X71841352Y-81610912D01*
X71858919Y-81500000D01*
X71851000Y-81450000D01*
X76541081Y-81450000D01*
X76558648Y-81560914D01*
X76609625Y-81660963D01*
X76609626Y-81660964D01*
X76609628Y-81660967D01*
X76689033Y-81740372D01*
X76689035Y-81740373D01*
X76689036Y-81740374D01*
X76789085Y-81791351D01*
X76789086Y-81791351D01*
X76789088Y-81791352D01*
X76900000Y-81808919D01*
X77010912Y-81791352D01*
X77110967Y-81740372D01*
X77190372Y-81660967D01*
X77241352Y-81560912D01*
X77258919Y-81450000D01*
X78791081Y-81450000D01*
X78808648Y-81560914D01*
X78859625Y-81660963D01*
X78859626Y-81660964D01*
X78859628Y-81660967D01*
X78939033Y-81740372D01*
X78939035Y-81740373D01*
X78939036Y-81740374D01*
X79039085Y-81791351D01*
X79039086Y-81791351D01*
X79039088Y-81791352D01*
X79150000Y-81808919D01*
X79260912Y-81791352D01*
X79360967Y-81740372D01*
X79440372Y-81660967D01*
X79491352Y-81560912D01*
X79508919Y-81450000D01*
X79491352Y-81339088D01*
X79491351Y-81339086D01*
X79491351Y-81339085D01*
X79440374Y-81239036D01*
X79440373Y-81239035D01*
X79440372Y-81239033D01*
X79360967Y-81159628D01*
X79360964Y-81159626D01*
X79360963Y-81159625D01*
X79342073Y-81150000D01*
X79491081Y-81150000D01*
X79508648Y-81260914D01*
X79559625Y-81360963D01*
X79559626Y-81360964D01*
X79559628Y-81360967D01*
X79639033Y-81440372D01*
X79639035Y-81440373D01*
X79639036Y-81440374D01*
X79739085Y-81491351D01*
X79739086Y-81491351D01*
X79739088Y-81491352D01*
X79850000Y-81508919D01*
X79960912Y-81491352D01*
X80060967Y-81440372D01*
X80101339Y-81400000D01*
X94241081Y-81400000D01*
X94258648Y-81510914D01*
X94309625Y-81610963D01*
X94309626Y-81610964D01*
X94309628Y-81610967D01*
X94389033Y-81690372D01*
X94389035Y-81690373D01*
X94389036Y-81690374D01*
X94489085Y-81741351D01*
X94489086Y-81741351D01*
X94489088Y-81741352D01*
X94600000Y-81758919D01*
X94710912Y-81741352D01*
X94810967Y-81690372D01*
X94890372Y-81610967D01*
X94902992Y-81586198D01*
X98767354Y-81586198D01*
X98769032Y-81587253D01*
X98769034Y-81587254D01*
X98930260Y-81643670D01*
X98930263Y-81643671D01*
X99099999Y-81662796D01*
X99100001Y-81662796D01*
X99269736Y-81643671D01*
X99269739Y-81643670D01*
X99430958Y-81587257D01*
X99430968Y-81587252D01*
X99432644Y-81586198D01*
X99967354Y-81586198D01*
X99969032Y-81587253D01*
X99969034Y-81587254D01*
X100130260Y-81643670D01*
X100130263Y-81643671D01*
X100299999Y-81662796D01*
X100300001Y-81662796D01*
X100469736Y-81643671D01*
X100469739Y-81643670D01*
X100630958Y-81587257D01*
X100630968Y-81587252D01*
X100632644Y-81586198D01*
X101267354Y-81586198D01*
X101269032Y-81587253D01*
X101269034Y-81587254D01*
X101430260Y-81643670D01*
X101430263Y-81643671D01*
X101599999Y-81662796D01*
X101600001Y-81662796D01*
X101769736Y-81643671D01*
X101769739Y-81643670D01*
X101930958Y-81587257D01*
X101930968Y-81587252D01*
X101932644Y-81586198D01*
X101599999Y-81253553D01*
X101267354Y-81586198D01*
X100632644Y-81586198D01*
X100299999Y-81253553D01*
X99967354Y-81586198D01*
X99432644Y-81586198D01*
X99099999Y-81253553D01*
X98767354Y-81586198D01*
X94902992Y-81586198D01*
X94941352Y-81510912D01*
X94958919Y-81400000D01*
X94941352Y-81289088D01*
X94941351Y-81289086D01*
X94941351Y-81289085D01*
X94918841Y-81244906D01*
X105905105Y-81244906D01*
X105922672Y-81355820D01*
X105973649Y-81455869D01*
X105973650Y-81455870D01*
X105973652Y-81455873D01*
X106053057Y-81535278D01*
X106053059Y-81535279D01*
X106053060Y-81535280D01*
X106153109Y-81586257D01*
X106153110Y-81586257D01*
X106153112Y-81586258D01*
X106264024Y-81603825D01*
X106374936Y-81586258D01*
X106474991Y-81535278D01*
X106554396Y-81455873D01*
X106582864Y-81400000D01*
X106891081Y-81400000D01*
X106908648Y-81510914D01*
X106959625Y-81610963D01*
X106959626Y-81610964D01*
X106959628Y-81610967D01*
X107039033Y-81690372D01*
X107039035Y-81690373D01*
X107039036Y-81690374D01*
X107139085Y-81741351D01*
X107139086Y-81741351D01*
X107139088Y-81741352D01*
X107250000Y-81758919D01*
X107360912Y-81741352D01*
X107460967Y-81690372D01*
X107540372Y-81610967D01*
X107591352Y-81510912D01*
X107608919Y-81400000D01*
X107591352Y-81289088D01*
X107591351Y-81289086D01*
X107591351Y-81289085D01*
X107570358Y-81247883D01*
X109202779Y-81247883D01*
X109220346Y-81358797D01*
X109271323Y-81458846D01*
X109271324Y-81458847D01*
X109271326Y-81458850D01*
X109350731Y-81538255D01*
X109350733Y-81538256D01*
X109350734Y-81538257D01*
X109450783Y-81589234D01*
X109450784Y-81589234D01*
X109450786Y-81589235D01*
X109561698Y-81606802D01*
X109672610Y-81589235D01*
X109772665Y-81538255D01*
X109852070Y-81458850D01*
X109903050Y-81358795D01*
X109920617Y-81247883D01*
X109903050Y-81136971D01*
X109903049Y-81136969D01*
X109903049Y-81136968D01*
X109892213Y-81115702D01*
X109890772Y-81097390D01*
X109902701Y-81083422D01*
X109921013Y-81081981D01*
X109924493Y-81083422D01*
X109945759Y-81094258D01*
X109945760Y-81094258D01*
X109945762Y-81094259D01*
X110056674Y-81111826D01*
X110167586Y-81094259D01*
X110267641Y-81043279D01*
X110347046Y-80963874D01*
X110398026Y-80863819D01*
X110415593Y-80752907D01*
X110398026Y-80641995D01*
X110398025Y-80641993D01*
X110398025Y-80641992D01*
X110347048Y-80541943D01*
X110347047Y-80541942D01*
X110347046Y-80541940D01*
X110267641Y-80462535D01*
X110267638Y-80462533D01*
X110267637Y-80462532D01*
X110167588Y-80411555D01*
X110056674Y-80393988D01*
X109945759Y-80411555D01*
X109845710Y-80462532D01*
X109766299Y-80541943D01*
X109715322Y-80641992D01*
X109697755Y-80752907D01*
X109715322Y-80863821D01*
X109726158Y-80885087D01*
X109727599Y-80903400D01*
X109715670Y-80917367D01*
X109697357Y-80918808D01*
X109693878Y-80917367D01*
X109672612Y-80906531D01*
X109561698Y-80888964D01*
X109450783Y-80906531D01*
X109350734Y-80957508D01*
X109271323Y-81036919D01*
X109220346Y-81136968D01*
X109202779Y-81247883D01*
X107570358Y-81247883D01*
X107540374Y-81189036D01*
X107540373Y-81189035D01*
X107540372Y-81189033D01*
X107460967Y-81109628D01*
X107460964Y-81109626D01*
X107460963Y-81109625D01*
X107360914Y-81058648D01*
X107250000Y-81041081D01*
X107139085Y-81058648D01*
X107039036Y-81109625D01*
X106959625Y-81189036D01*
X106908648Y-81289085D01*
X106891081Y-81400000D01*
X106582864Y-81400000D01*
X106605376Y-81355818D01*
X106622943Y-81244906D01*
X106605376Y-81133994D01*
X106605375Y-81133992D01*
X106605375Y-81133991D01*
X106554398Y-81033942D01*
X106554397Y-81033941D01*
X106554396Y-81033939D01*
X106474991Y-80954534D01*
X106474988Y-80954532D01*
X106474987Y-80954531D01*
X106374938Y-80903554D01*
X106264024Y-80885987D01*
X106153109Y-80903554D01*
X106053060Y-80954531D01*
X105973649Y-81033942D01*
X105922672Y-81133991D01*
X105905105Y-81244906D01*
X94918841Y-81244906D01*
X94890374Y-81189036D01*
X94890373Y-81189035D01*
X94890372Y-81189033D01*
X94810967Y-81109628D01*
X94810964Y-81109626D01*
X94810963Y-81109625D01*
X94710914Y-81058648D01*
X94600000Y-81041081D01*
X94489085Y-81058648D01*
X94389036Y-81109625D01*
X94309625Y-81189036D01*
X94258648Y-81289085D01*
X94241081Y-81400000D01*
X80101339Y-81400000D01*
X80140372Y-81360967D01*
X80191352Y-81260912D01*
X80208919Y-81150000D01*
X80191352Y-81039088D01*
X80191351Y-81039086D01*
X80191351Y-81039085D01*
X80140374Y-80939036D01*
X80140373Y-80939035D01*
X80140372Y-80939033D01*
X80060967Y-80859628D01*
X80060964Y-80859626D01*
X80060963Y-80859625D01*
X79960914Y-80808648D01*
X79906313Y-80800000D01*
X81691081Y-80800000D01*
X81708648Y-80910914D01*
X81759625Y-81010963D01*
X81759626Y-81010964D01*
X81759628Y-81010967D01*
X81839033Y-81090372D01*
X81839035Y-81090373D01*
X81839036Y-81090374D01*
X81939085Y-81141351D01*
X81939086Y-81141351D01*
X81939088Y-81141352D01*
X82050000Y-81158919D01*
X82160912Y-81141352D01*
X82260967Y-81090372D01*
X82340372Y-81010967D01*
X82391352Y-80910912D01*
X82393080Y-80900000D01*
X83091081Y-80900000D01*
X83108648Y-81010914D01*
X83159625Y-81110963D01*
X83159626Y-81110964D01*
X83159628Y-81110967D01*
X83239033Y-81190372D01*
X83239035Y-81190373D01*
X83239036Y-81190374D01*
X83339085Y-81241351D01*
X83339086Y-81241351D01*
X83339088Y-81241352D01*
X83450000Y-81258919D01*
X83560912Y-81241352D01*
X83660967Y-81190372D01*
X83740372Y-81110967D01*
X83791352Y-81010912D01*
X83808919Y-80900000D01*
X83791352Y-80789088D01*
X83791351Y-80789086D01*
X83791351Y-80789085D01*
X83789880Y-80786198D01*
X98067354Y-80786198D01*
X98069032Y-80787253D01*
X98069034Y-80787254D01*
X98230261Y-80843670D01*
X98318281Y-80853587D01*
X98334358Y-80862472D01*
X98339443Y-80880123D01*
X98337204Y-80899998D01*
X98337204Y-80900001D01*
X98356328Y-81069736D01*
X98356329Y-81069739D01*
X98412742Y-81230958D01*
X98412747Y-81230968D01*
X98413800Y-81232644D01*
X98746445Y-80899999D01*
X98721582Y-80875136D01*
X98975000Y-80875136D01*
X98975000Y-80924864D01*
X98994030Y-80970807D01*
X99029193Y-81005970D01*
X99075136Y-81025000D01*
X99124864Y-81025000D01*
X99170807Y-81005970D01*
X99205970Y-80970807D01*
X99225000Y-80924864D01*
X99225000Y-80900000D01*
X99453554Y-80900000D01*
X99700000Y-81146446D01*
X99946446Y-80900000D01*
X99921582Y-80875136D01*
X100175000Y-80875136D01*
X100175000Y-80924864D01*
X100194030Y-80970807D01*
X100229193Y-81005970D01*
X100275136Y-81025000D01*
X100324864Y-81025000D01*
X100370807Y-81005970D01*
X100405970Y-80970807D01*
X100425000Y-80924864D01*
X100425000Y-80900000D01*
X100653554Y-80900000D01*
X100950000Y-81196446D01*
X101246446Y-80900000D01*
X101221582Y-80875136D01*
X101475000Y-80875136D01*
X101475000Y-80924864D01*
X101494030Y-80970807D01*
X101529193Y-81005970D01*
X101575136Y-81025000D01*
X101624864Y-81025000D01*
X101670807Y-81005970D01*
X101705970Y-80970807D01*
X101725000Y-80924864D01*
X101725000Y-80900000D01*
X101953554Y-80900000D01*
X102286198Y-81232644D01*
X102287252Y-81230968D01*
X102287257Y-81230958D01*
X102343670Y-81069739D01*
X102343671Y-81069736D01*
X102362796Y-80900001D01*
X102362796Y-80900000D01*
X102359095Y-80867164D01*
X102364179Y-80849513D01*
X102375017Y-80841823D01*
X102530958Y-80787257D01*
X102530968Y-80787252D01*
X102532644Y-80786198D01*
X102300000Y-80553554D01*
X101953554Y-80900000D01*
X101725000Y-80900000D01*
X101725000Y-80875136D01*
X101705970Y-80829193D01*
X101670807Y-80794030D01*
X101624864Y-80775000D01*
X101575136Y-80775000D01*
X101529193Y-80794030D01*
X101494030Y-80829193D01*
X101475000Y-80875136D01*
X101221582Y-80875136D01*
X100950000Y-80603554D01*
X100653554Y-80900000D01*
X100425000Y-80900000D01*
X100425000Y-80875136D01*
X100405970Y-80829193D01*
X100370807Y-80794030D01*
X100324864Y-80775000D01*
X100275136Y-80775000D01*
X100229193Y-80794030D01*
X100194030Y-80829193D01*
X100175000Y-80875136D01*
X99921582Y-80875136D01*
X99700000Y-80653554D01*
X99453554Y-80900000D01*
X99225000Y-80900000D01*
X99225000Y-80875136D01*
X99205970Y-80829193D01*
X99170807Y-80794030D01*
X99124864Y-80775000D01*
X99075136Y-80775000D01*
X99029193Y-80794030D01*
X98994030Y-80829193D01*
X98975000Y-80875136D01*
X98721582Y-80875136D01*
X98386063Y-80539616D01*
X100293170Y-80539616D01*
X100300000Y-80546446D01*
X100306830Y-80539616D01*
X100306830Y-80539615D01*
X100300001Y-80532785D01*
X100293170Y-80539616D01*
X98386063Y-80539616D01*
X98373801Y-80527354D01*
X98366772Y-80510383D01*
X98371073Y-80500000D01*
X104741081Y-80500000D01*
X104758648Y-80610914D01*
X104809625Y-80710963D01*
X104809626Y-80710964D01*
X104809628Y-80710967D01*
X104889033Y-80790372D01*
X104889035Y-80790373D01*
X104889036Y-80790374D01*
X104989085Y-80841351D01*
X104989086Y-80841351D01*
X104989088Y-80841352D01*
X105100000Y-80858919D01*
X105210912Y-80841352D01*
X105310967Y-80790372D01*
X105390372Y-80710967D01*
X105441352Y-80610912D01*
X105458919Y-80500000D01*
X105441352Y-80389088D01*
X105441351Y-80389086D01*
X105441351Y-80389085D01*
X105410406Y-80328351D01*
X111297923Y-80328351D01*
X111319008Y-80461479D01*
X111380196Y-80581567D01*
X111380197Y-80581568D01*
X111380199Y-80581571D01*
X111475507Y-80676879D01*
X111475509Y-80676880D01*
X111475510Y-80676881D01*
X111595598Y-80738069D01*
X111595599Y-80738069D01*
X111595601Y-80738070D01*
X111728727Y-80759155D01*
X111861853Y-80738070D01*
X111981947Y-80676879D01*
X112077255Y-80581571D01*
X112138446Y-80461477D01*
X112148183Y-80400000D01*
X112941081Y-80400000D01*
X112958648Y-80510914D01*
X113009625Y-80610963D01*
X113009626Y-80610964D01*
X113009628Y-80610967D01*
X113089033Y-80690372D01*
X113089035Y-80690373D01*
X113089036Y-80690374D01*
X113189085Y-80741351D01*
X113189086Y-80741351D01*
X113189088Y-80741352D01*
X113300000Y-80758919D01*
X113410912Y-80741352D01*
X113510967Y-80690372D01*
X113590372Y-80610967D01*
X113641352Y-80510912D01*
X113658919Y-80400000D01*
X113641352Y-80289088D01*
X113641351Y-80289086D01*
X113641351Y-80289085D01*
X113590374Y-80189036D01*
X113590373Y-80189035D01*
X113590372Y-80189033D01*
X113510967Y-80109628D01*
X113510964Y-80109626D01*
X113510963Y-80109625D01*
X113477029Y-80092335D01*
X121907578Y-80092335D01*
X121928663Y-80225463D01*
X121989851Y-80345551D01*
X121989852Y-80345552D01*
X121989854Y-80345555D01*
X122085162Y-80440863D01*
X122085164Y-80440864D01*
X122085165Y-80440865D01*
X122205253Y-80502053D01*
X122205254Y-80502053D01*
X122205256Y-80502054D01*
X122338382Y-80523139D01*
X122471508Y-80502054D01*
X122591602Y-80440863D01*
X122686910Y-80345555D01*
X122748101Y-80225461D01*
X122769186Y-80092335D01*
X122748101Y-79959209D01*
X122748100Y-79959207D01*
X122748100Y-79959206D01*
X122686912Y-79839118D01*
X122686911Y-79839117D01*
X122686910Y-79839115D01*
X122591602Y-79743807D01*
X122591599Y-79743805D01*
X122591598Y-79743804D01*
X122471510Y-79682616D01*
X122338382Y-79661531D01*
X122205253Y-79682616D01*
X122085165Y-79743804D01*
X121989851Y-79839118D01*
X121928663Y-79959206D01*
X121907578Y-80092335D01*
X113477029Y-80092335D01*
X113410914Y-80058648D01*
X113300000Y-80041081D01*
X113189085Y-80058648D01*
X113089036Y-80109625D01*
X113009625Y-80189036D01*
X112958648Y-80289085D01*
X112941081Y-80400000D01*
X112148183Y-80400000D01*
X112159531Y-80328351D01*
X112138446Y-80195225D01*
X112138445Y-80195223D01*
X112138445Y-80195222D01*
X112077257Y-80075134D01*
X112077256Y-80075133D01*
X112077255Y-80075131D01*
X111981947Y-79979823D01*
X111981944Y-79979821D01*
X111981943Y-79979820D01*
X111861855Y-79918632D01*
X111728727Y-79897547D01*
X111595598Y-79918632D01*
X111475510Y-79979820D01*
X111380196Y-80075134D01*
X111319008Y-80195222D01*
X111297923Y-80328351D01*
X105410406Y-80328351D01*
X105390374Y-80289036D01*
X105390373Y-80289035D01*
X105390372Y-80289033D01*
X105310967Y-80209628D01*
X105310964Y-80209626D01*
X105310963Y-80209625D01*
X105210914Y-80158648D01*
X105100000Y-80141081D01*
X104989085Y-80158648D01*
X104889036Y-80209625D01*
X104809625Y-80289036D01*
X104758648Y-80389085D01*
X104741081Y-80500000D01*
X98371073Y-80500000D01*
X98373801Y-80493413D01*
X98406829Y-80460383D01*
X98399999Y-80453553D01*
X98067354Y-80786198D01*
X83789880Y-80786198D01*
X83740374Y-80689036D01*
X83740373Y-80689035D01*
X83740372Y-80689033D01*
X83660967Y-80609628D01*
X83660964Y-80609626D01*
X83660963Y-80609625D01*
X83560914Y-80558648D01*
X83450000Y-80541081D01*
X83339085Y-80558648D01*
X83239036Y-80609625D01*
X83159625Y-80689036D01*
X83108648Y-80789085D01*
X83091081Y-80900000D01*
X82393080Y-80900000D01*
X82408919Y-80800000D01*
X82391352Y-80689088D01*
X82391351Y-80689086D01*
X82391351Y-80689085D01*
X82340374Y-80589036D01*
X82340373Y-80589035D01*
X82340372Y-80589033D01*
X82260967Y-80509628D01*
X82260964Y-80509626D01*
X82260963Y-80509625D01*
X82160914Y-80458648D01*
X82050000Y-80441081D01*
X81939085Y-80458648D01*
X81839036Y-80509625D01*
X81759625Y-80589036D01*
X81708648Y-80689085D01*
X81691081Y-80800000D01*
X79906313Y-80800000D01*
X79850000Y-80791081D01*
X79739085Y-80808648D01*
X79639036Y-80859625D01*
X79559625Y-80939036D01*
X79508648Y-81039085D01*
X79491081Y-81150000D01*
X79342073Y-81150000D01*
X79260914Y-81108648D01*
X79150000Y-81091081D01*
X79039085Y-81108648D01*
X78939036Y-81159625D01*
X78859625Y-81239036D01*
X78808648Y-81339085D01*
X78791081Y-81450000D01*
X77258919Y-81450000D01*
X77241352Y-81339088D01*
X77241351Y-81339086D01*
X77241351Y-81339085D01*
X77190374Y-81239036D01*
X77190373Y-81239035D01*
X77190372Y-81239033D01*
X77110967Y-81159628D01*
X77110964Y-81159626D01*
X77110963Y-81159625D01*
X77010914Y-81108648D01*
X76900000Y-81091081D01*
X76789085Y-81108648D01*
X76689036Y-81159625D01*
X76609625Y-81239036D01*
X76558648Y-81339085D01*
X76541081Y-81450000D01*
X71851000Y-81450000D01*
X71841352Y-81389088D01*
X71841351Y-81389086D01*
X71841351Y-81389085D01*
X71790374Y-81289036D01*
X71790373Y-81289035D01*
X71790372Y-81289033D01*
X71710967Y-81209628D01*
X71710964Y-81209626D01*
X71710963Y-81209625D01*
X71610914Y-81158648D01*
X71500000Y-81141081D01*
X71389085Y-81158648D01*
X71289036Y-81209625D01*
X71209625Y-81289036D01*
X71158648Y-81389085D01*
X71141081Y-81500000D01*
X70558919Y-81500000D01*
X70541352Y-81389088D01*
X70538943Y-81384361D01*
X70537502Y-81366051D01*
X70549431Y-81352082D01*
X70565010Y-81349927D01*
X70588000Y-81354500D01*
X70588004Y-81354500D01*
X70711996Y-81354500D01*
X70712000Y-81354500D01*
X70833618Y-81330309D01*
X70933260Y-81289036D01*
X70948176Y-81282858D01*
X70948177Y-81282857D01*
X70948180Y-81282856D01*
X71051283Y-81213965D01*
X71138965Y-81126283D01*
X71207856Y-81023180D01*
X71212917Y-81010963D01*
X71218607Y-80997224D01*
X71255309Y-80908618D01*
X71279500Y-80787000D01*
X71279500Y-80663000D01*
X71276914Y-80650000D01*
X78241081Y-80650000D01*
X78258648Y-80760914D01*
X78309625Y-80860963D01*
X78309626Y-80860964D01*
X78309628Y-80860967D01*
X78389033Y-80940372D01*
X78389035Y-80940373D01*
X78389036Y-80940374D01*
X78489085Y-80991351D01*
X78489086Y-80991351D01*
X78489088Y-80991352D01*
X78600000Y-81008919D01*
X78710912Y-80991352D01*
X78810967Y-80940372D01*
X78890372Y-80860967D01*
X78941352Y-80760912D01*
X78958919Y-80650000D01*
X78941352Y-80539088D01*
X78941351Y-80539086D01*
X78941351Y-80539085D01*
X78890374Y-80439036D01*
X78890373Y-80439035D01*
X78890372Y-80439033D01*
X78810967Y-80359628D01*
X78810964Y-80359626D01*
X78810963Y-80359625D01*
X78710914Y-80308648D01*
X78600000Y-80291081D01*
X78489085Y-80308648D01*
X78389036Y-80359625D01*
X78309625Y-80439036D01*
X78258648Y-80539085D01*
X78241081Y-80650000D01*
X71276914Y-80650000D01*
X71263302Y-80581567D01*
X71255310Y-80541386D01*
X71255309Y-80541385D01*
X71255309Y-80541382D01*
X71222650Y-80462535D01*
X71207858Y-80426823D01*
X71195714Y-80408648D01*
X71138965Y-80323717D01*
X71051283Y-80236035D01*
X71011758Y-80209625D01*
X70948176Y-80167141D01*
X70833620Y-80119692D01*
X70833615Y-80119690D01*
X70790256Y-80111065D01*
X70774983Y-80100859D01*
X70774812Y-80099998D01*
X97637204Y-80099998D01*
X97637204Y-80100001D01*
X97656328Y-80269736D01*
X97656329Y-80269739D01*
X97712742Y-80430958D01*
X97712747Y-80430968D01*
X97713800Y-80432644D01*
X98046445Y-80099999D01*
X98021582Y-80075136D01*
X98275000Y-80075136D01*
X98275000Y-80124864D01*
X98294030Y-80170807D01*
X98329193Y-80205970D01*
X98375136Y-80225000D01*
X98424864Y-80225000D01*
X98470807Y-80205970D01*
X98505970Y-80170807D01*
X98525000Y-80124864D01*
X98525000Y-80100000D01*
X98753554Y-80100000D01*
X99000000Y-80346446D01*
X99246446Y-80100000D01*
X99221582Y-80075136D01*
X99475000Y-80075136D01*
X99475000Y-80124864D01*
X99494030Y-80170807D01*
X99529193Y-80205970D01*
X99575136Y-80225000D01*
X99624864Y-80225000D01*
X99670807Y-80205970D01*
X99705970Y-80170807D01*
X99725000Y-80124864D01*
X99725000Y-80099999D01*
X99953553Y-80099999D01*
X100300000Y-80446446D01*
X100646446Y-80100000D01*
X100621582Y-80075136D01*
X100875000Y-80075136D01*
X100875000Y-80124864D01*
X100894030Y-80170807D01*
X100929193Y-80205970D01*
X100975136Y-80225000D01*
X101024864Y-80225000D01*
X101070807Y-80205970D01*
X101105970Y-80170807D01*
X101125000Y-80124864D01*
X101125000Y-80100000D01*
X101353554Y-80100000D01*
X101600000Y-80346446D01*
X101846446Y-80100000D01*
X101821582Y-80075136D01*
X102075000Y-80075136D01*
X102075000Y-80124864D01*
X102094030Y-80170807D01*
X102129193Y-80205970D01*
X102175136Y-80225000D01*
X102224864Y-80225000D01*
X102270807Y-80205970D01*
X102305970Y-80170807D01*
X102325000Y-80124864D01*
X102325000Y-80099999D01*
X102553553Y-80099999D01*
X102886198Y-80432644D01*
X102887252Y-80430968D01*
X102887257Y-80430958D01*
X102943670Y-80269739D01*
X102943671Y-80269736D01*
X102962796Y-80100001D01*
X102962796Y-80099998D01*
X102943671Y-79930263D01*
X102943670Y-79930260D01*
X102887254Y-79769034D01*
X102887253Y-79769032D01*
X102886198Y-79767354D01*
X102553553Y-80099999D01*
X102325000Y-80099999D01*
X102325000Y-80075136D01*
X102305970Y-80029193D01*
X102270807Y-79994030D01*
X102224864Y-79975000D01*
X102175136Y-79975000D01*
X102129193Y-79994030D01*
X102094030Y-80029193D01*
X102075000Y-80075136D01*
X101821582Y-80075136D01*
X101600000Y-79853554D01*
X101353554Y-80100000D01*
X101125000Y-80100000D01*
X101125000Y-80075136D01*
X101105970Y-80029193D01*
X101070807Y-79994030D01*
X101024864Y-79975000D01*
X100975136Y-79975000D01*
X100929193Y-79994030D01*
X100894030Y-80029193D01*
X100875000Y-80075136D01*
X100621582Y-80075136D01*
X100313799Y-79767353D01*
X100302700Y-79768605D01*
X100297330Y-79768606D01*
X100286198Y-79767354D01*
X99953553Y-80099999D01*
X99725000Y-80099999D01*
X99725000Y-80075136D01*
X99705970Y-80029193D01*
X99670807Y-79994030D01*
X99624864Y-79975000D01*
X99575136Y-79975000D01*
X99529193Y-79994030D01*
X99494030Y-80029193D01*
X99475000Y-80075136D01*
X99221582Y-80075136D01*
X99000000Y-79853554D01*
X98753554Y-80100000D01*
X98525000Y-80100000D01*
X98525000Y-80075136D01*
X98505970Y-80029193D01*
X98470807Y-79994030D01*
X98424864Y-79975000D01*
X98375136Y-79975000D01*
X98329193Y-79994030D01*
X98294030Y-80029193D01*
X98275000Y-80075136D01*
X98021582Y-80075136D01*
X97713801Y-79767355D01*
X97712744Y-79769036D01*
X97656329Y-79930260D01*
X97656328Y-79930263D01*
X97637204Y-80099998D01*
X70774812Y-80099998D01*
X70771400Y-80082843D01*
X70777967Y-80070558D01*
X70808225Y-80040301D01*
X70859205Y-79940246D01*
X70876772Y-79829334D01*
X70859205Y-79718422D01*
X70859204Y-79718420D01*
X70859204Y-79718419D01*
X70808227Y-79618370D01*
X70808226Y-79618369D01*
X70808225Y-79618367D01*
X70728820Y-79538962D01*
X70728817Y-79538960D01*
X70728816Y-79538959D01*
X70628767Y-79487982D01*
X70592120Y-79482177D01*
X70541999Y-79474239D01*
X70526338Y-79464642D01*
X70522049Y-79446781D01*
X70531647Y-79431119D01*
X70534858Y-79429151D01*
X70610963Y-79390374D01*
X70610962Y-79390374D01*
X70610967Y-79390372D01*
X70690372Y-79310967D01*
X70741352Y-79210912D01*
X70758919Y-79100000D01*
X70741352Y-78989088D01*
X70741351Y-78989086D01*
X70741351Y-78989085D01*
X70695960Y-78900000D01*
X72391081Y-78900000D01*
X72408648Y-79010914D01*
X72459625Y-79110963D01*
X72459626Y-79110964D01*
X72459628Y-79110967D01*
X72539033Y-79190372D01*
X72539035Y-79190373D01*
X72539036Y-79190374D01*
X72639085Y-79241351D01*
X72639086Y-79241351D01*
X72639088Y-79241352D01*
X72750000Y-79258919D01*
X72860912Y-79241352D01*
X72942071Y-79200000D01*
X73391081Y-79200000D01*
X73408648Y-79310914D01*
X73459625Y-79410963D01*
X73459626Y-79410964D01*
X73459628Y-79410967D01*
X73539033Y-79490372D01*
X73539035Y-79490373D01*
X73539036Y-79490374D01*
X73639085Y-79541351D01*
X73639086Y-79541351D01*
X73639088Y-79541352D01*
X73750000Y-79558919D01*
X73860912Y-79541352D01*
X73893005Y-79525000D01*
X84666081Y-79525000D01*
X84683648Y-79635914D01*
X84734625Y-79735963D01*
X84734626Y-79735964D01*
X84734628Y-79735967D01*
X84814033Y-79815372D01*
X84814035Y-79815373D01*
X84814036Y-79815374D01*
X84914085Y-79866351D01*
X84914086Y-79866351D01*
X84914088Y-79866352D01*
X85025000Y-79883919D01*
X85135912Y-79866352D01*
X85235967Y-79815372D01*
X85315372Y-79735967D01*
X85320960Y-79725000D01*
X95491081Y-79725000D01*
X95508648Y-79835914D01*
X95559625Y-79935963D01*
X95559626Y-79935964D01*
X95559628Y-79935967D01*
X95639033Y-80015372D01*
X95639035Y-80015373D01*
X95639036Y-80015374D01*
X95739085Y-80066351D01*
X95739086Y-80066351D01*
X95739088Y-80066352D01*
X95850000Y-80083919D01*
X95960912Y-80066352D01*
X96060967Y-80015372D01*
X96140372Y-79935967D01*
X96191352Y-79835912D01*
X96208919Y-79725000D01*
X96191352Y-79614088D01*
X96191351Y-79614086D01*
X96191351Y-79614085D01*
X96158698Y-79550000D01*
X98203554Y-79550000D01*
X98400000Y-79746446D01*
X98596446Y-79550000D01*
X99403554Y-79550000D01*
X99600000Y-79746446D01*
X99796446Y-79550000D01*
X100803554Y-79550000D01*
X101000000Y-79746446D01*
X101196446Y-79550000D01*
X102003554Y-79550000D01*
X102200000Y-79746446D01*
X102241420Y-79705026D01*
X104732393Y-79705026D01*
X104749960Y-79815940D01*
X104800937Y-79915989D01*
X104800938Y-79915990D01*
X104800940Y-79915993D01*
X104880345Y-79995398D01*
X104880347Y-79995399D01*
X104880348Y-79995400D01*
X104980397Y-80046377D01*
X104980398Y-80046377D01*
X104980400Y-80046378D01*
X105091312Y-80063945D01*
X105202224Y-80046378D01*
X105302279Y-79995398D01*
X105381684Y-79915993D01*
X105432664Y-79815938D01*
X105450231Y-79705026D01*
X105441516Y-79650000D01*
X106991081Y-79650000D01*
X107008648Y-79760914D01*
X107059625Y-79860963D01*
X107059626Y-79860964D01*
X107059628Y-79860967D01*
X107139033Y-79940372D01*
X107139035Y-79940373D01*
X107139036Y-79940374D01*
X107239085Y-79991351D01*
X107239086Y-79991351D01*
X107239088Y-79991352D01*
X107350000Y-80008919D01*
X107460912Y-79991352D01*
X107560967Y-79940372D01*
X107640372Y-79860967D01*
X107691352Y-79760912D01*
X107708919Y-79650000D01*
X107691352Y-79539088D01*
X107691351Y-79539086D01*
X107691351Y-79539085D01*
X107643019Y-79444228D01*
X119427944Y-79444228D01*
X119448426Y-79586685D01*
X119508214Y-79717601D01*
X119602463Y-79826371D01*
X119723538Y-79904181D01*
X119861630Y-79944728D01*
X119861631Y-79944728D01*
X120005551Y-79944728D01*
X120005552Y-79944728D01*
X120143644Y-79904181D01*
X120264719Y-79826371D01*
X120358968Y-79717601D01*
X120395896Y-79636740D01*
X123877373Y-79636740D01*
X124723707Y-79636740D01*
X124673332Y-79657606D01*
X124595973Y-79734965D01*
X124554107Y-79836039D01*
X124554107Y-79945441D01*
X124595973Y-80046515D01*
X124673332Y-80123874D01*
X124723707Y-80144740D01*
X123877373Y-80144740D01*
X123883882Y-80177465D01*
X123883884Y-80177474D01*
X123957981Y-80356361D01*
X124065559Y-80517363D01*
X124202483Y-80654287D01*
X124363485Y-80761865D01*
X124542374Y-80835963D01*
X124542381Y-80835965D01*
X124725107Y-80872310D01*
X124725107Y-80145319D01*
X124774406Y-80165740D01*
X125183808Y-80165740D01*
X125233107Y-80145319D01*
X125233107Y-80872310D01*
X125415832Y-80835965D01*
X125415839Y-80835963D01*
X125594728Y-80761865D01*
X125755730Y-80654287D01*
X125892654Y-80517363D01*
X126000232Y-80356361D01*
X126074329Y-80177474D01*
X126074331Y-80177465D01*
X126080841Y-80144740D01*
X125234507Y-80144740D01*
X125284882Y-80123874D01*
X125362241Y-80046515D01*
X125404107Y-79945441D01*
X125404107Y-79836039D01*
X125362241Y-79734965D01*
X125284882Y-79657606D01*
X125234507Y-79636740D01*
X126080840Y-79636740D01*
X128877373Y-79636740D01*
X129723707Y-79636740D01*
X129673332Y-79657606D01*
X129595973Y-79734965D01*
X129554107Y-79836039D01*
X129554107Y-79945441D01*
X129595973Y-80046515D01*
X129673332Y-80123874D01*
X129723707Y-80144740D01*
X128877373Y-80144740D01*
X128883882Y-80177465D01*
X128883884Y-80177474D01*
X128957981Y-80356361D01*
X129065559Y-80517363D01*
X129202483Y-80654287D01*
X129363485Y-80761865D01*
X129542374Y-80835963D01*
X129542381Y-80835965D01*
X129725107Y-80872310D01*
X129725107Y-80145319D01*
X129774406Y-80165740D01*
X130183808Y-80165740D01*
X130233107Y-80145319D01*
X130233107Y-80872310D01*
X130252051Y-80868542D01*
X135111885Y-80868542D01*
X135129452Y-80979456D01*
X135180429Y-81079505D01*
X135180430Y-81079506D01*
X135180432Y-81079509D01*
X135259837Y-81158914D01*
X135259839Y-81158915D01*
X135259840Y-81158916D01*
X135359889Y-81209893D01*
X135359890Y-81209893D01*
X135359892Y-81209894D01*
X135470804Y-81227461D01*
X135581716Y-81209894D01*
X135681771Y-81158914D01*
X135761176Y-81079509D01*
X135812156Y-80979454D01*
X135829723Y-80868542D01*
X135812156Y-80757630D01*
X135812155Y-80757628D01*
X135812155Y-80757627D01*
X135761178Y-80657578D01*
X135761177Y-80657577D01*
X135761176Y-80657575D01*
X135681771Y-80578170D01*
X135681768Y-80578168D01*
X135681767Y-80578167D01*
X135581718Y-80527190D01*
X135470804Y-80509623D01*
X135359889Y-80527190D01*
X135259840Y-80578167D01*
X135180429Y-80657578D01*
X135129452Y-80757627D01*
X135111885Y-80868542D01*
X130252051Y-80868542D01*
X130415832Y-80835965D01*
X130415839Y-80835963D01*
X130594728Y-80761865D01*
X130755730Y-80654287D01*
X130892654Y-80517363D01*
X131000232Y-80356361D01*
X131074329Y-80177474D01*
X131074331Y-80177465D01*
X131080841Y-80144740D01*
X130234507Y-80144740D01*
X130284882Y-80123874D01*
X130362241Y-80046515D01*
X130404107Y-79945441D01*
X130404107Y-79836039D01*
X130362241Y-79734965D01*
X130284882Y-79657606D01*
X130234507Y-79636740D01*
X131080840Y-79636740D01*
X131074331Y-79604014D01*
X131074329Y-79604005D01*
X131000232Y-79425118D01*
X130892654Y-79264116D01*
X130755730Y-79127192D01*
X130594728Y-79019614D01*
X130415839Y-78945516D01*
X130415832Y-78945514D01*
X130233107Y-78909168D01*
X130233107Y-79636160D01*
X130183808Y-79615740D01*
X129774406Y-79615740D01*
X129725107Y-79636160D01*
X129725107Y-78909168D01*
X129542381Y-78945514D01*
X129542374Y-78945516D01*
X129363485Y-79019614D01*
X129202483Y-79127192D01*
X129065559Y-79264116D01*
X128957981Y-79425118D01*
X128883884Y-79604005D01*
X128883882Y-79604014D01*
X128877373Y-79636740D01*
X126080840Y-79636740D01*
X126074331Y-79604014D01*
X126074329Y-79604005D01*
X126000232Y-79425118D01*
X125892654Y-79264116D01*
X125755730Y-79127192D01*
X125594728Y-79019614D01*
X125415839Y-78945516D01*
X125415832Y-78945514D01*
X125233107Y-78909168D01*
X125233107Y-79636160D01*
X125183808Y-79615740D01*
X124774406Y-79615740D01*
X124725107Y-79636160D01*
X124725107Y-78909168D01*
X124542381Y-78945514D01*
X124542374Y-78945516D01*
X124363485Y-79019614D01*
X124202483Y-79127192D01*
X124065559Y-79264116D01*
X123957981Y-79425118D01*
X123883884Y-79604005D01*
X123883882Y-79604014D01*
X123877373Y-79636740D01*
X120395896Y-79636740D01*
X120418756Y-79586685D01*
X120439238Y-79444228D01*
X120418756Y-79301771D01*
X120358968Y-79170855D01*
X120264719Y-79062085D01*
X120264718Y-79062084D01*
X120143646Y-78984276D01*
X120143641Y-78984274D01*
X120095381Y-78970104D01*
X120005552Y-78943728D01*
X119861630Y-78943728D01*
X119829303Y-78953220D01*
X119723540Y-78984274D01*
X119723535Y-78984276D01*
X119602463Y-79062084D01*
X119508213Y-79170856D01*
X119454897Y-79287601D01*
X119448426Y-79301771D01*
X119427944Y-79444228D01*
X107643019Y-79444228D01*
X107640374Y-79439036D01*
X107640373Y-79439035D01*
X107640372Y-79439033D01*
X107560967Y-79359628D01*
X107560964Y-79359626D01*
X107560963Y-79359625D01*
X107460914Y-79308648D01*
X107350000Y-79291081D01*
X107239085Y-79308648D01*
X107139036Y-79359625D01*
X107059625Y-79439036D01*
X107008648Y-79539085D01*
X106991081Y-79650000D01*
X105441516Y-79650000D01*
X105432664Y-79594114D01*
X105432663Y-79594112D01*
X105432663Y-79594111D01*
X105381686Y-79494062D01*
X105381685Y-79494061D01*
X105381684Y-79494059D01*
X105302279Y-79414654D01*
X105302276Y-79414652D01*
X105302275Y-79414651D01*
X105202226Y-79363674D01*
X105091312Y-79346107D01*
X104980397Y-79363674D01*
X104880348Y-79414651D01*
X104800937Y-79494062D01*
X104749960Y-79594111D01*
X104732393Y-79705026D01*
X102241420Y-79705026D01*
X102396446Y-79550000D01*
X102200000Y-79353554D01*
X102003554Y-79550000D01*
X101196446Y-79550000D01*
X101000000Y-79353554D01*
X100803554Y-79550000D01*
X99796446Y-79550000D01*
X99600000Y-79353554D01*
X99403554Y-79550000D01*
X98596446Y-79550000D01*
X98400000Y-79353554D01*
X98203554Y-79550000D01*
X96158698Y-79550000D01*
X96140374Y-79514036D01*
X96140373Y-79514035D01*
X96140372Y-79514033D01*
X96138758Y-79512419D01*
X96131730Y-79495450D01*
X96138759Y-79478479D01*
X96144827Y-79474070D01*
X96210967Y-79440372D01*
X96290372Y-79360967D01*
X96332671Y-79277949D01*
X96341351Y-79260914D01*
X96341351Y-79260913D01*
X96341352Y-79260912D01*
X96358919Y-79150000D01*
X96341352Y-79039088D01*
X96341351Y-79039086D01*
X96341351Y-79039085D01*
X96321435Y-78999998D01*
X97637204Y-78999998D01*
X97637204Y-79000001D01*
X97656328Y-79169736D01*
X97656329Y-79169739D01*
X97712742Y-79330958D01*
X97712747Y-79330968D01*
X97713800Y-79332644D01*
X98046445Y-78999999D01*
X98021582Y-78975136D01*
X98275000Y-78975136D01*
X98275000Y-79024864D01*
X98294030Y-79070807D01*
X98329193Y-79105970D01*
X98375136Y-79125000D01*
X98424864Y-79125000D01*
X98470807Y-79105970D01*
X98505970Y-79070807D01*
X98525000Y-79024864D01*
X98525000Y-79000000D01*
X98753554Y-79000000D01*
X99000000Y-79246446D01*
X99246446Y-79000000D01*
X99221582Y-78975136D01*
X99475000Y-78975136D01*
X99475000Y-79024864D01*
X99494030Y-79070807D01*
X99529193Y-79105970D01*
X99575136Y-79125000D01*
X99624864Y-79125000D01*
X99670807Y-79105970D01*
X99705970Y-79070807D01*
X99725000Y-79024864D01*
X99725000Y-78999999D01*
X99953553Y-78999999D01*
X100286198Y-79332644D01*
X100297331Y-79331393D01*
X100302698Y-79331394D01*
X100313800Y-79332644D01*
X100646445Y-78999999D01*
X100621582Y-78975136D01*
X100875000Y-78975136D01*
X100875000Y-79024864D01*
X100894030Y-79070807D01*
X100929193Y-79105970D01*
X100975136Y-79125000D01*
X101024864Y-79125000D01*
X101070807Y-79105970D01*
X101105970Y-79070807D01*
X101125000Y-79024864D01*
X101125000Y-79000000D01*
X101353554Y-79000000D01*
X101600000Y-79246446D01*
X101846446Y-79000000D01*
X101821582Y-78975136D01*
X102075000Y-78975136D01*
X102075000Y-79024864D01*
X102094030Y-79070807D01*
X102129193Y-79105970D01*
X102175136Y-79125000D01*
X102224864Y-79125000D01*
X102270807Y-79105970D01*
X102305970Y-79070807D01*
X102325000Y-79024864D01*
X102325000Y-78999999D01*
X102553553Y-78999999D01*
X102886198Y-79332644D01*
X102887252Y-79330968D01*
X102887257Y-79330958D01*
X102931323Y-79205026D01*
X104082393Y-79205026D01*
X104099960Y-79315940D01*
X104150937Y-79415989D01*
X104150938Y-79415990D01*
X104150940Y-79415993D01*
X104230345Y-79495398D01*
X104230347Y-79495399D01*
X104230348Y-79495400D01*
X104330397Y-79546377D01*
X104330398Y-79546377D01*
X104330400Y-79546378D01*
X104441312Y-79563945D01*
X104552224Y-79546378D01*
X104652279Y-79495398D01*
X104731684Y-79415993D01*
X104782664Y-79315938D01*
X104800231Y-79205026D01*
X104782664Y-79094114D01*
X104782663Y-79094112D01*
X104782663Y-79094111D01*
X104731686Y-78994062D01*
X104731685Y-78994061D01*
X104731684Y-78994059D01*
X104652279Y-78914654D01*
X104652276Y-78914652D01*
X104652275Y-78914651D01*
X104552226Y-78863674D01*
X104441312Y-78846107D01*
X104330397Y-78863674D01*
X104230348Y-78914651D01*
X104150937Y-78994062D01*
X104099960Y-79094111D01*
X104082393Y-79205026D01*
X102931323Y-79205026D01*
X102943670Y-79169739D01*
X102943671Y-79169736D01*
X102962796Y-79000001D01*
X102962796Y-78999998D01*
X102943671Y-78830263D01*
X102943670Y-78830260D01*
X102887254Y-78669034D01*
X102887253Y-78669032D01*
X102886198Y-78667354D01*
X102553553Y-78999999D01*
X102325000Y-78999999D01*
X102325000Y-78975136D01*
X102305970Y-78929193D01*
X102270807Y-78894030D01*
X102224864Y-78875000D01*
X102175136Y-78875000D01*
X102129193Y-78894030D01*
X102094030Y-78929193D01*
X102075000Y-78975136D01*
X101821582Y-78975136D01*
X101600000Y-78753554D01*
X101353554Y-79000000D01*
X101125000Y-79000000D01*
X101125000Y-78975136D01*
X101105970Y-78929193D01*
X101070807Y-78894030D01*
X101024864Y-78875000D01*
X100975136Y-78875000D01*
X100929193Y-78894030D01*
X100894030Y-78929193D01*
X100875000Y-78975136D01*
X100621582Y-78975136D01*
X100313799Y-78667353D01*
X100302700Y-78668605D01*
X100297330Y-78668606D01*
X100286198Y-78667354D01*
X99953553Y-78999999D01*
X99725000Y-78999999D01*
X99725000Y-78975136D01*
X99705970Y-78929193D01*
X99670807Y-78894030D01*
X99624864Y-78875000D01*
X99575136Y-78875000D01*
X99529193Y-78894030D01*
X99494030Y-78929193D01*
X99475000Y-78975136D01*
X99221582Y-78975136D01*
X99000000Y-78753554D01*
X98753554Y-79000000D01*
X98525000Y-79000000D01*
X98525000Y-78975136D01*
X98505970Y-78929193D01*
X98470807Y-78894030D01*
X98424864Y-78875000D01*
X98375136Y-78875000D01*
X98329193Y-78894030D01*
X98294030Y-78929193D01*
X98275000Y-78975136D01*
X98021582Y-78975136D01*
X97713801Y-78667355D01*
X97712744Y-78669036D01*
X97656329Y-78830260D01*
X97656328Y-78830263D01*
X97637204Y-78999998D01*
X96321435Y-78999998D01*
X96290374Y-78939036D01*
X96290373Y-78939035D01*
X96290372Y-78939033D01*
X96210967Y-78859628D01*
X96210964Y-78859626D01*
X96210963Y-78859625D01*
X96110914Y-78808648D01*
X96000000Y-78791081D01*
X95889085Y-78808648D01*
X95789036Y-78859625D01*
X95709625Y-78939036D01*
X95658648Y-79039085D01*
X95641081Y-79150000D01*
X95658648Y-79260914D01*
X95709625Y-79360963D01*
X95709626Y-79360964D01*
X95709628Y-79360967D01*
X95711239Y-79362578D01*
X95718268Y-79379548D01*
X95711239Y-79396519D01*
X95705164Y-79400932D01*
X95639036Y-79434625D01*
X95559625Y-79514036D01*
X95508648Y-79614085D01*
X95491081Y-79725000D01*
X85320960Y-79725000D01*
X85366352Y-79635912D01*
X85383919Y-79525000D01*
X85366352Y-79414088D01*
X85366351Y-79414086D01*
X85366351Y-79414085D01*
X85315374Y-79314036D01*
X85315373Y-79314035D01*
X85315372Y-79314033D01*
X85235967Y-79234628D01*
X85235964Y-79234626D01*
X85235963Y-79234625D01*
X85135914Y-79183648D01*
X85025000Y-79166081D01*
X84914085Y-79183648D01*
X84814036Y-79234625D01*
X84734625Y-79314036D01*
X84683648Y-79414085D01*
X84666081Y-79525000D01*
X73893005Y-79525000D01*
X73960967Y-79490372D01*
X74040372Y-79410967D01*
X74091352Y-79310912D01*
X74108919Y-79200000D01*
X74091352Y-79089088D01*
X74091351Y-79089086D01*
X74091351Y-79089085D01*
X74040374Y-78989036D01*
X74040373Y-78989035D01*
X74040372Y-78989033D01*
X73960967Y-78909628D01*
X73960964Y-78909626D01*
X73960963Y-78909625D01*
X73860914Y-78858648D01*
X73750000Y-78841081D01*
X73639085Y-78858648D01*
X73539036Y-78909625D01*
X73459625Y-78989036D01*
X73408648Y-79089085D01*
X73391081Y-79200000D01*
X72942071Y-79200000D01*
X72960967Y-79190372D01*
X73040372Y-79110967D01*
X73091352Y-79010912D01*
X73108919Y-78900000D01*
X73091352Y-78789088D01*
X73091351Y-78789086D01*
X73091351Y-78789085D01*
X73040374Y-78689036D01*
X73040373Y-78689035D01*
X73040372Y-78689033D01*
X72960967Y-78609628D01*
X72960964Y-78609626D01*
X72960963Y-78609625D01*
X72860914Y-78558648D01*
X72806313Y-78550000D01*
X77541081Y-78550000D01*
X77558648Y-78660914D01*
X77609625Y-78760963D01*
X77609626Y-78760964D01*
X77609628Y-78760967D01*
X77689033Y-78840372D01*
X77689035Y-78840373D01*
X77689036Y-78840374D01*
X77789085Y-78891351D01*
X77789086Y-78891351D01*
X77789088Y-78891352D01*
X77900000Y-78908919D01*
X78010912Y-78891352D01*
X78110967Y-78840372D01*
X78190372Y-78760967D01*
X78241352Y-78660912D01*
X78258919Y-78550000D01*
X78241352Y-78439088D01*
X78241351Y-78439086D01*
X78241351Y-78439085D01*
X78190374Y-78339036D01*
X78190373Y-78339035D01*
X78190372Y-78339033D01*
X78110967Y-78259628D01*
X78110964Y-78259626D01*
X78110963Y-78259625D01*
X78010914Y-78208648D01*
X77956313Y-78200000D01*
X79891081Y-78200000D01*
X79908648Y-78310914D01*
X79959625Y-78410963D01*
X79959626Y-78410964D01*
X79959628Y-78410967D01*
X80039033Y-78490372D01*
X80039035Y-78490373D01*
X80039036Y-78490374D01*
X80139085Y-78541351D01*
X80139086Y-78541351D01*
X80139088Y-78541352D01*
X80250000Y-78558919D01*
X80360912Y-78541352D01*
X80460967Y-78490372D01*
X80540372Y-78410967D01*
X80591352Y-78310912D01*
X80608919Y-78200000D01*
X80593080Y-78100000D01*
X83091081Y-78100000D01*
X83108648Y-78210914D01*
X83159625Y-78310963D01*
X83159626Y-78310964D01*
X83159628Y-78310967D01*
X83239033Y-78390372D01*
X83239035Y-78390373D01*
X83239036Y-78390374D01*
X83339085Y-78441351D01*
X83339086Y-78441351D01*
X83339088Y-78441352D01*
X83450000Y-78458919D01*
X83560912Y-78441352D01*
X83565246Y-78439144D01*
X83660963Y-78390374D01*
X83660962Y-78390374D01*
X83660967Y-78390372D01*
X83740372Y-78310967D01*
X83791352Y-78210912D01*
X83808919Y-78100000D01*
X84391081Y-78100000D01*
X84408648Y-78210914D01*
X84459625Y-78310963D01*
X84459626Y-78310964D01*
X84459628Y-78310967D01*
X84539033Y-78390372D01*
X84539035Y-78390373D01*
X84539036Y-78390374D01*
X84639085Y-78441351D01*
X84639086Y-78441351D01*
X84639088Y-78441352D01*
X84750000Y-78458919D01*
X84860912Y-78441352D01*
X84865246Y-78439144D01*
X84960963Y-78390374D01*
X84960962Y-78390374D01*
X84960967Y-78390372D01*
X85040372Y-78310967D01*
X85091352Y-78210912D01*
X85108919Y-78100000D01*
X85091352Y-77989088D01*
X85091351Y-77989086D01*
X85091351Y-77989085D01*
X85040374Y-77889036D01*
X85040373Y-77889035D01*
X85040372Y-77889033D01*
X84960967Y-77809628D01*
X84960964Y-77809626D01*
X84960963Y-77809625D01*
X84860914Y-77758648D01*
X84750000Y-77741081D01*
X84639085Y-77758648D01*
X84539036Y-77809625D01*
X84459625Y-77889036D01*
X84408648Y-77989085D01*
X84391081Y-78100000D01*
X83808919Y-78100000D01*
X83791352Y-77989088D01*
X83791351Y-77989086D01*
X83791351Y-77989085D01*
X83740374Y-77889036D01*
X83740373Y-77889035D01*
X83740372Y-77889033D01*
X83660967Y-77809628D01*
X83660964Y-77809626D01*
X83660963Y-77809625D01*
X83560914Y-77758648D01*
X83450000Y-77741081D01*
X83339085Y-77758648D01*
X83239036Y-77809625D01*
X83159625Y-77889036D01*
X83108648Y-77989085D01*
X83091081Y-78100000D01*
X80593080Y-78100000D01*
X80591352Y-78089088D01*
X80591351Y-78089086D01*
X80591351Y-78089085D01*
X80540374Y-77989036D01*
X80540373Y-77989035D01*
X80540372Y-77989033D01*
X80460967Y-77909628D01*
X80460964Y-77909626D01*
X80460963Y-77909625D01*
X80360914Y-77858648D01*
X80250000Y-77841081D01*
X80139085Y-77858648D01*
X80039036Y-77909625D01*
X79959625Y-77989036D01*
X79908648Y-78089085D01*
X79891081Y-78200000D01*
X77956313Y-78200000D01*
X77900000Y-78191081D01*
X77789085Y-78208648D01*
X77689036Y-78259625D01*
X77609625Y-78339036D01*
X77558648Y-78439085D01*
X77541081Y-78550000D01*
X72806313Y-78550000D01*
X72750000Y-78541081D01*
X72639085Y-78558648D01*
X72539036Y-78609625D01*
X72459625Y-78689036D01*
X72408648Y-78789085D01*
X72391081Y-78900000D01*
X70695960Y-78900000D01*
X70690374Y-78889036D01*
X70690373Y-78889035D01*
X70690372Y-78889033D01*
X70610967Y-78809628D01*
X70610964Y-78809626D01*
X70610963Y-78809625D01*
X70510914Y-78758648D01*
X70400000Y-78741081D01*
X70289085Y-78758648D01*
X70189036Y-78809625D01*
X70109625Y-78889036D01*
X70058648Y-78989085D01*
X70041081Y-79100000D01*
X70058648Y-79210914D01*
X70109625Y-79310963D01*
X70109626Y-79310964D01*
X70109628Y-79310967D01*
X70189033Y-79390372D01*
X70189035Y-79390373D01*
X70189036Y-79390374D01*
X70289085Y-79441351D01*
X70289086Y-79441351D01*
X70289088Y-79441352D01*
X70375854Y-79455094D01*
X70391514Y-79464691D01*
X70395803Y-79482552D01*
X70386205Y-79498214D01*
X70382994Y-79500182D01*
X70306889Y-79538959D01*
X70227478Y-79618370D01*
X70176501Y-79718419D01*
X70158934Y-79829334D01*
X70176501Y-79940248D01*
X70227478Y-80040297D01*
X70227479Y-80040298D01*
X70227481Y-80040301D01*
X70306886Y-80119706D01*
X70306888Y-80119707D01*
X70306890Y-80119709D01*
X70336174Y-80134629D01*
X70348104Y-80148596D01*
X70346663Y-80166908D01*
X70338613Y-80175968D01*
X70248719Y-80236033D01*
X70161033Y-80323719D01*
X70092141Y-80426823D01*
X70044692Y-80541379D01*
X70044689Y-80541386D01*
X70020500Y-80662995D01*
X70020500Y-80787004D01*
X70044689Y-80908613D01*
X70044692Y-80908620D01*
X70092141Y-81023176D01*
X70152876Y-81114072D01*
X70156460Y-81132088D01*
X70146255Y-81147361D01*
X70136676Y-81151110D01*
X70089088Y-81158647D01*
X70089087Y-81158647D01*
X69989036Y-81209625D01*
X69909625Y-81289036D01*
X69858648Y-81389085D01*
X69841081Y-81500000D01*
X69761626Y-81500000D01*
X69771352Y-81480912D01*
X69788919Y-81370000D01*
X69771352Y-81259088D01*
X69771351Y-81259086D01*
X69771351Y-81259085D01*
X69720374Y-81159036D01*
X69720373Y-81159035D01*
X69720372Y-81159033D01*
X69645068Y-81083729D01*
X69638040Y-81066760D01*
X69645069Y-81049789D01*
X69651145Y-81045376D01*
X69660967Y-81040372D01*
X69740372Y-80960967D01*
X69784105Y-80875136D01*
X69791351Y-80860914D01*
X69791351Y-80860913D01*
X69791352Y-80860912D01*
X69808919Y-80750000D01*
X69791352Y-80639088D01*
X69791351Y-80639086D01*
X69791351Y-80639085D01*
X69740374Y-80539036D01*
X69740373Y-80539035D01*
X69740372Y-80539033D01*
X69660967Y-80459628D01*
X69660964Y-80459626D01*
X69660963Y-80459625D01*
X69560914Y-80408648D01*
X69450000Y-80391081D01*
X69339085Y-80408648D01*
X69239036Y-80459625D01*
X69159625Y-80539036D01*
X69108648Y-80639085D01*
X69091081Y-80750000D01*
X69108648Y-80860914D01*
X69159625Y-80960963D01*
X69159626Y-80960964D01*
X69159628Y-80960967D01*
X69234929Y-81036268D01*
X69241958Y-81053238D01*
X69234929Y-81070209D01*
X69228856Y-81074621D01*
X69219036Y-81079625D01*
X69139625Y-81159036D01*
X69088648Y-81259085D01*
X69071081Y-81370000D01*
X67200500Y-81370000D01*
X67200500Y-77750000D01*
X69269196Y-77750000D01*
X69290281Y-77883128D01*
X69351469Y-78003216D01*
X69351470Y-78003217D01*
X69351472Y-78003220D01*
X69446780Y-78098528D01*
X69446782Y-78098529D01*
X69446783Y-78098530D01*
X69566871Y-78159718D01*
X69566872Y-78159718D01*
X69566874Y-78159719D01*
X69700000Y-78180804D01*
X69833126Y-78159719D01*
X69839872Y-78156282D01*
X69953216Y-78098530D01*
X69953215Y-78098530D01*
X69953220Y-78098528D01*
X70048528Y-78003220D01*
X70101121Y-77900000D01*
X74691081Y-77900000D01*
X74708648Y-78010914D01*
X74759625Y-78110963D01*
X74759626Y-78110964D01*
X74759628Y-78110967D01*
X74839033Y-78190372D01*
X74839035Y-78190373D01*
X74839036Y-78190374D01*
X74939085Y-78241351D01*
X74939086Y-78241351D01*
X74939088Y-78241352D01*
X75050000Y-78258919D01*
X75160912Y-78241352D01*
X75260967Y-78190372D01*
X75340372Y-78110967D01*
X75391352Y-78010912D01*
X75408919Y-77900000D01*
X75391352Y-77789088D01*
X75391351Y-77789086D01*
X75391351Y-77789085D01*
X75340374Y-77689036D01*
X75340373Y-77689035D01*
X75340372Y-77689033D01*
X75260967Y-77609628D01*
X75260964Y-77609626D01*
X75260963Y-77609625D01*
X75160914Y-77558648D01*
X75050000Y-77541081D01*
X74939085Y-77558648D01*
X74839036Y-77609625D01*
X74759625Y-77689036D01*
X74708648Y-77789085D01*
X74691081Y-77900000D01*
X70101121Y-77900000D01*
X70109719Y-77883126D01*
X70130804Y-77750000D01*
X70109719Y-77616874D01*
X70109718Y-77616872D01*
X70109718Y-77616871D01*
X70048530Y-77496783D01*
X70048529Y-77496782D01*
X70048528Y-77496780D01*
X69953220Y-77401472D01*
X69953217Y-77401470D01*
X69953216Y-77401469D01*
X69833128Y-77340281D01*
X69700000Y-77319196D01*
X69566871Y-77340281D01*
X69446783Y-77401469D01*
X69351469Y-77496783D01*
X69290281Y-77616871D01*
X69269196Y-77750000D01*
X67200500Y-77750000D01*
X67200500Y-76895750D01*
X69836831Y-76895750D01*
X69854398Y-77006664D01*
X69905375Y-77106713D01*
X69905376Y-77106714D01*
X69905378Y-77106717D01*
X69984783Y-77186122D01*
X69984785Y-77186123D01*
X69984786Y-77186124D01*
X70084835Y-77237101D01*
X70084836Y-77237101D01*
X70084838Y-77237102D01*
X70195750Y-77254669D01*
X70306662Y-77237102D01*
X70406717Y-77186122D01*
X70486122Y-77106717D01*
X70537102Y-77006662D01*
X70554669Y-76895750D01*
X70537102Y-76784838D01*
X70537101Y-76784836D01*
X70537101Y-76784835D01*
X70519352Y-76750000D01*
X73891081Y-76750000D01*
X73908648Y-76860914D01*
X73959625Y-76960963D01*
X73959626Y-76960964D01*
X73959628Y-76960967D01*
X74039033Y-77040372D01*
X74039035Y-77040373D01*
X74039036Y-77040374D01*
X74139085Y-77091351D01*
X74139086Y-77091351D01*
X74139088Y-77091352D01*
X74250000Y-77108919D01*
X74360912Y-77091352D01*
X74460967Y-77040372D01*
X74540372Y-76960967D01*
X74591352Y-76860912D01*
X74608919Y-76750000D01*
X74591352Y-76639088D01*
X74591351Y-76639086D01*
X74591351Y-76639085D01*
X74540374Y-76539036D01*
X74540373Y-76539035D01*
X74540372Y-76539033D01*
X74460967Y-76459628D01*
X74460964Y-76459626D01*
X74460963Y-76459625D01*
X74360914Y-76408648D01*
X74250000Y-76391081D01*
X74139085Y-76408648D01*
X74039036Y-76459625D01*
X73959625Y-76539036D01*
X73908648Y-76639085D01*
X73891081Y-76750000D01*
X70519352Y-76750000D01*
X70486124Y-76684786D01*
X70486123Y-76684785D01*
X70486122Y-76684783D01*
X70406717Y-76605378D01*
X70406714Y-76605376D01*
X70406713Y-76605375D01*
X70306664Y-76554398D01*
X70195750Y-76536831D01*
X70084835Y-76554398D01*
X69984786Y-76605375D01*
X69905375Y-76684786D01*
X69854398Y-76784835D01*
X69836831Y-76895750D01*
X67200500Y-76895750D01*
X67200500Y-76349998D01*
X77794435Y-76349998D01*
X77794435Y-76350001D01*
X77814632Y-76529255D01*
X77874210Y-76699521D01*
X77968886Y-76850196D01*
X77970184Y-76852262D01*
X78097738Y-76979816D01*
X78250478Y-77075789D01*
X78420745Y-77135368D01*
X78579802Y-77153289D01*
X78599999Y-77155565D01*
X78600000Y-77155565D01*
X78600001Y-77155565D01*
X78618152Y-77153519D01*
X78779255Y-77135368D01*
X78949522Y-77075789D01*
X79102262Y-76979816D01*
X79229816Y-76852262D01*
X79325789Y-76699522D01*
X79385368Y-76529255D01*
X79404852Y-76356328D01*
X79405565Y-76350001D01*
X79405565Y-76349998D01*
X79399416Y-76295423D01*
X79385368Y-76170745D01*
X79325789Y-76000478D01*
X79229816Y-75847738D01*
X79102262Y-75720184D01*
X79102261Y-75720183D01*
X78949521Y-75624210D01*
X78779255Y-75564632D01*
X78600001Y-75544435D01*
X78599999Y-75544435D01*
X78420744Y-75564632D01*
X78250478Y-75624210D01*
X78097738Y-75720183D01*
X77970183Y-75847738D01*
X77874210Y-76000478D01*
X77814632Y-76170744D01*
X77794435Y-76349998D01*
X67200500Y-76349998D01*
X67200500Y-75620000D01*
X67878581Y-75620000D01*
X67896148Y-75730914D01*
X67947125Y-75830963D01*
X67947126Y-75830964D01*
X67947128Y-75830967D01*
X68026533Y-75910372D01*
X68026535Y-75910373D01*
X68026536Y-75910374D01*
X68126585Y-75961351D01*
X68126586Y-75961351D01*
X68126588Y-75961352D01*
X68237500Y-75978919D01*
X68348412Y-75961352D01*
X68369711Y-75950500D01*
X68436732Y-75916351D01*
X68448467Y-75910372D01*
X68458839Y-75900000D01*
X69241081Y-75900000D01*
X69258648Y-76010914D01*
X69309625Y-76110963D01*
X69309626Y-76110964D01*
X69309628Y-76110967D01*
X69389033Y-76190372D01*
X69389035Y-76190373D01*
X69389036Y-76190374D01*
X69489085Y-76241351D01*
X69489086Y-76241351D01*
X69489088Y-76241352D01*
X69600000Y-76258919D01*
X69710912Y-76241352D01*
X69810967Y-76190372D01*
X69890372Y-76110967D01*
X69941352Y-76010912D01*
X69958919Y-75900000D01*
X69941352Y-75789088D01*
X69941351Y-75789086D01*
X69941351Y-75789085D01*
X69890374Y-75689036D01*
X69890373Y-75689035D01*
X69890372Y-75689033D01*
X69810967Y-75609628D01*
X69810964Y-75609626D01*
X69810963Y-75609625D01*
X69710914Y-75558648D01*
X69600000Y-75541081D01*
X69489085Y-75558648D01*
X69389036Y-75609625D01*
X69309625Y-75689036D01*
X69258648Y-75789085D01*
X69241081Y-75900000D01*
X68458839Y-75900000D01*
X68527872Y-75830967D01*
X68578852Y-75730912D01*
X68596419Y-75620000D01*
X68578852Y-75509088D01*
X68578851Y-75509086D01*
X68578851Y-75509085D01*
X68527874Y-75409036D01*
X68527873Y-75409035D01*
X68527872Y-75409033D01*
X68448467Y-75329628D01*
X68448464Y-75329626D01*
X68448463Y-75329625D01*
X68348414Y-75278648D01*
X68237500Y-75261081D01*
X68126585Y-75278648D01*
X68026536Y-75329625D01*
X67947125Y-75409036D01*
X67896148Y-75509085D01*
X67878581Y-75620000D01*
X67200500Y-75620000D01*
X67200500Y-75414060D01*
X67205947Y-75398836D01*
X67291396Y-75294716D01*
X67294716Y-75291396D01*
X67398836Y-75205948D01*
X67414061Y-75200500D01*
X85479176Y-75200500D01*
X85496147Y-75207529D01*
X85503176Y-75224500D01*
X85496147Y-75241471D01*
X85490072Y-75245884D01*
X85414036Y-75284625D01*
X85334625Y-75364036D01*
X85283648Y-75464085D01*
X85266081Y-75575000D01*
X85283648Y-75685914D01*
X85334625Y-75785963D01*
X85334626Y-75785964D01*
X85334628Y-75785967D01*
X85414033Y-75865372D01*
X85414035Y-75865373D01*
X85414036Y-75865374D01*
X85514085Y-75916351D01*
X85514086Y-75916351D01*
X85514088Y-75916352D01*
X85625000Y-75933919D01*
X85735912Y-75916352D01*
X85835967Y-75865372D01*
X85915372Y-75785967D01*
X85966352Y-75685912D01*
X85983919Y-75575000D01*
X85966352Y-75464088D01*
X85966351Y-75464086D01*
X85966351Y-75464085D01*
X85915374Y-75364036D01*
X85915373Y-75364035D01*
X85915372Y-75364033D01*
X85835967Y-75284628D01*
X85835964Y-75284626D01*
X85835963Y-75284625D01*
X85759928Y-75245884D01*
X85747999Y-75231916D01*
X85749440Y-75213604D01*
X85763408Y-75201675D01*
X85770824Y-75200500D01*
X86576000Y-75200500D01*
X86592971Y-75207529D01*
X86600000Y-75224500D01*
X86600000Y-79119204D01*
X86600001Y-79119204D01*
X93599999Y-79119204D01*
X93600000Y-79119204D01*
X93600000Y-78450000D01*
X98203554Y-78450000D01*
X98400000Y-78646446D01*
X98596446Y-78450000D01*
X99403554Y-78450000D01*
X99600000Y-78646446D01*
X99796446Y-78450000D01*
X100803554Y-78450000D01*
X101000000Y-78646446D01*
X101196446Y-78450000D01*
X102003554Y-78450000D01*
X102200000Y-78646446D01*
X102307407Y-78539039D01*
X106844440Y-78539039D01*
X106862007Y-78649953D01*
X106912984Y-78750002D01*
X106912985Y-78750003D01*
X106912987Y-78750006D01*
X106992392Y-78829411D01*
X106992394Y-78829412D01*
X106992395Y-78829413D01*
X107092444Y-78880390D01*
X107092445Y-78880390D01*
X107092447Y-78880391D01*
X107203359Y-78897958D01*
X107314271Y-78880391D01*
X107414326Y-78829411D01*
X107493731Y-78750006D01*
X107519210Y-78700000D01*
X113369196Y-78700000D01*
X113390281Y-78833128D01*
X113451469Y-78953216D01*
X113451470Y-78953217D01*
X113451472Y-78953220D01*
X113546780Y-79048528D01*
X113546782Y-79048529D01*
X113546783Y-79048530D01*
X113666871Y-79109718D01*
X113666872Y-79109718D01*
X113666874Y-79109719D01*
X113800000Y-79130804D01*
X113933126Y-79109719D01*
X114053220Y-79048528D01*
X114148528Y-78953220D01*
X114209719Y-78833126D01*
X114230804Y-78700000D01*
X114209719Y-78566874D01*
X114209718Y-78566872D01*
X114209718Y-78566871D01*
X114148530Y-78446783D01*
X114148529Y-78446782D01*
X114148528Y-78446780D01*
X114053220Y-78351472D01*
X114053217Y-78351470D01*
X114053216Y-78351469D01*
X113933128Y-78290281D01*
X113800000Y-78269196D01*
X113666871Y-78290281D01*
X113546783Y-78351469D01*
X113451469Y-78446783D01*
X113390281Y-78566871D01*
X113369196Y-78700000D01*
X107519210Y-78700000D01*
X107544711Y-78649951D01*
X107562278Y-78539039D01*
X107544711Y-78428127D01*
X107544710Y-78428125D01*
X107544710Y-78428124D01*
X107493733Y-78328075D01*
X107493732Y-78328074D01*
X107493731Y-78328072D01*
X107414326Y-78248667D01*
X107414323Y-78248665D01*
X107414322Y-78248664D01*
X107314273Y-78197687D01*
X107203359Y-78180120D01*
X107092444Y-78197687D01*
X106992395Y-78248664D01*
X106912984Y-78328075D01*
X106862007Y-78428124D01*
X106844440Y-78539039D01*
X102307407Y-78539039D01*
X102396446Y-78450000D01*
X102200000Y-78253554D01*
X102003554Y-78450000D01*
X101196446Y-78450000D01*
X101000000Y-78253554D01*
X100803554Y-78450000D01*
X99796446Y-78450000D01*
X99600000Y-78253554D01*
X99403554Y-78450000D01*
X98596446Y-78450000D01*
X98400000Y-78253554D01*
X98203554Y-78450000D01*
X93600000Y-78450000D01*
X93600000Y-77550000D01*
X93741081Y-77550000D01*
X93758648Y-77660914D01*
X93809625Y-77760963D01*
X93809626Y-77760964D01*
X93809628Y-77760967D01*
X93889033Y-77840372D01*
X93889035Y-77840373D01*
X93889036Y-77840374D01*
X93989085Y-77891351D01*
X93989086Y-77891351D01*
X93989088Y-77891352D01*
X94100000Y-77908919D01*
X94156324Y-77899998D01*
X97637204Y-77899998D01*
X97637204Y-77900001D01*
X97656328Y-78069736D01*
X97656329Y-78069739D01*
X97712742Y-78230958D01*
X97712747Y-78230968D01*
X97713800Y-78232644D01*
X98046445Y-77899999D01*
X98021582Y-77875136D01*
X98275000Y-77875136D01*
X98275000Y-77924864D01*
X98294030Y-77970807D01*
X98329193Y-78005970D01*
X98375136Y-78025000D01*
X98424864Y-78025000D01*
X98470807Y-78005970D01*
X98505970Y-77970807D01*
X98525000Y-77924864D01*
X98525000Y-77900000D01*
X98753554Y-77900000D01*
X99000000Y-78146446D01*
X99246446Y-77900000D01*
X99221582Y-77875136D01*
X99475000Y-77875136D01*
X99475000Y-77924864D01*
X99494030Y-77970807D01*
X99529193Y-78005970D01*
X99575136Y-78025000D01*
X99624864Y-78025000D01*
X99670807Y-78005970D01*
X99705970Y-77970807D01*
X99725000Y-77924864D01*
X99725000Y-77900000D01*
X99953554Y-77900000D01*
X100286198Y-78232644D01*
X100297331Y-78231393D01*
X100302698Y-78231394D01*
X100313800Y-78232644D01*
X100646445Y-77899999D01*
X100621582Y-77875136D01*
X100875000Y-77875136D01*
X100875000Y-77924864D01*
X100894030Y-77970807D01*
X100929193Y-78005970D01*
X100975136Y-78025000D01*
X101024864Y-78025000D01*
X101070807Y-78005970D01*
X101105970Y-77970807D01*
X101125000Y-77924864D01*
X101125000Y-77900000D01*
X101353554Y-77900000D01*
X101600000Y-78146446D01*
X101846446Y-77900000D01*
X101821582Y-77875136D01*
X102075000Y-77875136D01*
X102075000Y-77924864D01*
X102094030Y-77970807D01*
X102129193Y-78005970D01*
X102175136Y-78025000D01*
X102224864Y-78025000D01*
X102270807Y-78005970D01*
X102305970Y-77970807D01*
X102325000Y-77924864D01*
X102325000Y-77899999D01*
X102553553Y-77899999D01*
X102886198Y-78232644D01*
X102887252Y-78230968D01*
X102887257Y-78230958D01*
X102943670Y-78069739D01*
X102943671Y-78069736D01*
X102962796Y-77900001D01*
X102962796Y-77899998D01*
X102943671Y-77730263D01*
X102943670Y-77730260D01*
X102887254Y-77569034D01*
X102887253Y-77569032D01*
X102886198Y-77567354D01*
X102553553Y-77899999D01*
X102325000Y-77899999D01*
X102325000Y-77875136D01*
X102305970Y-77829193D01*
X102270807Y-77794030D01*
X102224864Y-77775000D01*
X102175136Y-77775000D01*
X102129193Y-77794030D01*
X102094030Y-77829193D01*
X102075000Y-77875136D01*
X101821582Y-77875136D01*
X101600000Y-77653554D01*
X101353554Y-77900000D01*
X101125000Y-77900000D01*
X101125000Y-77875136D01*
X101105970Y-77829193D01*
X101070807Y-77794030D01*
X101024864Y-77775000D01*
X100975136Y-77775000D01*
X100929193Y-77794030D01*
X100894030Y-77829193D01*
X100875000Y-77875136D01*
X100621582Y-77875136D01*
X100300000Y-77553554D01*
X99953554Y-77900000D01*
X99725000Y-77900000D01*
X99725000Y-77875136D01*
X99705970Y-77829193D01*
X99670807Y-77794030D01*
X99624864Y-77775000D01*
X99575136Y-77775000D01*
X99529193Y-77794030D01*
X99494030Y-77829193D01*
X99475000Y-77875136D01*
X99221582Y-77875136D01*
X99000000Y-77653554D01*
X98753554Y-77900000D01*
X98525000Y-77900000D01*
X98525000Y-77875136D01*
X98505970Y-77829193D01*
X98470807Y-77794030D01*
X98424864Y-77775000D01*
X98375136Y-77775000D01*
X98329193Y-77794030D01*
X98294030Y-77829193D01*
X98275000Y-77875136D01*
X98021582Y-77875136D01*
X97713801Y-77567355D01*
X97712744Y-77569036D01*
X97656329Y-77730260D01*
X97656328Y-77730263D01*
X97637204Y-77899998D01*
X94156324Y-77899998D01*
X94210912Y-77891352D01*
X94310967Y-77840372D01*
X94390372Y-77760967D01*
X94441352Y-77660912D01*
X94458919Y-77550000D01*
X94441352Y-77439088D01*
X94441351Y-77439086D01*
X94441351Y-77439085D01*
X94390374Y-77339036D01*
X94390373Y-77339035D01*
X94390372Y-77339033D01*
X94310967Y-77259628D01*
X94310964Y-77259626D01*
X94310963Y-77259625D01*
X94221027Y-77213801D01*
X98067355Y-77213801D01*
X98400000Y-77546446D01*
X98406830Y-77539616D01*
X98406830Y-77539615D01*
X98373801Y-77506586D01*
X98366772Y-77489616D01*
X98373801Y-77472645D01*
X98386064Y-77460382D01*
X100293169Y-77460382D01*
X100300000Y-77467213D01*
X100306829Y-77460383D01*
X100299999Y-77453553D01*
X100293169Y-77460382D01*
X98386064Y-77460382D01*
X98746446Y-77100000D01*
X98721582Y-77075136D01*
X98975000Y-77075136D01*
X98975000Y-77124864D01*
X98994030Y-77170807D01*
X99029193Y-77205970D01*
X99075136Y-77225000D01*
X99124864Y-77225000D01*
X99170807Y-77205970D01*
X99205970Y-77170807D01*
X99225000Y-77124864D01*
X99225000Y-77100000D01*
X99453554Y-77100000D01*
X99700000Y-77346446D01*
X99946446Y-77100000D01*
X99921582Y-77075136D01*
X100175000Y-77075136D01*
X100175000Y-77124864D01*
X100194030Y-77170807D01*
X100229193Y-77205970D01*
X100275136Y-77225000D01*
X100324864Y-77225000D01*
X100370807Y-77205970D01*
X100405970Y-77170807D01*
X100425000Y-77124864D01*
X100425000Y-77100000D01*
X100653554Y-77100000D01*
X100950000Y-77396446D01*
X101246446Y-77100000D01*
X101221582Y-77075136D01*
X101475000Y-77075136D01*
X101475000Y-77124864D01*
X101494030Y-77170807D01*
X101529193Y-77205970D01*
X101575136Y-77225000D01*
X101624864Y-77225000D01*
X101670807Y-77205970D01*
X101705970Y-77170807D01*
X101725000Y-77124864D01*
X101725000Y-77099999D01*
X101953553Y-77099999D01*
X102299999Y-77446445D01*
X102491418Y-77255026D01*
X104182393Y-77255026D01*
X104199960Y-77365940D01*
X104250937Y-77465989D01*
X104250938Y-77465990D01*
X104250940Y-77465993D01*
X104330345Y-77545398D01*
X104330347Y-77545399D01*
X104330348Y-77545400D01*
X104430397Y-77596377D01*
X104430398Y-77596377D01*
X104430400Y-77596378D01*
X104541312Y-77613945D01*
X104652224Y-77596378D01*
X104752279Y-77545398D01*
X104831684Y-77465993D01*
X104839833Y-77450000D01*
X105591081Y-77450000D01*
X105608648Y-77560914D01*
X105659625Y-77660963D01*
X105659626Y-77660964D01*
X105659628Y-77660967D01*
X105739033Y-77740372D01*
X105739035Y-77740373D01*
X105739036Y-77740374D01*
X105839085Y-77791351D01*
X105839086Y-77791351D01*
X105839088Y-77791352D01*
X105950000Y-77808919D01*
X106003407Y-77800460D01*
X106664010Y-77800460D01*
X106681577Y-77911374D01*
X106732554Y-78011423D01*
X106732555Y-78011424D01*
X106732557Y-78011427D01*
X106811962Y-78090832D01*
X106811964Y-78090833D01*
X106811965Y-78090834D01*
X106912014Y-78141811D01*
X106912015Y-78141811D01*
X106912017Y-78141812D01*
X107022929Y-78159379D01*
X107103485Y-78146620D01*
X116828515Y-78146620D01*
X116848361Y-78271926D01*
X116905954Y-78384958D01*
X116905955Y-78384959D01*
X116905957Y-78384962D01*
X116995665Y-78474670D01*
X116995667Y-78474671D01*
X116995668Y-78474672D01*
X117108700Y-78532265D01*
X117108701Y-78532265D01*
X117108703Y-78532266D01*
X117234007Y-78552112D01*
X117359311Y-78532266D01*
X117472349Y-78474670D01*
X117483930Y-78463089D01*
X125939794Y-78463089D01*
X125957361Y-78574003D01*
X126008338Y-78674052D01*
X126008339Y-78674053D01*
X126008341Y-78674056D01*
X126087746Y-78753461D01*
X126087748Y-78753462D01*
X126087749Y-78753463D01*
X126187798Y-78804440D01*
X126187799Y-78804440D01*
X126187801Y-78804441D01*
X126298713Y-78822008D01*
X126409625Y-78804441D01*
X126509680Y-78753461D01*
X126589085Y-78674056D01*
X126596507Y-78659489D01*
X126627329Y-78598998D01*
X126641296Y-78587069D01*
X126659609Y-78588510D01*
X126670097Y-78598998D01*
X126708338Y-78674052D01*
X126708339Y-78674053D01*
X126708341Y-78674056D01*
X126787746Y-78753461D01*
X126787748Y-78753462D01*
X126787749Y-78753463D01*
X126887798Y-78804440D01*
X126887799Y-78804440D01*
X126887801Y-78804441D01*
X126998713Y-78822008D01*
X127109625Y-78804441D01*
X127209680Y-78753461D01*
X127289085Y-78674056D01*
X127340065Y-78574001D01*
X127357632Y-78463089D01*
X127352336Y-78429654D01*
X130850999Y-78429654D01*
X130871481Y-78572111D01*
X130871482Y-78572113D01*
X130918715Y-78675539D01*
X130931269Y-78703027D01*
X131025518Y-78811797D01*
X131146593Y-78889607D01*
X131284685Y-78930154D01*
X131284686Y-78930154D01*
X131428605Y-78930154D01*
X131428607Y-78930154D01*
X131476246Y-78916165D01*
X131494508Y-78918129D01*
X131506034Y-78932431D01*
X131504837Y-78949163D01*
X131484803Y-78993032D01*
X131484802Y-78993034D01*
X131465513Y-79127192D01*
X131464320Y-79135492D01*
X131484802Y-79277949D01*
X131544590Y-79408865D01*
X131638839Y-79517635D01*
X131759914Y-79595445D01*
X131898006Y-79635992D01*
X131898007Y-79635992D01*
X132041927Y-79635992D01*
X132041928Y-79635992D01*
X132180020Y-79595445D01*
X132301095Y-79517635D01*
X132395344Y-79408865D01*
X132455132Y-79277949D01*
X132475614Y-79135492D01*
X132473307Y-79119443D01*
X146682104Y-79119443D01*
X146702586Y-79261900D01*
X146762374Y-79392816D01*
X146856623Y-79501586D01*
X146977698Y-79579396D01*
X147115790Y-79619943D01*
X147115791Y-79619943D01*
X147259711Y-79619943D01*
X147259712Y-79619943D01*
X147397804Y-79579396D01*
X147518879Y-79501586D01*
X147613128Y-79392816D01*
X147672916Y-79261900D01*
X147693398Y-79119443D01*
X147672916Y-78976986D01*
X147613128Y-78846070D01*
X147518879Y-78737300D01*
X147518878Y-78737299D01*
X147516553Y-78735805D01*
X154905031Y-78735805D01*
X154922598Y-78846719D01*
X154973575Y-78946768D01*
X154973576Y-78946769D01*
X154973578Y-78946772D01*
X155052983Y-79026177D01*
X155052985Y-79026178D01*
X155052986Y-79026179D01*
X155153035Y-79077156D01*
X155153036Y-79077156D01*
X155153038Y-79077157D01*
X155263950Y-79094724D01*
X155374862Y-79077157D01*
X155474917Y-79026177D01*
X155554322Y-78946772D01*
X155605302Y-78846717D01*
X155622869Y-78735805D01*
X155605302Y-78624893D01*
X155605301Y-78624891D01*
X155605301Y-78624890D01*
X155554324Y-78524841D01*
X155554323Y-78524840D01*
X155554322Y-78524838D01*
X155474917Y-78445433D01*
X155474914Y-78445431D01*
X155474913Y-78445430D01*
X155374864Y-78394453D01*
X155263950Y-78376886D01*
X155153035Y-78394453D01*
X155052986Y-78445430D01*
X154973575Y-78524841D01*
X154922598Y-78624890D01*
X154905031Y-78735805D01*
X147516553Y-78735805D01*
X147397806Y-78659491D01*
X147397801Y-78659489D01*
X147324216Y-78637883D01*
X147259712Y-78618943D01*
X147115790Y-78618943D01*
X147058390Y-78635796D01*
X146977700Y-78659489D01*
X146977695Y-78659491D01*
X146856623Y-78737299D01*
X146762373Y-78846071D01*
X146705729Y-78970104D01*
X146702586Y-78976986D01*
X146682104Y-79119443D01*
X132473307Y-79119443D01*
X132455132Y-78993035D01*
X132395344Y-78862119D01*
X132301095Y-78753349D01*
X132301094Y-78753348D01*
X132180022Y-78675540D01*
X132180017Y-78675538D01*
X132093419Y-78650111D01*
X141010939Y-78650111D01*
X141028506Y-78761025D01*
X141079483Y-78861074D01*
X141079484Y-78861075D01*
X141079486Y-78861078D01*
X141158891Y-78940483D01*
X141158893Y-78940484D01*
X141158894Y-78940485D01*
X141258943Y-78991462D01*
X141258944Y-78991462D01*
X141258946Y-78991463D01*
X141369858Y-79009030D01*
X141480770Y-78991463D01*
X141580825Y-78940483D01*
X141660230Y-78861078D01*
X141711210Y-78761023D01*
X141728777Y-78650111D01*
X141711210Y-78539199D01*
X141711209Y-78539197D01*
X141711209Y-78539196D01*
X141660232Y-78439147D01*
X141660231Y-78439146D01*
X141660230Y-78439144D01*
X141580825Y-78359739D01*
X141580822Y-78359737D01*
X141580821Y-78359736D01*
X141480772Y-78308759D01*
X141369858Y-78291192D01*
X141258943Y-78308759D01*
X141158894Y-78359736D01*
X141079483Y-78439147D01*
X141028506Y-78539196D01*
X141010939Y-78650111D01*
X132093419Y-78650111D01*
X132092874Y-78649951D01*
X132041928Y-78634992D01*
X131898006Y-78634992D01*
X131877552Y-78640997D01*
X131850367Y-78648979D01*
X131832103Y-78647015D01*
X131820578Y-78632712D01*
X131821774Y-78615983D01*
X131841811Y-78572111D01*
X131862293Y-78429654D01*
X131841811Y-78287197D01*
X131782023Y-78156281D01*
X131765648Y-78137383D01*
X138168407Y-78137383D01*
X138188889Y-78279840D01*
X138248677Y-78410756D01*
X138342926Y-78519526D01*
X138464001Y-78597336D01*
X138602093Y-78637883D01*
X138602094Y-78637883D01*
X138746014Y-78637883D01*
X138746015Y-78637883D01*
X138884107Y-78597336D01*
X139005182Y-78519526D01*
X139099431Y-78410756D01*
X139159219Y-78279840D01*
X139179701Y-78137383D01*
X139159219Y-77994926D01*
X139099431Y-77864010D01*
X139005182Y-77755240D01*
X139005181Y-77755239D01*
X138884109Y-77677431D01*
X138884104Y-77677429D01*
X138844247Y-77665726D01*
X138746015Y-77636883D01*
X138602093Y-77636883D01*
X138570011Y-77646303D01*
X138464003Y-77677429D01*
X138463998Y-77677431D01*
X138342926Y-77755239D01*
X138248676Y-77864011D01*
X138191555Y-77989088D01*
X138188889Y-77994926D01*
X138168407Y-78137383D01*
X131765648Y-78137383D01*
X131687774Y-78047511D01*
X131687773Y-78047510D01*
X131595963Y-77988507D01*
X131585486Y-77973418D01*
X131588748Y-77955342D01*
X131598043Y-77946933D01*
X131664624Y-77913009D01*
X131664624Y-77913008D01*
X131664629Y-77913006D01*
X131744034Y-77833601D01*
X131781042Y-77760967D01*
X131795013Y-77733548D01*
X131795013Y-77733547D01*
X131795014Y-77733546D01*
X131812581Y-77622634D01*
X131795014Y-77511722D01*
X131795013Y-77511720D01*
X131795013Y-77511719D01*
X131744036Y-77411670D01*
X131744035Y-77411669D01*
X131744034Y-77411667D01*
X131664629Y-77332262D01*
X131664626Y-77332260D01*
X131664625Y-77332259D01*
X131587390Y-77292906D01*
X140434352Y-77292906D01*
X140451919Y-77403820D01*
X140502896Y-77503869D01*
X140502897Y-77503870D01*
X140502899Y-77503873D01*
X140582304Y-77583278D01*
X140582306Y-77583279D01*
X140582307Y-77583280D01*
X140682356Y-77634257D01*
X140682357Y-77634257D01*
X140682359Y-77634258D01*
X140793271Y-77651825D01*
X140904183Y-77634258D01*
X141004238Y-77583278D01*
X141083643Y-77503873D01*
X141134623Y-77403818D01*
X141152190Y-77292906D01*
X141137475Y-77199998D01*
X143619435Y-77199998D01*
X143619435Y-77200001D01*
X143639632Y-77379255D01*
X143699210Y-77549521D01*
X143786874Y-77689036D01*
X143795184Y-77702262D01*
X143922738Y-77829816D01*
X144075478Y-77925789D01*
X144245745Y-77985368D01*
X144404152Y-78003216D01*
X144424999Y-78005565D01*
X144425000Y-78005565D01*
X144425001Y-78005565D01*
X144443152Y-78003519D01*
X144604255Y-77985368D01*
X144774522Y-77925789D01*
X144800718Y-77909329D01*
X145182458Y-77909329D01*
X145200025Y-78020243D01*
X145251002Y-78120292D01*
X145251003Y-78120293D01*
X145251005Y-78120296D01*
X145330410Y-78199701D01*
X145330412Y-78199702D01*
X145330413Y-78199703D01*
X145430462Y-78250680D01*
X145430463Y-78250680D01*
X145430465Y-78250681D01*
X145541377Y-78268248D01*
X145652289Y-78250681D01*
X145752344Y-78199701D01*
X145831749Y-78120296D01*
X145882729Y-78020241D01*
X145885686Y-78001569D01*
X154198318Y-78001569D01*
X154215885Y-78112483D01*
X154266862Y-78212532D01*
X154266863Y-78212533D01*
X154266865Y-78212536D01*
X154346270Y-78291941D01*
X154346272Y-78291942D01*
X154346273Y-78291943D01*
X154446322Y-78342920D01*
X154446323Y-78342920D01*
X154446325Y-78342921D01*
X154557237Y-78360488D01*
X154668149Y-78342921D01*
X154768204Y-78291941D01*
X154847609Y-78212536D01*
X154898589Y-78112481D01*
X154916156Y-78001569D01*
X154898589Y-77890657D01*
X154898588Y-77890655D01*
X154898588Y-77890654D01*
X154847611Y-77790605D01*
X154847610Y-77790604D01*
X154847609Y-77790602D01*
X154768204Y-77711197D01*
X154768201Y-77711195D01*
X154768200Y-77711194D01*
X154668151Y-77660217D01*
X154557237Y-77642650D01*
X154446322Y-77660217D01*
X154346273Y-77711194D01*
X154266862Y-77790605D01*
X154215885Y-77890654D01*
X154198318Y-78001569D01*
X145885686Y-78001569D01*
X145900296Y-77909329D01*
X145882729Y-77798417D01*
X145882728Y-77798415D01*
X145882728Y-77798414D01*
X145831751Y-77698365D01*
X145831750Y-77698364D01*
X145831749Y-77698362D01*
X145752344Y-77618957D01*
X145752341Y-77618955D01*
X145752340Y-77618954D01*
X145652291Y-77567977D01*
X145541377Y-77550410D01*
X145430462Y-77567977D01*
X145330413Y-77618954D01*
X145251002Y-77698365D01*
X145200025Y-77798414D01*
X145182458Y-77909329D01*
X144800718Y-77909329D01*
X144927262Y-77829816D01*
X145054816Y-77702262D01*
X145150789Y-77549522D01*
X145210368Y-77379255D01*
X145230565Y-77200000D01*
X145210602Y-77022823D01*
X147415580Y-77022823D01*
X147434016Y-77151049D01*
X147464303Y-77217368D01*
X147487831Y-77268886D01*
X147572661Y-77366788D01*
X147572663Y-77366789D01*
X147572664Y-77366790D01*
X147681644Y-77436827D01*
X147805941Y-77473323D01*
X147805943Y-77473323D01*
X147935483Y-77473323D01*
X147935485Y-77473323D01*
X148059782Y-77436827D01*
X148168762Y-77366790D01*
X148169501Y-77365938D01*
X148191732Y-77340281D01*
X148253595Y-77268886D01*
X148307410Y-77151049D01*
X148325846Y-77022823D01*
X148307410Y-76894597D01*
X148253595Y-76776760D01*
X148230399Y-76749990D01*
X148168764Y-76678857D01*
X148168762Y-76678856D01*
X148059786Y-76608821D01*
X148059783Y-76608819D01*
X148059782Y-76608819D01*
X148056839Y-76607955D01*
X148020169Y-76597188D01*
X147935485Y-76572323D01*
X147805941Y-76572323D01*
X147741136Y-76591351D01*
X147681646Y-76608818D01*
X147681639Y-76608821D01*
X147572663Y-76678856D01*
X147572661Y-76678857D01*
X147487831Y-76776759D01*
X147441729Y-76877707D01*
X147434016Y-76894597D01*
X147415580Y-77022823D01*
X145210602Y-77022823D01*
X145210368Y-77020745D01*
X145150789Y-76850478D01*
X145054816Y-76697738D01*
X144927262Y-76570184D01*
X144927261Y-76570183D01*
X144774521Y-76474210D01*
X144604255Y-76414632D01*
X144425001Y-76394435D01*
X144424999Y-76394435D01*
X144245744Y-76414632D01*
X144075478Y-76474210D01*
X143922738Y-76570183D01*
X143795183Y-76697738D01*
X143699210Y-76850478D01*
X143639632Y-77020744D01*
X143619435Y-77199998D01*
X141137475Y-77199998D01*
X141134623Y-77181994D01*
X141134622Y-77181992D01*
X141134622Y-77181991D01*
X141083645Y-77081942D01*
X141083644Y-77081941D01*
X141083643Y-77081939D01*
X141004238Y-77002534D01*
X141004235Y-77002532D01*
X141004234Y-77002531D01*
X140904185Y-76951554D01*
X140793271Y-76933987D01*
X140682356Y-76951554D01*
X140582307Y-77002531D01*
X140502896Y-77081942D01*
X140451919Y-77181991D01*
X140434352Y-77292906D01*
X131587390Y-77292906D01*
X131564576Y-77281282D01*
X131453662Y-77263715D01*
X131342747Y-77281282D01*
X131242698Y-77332259D01*
X131163287Y-77411670D01*
X131112310Y-77511719D01*
X131094743Y-77622634D01*
X131112310Y-77733548D01*
X131163287Y-77833597D01*
X131163288Y-77833598D01*
X131163290Y-77833601D01*
X131236106Y-77906417D01*
X131243135Y-77923387D01*
X131236106Y-77940358D01*
X131225897Y-77946415D01*
X131146593Y-77969701D01*
X131146590Y-77969702D01*
X131025518Y-78047510D01*
X130931268Y-78156282D01*
X130874840Y-78279842D01*
X130871481Y-78287197D01*
X130850999Y-78429654D01*
X127352336Y-78429654D01*
X127340065Y-78352177D01*
X127340064Y-78352175D01*
X127340064Y-78352174D01*
X127289087Y-78252125D01*
X127289086Y-78252124D01*
X127289085Y-78252122D01*
X127209680Y-78172717D01*
X127209677Y-78172715D01*
X127209676Y-78172714D01*
X127109627Y-78121737D01*
X126998713Y-78104170D01*
X126887798Y-78121737D01*
X126787749Y-78172714D01*
X126708338Y-78252125D01*
X126670097Y-78327179D01*
X126656129Y-78339108D01*
X126637817Y-78337667D01*
X126627329Y-78327179D01*
X126589087Y-78252125D01*
X126589086Y-78252124D01*
X126589085Y-78252122D01*
X126509680Y-78172717D01*
X126509677Y-78172715D01*
X126509676Y-78172714D01*
X126409627Y-78121737D01*
X126298713Y-78104170D01*
X126187798Y-78121737D01*
X126087749Y-78172714D01*
X126008338Y-78252125D01*
X125957361Y-78352174D01*
X125939794Y-78463089D01*
X117483930Y-78463089D01*
X117562057Y-78384962D01*
X117619653Y-78271924D01*
X117639499Y-78146620D01*
X117619653Y-78021316D01*
X117619652Y-78021314D01*
X117619652Y-78021313D01*
X117567865Y-77919675D01*
X117889338Y-77919675D01*
X117909820Y-78062132D01*
X117909821Y-78062134D01*
X117954386Y-78159718D01*
X117969608Y-78193048D01*
X118063857Y-78301818D01*
X118184932Y-78379628D01*
X118323024Y-78420175D01*
X118323025Y-78420175D01*
X118466945Y-78420175D01*
X118466946Y-78420175D01*
X118605038Y-78379628D01*
X118726113Y-78301818D01*
X118820362Y-78193048D01*
X118880150Y-78062132D01*
X118900632Y-77919675D01*
X118880150Y-77777218D01*
X118820362Y-77646302D01*
X118726113Y-77537532D01*
X118726112Y-77537531D01*
X118605040Y-77459723D01*
X118605035Y-77459721D01*
X118534679Y-77439063D01*
X118466946Y-77419175D01*
X118323024Y-77419175D01*
X118269741Y-77434820D01*
X118184934Y-77459721D01*
X118184929Y-77459723D01*
X118063857Y-77537531D01*
X117969607Y-77646303D01*
X117917238Y-77760974D01*
X117909820Y-77777218D01*
X117889338Y-77919675D01*
X117567865Y-77919675D01*
X117562059Y-77908281D01*
X117562058Y-77908280D01*
X117562057Y-77908278D01*
X117472349Y-77818570D01*
X117472346Y-77818568D01*
X117472345Y-77818567D01*
X117359313Y-77760974D01*
X117234007Y-77741128D01*
X117108700Y-77760974D01*
X116995668Y-77818567D01*
X116905954Y-77908281D01*
X116848361Y-78021313D01*
X116828515Y-78146620D01*
X107103485Y-78146620D01*
X107133841Y-78141812D01*
X107142534Y-78137383D01*
X107233892Y-78090834D01*
X107233891Y-78090834D01*
X107233896Y-78090832D01*
X107313301Y-78011427D01*
X107364281Y-77911372D01*
X107381848Y-77800460D01*
X107364281Y-77689548D01*
X107364280Y-77689546D01*
X107364280Y-77689545D01*
X107313303Y-77589496D01*
X107313302Y-77589495D01*
X107313301Y-77589493D01*
X107233896Y-77510088D01*
X107233893Y-77510086D01*
X107233892Y-77510085D01*
X107133843Y-77459108D01*
X107022929Y-77441541D01*
X106912014Y-77459108D01*
X106811965Y-77510085D01*
X106732554Y-77589496D01*
X106681577Y-77689545D01*
X106664010Y-77800460D01*
X106003407Y-77800460D01*
X106060912Y-77791352D01*
X106160967Y-77740372D01*
X106240372Y-77660967D01*
X106291352Y-77560912D01*
X106308919Y-77450000D01*
X106291352Y-77339088D01*
X106291351Y-77339086D01*
X106291351Y-77339085D01*
X106240374Y-77239036D01*
X106240373Y-77239035D01*
X106240372Y-77239033D01*
X106160967Y-77159628D01*
X106160964Y-77159626D01*
X106160963Y-77159625D01*
X106060914Y-77108648D01*
X105950000Y-77091081D01*
X105839085Y-77108648D01*
X105739036Y-77159625D01*
X105659625Y-77239036D01*
X105608648Y-77339085D01*
X105591081Y-77450000D01*
X104839833Y-77450000D01*
X104882664Y-77365938D01*
X104900231Y-77255026D01*
X104882664Y-77144114D01*
X104882663Y-77144112D01*
X104882663Y-77144111D01*
X104866608Y-77112602D01*
X104865167Y-77094290D01*
X104877096Y-77080322D01*
X104895408Y-77078881D01*
X104898888Y-77080322D01*
X104930397Y-77096377D01*
X104930398Y-77096377D01*
X104930400Y-77096378D01*
X105041312Y-77113945D01*
X105152224Y-77096378D01*
X105252279Y-77045398D01*
X105331684Y-76965993D01*
X105382664Y-76865938D01*
X105400231Y-76755026D01*
X105382664Y-76644114D01*
X105382663Y-76644112D01*
X105382663Y-76644111D01*
X105331686Y-76544062D01*
X105331685Y-76544061D01*
X105331684Y-76544059D01*
X105252279Y-76464654D01*
X105252276Y-76464652D01*
X105252275Y-76464651D01*
X105152226Y-76413674D01*
X105041312Y-76396107D01*
X104930397Y-76413674D01*
X104830348Y-76464651D01*
X104750937Y-76544062D01*
X104699960Y-76644111D01*
X104682393Y-76755026D01*
X104699960Y-76865940D01*
X104716015Y-76897449D01*
X104717456Y-76915762D01*
X104705527Y-76929729D01*
X104687214Y-76931170D01*
X104683735Y-76929729D01*
X104652226Y-76913674D01*
X104541312Y-76896107D01*
X104430397Y-76913674D01*
X104330348Y-76964651D01*
X104250937Y-77044062D01*
X104199960Y-77144111D01*
X104182393Y-77255026D01*
X102491418Y-77255026D01*
X102532644Y-77213800D01*
X102530968Y-77212747D01*
X102530958Y-77212742D01*
X102375017Y-77158176D01*
X102361321Y-77145936D01*
X102359095Y-77132835D01*
X102362796Y-77099999D01*
X102362796Y-77099998D01*
X102343671Y-76930263D01*
X102343670Y-76930260D01*
X102287254Y-76769034D01*
X102287253Y-76769032D01*
X102286198Y-76767354D01*
X101953553Y-77099999D01*
X101725000Y-77099999D01*
X101725000Y-77075136D01*
X101705970Y-77029193D01*
X101670807Y-76994030D01*
X101624864Y-76975000D01*
X101575136Y-76975000D01*
X101529193Y-76994030D01*
X101494030Y-77029193D01*
X101475000Y-77075136D01*
X101221582Y-77075136D01*
X100950000Y-76803554D01*
X100653554Y-77100000D01*
X100425000Y-77100000D01*
X100425000Y-77075136D01*
X100405970Y-77029193D01*
X100370807Y-76994030D01*
X100324864Y-76975000D01*
X100275136Y-76975000D01*
X100229193Y-76994030D01*
X100194030Y-77029193D01*
X100175000Y-77075136D01*
X99921582Y-77075136D01*
X99700000Y-76853554D01*
X99453554Y-77100000D01*
X99225000Y-77100000D01*
X99225000Y-77075136D01*
X99205970Y-77029193D01*
X99170807Y-76994030D01*
X99124864Y-76975000D01*
X99075136Y-76975000D01*
X99029193Y-76994030D01*
X98994030Y-77029193D01*
X98975000Y-77075136D01*
X98721582Y-77075136D01*
X98413801Y-76767355D01*
X98412744Y-76769036D01*
X98356329Y-76930260D01*
X98356328Y-76930263D01*
X98337204Y-77099998D01*
X98337204Y-77100001D01*
X98339443Y-77119875D01*
X98334358Y-77137526D01*
X98318281Y-77146411D01*
X98230263Y-77156328D01*
X98230260Y-77156329D01*
X98069036Y-77212744D01*
X98067355Y-77213801D01*
X94221027Y-77213801D01*
X94210914Y-77208648D01*
X94100000Y-77191081D01*
X93989085Y-77208648D01*
X93889036Y-77259625D01*
X93809625Y-77339036D01*
X93758648Y-77439085D01*
X93741081Y-77550000D01*
X93600000Y-77550000D01*
X93600000Y-76413801D01*
X98767355Y-76413801D01*
X99099999Y-76746445D01*
X99432643Y-76413801D01*
X99967355Y-76413801D01*
X100299999Y-76746445D01*
X100632643Y-76413801D01*
X101267355Y-76413801D01*
X101599999Y-76746445D01*
X101932644Y-76413800D01*
X101930968Y-76412747D01*
X101930958Y-76412742D01*
X101769739Y-76356329D01*
X101769736Y-76356328D01*
X101600001Y-76337204D01*
X101599999Y-76337204D01*
X101430263Y-76356328D01*
X101430260Y-76356329D01*
X101269036Y-76412744D01*
X101267355Y-76413801D01*
X100632643Y-76413801D01*
X100632644Y-76413800D01*
X100630968Y-76412747D01*
X100630958Y-76412742D01*
X100469739Y-76356329D01*
X100469736Y-76356328D01*
X100300001Y-76337204D01*
X100299999Y-76337204D01*
X100130263Y-76356328D01*
X100130260Y-76356329D01*
X99969036Y-76412744D01*
X99967355Y-76413801D01*
X99432643Y-76413801D01*
X99432644Y-76413800D01*
X99430968Y-76412747D01*
X99430958Y-76412742D01*
X99269739Y-76356329D01*
X99269736Y-76356328D01*
X99100001Y-76337204D01*
X99099999Y-76337204D01*
X98930263Y-76356328D01*
X98930260Y-76356329D01*
X98769036Y-76412744D01*
X98767355Y-76413801D01*
X93600000Y-76413801D01*
X93600000Y-75600000D01*
X103141081Y-75600000D01*
X103158648Y-75710914D01*
X103209625Y-75810963D01*
X103209626Y-75810964D01*
X103209628Y-75810967D01*
X103289033Y-75890372D01*
X103289035Y-75890373D01*
X103289036Y-75890374D01*
X103389085Y-75941351D01*
X103389086Y-75941351D01*
X103389088Y-75941352D01*
X103500000Y-75958919D01*
X103610912Y-75941352D01*
X103710967Y-75890372D01*
X103790372Y-75810967D01*
X103818875Y-75755026D01*
X104382393Y-75755026D01*
X104399960Y-75865940D01*
X104450937Y-75965989D01*
X104450938Y-75965990D01*
X104450940Y-75965993D01*
X104530345Y-76045398D01*
X104530347Y-76045399D01*
X104530348Y-76045400D01*
X104630397Y-76096377D01*
X104630398Y-76096377D01*
X104630400Y-76096378D01*
X104741312Y-76113945D01*
X104797624Y-76105026D01*
X105332393Y-76105026D01*
X105349960Y-76215940D01*
X105400937Y-76315989D01*
X105400938Y-76315990D01*
X105400940Y-76315993D01*
X105480345Y-76395398D01*
X105480347Y-76395399D01*
X105480348Y-76395400D01*
X105580397Y-76446377D01*
X105580398Y-76446377D01*
X105580400Y-76446378D01*
X105663889Y-76459601D01*
X105679549Y-76469198D01*
X105683838Y-76487059D01*
X105681517Y-76494200D01*
X105658649Y-76539083D01*
X105658648Y-76539087D01*
X105658648Y-76539088D01*
X105642053Y-76643861D01*
X105641081Y-76650000D01*
X105658648Y-76760914D01*
X105709625Y-76860963D01*
X105709626Y-76860964D01*
X105709628Y-76860967D01*
X105789033Y-76940372D01*
X105789035Y-76940373D01*
X105789036Y-76940374D01*
X105889085Y-76991351D01*
X105889086Y-76991351D01*
X105889088Y-76991352D01*
X106000000Y-77008919D01*
X106056312Y-77000000D01*
X106491081Y-77000000D01*
X106508648Y-77110914D01*
X106559625Y-77210963D01*
X106559626Y-77210964D01*
X106559628Y-77210967D01*
X106639033Y-77290372D01*
X106639035Y-77290373D01*
X106639036Y-77290374D01*
X106739085Y-77341351D01*
X106739086Y-77341351D01*
X106739088Y-77341352D01*
X106850000Y-77358919D01*
X106960912Y-77341352D01*
X107060967Y-77290372D01*
X107140372Y-77210967D01*
X107191352Y-77110912D01*
X107208919Y-77000000D01*
X107191352Y-76889088D01*
X107191351Y-76889086D01*
X107191351Y-76889085D01*
X107140374Y-76789036D01*
X107140373Y-76789035D01*
X107140372Y-76789033D01*
X107060967Y-76709628D01*
X107060964Y-76709626D01*
X107060963Y-76709625D01*
X106960914Y-76658648D01*
X106850000Y-76641081D01*
X106739085Y-76658648D01*
X106639036Y-76709625D01*
X106559625Y-76789036D01*
X106508648Y-76889085D01*
X106491081Y-77000000D01*
X106056312Y-77000000D01*
X106110912Y-76991352D01*
X106210967Y-76940372D01*
X106290372Y-76860967D01*
X106333509Y-76776305D01*
X106341351Y-76760914D01*
X106341351Y-76760913D01*
X106341352Y-76760912D01*
X106358919Y-76650000D01*
X106341352Y-76539088D01*
X106341351Y-76539086D01*
X106341351Y-76539085D01*
X106290374Y-76439036D01*
X106290373Y-76439035D01*
X106290372Y-76439033D01*
X106210967Y-76359628D01*
X106210964Y-76359626D01*
X106210963Y-76359625D01*
X106169369Y-76338432D01*
X107744821Y-76338432D01*
X107762388Y-76449346D01*
X107813365Y-76549395D01*
X107813366Y-76549396D01*
X107813368Y-76549399D01*
X107892773Y-76628804D01*
X107892775Y-76628805D01*
X107892776Y-76628806D01*
X107992825Y-76679783D01*
X107992826Y-76679783D01*
X107992828Y-76679784D01*
X108103740Y-76697351D01*
X108214652Y-76679784D01*
X108314707Y-76628804D01*
X108394112Y-76549399D01*
X108432422Y-76474210D01*
X108445091Y-76449346D01*
X108445091Y-76449345D01*
X108445092Y-76449344D01*
X108462659Y-76338432D01*
X108448653Y-76250000D01*
X112691081Y-76250000D01*
X112708648Y-76360914D01*
X112759625Y-76460963D01*
X112759626Y-76460964D01*
X112759628Y-76460967D01*
X112839033Y-76540372D01*
X112839035Y-76540373D01*
X112839036Y-76540374D01*
X112939085Y-76591351D01*
X112939086Y-76591351D01*
X112939088Y-76591352D01*
X113050000Y-76608919D01*
X113160912Y-76591352D01*
X113260967Y-76540372D01*
X113340372Y-76460967D01*
X113391352Y-76360912D01*
X113408919Y-76250000D01*
X113391352Y-76139088D01*
X113391351Y-76139086D01*
X113391351Y-76139085D01*
X113358697Y-76074998D01*
X114344435Y-76074998D01*
X114344435Y-76075001D01*
X114364632Y-76254255D01*
X114424210Y-76424521D01*
X114517081Y-76572323D01*
X114520184Y-76577262D01*
X114647738Y-76704816D01*
X114800478Y-76800789D01*
X114970745Y-76860368D01*
X115129802Y-76878289D01*
X115149999Y-76880565D01*
X115150000Y-76880565D01*
X115150001Y-76880565D01*
X115168152Y-76878519D01*
X115329255Y-76860368D01*
X115499522Y-76800789D01*
X115652262Y-76704816D01*
X115779816Y-76577262D01*
X115875789Y-76424522D01*
X115907260Y-76334582D01*
X120582860Y-76334582D01*
X120603342Y-76477039D01*
X120663130Y-76607955D01*
X120757379Y-76716725D01*
X120878454Y-76794535D01*
X121016546Y-76835082D01*
X121016547Y-76835082D01*
X121160467Y-76835082D01*
X121160468Y-76835082D01*
X121298560Y-76794535D01*
X121419635Y-76716725D01*
X121513884Y-76607955D01*
X121573672Y-76477039D01*
X121574155Y-76475394D01*
X121574667Y-76475544D01*
X121583000Y-76461483D01*
X121600796Y-76456931D01*
X121616598Y-76466295D01*
X121619224Y-76470718D01*
X121671334Y-76584820D01*
X121676982Y-76597188D01*
X121771231Y-76705958D01*
X121892306Y-76783768D01*
X122030398Y-76824315D01*
X122030399Y-76824315D01*
X122174319Y-76824315D01*
X122174320Y-76824315D01*
X122312412Y-76783768D01*
X122433487Y-76705958D01*
X122487294Y-76643861D01*
X125755117Y-76643861D01*
X125775755Y-76800624D01*
X125775756Y-76800628D01*
X125836260Y-76946696D01*
X125836263Y-76946702D01*
X125932517Y-77072143D01*
X126057958Y-77168397D01*
X126057963Y-77168399D01*
X126204031Y-77228903D01*
X126204033Y-77228903D01*
X126204037Y-77228905D01*
X126360799Y-77249543D01*
X126517561Y-77228905D01*
X126592748Y-77197761D01*
X126611116Y-77197761D01*
X126624105Y-77210749D01*
X126625727Y-77223066D01*
X126620914Y-77259628D01*
X126618433Y-77278476D01*
X126620333Y-77292906D01*
X126639071Y-77435239D01*
X126639072Y-77435243D01*
X126699576Y-77581311D01*
X126699579Y-77581317D01*
X126795833Y-77706758D01*
X126921274Y-77803012D01*
X126921279Y-77803014D01*
X127067347Y-77863518D01*
X127067349Y-77863518D01*
X127067353Y-77863520D01*
X127224115Y-77884158D01*
X127380877Y-77863520D01*
X127526956Y-77803012D01*
X127652397Y-77706758D01*
X127748651Y-77581317D01*
X127809159Y-77435238D01*
X127829797Y-77278476D01*
X127809159Y-77121714D01*
X127808397Y-77119875D01*
X127750754Y-76980712D01*
X127748651Y-76975635D01*
X127652397Y-76850194D01*
X127526956Y-76753940D01*
X127526950Y-76753937D01*
X127380882Y-76693433D01*
X127380878Y-76693432D01*
X127224115Y-76672794D01*
X127067351Y-76693432D01*
X127067347Y-76693434D01*
X126992164Y-76724575D01*
X126973795Y-76724575D01*
X126960807Y-76711586D01*
X126959185Y-76699273D01*
X126966481Y-76643861D01*
X126957444Y-76575220D01*
X135656018Y-76575220D01*
X135675864Y-76700526D01*
X135733457Y-76813558D01*
X135733458Y-76813559D01*
X135733460Y-76813562D01*
X135823168Y-76903270D01*
X135823170Y-76903271D01*
X135823171Y-76903272D01*
X135936203Y-76960865D01*
X135936204Y-76960865D01*
X135936206Y-76960866D01*
X136061510Y-76980712D01*
X136186814Y-76960866D01*
X136299852Y-76903270D01*
X136389560Y-76813562D01*
X136447156Y-76700524D01*
X136467002Y-76575220D01*
X136447156Y-76449916D01*
X136447155Y-76449914D01*
X136447155Y-76449913D01*
X136389562Y-76336881D01*
X136389561Y-76336880D01*
X136389560Y-76336878D01*
X136299852Y-76247170D01*
X136299849Y-76247168D01*
X136299848Y-76247167D01*
X136285550Y-76239882D01*
X141768051Y-76239882D01*
X141787897Y-76365188D01*
X141845490Y-76478220D01*
X141845491Y-76478221D01*
X141845493Y-76478224D01*
X141935201Y-76567932D01*
X141935203Y-76567933D01*
X141935204Y-76567934D01*
X142048236Y-76625527D01*
X142048237Y-76625527D01*
X142048239Y-76625528D01*
X142173543Y-76645374D01*
X142298847Y-76625528D01*
X142411885Y-76567932D01*
X142501593Y-76478224D01*
X142559189Y-76365186D01*
X142563813Y-76335989D01*
X146105939Y-76335989D01*
X146124375Y-76464215D01*
X146158567Y-76539085D01*
X146178190Y-76582052D01*
X146263020Y-76679954D01*
X146263022Y-76679955D01*
X146263023Y-76679956D01*
X146372003Y-76749993D01*
X146496300Y-76786489D01*
X146496302Y-76786489D01*
X146625842Y-76786489D01*
X146625844Y-76786489D01*
X146750141Y-76749993D01*
X146859121Y-76679956D01*
X146860074Y-76678857D01*
X146885078Y-76650000D01*
X146943954Y-76582052D01*
X146997769Y-76464215D01*
X147016205Y-76335989D01*
X147013110Y-76314464D01*
X149247981Y-76314464D01*
X149268619Y-76471227D01*
X149268620Y-76471231D01*
X149329124Y-76617299D01*
X149329127Y-76617305D01*
X149425381Y-76742746D01*
X149550822Y-76839000D01*
X149550827Y-76839002D01*
X149696895Y-76899506D01*
X149696897Y-76899506D01*
X149696901Y-76899508D01*
X149853663Y-76920146D01*
X150010425Y-76899508D01*
X150063056Y-76877707D01*
X150081423Y-76877707D01*
X150094412Y-76890695D01*
X150096034Y-76903010D01*
X150094631Y-76913674D01*
X150094519Y-76914527D01*
X150104096Y-76987269D01*
X150115157Y-77071290D01*
X150115158Y-77071294D01*
X150175662Y-77217362D01*
X150175665Y-77217368D01*
X150271919Y-77342809D01*
X150397360Y-77439063D01*
X150415182Y-77446445D01*
X150543433Y-77499569D01*
X150543435Y-77499569D01*
X150543439Y-77499571D01*
X150700201Y-77520209D01*
X150856963Y-77499571D01*
X150942115Y-77464300D01*
X158717255Y-77464300D01*
X158737737Y-77606757D01*
X158737738Y-77606759D01*
X158794139Y-77730260D01*
X158797525Y-77737673D01*
X158891774Y-77846443D01*
X159012849Y-77924253D01*
X159150941Y-77964800D01*
X159150942Y-77964800D01*
X159294862Y-77964800D01*
X159294863Y-77964800D01*
X159432955Y-77924253D01*
X159554030Y-77846443D01*
X159648279Y-77737673D01*
X159708067Y-77606757D01*
X159728549Y-77464300D01*
X159708067Y-77321843D01*
X159648279Y-77190927D01*
X159554030Y-77082157D01*
X159554029Y-77082156D01*
X159432957Y-77004348D01*
X159432952Y-77004346D01*
X159374792Y-76987269D01*
X159294863Y-76963800D01*
X159150941Y-76963800D01*
X159110617Y-76975640D01*
X159012851Y-77004346D01*
X159012846Y-77004348D01*
X158891774Y-77082156D01*
X158797524Y-77190928D01*
X158737738Y-77321840D01*
X158737737Y-77321843D01*
X158717255Y-77464300D01*
X150942115Y-77464300D01*
X151003042Y-77439063D01*
X151128483Y-77342809D01*
X151224737Y-77217368D01*
X151285245Y-77071289D01*
X151296306Y-76987269D01*
X154213994Y-76987269D01*
X154231561Y-77098183D01*
X154282538Y-77198232D01*
X154282539Y-77198233D01*
X154282541Y-77198236D01*
X154361946Y-77277641D01*
X154361948Y-77277642D01*
X154361949Y-77277643D01*
X154461998Y-77328620D01*
X154461999Y-77328620D01*
X154462001Y-77328621D01*
X154572913Y-77346188D01*
X154683825Y-77328621D01*
X154783880Y-77277641D01*
X154863285Y-77198236D01*
X154914265Y-77098181D01*
X154931832Y-76987269D01*
X154914265Y-76876357D01*
X154914264Y-76876355D01*
X154914264Y-76876354D01*
X154863287Y-76776305D01*
X154863286Y-76776304D01*
X154863285Y-76776302D01*
X154783880Y-76696897D01*
X154783877Y-76696895D01*
X154783876Y-76696894D01*
X154683827Y-76645917D01*
X154572913Y-76628350D01*
X154461998Y-76645917D01*
X154361949Y-76696894D01*
X154282538Y-76776305D01*
X154231561Y-76876354D01*
X154213994Y-76987269D01*
X151296306Y-76987269D01*
X151305883Y-76914527D01*
X151285245Y-76757765D01*
X151284110Y-76755026D01*
X151224739Y-76611691D01*
X151224736Y-76611685D01*
X151222613Y-76608918D01*
X151128483Y-76486245D01*
X151003042Y-76389991D01*
X151003036Y-76389988D01*
X150856968Y-76329484D01*
X150856964Y-76329483D01*
X150700201Y-76308845D01*
X150543437Y-76329483D01*
X150543433Y-76329484D01*
X150490807Y-76351283D01*
X150472438Y-76351283D01*
X150459450Y-76338294D01*
X150457829Y-76325976D01*
X150459345Y-76314466D01*
X150459345Y-76314464D01*
X150438707Y-76157702D01*
X150437185Y-76154028D01*
X150378201Y-76011628D01*
X150378198Y-76011622D01*
X150364764Y-75994114D01*
X150281945Y-75886182D01*
X150156504Y-75789928D01*
X150156498Y-75789925D01*
X150010430Y-75729421D01*
X150010426Y-75729420D01*
X149853663Y-75708782D01*
X149696899Y-75729420D01*
X149696895Y-75729421D01*
X149550827Y-75789925D01*
X149550821Y-75789928D01*
X149425383Y-75886180D01*
X149425379Y-75886184D01*
X149329127Y-76011622D01*
X149329124Y-76011628D01*
X149268620Y-76157696D01*
X149268619Y-76157700D01*
X149247981Y-76314464D01*
X147013110Y-76314464D01*
X146997769Y-76207763D01*
X146943954Y-76089926D01*
X146916999Y-76058818D01*
X146859123Y-75992023D01*
X146859121Y-75992022D01*
X146750145Y-75921987D01*
X146750142Y-75921985D01*
X146750141Y-75921985D01*
X146625844Y-75885489D01*
X146496300Y-75885489D01*
X146435793Y-75903255D01*
X146372005Y-75921984D01*
X146371998Y-75921987D01*
X146263022Y-75992022D01*
X146263020Y-75992023D01*
X146178190Y-76089925D01*
X146130397Y-76194577D01*
X146124375Y-76207763D01*
X146105939Y-76335989D01*
X142563813Y-76335989D01*
X142579035Y-76239882D01*
X142559189Y-76114578D01*
X142559188Y-76114576D01*
X142559188Y-76114575D01*
X142501595Y-76001543D01*
X142501594Y-76001542D01*
X142501593Y-76001540D01*
X142411885Y-75911832D01*
X142411882Y-75911830D01*
X142411881Y-75911829D01*
X142298849Y-75854236D01*
X142173543Y-75834390D01*
X142048236Y-75854236D01*
X141935204Y-75911829D01*
X141845490Y-76001543D01*
X141787897Y-76114575D01*
X141768051Y-76239882D01*
X136285550Y-76239882D01*
X136186816Y-76189574D01*
X136061510Y-76169728D01*
X135936203Y-76189574D01*
X135823171Y-76247167D01*
X135733457Y-76336881D01*
X135675864Y-76449913D01*
X135656018Y-76575220D01*
X126957444Y-76575220D01*
X126945843Y-76487099D01*
X126945826Y-76487059D01*
X126885337Y-76341025D01*
X126885334Y-76341019D01*
X126882159Y-76336881D01*
X126789081Y-76215579D01*
X126663640Y-76119325D01*
X126663634Y-76119322D01*
X126517566Y-76058818D01*
X126517562Y-76058817D01*
X126360799Y-76038179D01*
X126204035Y-76058817D01*
X126204031Y-76058818D01*
X126057963Y-76119322D01*
X126057957Y-76119325D01*
X125932519Y-76215577D01*
X125932515Y-76215581D01*
X125836263Y-76341019D01*
X125836260Y-76341025D01*
X125775756Y-76487093D01*
X125775755Y-76487097D01*
X125755117Y-76643861D01*
X122487294Y-76643861D01*
X122527736Y-76597188D01*
X122587524Y-76466272D01*
X122608006Y-76323815D01*
X122587524Y-76181358D01*
X122527736Y-76050442D01*
X122511306Y-76031481D01*
X130146983Y-76031481D01*
X130165419Y-76159707D01*
X130206655Y-76250000D01*
X130219234Y-76277544D01*
X130304064Y-76375446D01*
X130304066Y-76375447D01*
X130304067Y-76375448D01*
X130413047Y-76445485D01*
X130537344Y-76481981D01*
X130537346Y-76481981D01*
X130666886Y-76481981D01*
X130666888Y-76481981D01*
X130791185Y-76445485D01*
X130900165Y-76375448D01*
X130913876Y-76359625D01*
X130929992Y-76341025D01*
X130984998Y-76277544D01*
X131038813Y-76159707D01*
X131057249Y-76031481D01*
X131038813Y-75903255D01*
X130984998Y-75785418D01*
X130966157Y-75763674D01*
X130900167Y-75687515D01*
X130900165Y-75687514D01*
X130791189Y-75617479D01*
X130791186Y-75617477D01*
X130791185Y-75617477D01*
X130666888Y-75580981D01*
X130537344Y-75580981D01*
X130472570Y-75600000D01*
X130413049Y-75617476D01*
X130413042Y-75617479D01*
X130304066Y-75687514D01*
X130304064Y-75687515D01*
X130219234Y-75785417D01*
X130165420Y-75903252D01*
X130165419Y-75903255D01*
X130146983Y-76031481D01*
X122511306Y-76031481D01*
X122433487Y-75941672D01*
X122433486Y-75941671D01*
X122312414Y-75863863D01*
X122312409Y-75863861D01*
X122257498Y-75847738D01*
X122174320Y-75823315D01*
X122030398Y-75823315D01*
X121993729Y-75834082D01*
X121892308Y-75863861D01*
X121892303Y-75863863D01*
X121771231Y-75941671D01*
X121676981Y-76050443D01*
X121617193Y-76181357D01*
X121616711Y-76183003D01*
X121616202Y-76182853D01*
X121607850Y-76196924D01*
X121590051Y-76201463D01*
X121574256Y-76192086D01*
X121571641Y-76187678D01*
X121569506Y-76183003D01*
X121513884Y-76061209D01*
X121419635Y-75952439D01*
X121419634Y-75952438D01*
X121298562Y-75874630D01*
X121298557Y-75874628D01*
X121229107Y-75854236D01*
X121160468Y-75834082D01*
X121016546Y-75834082D01*
X120959146Y-75850935D01*
X120878456Y-75874628D01*
X120878451Y-75874630D01*
X120757379Y-75952438D01*
X120663129Y-76061210D01*
X120603343Y-76192122D01*
X120603342Y-76192125D01*
X120582860Y-76334582D01*
X115907260Y-76334582D01*
X115935368Y-76254255D01*
X115955565Y-76075000D01*
X115935368Y-75895745D01*
X115875789Y-75725478D01*
X115779816Y-75572738D01*
X115652262Y-75445184D01*
X115652261Y-75445183D01*
X115499521Y-75349210D01*
X115329255Y-75289632D01*
X115150001Y-75269435D01*
X115149999Y-75269435D01*
X114970744Y-75289632D01*
X114800478Y-75349210D01*
X114647738Y-75445183D01*
X114520183Y-75572738D01*
X114424210Y-75725478D01*
X114364632Y-75895744D01*
X114344435Y-76074998D01*
X113358697Y-76074998D01*
X113340374Y-76039036D01*
X113340373Y-76039035D01*
X113340372Y-76039033D01*
X113260967Y-75959628D01*
X113260964Y-75959626D01*
X113260963Y-75959625D01*
X113160914Y-75908648D01*
X113050000Y-75891081D01*
X112939085Y-75908648D01*
X112839036Y-75959625D01*
X112759625Y-76039036D01*
X112708648Y-76139085D01*
X112691081Y-76250000D01*
X108448653Y-76250000D01*
X108445092Y-76227520D01*
X108445091Y-76227518D01*
X108445091Y-76227517D01*
X108394114Y-76127468D01*
X108394113Y-76127467D01*
X108394112Y-76127465D01*
X108314707Y-76048060D01*
X108314704Y-76048058D01*
X108314703Y-76048057D01*
X108214654Y-75997080D01*
X108103740Y-75979513D01*
X107992825Y-75997080D01*
X107892776Y-76048057D01*
X107813365Y-76127468D01*
X107762388Y-76227517D01*
X107744821Y-76338432D01*
X106169369Y-76338432D01*
X106110912Y-76308647D01*
X106027422Y-76295423D01*
X106011760Y-76285826D01*
X106007473Y-76267964D01*
X106009791Y-76260826D01*
X106032664Y-76215938D01*
X106050231Y-76105026D01*
X106032664Y-75994114D01*
X106032663Y-75994112D01*
X106032663Y-75994111D01*
X105981686Y-75894062D01*
X105981685Y-75894061D01*
X105981684Y-75894059D01*
X105902279Y-75814654D01*
X105902276Y-75814652D01*
X105902275Y-75814651D01*
X105802226Y-75763674D01*
X105691312Y-75746107D01*
X105580397Y-75763674D01*
X105480348Y-75814651D01*
X105400937Y-75894062D01*
X105349960Y-75994111D01*
X105332393Y-76105026D01*
X104797624Y-76105026D01*
X104852224Y-76096378D01*
X104952279Y-76045398D01*
X105031684Y-75965993D01*
X105082664Y-75865938D01*
X105100231Y-75755026D01*
X105082664Y-75644114D01*
X105082663Y-75644112D01*
X105082663Y-75644111D01*
X105031686Y-75544062D01*
X105031685Y-75544061D01*
X105031684Y-75544059D01*
X104952279Y-75464654D01*
X104952276Y-75464652D01*
X104952275Y-75464651D01*
X104852226Y-75413674D01*
X104741312Y-75396107D01*
X104630397Y-75413674D01*
X104530348Y-75464651D01*
X104450937Y-75544062D01*
X104399960Y-75644111D01*
X104382393Y-75755026D01*
X103818875Y-75755026D01*
X103841352Y-75710912D01*
X103858919Y-75600000D01*
X103841352Y-75489088D01*
X103841351Y-75489086D01*
X103841351Y-75489085D01*
X103790374Y-75389036D01*
X103790373Y-75389035D01*
X103790372Y-75389033D01*
X103710967Y-75309628D01*
X103710964Y-75309626D01*
X103710963Y-75309625D01*
X103610914Y-75258648D01*
X103500000Y-75241081D01*
X103389085Y-75258648D01*
X103289036Y-75309625D01*
X103209625Y-75389036D01*
X103158648Y-75489085D01*
X103141081Y-75600000D01*
X93600000Y-75600000D01*
X93600000Y-75224500D01*
X93607029Y-75207529D01*
X93624000Y-75200500D01*
X95039882Y-75200500D01*
X95113574Y-75169976D01*
X95169976Y-75113574D01*
X95200500Y-75039882D01*
X95200500Y-74850000D01*
X98316081Y-74850000D01*
X98333648Y-74960914D01*
X98384625Y-75060963D01*
X98384626Y-75060964D01*
X98384628Y-75060967D01*
X98464033Y-75140372D01*
X98464035Y-75140373D01*
X98464036Y-75140374D01*
X98564085Y-75191351D01*
X98564086Y-75191351D01*
X98564088Y-75191352D01*
X98675000Y-75208919D01*
X98785912Y-75191352D01*
X98885967Y-75140372D01*
X98965372Y-75060967D01*
X99016352Y-74960912D01*
X99022040Y-74925000D01*
X100291081Y-74925000D01*
X100308648Y-75035914D01*
X100359625Y-75135963D01*
X100359626Y-75135964D01*
X100359628Y-75135967D01*
X100439033Y-75215372D01*
X100439035Y-75215373D01*
X100439036Y-75215374D01*
X100539085Y-75266351D01*
X100539086Y-75266351D01*
X100539088Y-75266352D01*
X100650000Y-75283919D01*
X100760912Y-75266352D01*
X100860967Y-75215372D01*
X100940372Y-75135967D01*
X100991352Y-75035912D01*
X101008919Y-74925000D01*
X100991352Y-74814088D01*
X100991351Y-74814086D01*
X100991351Y-74814085D01*
X100940374Y-74714036D01*
X100940373Y-74714035D01*
X100940372Y-74714033D01*
X100860967Y-74634628D01*
X100860964Y-74634626D01*
X100860963Y-74634625D01*
X100760914Y-74583648D01*
X100650000Y-74566081D01*
X100539085Y-74583648D01*
X100439036Y-74634625D01*
X100359625Y-74714036D01*
X100308648Y-74814085D01*
X100291081Y-74925000D01*
X99022040Y-74925000D01*
X99033919Y-74850000D01*
X99016352Y-74739088D01*
X99016351Y-74739086D01*
X99016351Y-74739085D01*
X98965374Y-74639036D01*
X98965373Y-74639035D01*
X98965372Y-74639033D01*
X98885967Y-74559628D01*
X98885964Y-74559626D01*
X98885963Y-74559625D01*
X98785914Y-74508648D01*
X98675000Y-74491081D01*
X98564085Y-74508648D01*
X98464036Y-74559625D01*
X98384625Y-74639036D01*
X98333648Y-74739085D01*
X98316081Y-74850000D01*
X95200500Y-74850000D01*
X95200500Y-74401237D01*
X95207529Y-74384266D01*
X95219843Y-74377693D01*
X95319097Y-74358078D01*
X95323780Y-74357623D01*
X105684000Y-74372262D01*
G37*
%TD.AperFunction*%
%TD*%
M02*
