%TF.GenerationSoftware,KiCad,Pcbnew,8.0.6*%
%TF.CreationDate,2024-11-22T17:50:04-05:00*%
%TF.ProjectId,OSSG_v0p5,4f535347-5f76-4307-9035-2e6b69636164,v0.4*%
%TF.SameCoordinates,Original*%
%TF.FileFunction,Copper,L4,Bot*%
%TF.FilePolarity,Positive*%
%FSLAX46Y46*%
G04 Gerber Fmt 4.6, Leading zero omitted, Abs format (unit mm)*
G04 Created by KiCad (PCBNEW 8.0.6) date 2024-11-22 17:50:04*
%MOMM*%
%LPD*%
G01*
G04 APERTURE LIST*
%TA.AperFunction,ComponentPad*%
%ADD10O,0.890000X1.550000*%
%TD*%
%TA.AperFunction,ComponentPad*%
%ADD11O,1.250000X0.950000*%
%TD*%
%TA.AperFunction,ComponentPad*%
%ADD12C,0.500000*%
%TD*%
%TA.AperFunction,ComponentPad*%
%ADD13C,1.100000*%
%TD*%
%TA.AperFunction,SMDPad,CuDef*%
%ADD14R,1.550000X0.600000*%
%TD*%
%TA.AperFunction,SMDPad,CuDef*%
%ADD15C,1.500000*%
%TD*%
%TA.AperFunction,SMDPad,CuDef*%
%ADD16R,0.700000X0.700000*%
%TD*%
%TA.AperFunction,SMDPad,CuDef*%
%ADD17C,0.600000*%
%TD*%
%TA.AperFunction,SMDPad,CuDef*%
%ADD18C,1.000000*%
%TD*%
%TA.AperFunction,SMDPad,CuDef*%
%ADD19R,1.300000X0.450000*%
%TD*%
%TA.AperFunction,ViaPad*%
%ADD20C,0.500000*%
%TD*%
%TA.AperFunction,ViaPad*%
%ADD21C,0.450000*%
%TD*%
%TA.AperFunction,ViaPad*%
%ADD22C,0.650000*%
%TD*%
%TA.AperFunction,ViaPad*%
%ADD23C,0.800000*%
%TD*%
%TA.AperFunction,ViaPad*%
%ADD24C,1.000000*%
%TD*%
%TA.AperFunction,ViaPad*%
%ADD25C,0.600000*%
%TD*%
%TA.AperFunction,ViaPad*%
%ADD26C,0.700000*%
%TD*%
%TA.AperFunction,Conductor*%
%ADD27C,0.150000*%
%TD*%
%TA.AperFunction,Conductor*%
%ADD28C,0.200000*%
%TD*%
%TA.AperFunction,Conductor*%
%ADD29C,0.500000*%
%TD*%
%TA.AperFunction,Conductor*%
%ADD30C,0.400000*%
%TD*%
%TA.AperFunction,Conductor*%
%ADD31C,0.300000*%
%TD*%
%TA.AperFunction,Conductor*%
%ADD32C,0.250000*%
%TD*%
%TA.AperFunction,Conductor*%
%ADD33C,0.800000*%
%TD*%
%TA.AperFunction,Conductor*%
%ADD34C,0.600000*%
%TD*%
%ADD35C,0.200000*%
%ADD36C,0.300000*%
%ADD37C,0.350000*%
%ADD38C,0.250000*%
%ADD39O,0.500000X1.150000*%
%ADD40O,0.850000X0.550000*%
G04 APERTURE END LIST*
D10*
%TO.P,J3,6,Shield*%
%TO.N,BATT1-*%
X123979107Y-82590740D03*
D11*
X124979107Y-79890740D03*
X129979107Y-79890740D03*
D10*
X130979107Y-82590740D03*
%TD*%
D12*
%TO.P,U2,49,GND*%
%TO.N,BATT1-*%
X98400000Y-77900000D03*
X98400000Y-79000000D03*
X98400000Y-80100000D03*
X99100000Y-77100000D03*
X99100000Y-80900000D03*
X99600000Y-77900000D03*
X99600000Y-79000000D03*
X99600000Y-80100000D03*
X100300000Y-77100000D03*
X100300000Y-80900000D03*
X101000000Y-77900000D03*
X101000000Y-79000000D03*
X101000000Y-80100000D03*
X101600000Y-77100000D03*
X101600000Y-80900000D03*
X102200000Y-77900000D03*
X102200000Y-79000000D03*
X102200000Y-80100000D03*
%TD*%
D13*
%TO.P,SW2,*%
%TO.N,*%
X114568842Y-83376871D03*
X121088842Y-83386871D03*
%TD*%
D14*
%TO.P,J2,1,Pin_1*%
%TO.N,BATT1-*%
X68237500Y-77620000D03*
%TO.P,J2,2,Pin_2*%
%TO.N,Net-(D1-Pad1)*%
X68237500Y-76620000D03*
%TO.P,J2,3,Pin_3*%
%TO.N,+5V*%
X68237500Y-75620000D03*
%TD*%
D15*
%TO.P,TP16,1,1*%
%TO.N,BATT+*%
X158850000Y-76090000D03*
%TD*%
D16*
%TO.P,D1,1,Dout*%
%TO.N,Net-(D1-Pad1)*%
X67801478Y-79750000D03*
%TO.P,D1,2,GND*%
%TO.N,BATT1-*%
X67801478Y-78650000D03*
%TO.P,D1,3,Din*%
%TO.N,RGB*%
X69631478Y-78650000D03*
%TO.P,D1,4,VDD*%
%TO.N,+5V*%
X69631478Y-79750000D03*
%TD*%
D14*
%TO.P,J5,1,Pin_1*%
%TO.N,BATT1-*%
X68235000Y-83370000D03*
%TO.P,J5,2,Pin_2*%
%TO.N,DAC*%
X68235000Y-82370000D03*
%TO.P,J5,3,Pin_3*%
%TO.N,HUD+*%
X68235000Y-81370000D03*
%TD*%
D17*
%TO.P,TP5,1,1*%
%TO.N,EN*%
X106257253Y-81146701D03*
%TD*%
%TO.P,TP13,1,1*%
%TO.N,TX_ESP*%
X111850000Y-75600000D03*
%TD*%
D18*
%TO.P,TP2,1,1*%
%TO.N,+5V*%
X132203771Y-76395375D03*
%TD*%
%TO.P,TP1,1,1*%
%TO.N,IO9*%
X110100000Y-79600000D03*
%TD*%
D15*
%TO.P,TP18,1,1*%
%TO.N,BATT1-*%
X156462587Y-76154252D03*
%TD*%
D17*
%TO.P,TP12,1,1*%
%TO.N,IO0*%
X109482087Y-82456883D03*
%TD*%
D18*
%TO.P,TP9,1,1*%
%TO.N,BATT1-*%
X116100000Y-77950000D03*
%TD*%
D17*
%TO.P,TP14,1,1*%
%TO.N,RX_ESP*%
X113250000Y-75550000D03*
%TD*%
D14*
%TO.P,J1,1,Pin_1*%
%TO.N,+3V3*%
X72487500Y-83470000D03*
%TO.P,J1,2,Pin_2*%
%TO.N,BATT1-*%
X72487500Y-82470000D03*
%TO.P,J1,3,Pin_3*%
%TO.N,i2S2_CLK*%
X72487500Y-81470000D03*
%TO.P,J1,4,Pin_4*%
%TO.N,i2S2_Data*%
X72487500Y-80470000D03*
%TO.P,J1,5,Pin_5*%
%TO.N,i2S2_WS*%
X72487500Y-79600000D03*
%TD*%
D19*
%TO.P,J4,1,Pin_1*%
%TO.N,BATT1-*%
X102357943Y-82021236D03*
%TO.P,J4,2,Pin_2*%
%TO.N,TOUCH1*%
X102357943Y-82791236D03*
%TD*%
D18*
%TO.P,TP8,1,1*%
%TO.N,+3V3*%
X78900000Y-78800000D03*
%TD*%
D15*
%TO.P,TP15,1,1*%
%TO.N,BATT+*%
X158700000Y-79200000D03*
%TD*%
%TO.P,TP17,1,1*%
%TO.N,BATT1-*%
X156600000Y-79500000D03*
%TD*%
D20*
%TO.N,EN*%
X106264024Y-81244906D03*
D21*
X95850000Y-79725000D03*
%TO.N,RGB*%
X79850000Y-81150000D03*
X99650000Y-83075000D03*
X74250000Y-76750000D03*
D22*
%TO.N,BATT+*%
X122338382Y-80092335D03*
D23*
X159206944Y-79430058D03*
X159222902Y-77464300D03*
X157958262Y-75694077D03*
D21*
%TO.N,HUD+*%
X70517853Y-79829334D03*
X69430000Y-81370000D03*
%TO.N,RTS*%
X108103740Y-76338432D03*
X107250000Y-81400000D03*
X107350000Y-79650000D03*
X107022929Y-77800460D03*
%TO.N,IO0*%
X106767619Y-82509877D03*
X109602604Y-82347282D03*
%TO.N,DTR*%
X107203359Y-78539039D03*
X108282068Y-81823656D03*
D24*
%TO.N,VBUS*%
X126360799Y-76643861D03*
X149853663Y-76314464D03*
X127224115Y-77278476D03*
D21*
X141369858Y-78650111D03*
X146994871Y-75499849D03*
D22*
X113800000Y-78700000D03*
D24*
X150700201Y-76914527D03*
D21*
%TO.N,TX_ESP*%
X112450000Y-75550000D03*
%TO.N,RX_ESP*%
X113050000Y-76250000D03*
X106850000Y-77000000D03*
%TO.N,+3V3*%
X80250000Y-78200000D03*
X105781301Y-83561655D03*
X105850000Y-82250000D03*
X70195750Y-76895750D03*
X95750000Y-82150000D03*
D22*
X111728727Y-80328351D03*
D21*
X94600000Y-81400000D03*
X103500000Y-75600000D03*
X69600000Y-75900000D03*
X75050000Y-77900000D03*
X94100000Y-77550000D03*
D23*
X118394985Y-77919675D03*
D21*
X71500000Y-83100000D03*
D23*
X119933591Y-79444228D03*
D22*
X131972762Y-83026192D03*
D21*
X77900000Y-78550000D03*
X101100000Y-83275000D03*
X98675000Y-74850000D03*
%TO.N,USB-*%
X126298713Y-78463089D03*
X110056674Y-80752907D03*
%TO.N,USB+*%
X126998713Y-78463089D03*
X109561698Y-81247883D03*
D25*
%TO.N,PSEN*%
X136061510Y-76575220D03*
D26*
X146561072Y-76335989D03*
X147870713Y-77022823D03*
D21*
%TO.N,BATT1-*%
X86365978Y-76395473D03*
X72487500Y-82470000D03*
X156684822Y-78386429D03*
X100250000Y-83450000D03*
X135810133Y-82510205D03*
D25*
X108857163Y-76960761D03*
D21*
X134114032Y-79210880D03*
X91725000Y-79360221D03*
X133471543Y-76120176D03*
D26*
X155637711Y-75556992D03*
D21*
X137405096Y-81243364D03*
X69800000Y-82400000D03*
X69700000Y-83300000D03*
D22*
X113800000Y-77700000D03*
D21*
X138188988Y-79291242D03*
X140772773Y-81908792D03*
D26*
X156060441Y-79209422D03*
D21*
X139764685Y-81592586D03*
X156551717Y-77507381D03*
X90724579Y-79356853D03*
X82050000Y-78225500D03*
X93873563Y-76899500D03*
X93862472Y-75650000D03*
X134434819Y-78379661D03*
X93911041Y-78949500D03*
X140174828Y-77634956D03*
X137635098Y-82500578D03*
X137305303Y-76525730D03*
D25*
X110899695Y-78569517D03*
D21*
X111476258Y-82705720D03*
X155927117Y-78023742D03*
X108913796Y-80744229D03*
X122865457Y-78713732D03*
X88737346Y-79366419D03*
X152860858Y-80062216D03*
X86369347Y-77395893D03*
X134424875Y-77155052D03*
X119879671Y-76656732D03*
X77800000Y-79800000D03*
X133225052Y-79128151D03*
X89737766Y-79366419D03*
X134256811Y-76412787D03*
X93458326Y-79364204D03*
X128073316Y-78238505D03*
X137515167Y-77653704D03*
X157859542Y-76971134D03*
X86350000Y-75450000D03*
X150077042Y-79958564D03*
X93887472Y-78125000D03*
X139362773Y-77580695D03*
X87733557Y-79366419D03*
X68650000Y-78300000D03*
D25*
X108863649Y-78945427D03*
D21*
X74150000Y-80250000D03*
X113062508Y-82066434D03*
X88850000Y-81875500D03*
X153658593Y-75432702D03*
D23*
X129332992Y-76543861D03*
D21*
X133727888Y-78527669D03*
X123380387Y-76864554D03*
X157565825Y-78567349D03*
D22*
X114950000Y-78150000D03*
D21*
X92728789Y-79360221D03*
D22*
X140153708Y-76608881D03*
D21*
X133073351Y-77127011D03*
X86362472Y-78450000D03*
X134959554Y-79253266D03*
X155975420Y-76885782D03*
D22*
X144862389Y-79269721D03*
D26*
%TO.N,+5V*%
X130602116Y-76031481D03*
D23*
X131969967Y-79135492D03*
D22*
X69700000Y-77750000D03*
D23*
X121088507Y-76334582D03*
X122102359Y-76323815D03*
D21*
X68237500Y-75620000D03*
D23*
X131356646Y-78429654D03*
D21*
X70400000Y-79100000D03*
X69450000Y-80750000D03*
D23*
%TO.N,Net-(C15-Pad1)*%
X138674054Y-78137383D03*
D21*
X131453662Y-77622634D03*
D23*
%TO.N,Net-(Q3-Pad3)*%
X147187751Y-79119443D03*
D20*
X140793271Y-77292906D03*
D21*
%TO.N,SWITCH*%
X85025000Y-79525000D03*
X72750000Y-78900000D03*
%TO.N,i2S2_CLK*%
X71500000Y-81500000D03*
X80224505Y-83235085D03*
%TO.N,i2S2_Data*%
X96000000Y-79150000D03*
%TO.N,i2S2_WS*%
X76900000Y-81450000D03*
X73750000Y-79200000D03*
X79150000Y-81450000D03*
%TO.N,VDD_SDIO*%
X86950000Y-82725500D03*
X104891312Y-81805026D03*
%TO.N,SIO1*%
X106000000Y-76650000D03*
X84750000Y-78100000D03*
%TO.N,PSRAM_CS*%
X105691312Y-76105026D03*
X105091312Y-79705026D03*
X85625000Y-75575000D03*
%TO.N,SIO3*%
X84100000Y-82600000D03*
X104441312Y-79205026D03*
%TO.N,SCLK*%
X105950000Y-77450000D03*
X83450000Y-80900000D03*
%TO.N,SIO2*%
X83450000Y-78100000D03*
X105041312Y-76755026D03*
%TO.N,SIO0*%
X104541312Y-77255026D03*
X82050000Y-80800000D03*
%TO.N,ALRT*%
X154572913Y-76987269D03*
X100650000Y-74925000D03*
X135470804Y-80868542D03*
%TO.N,TOUCH1*%
X102100000Y-83550000D03*
%TO.N,SCL*%
X154557237Y-78001569D03*
X104741312Y-75755026D03*
D20*
X134381136Y-81843044D03*
%TO.N,SDA*%
X103850000Y-82675000D03*
X155263950Y-78735805D03*
X132083808Y-82243314D03*
D21*
%TO.N,i2S1_Data*%
X99002251Y-83127205D03*
X78600000Y-80650000D03*
%TO.N,DAC*%
X79250000Y-82700000D03*
X98400000Y-83500000D03*
X70200000Y-81500000D03*
D25*
%TO.N,Net-(Q3-Pad1)*%
X117234007Y-78146620D03*
X142173543Y-76239882D03*
D20*
X145541377Y-77909329D03*
D21*
%TO.N,IO9*%
X113300000Y-80400000D03*
X105100000Y-80500000D03*
%TD*%
D27*
%TO.N,EN*%
X106154929Y-81354001D02*
X106264024Y-81244906D01*
X106178064Y-81158946D02*
X106264024Y-81244906D01*
X98704001Y-81354001D02*
X106154929Y-81354001D01*
X95850000Y-79725000D02*
X97075000Y-79725000D01*
X97075000Y-79725000D02*
X98704001Y-81354001D01*
D28*
%TO.N,RGB*%
X71900000Y-77800000D02*
X70600000Y-77800000D01*
D27*
X96195500Y-82904500D02*
X87735698Y-82904500D01*
D28*
X73900000Y-77100000D02*
X72600000Y-77100000D01*
D27*
X87735698Y-82904500D02*
X87081198Y-82250000D01*
D28*
X70600000Y-77800000D02*
X70600000Y-78015000D01*
X70600000Y-78015000D02*
X69715000Y-78900000D01*
X72600000Y-77100000D02*
X71900000Y-77800000D01*
D27*
X98925000Y-82350000D02*
X96750000Y-82350000D01*
X99650000Y-83075000D02*
X98925000Y-82350000D01*
X96750000Y-82350000D02*
X96195500Y-82904500D01*
D28*
X74250000Y-76750000D02*
X73900000Y-77100000D01*
D27*
X84500000Y-82250000D02*
X84421000Y-82171000D01*
X87081198Y-82250000D02*
X84500000Y-82250000D01*
X84421000Y-82171000D02*
X80871000Y-82171000D01*
X80871000Y-82171000D02*
X79850000Y-81150000D01*
D29*
%TO.N,BATT+*%
X158850000Y-76090000D02*
X158850000Y-77022604D01*
X159410827Y-79539363D02*
X159039363Y-79539363D01*
X158347156Y-75587156D02*
X158850000Y-76090000D01*
D30*
X158354185Y-76090000D02*
X157958262Y-75694077D01*
D29*
X157949849Y-75587156D02*
X158347156Y-75587156D01*
D27*
X158700000Y-76550000D02*
X158700000Y-76750000D01*
D30*
X158850000Y-76090000D02*
X158354185Y-76090000D01*
D29*
X159314550Y-79443086D02*
X159410827Y-79539363D01*
X159314550Y-77487154D02*
X159314550Y-79443086D01*
X159039363Y-79539363D02*
X158700000Y-79200000D01*
X158850000Y-77022604D02*
X159314550Y-77487154D01*
D27*
%TO.N,Net-(D1-Pad1)*%
X67275000Y-79925000D02*
X67275000Y-77107500D01*
X67275000Y-77107500D02*
X67762500Y-76620000D01*
X67350000Y-80000000D02*
X67275000Y-79925000D01*
X67885000Y-80000000D02*
X67350000Y-80000000D01*
X67762500Y-76620000D02*
X68237500Y-76620000D01*
D28*
%TO.N,HUD+*%
X69430000Y-81370000D02*
X69530000Y-81370000D01*
D27*
X69920999Y-80426188D02*
X70517853Y-79829334D01*
X69920999Y-80800000D02*
X69920999Y-80426188D01*
X68144001Y-81429001D02*
X68135000Y-81420000D01*
D28*
X69920999Y-80979001D02*
X69920999Y-80800000D01*
X69530000Y-81370000D02*
X69920999Y-80979001D01*
D31*
X68235000Y-81370000D02*
X69430000Y-81370000D01*
%TO.N,RTS*%
X108152177Y-76671212D02*
X108152177Y-76340647D01*
X107022929Y-77800460D02*
X108152177Y-76671212D01*
D27*
X107250000Y-79750000D02*
X107350000Y-79650000D01*
X107250000Y-81400000D02*
X107250000Y-79750000D01*
D32*
%TO.N,IO0*%
X109440009Y-82509877D02*
X109602604Y-82347282D01*
X106767619Y-82509877D02*
X109440009Y-82509877D01*
D31*
%TO.N,DTR*%
X108317754Y-79756042D02*
X108317754Y-81838084D01*
X107146648Y-78584936D02*
X108317754Y-79756042D01*
D33*
%TO.N,VBUS*%
X130578739Y-78916240D02*
X130578739Y-78961514D01*
X149853663Y-77607938D02*
X150021377Y-77775652D01*
X126360799Y-76643861D02*
X126589500Y-76643861D01*
X149853663Y-76233622D02*
X149607769Y-75987728D01*
X150021377Y-77775652D02*
X150700201Y-77096827D01*
X147690771Y-80106258D02*
X141283926Y-80106258D01*
D29*
X126360799Y-76643861D02*
X126360799Y-76863432D01*
D30*
X120088670Y-77490667D02*
X125513993Y-77490667D01*
X125513993Y-77490667D02*
X126360799Y-76643861D01*
X118540026Y-79039312D02*
X120088670Y-77490667D01*
D33*
X150700201Y-77096827D02*
X150700201Y-76914527D01*
X128101533Y-76643861D02*
X130373912Y-78916240D01*
X131104107Y-79486882D02*
X131104107Y-79491705D01*
X126589500Y-76643861D02*
X127224115Y-77278476D01*
X149853663Y-76314464D02*
X149853663Y-76233622D01*
D30*
X114413360Y-79039312D02*
X114139312Y-79039312D01*
X114139312Y-79039312D02*
X113800000Y-78700000D01*
D33*
X130578739Y-78961514D02*
X131104107Y-79486882D01*
D31*
X149479051Y-75888303D02*
X149040078Y-75449330D01*
X146973745Y-75458635D02*
X146983050Y-75449330D01*
X149040078Y-75449330D02*
X146983050Y-75449330D01*
D30*
X114413360Y-79039312D02*
X118540026Y-79039312D01*
D33*
X130373912Y-78916240D02*
X130578739Y-78916240D01*
D31*
X141369858Y-78650111D02*
X141369858Y-80020326D01*
D33*
X150021377Y-77775652D02*
X147690771Y-80106258D01*
X131182338Y-80106258D02*
X141283926Y-80106258D01*
D31*
X141369858Y-80020326D02*
X141283926Y-80106258D01*
D33*
X126360799Y-76643861D02*
X128101533Y-76643861D01*
X131104107Y-79491705D02*
X131182338Y-79569936D01*
X131182338Y-79569936D02*
X131182338Y-80106258D01*
D27*
X114404306Y-79030258D02*
X114395252Y-79039312D01*
D33*
X149853663Y-76314464D02*
X149853663Y-77607938D01*
D27*
%TO.N,TX_ESP*%
X111850000Y-75600000D02*
X112400000Y-75600000D01*
X112274500Y-75550000D02*
X112400000Y-75424500D01*
X112400000Y-75600000D02*
X112450000Y-75550000D01*
X111900000Y-75550000D02*
X112274500Y-75550000D01*
%TO.N,RX_ESP*%
X113250000Y-75550000D02*
X113250000Y-76050000D01*
X113250000Y-76050000D02*
X113050000Y-76250000D01*
%TO.N,+3V3*%
X72487500Y-83470000D02*
X71870000Y-83470000D01*
X71870000Y-83470000D02*
X71500000Y-83100000D01*
X79650000Y-78800000D02*
X80250000Y-78200000D01*
X78900000Y-78800000D02*
X79650000Y-78800000D01*
X78150000Y-78800000D02*
X77900000Y-78550000D01*
X96295999Y-81604001D02*
X103904001Y-81604001D01*
X72487500Y-83470000D02*
X71820000Y-83470000D01*
X105750000Y-82350000D02*
X105850000Y-82250000D01*
X104650000Y-82350000D02*
X105750000Y-82350000D01*
X95750000Y-82150000D02*
X96295999Y-81604001D01*
X78900000Y-78800000D02*
X78150000Y-78800000D01*
X103904001Y-81604001D02*
X104650000Y-82350000D01*
D28*
%TO.N,USB-*%
X126298713Y-78463089D02*
X126448713Y-78613089D01*
X124632758Y-80644483D02*
X124654714Y-80666439D01*
X124654714Y-80666439D02*
X125404276Y-80666439D01*
X126448713Y-79622002D02*
X125404276Y-80666439D01*
X110279962Y-81188328D02*
X112293371Y-81188328D01*
X110056674Y-80965040D02*
X110279962Y-81188328D01*
X110790490Y-81188828D02*
X113364172Y-81188828D01*
X126448713Y-78613089D02*
X126448713Y-79622002D01*
X113364172Y-81188828D02*
X113908517Y-80644483D01*
X110056674Y-80752907D02*
X110056674Y-80965040D01*
X112293371Y-81188328D02*
X112293871Y-81188828D01*
X113908517Y-80644483D02*
X124632758Y-80644483D01*
%TO.N,USB+*%
X125591921Y-81044483D02*
X114074205Y-81044483D01*
X126998713Y-78463089D02*
X126848713Y-78613089D01*
X126848713Y-78613089D02*
X126848713Y-79787690D01*
X114074205Y-81044483D02*
X113529860Y-81588828D01*
X126848713Y-79787690D02*
X125591921Y-81044483D01*
X110114776Y-81588828D02*
X109773831Y-81247883D01*
D27*
X113529860Y-81588828D02*
X110114776Y-81588828D01*
D28*
X109773831Y-81247883D02*
X109561698Y-81247883D01*
D30*
%TO.N,PSEN*%
X147247906Y-77022823D02*
X146561072Y-76335989D01*
D31*
X141718139Y-76792312D02*
X141466129Y-76792312D01*
X146561072Y-76335989D02*
X146230040Y-76335989D01*
X136764317Y-76014677D02*
X136622053Y-76014677D01*
D30*
X147870713Y-77022823D02*
X147247906Y-77022823D01*
D31*
X142726184Y-76619504D02*
X142553376Y-76792312D01*
X142553376Y-76792312D02*
X141718139Y-76792312D01*
X141466129Y-76792312D02*
X140796498Y-76122681D01*
X142726184Y-76158683D02*
X142726184Y-76619504D01*
X143352612Y-75532255D02*
X142726184Y-76158683D01*
X140796498Y-76122681D02*
X140688494Y-76014677D01*
X145426306Y-75532255D02*
X143352612Y-75532255D01*
X136622053Y-76014677D02*
X136061510Y-76575220D01*
X146230040Y-76335989D02*
X145426306Y-75532255D01*
X140688494Y-76014677D02*
X136764317Y-76014677D01*
D27*
%TO.N,BATT1-*%
X69700000Y-83200000D02*
X69700000Y-83300000D01*
X72487500Y-82470000D02*
X72880000Y-82470000D01*
X69320000Y-83370000D02*
X68235000Y-83370000D01*
X72880000Y-82470000D02*
X74200000Y-81150000D01*
D28*
X102357943Y-82021236D02*
X101628764Y-82021236D01*
D27*
X68650000Y-78300000D02*
X68485000Y-78300000D01*
X77800000Y-79800000D02*
X77350000Y-80250000D01*
X69350000Y-83400000D02*
X69320000Y-83370000D01*
D28*
X102357943Y-82021236D02*
X102782943Y-82021236D01*
D30*
X128073316Y-78492507D02*
X129473713Y-79892904D01*
D28*
X100300000Y-83350000D02*
X100250000Y-83400000D01*
D30*
X115150000Y-77950000D02*
X116100000Y-77950000D01*
D27*
X68237500Y-77620000D02*
X68237500Y-78547500D01*
D29*
X156681672Y-79178484D02*
X156847577Y-79344389D01*
X156005759Y-79178484D02*
X156681672Y-79178484D01*
D27*
X74200000Y-81150000D02*
X74200000Y-80300000D01*
X69625000Y-83125000D02*
X69700000Y-83200000D01*
X115900000Y-78150000D02*
X116100000Y-77950000D01*
D29*
X156462587Y-78959399D02*
X156847577Y-79344389D01*
D27*
X68237500Y-77887500D02*
X68650000Y-78300000D01*
D29*
X156462587Y-76154252D02*
X156462587Y-78959399D01*
D27*
X69800000Y-82400000D02*
X69800000Y-82950000D01*
D29*
X155825643Y-75517308D02*
X156462587Y-76154252D01*
D30*
X128073316Y-78238505D02*
X128073316Y-78492507D01*
X114950000Y-78150000D02*
X115150000Y-77950000D01*
D27*
X68485000Y-78300000D02*
X67885000Y-78900000D01*
X74200000Y-80300000D02*
X74150000Y-80250000D01*
X68237500Y-77620000D02*
X68237500Y-77887500D01*
X68237500Y-78547500D02*
X67885000Y-78900000D01*
D29*
X155656521Y-75517308D02*
X155825643Y-75517308D01*
D28*
X100250000Y-83400000D02*
X100250000Y-83450000D01*
D27*
X69625000Y-83125000D02*
X69350000Y-83400000D01*
X77350000Y-80250000D02*
X74150000Y-80250000D01*
X69800000Y-82400000D02*
X72417500Y-82400000D01*
X72417500Y-82400000D02*
X72487500Y-82470000D01*
X69800000Y-82950000D02*
X69625000Y-83125000D01*
D30*
X113800000Y-77700000D02*
X114500000Y-77700000D01*
X114500000Y-77700000D02*
X114950000Y-78150000D01*
D28*
X101628764Y-82021236D02*
X100300000Y-83350000D01*
D27*
%TO.N,+5V*%
X70400000Y-79100000D02*
X70281478Y-79100000D01*
X70281478Y-79100000D02*
X69631478Y-79750000D01*
D34*
X130903459Y-76399784D02*
X130585505Y-76081830D01*
D27*
X69450000Y-80265000D02*
X69715000Y-80000000D01*
D34*
X132265399Y-76399784D02*
X130903459Y-76399784D01*
D27*
X69450000Y-80750000D02*
X69450000Y-80265000D01*
D30*
%TO.N,Net-(C15-Pad1)*%
X138345532Y-78465905D02*
X138674054Y-78137383D01*
X135781072Y-78465905D02*
X138345532Y-78465905D01*
X135029956Y-77714789D02*
X135781072Y-78465905D01*
X135012507Y-77714789D02*
X131397624Y-77714789D01*
X135012507Y-77714789D02*
X135029956Y-77714789D01*
D31*
%TO.N,Net-(Q3-Pad3)*%
X140793271Y-77292906D02*
X140817520Y-77292906D01*
X140817520Y-77292906D02*
X141278259Y-77753645D01*
X146496134Y-78427826D02*
X147187751Y-79119443D01*
X143293653Y-77753645D02*
X143967834Y-78427826D01*
X141278259Y-77753645D02*
X143293653Y-77753645D01*
X143967834Y-78427826D02*
X144160655Y-78427826D01*
X144160655Y-78427826D02*
X146496134Y-78427826D01*
D27*
%TO.N,SWITCH*%
X73600000Y-78300000D02*
X76350000Y-75550000D01*
D31*
X83250000Y-75350000D02*
X76350000Y-75350000D01*
D27*
X85254000Y-79296000D02*
X85254000Y-78308764D01*
X72750000Y-78900000D02*
X73350000Y-78300000D01*
D31*
X85254000Y-77354000D02*
X83250000Y-75350000D01*
X85254000Y-78308764D02*
X85254000Y-77354000D01*
D27*
X85025000Y-79525000D02*
X85254000Y-79296000D01*
X76350000Y-75550000D02*
X76350000Y-75350000D01*
X73350000Y-78300000D02*
X73600000Y-78300000D01*
%TO.N,i2S2_CLK*%
X72487500Y-81470000D02*
X71530000Y-81470000D01*
X71530000Y-81470000D02*
X71500000Y-81500000D01*
%TO.N,i2S2_Data*%
X94545500Y-82654500D02*
X87839252Y-82654500D01*
X87839252Y-82654500D02*
X87184752Y-82000000D01*
X95121242Y-81271242D02*
X95300000Y-81450000D01*
X95400000Y-79568302D02*
X95400000Y-79750000D01*
X80600000Y-81293302D02*
X79610983Y-80304285D01*
D28*
X78946338Y-80304285D02*
X77988053Y-79346000D01*
D27*
X81071000Y-81921000D02*
X80600000Y-81450000D01*
D28*
X74411947Y-79346000D02*
X73287947Y-80470000D01*
D27*
X95818302Y-79150000D02*
X95400000Y-79568302D01*
X87050000Y-82000000D02*
X86971000Y-81921000D01*
D28*
X73287947Y-80470000D02*
X72487500Y-80470000D01*
D27*
X79610983Y-80304285D02*
X78946338Y-80304285D01*
X80600000Y-81450000D02*
X80600000Y-81293302D01*
X95400000Y-79750000D02*
X95121242Y-80028758D01*
X95300000Y-81900000D02*
X94545500Y-82654500D01*
D28*
X77988053Y-79346000D02*
X74411947Y-79346000D01*
D27*
X96000000Y-79150000D02*
X95818302Y-79150000D01*
X87184752Y-82000000D02*
X87050000Y-82000000D01*
X95300000Y-81450000D02*
X95300000Y-81900000D01*
X95121242Y-80028758D02*
X95121242Y-81271242D01*
X86971000Y-81921000D02*
X81071000Y-81921000D01*
%TO.N,i2S2_WS*%
X72487500Y-79600000D02*
X73350000Y-79600000D01*
X73350000Y-79600000D02*
X73750000Y-79200000D01*
%TO.N,PSRAM_CS*%
X105500000Y-76903036D02*
X105500000Y-76296338D01*
X105091312Y-77311724D02*
X105500000Y-76903036D01*
X105500000Y-76296338D02*
X105691312Y-76105026D01*
X105091312Y-79705026D02*
X105091312Y-77311724D01*
%TO.N,ALRT*%
X112001126Y-79715741D02*
X112000626Y-79715241D01*
D28*
X112000626Y-79715241D02*
X111632702Y-79347317D01*
D27*
X111525788Y-77690150D02*
X111632702Y-77690150D01*
X118643994Y-79715741D02*
X112001126Y-79715741D01*
D28*
X111632702Y-79347317D02*
X111632702Y-77690150D01*
D27*
X100650000Y-74925000D02*
X105525000Y-74925000D01*
D28*
X127516733Y-79040518D02*
X127516733Y-77992049D01*
X148698438Y-80724962D02*
X129201177Y-80724962D01*
D27*
X105525000Y-74925000D02*
X106000000Y-75400000D01*
D28*
X120381758Y-77977976D02*
X118643994Y-79715741D01*
D27*
X109235638Y-75400000D02*
X109667819Y-75832181D01*
X106000000Y-75400000D02*
X109235638Y-75400000D01*
X100650000Y-74925000D02*
X100673333Y-74901667D01*
X109612305Y-75776667D02*
X111525788Y-77690150D01*
D28*
X148975336Y-80448064D02*
X148698438Y-80724962D01*
X127516733Y-77992049D02*
X127502660Y-77977976D01*
X154572913Y-76987269D02*
X151112118Y-80448064D01*
X151112118Y-80448064D02*
X148975336Y-80448064D01*
X129201177Y-80724962D02*
X127516733Y-79040518D01*
X127502660Y-77977976D02*
X120381758Y-77977976D01*
%TO.N,TOUCH1*%
X102100000Y-83049179D02*
X102357943Y-82791236D01*
X102100000Y-83550000D02*
X102100000Y-83049179D01*
%TO.N,SCL*%
X113497369Y-82447105D02*
X112755196Y-83189278D01*
X123595403Y-81615740D02*
X124354608Y-81615740D01*
D27*
X106774359Y-80890147D02*
X106774359Y-78400000D01*
X106421000Y-76779000D02*
X106650000Y-76550000D01*
D28*
X123593239Y-81617904D02*
X123595403Y-81615740D01*
X154102134Y-79010590D02*
X153255153Y-79010590D01*
D27*
X106338619Y-82332179D02*
X106732253Y-81938545D01*
D28*
X135367394Y-81843044D02*
X135482130Y-81728308D01*
D27*
X106650000Y-76250000D02*
X106593929Y-76193929D01*
D28*
X111261771Y-83188778D02*
X112244668Y-83188778D01*
X112245168Y-83189278D02*
X112244668Y-83188778D01*
X111219339Y-83146346D02*
X111261771Y-83188778D01*
X148732911Y-81122191D02*
X139563689Y-81122191D01*
X134488722Y-81834897D02*
X134467481Y-81856138D01*
X113631706Y-82447105D02*
X113497369Y-82447105D01*
X139210644Y-81475236D02*
X139563689Y-81122191D01*
X154102134Y-78456672D02*
X154102134Y-79010590D01*
D27*
X126000000Y-81150000D02*
X132808381Y-81150000D01*
D28*
X138957572Y-81728308D02*
X139210644Y-81475236D01*
X153255153Y-79010590D02*
X151518178Y-80747565D01*
X154557237Y-78001569D02*
X154102134Y-78456672D01*
D27*
X125534260Y-81615740D02*
X126000000Y-81150000D01*
X106732253Y-81938545D02*
X106732253Y-80932253D01*
X104820312Y-75676026D02*
X106076026Y-75676026D01*
X106774359Y-78400000D02*
X106593929Y-78219570D01*
X106732253Y-80932253D02*
X106774359Y-80890147D01*
X106338619Y-83052015D02*
X106338619Y-82332179D01*
D28*
X133501425Y-81843044D02*
X134381136Y-81843044D01*
D27*
X106421000Y-77321000D02*
X106421000Y-76779000D01*
D28*
X135482130Y-81728308D02*
X138957572Y-81728308D01*
X149107537Y-80747565D02*
X148732911Y-81122191D01*
D27*
X106076026Y-75676026D02*
X106593929Y-76193929D01*
D28*
X113631706Y-82447105D02*
X114460907Y-81617904D01*
D27*
X106432950Y-83146346D02*
X106338619Y-83052015D01*
X106600000Y-77500000D02*
X106421000Y-77321000D01*
X106650000Y-76550000D02*
X106650000Y-76250000D01*
D28*
X106432950Y-83146346D02*
X111219339Y-83146346D01*
D27*
X132808381Y-81150000D02*
X133133617Y-81475236D01*
X124354608Y-81615740D02*
X125534260Y-81615740D01*
X104741312Y-75755026D02*
X104820312Y-75676026D01*
D28*
X133133617Y-81475236D02*
X133501425Y-81843044D01*
D27*
X106593929Y-77506071D02*
X106600000Y-77500000D01*
D28*
X112755196Y-83189278D02*
X112245168Y-83189278D01*
X134381136Y-81843044D02*
X135367394Y-81843044D01*
X114460907Y-81617904D02*
X123593239Y-81617904D01*
X151518178Y-80747565D02*
X149107537Y-80747565D01*
D27*
X106593929Y-78219570D02*
X106593929Y-77506071D01*
%TO.N,SDA*%
X148800000Y-81500000D02*
X149050000Y-81250000D01*
X131240494Y-81400000D02*
X126500000Y-81400000D01*
X109792432Y-83463778D02*
X109750000Y-83421346D01*
X105747695Y-82850000D02*
X104025000Y-82850000D01*
X132083808Y-82243314D02*
X131240494Y-81400000D01*
X109750000Y-83421346D02*
X106319041Y-83421346D01*
X151604651Y-81050000D02*
X151854651Y-80800000D01*
X132990494Y-83150000D02*
X137900000Y-83150000D01*
D31*
X132083808Y-82243314D02*
X132819103Y-82978609D01*
D27*
X138400000Y-82650000D02*
X140850000Y-82650000D01*
X137900000Y-83150000D02*
X138400000Y-82650000D01*
X147429792Y-81479792D02*
X147450000Y-81500000D01*
X151854651Y-80800000D02*
X153199755Y-80800000D01*
X149050000Y-81250000D02*
X149550000Y-81250000D01*
X126500000Y-81400000D02*
X124200000Y-83700000D01*
X106319041Y-83421346D02*
X105747695Y-82850000D01*
X147450000Y-81500000D02*
X148800000Y-81500000D01*
X153199755Y-80800000D02*
X155263950Y-78735805D01*
X124200000Y-83700000D02*
X123200000Y-83700000D01*
X123200000Y-83700000D02*
X122068738Y-82568738D01*
X149750000Y-81050000D02*
X151604651Y-81050000D01*
X104025000Y-82850000D02*
X103850000Y-82675000D01*
X113003942Y-83463778D02*
X109792432Y-83463778D01*
X142020208Y-81479792D02*
X147429792Y-81479792D01*
X122068738Y-82568738D02*
X113898982Y-82568738D01*
X132819103Y-82978609D02*
X132990494Y-83150000D01*
X140850000Y-82650000D02*
X142020208Y-81479792D01*
X149550000Y-81250000D02*
X149750000Y-81050000D01*
X113898982Y-82568738D02*
X113003942Y-83463778D01*
D31*
X103860722Y-82664278D02*
X103850000Y-82675000D01*
D27*
%TO.N,i2S1_Data*%
X98475046Y-82600000D02*
X96950000Y-82600000D01*
X78550000Y-81900000D02*
X78550000Y-80900000D01*
X80125000Y-81925000D02*
X78575000Y-81925000D01*
X78550000Y-80900000D02*
X78550000Y-80700000D01*
X96950000Y-82600000D02*
X96395500Y-83154500D01*
X78550000Y-80700000D02*
X78600000Y-80650000D01*
X99002251Y-83127205D02*
X98475046Y-82600000D01*
X96395500Y-83154500D02*
X84679500Y-83154500D01*
X84546000Y-83029000D02*
X81229000Y-83029000D01*
X81229000Y-83029000D02*
X80125000Y-81925000D01*
X84550000Y-83025000D02*
X84546000Y-83029000D01*
X84679500Y-83154500D02*
X84550000Y-83025000D01*
X78575000Y-81925000D02*
X78550000Y-81900000D01*
%TO.N,DAC*%
X98120759Y-83470759D02*
X98370759Y-83470759D01*
X68135000Y-82420000D02*
X68930000Y-82420000D01*
X98120759Y-83470759D02*
X98287211Y-83304308D01*
X98370759Y-83470759D02*
X98400000Y-83500000D01*
X79875000Y-83725000D02*
X97866519Y-83725000D01*
X69581698Y-81875000D02*
X69853349Y-81603349D01*
X68930000Y-82420000D02*
X69450000Y-81900000D01*
X97866519Y-83725000D02*
X98120759Y-83470759D01*
X79250000Y-83100000D02*
X79875000Y-83725000D01*
X69853349Y-81603349D02*
X70096651Y-81603349D01*
X79250000Y-82700000D02*
X79250000Y-83100000D01*
X69475000Y-81875000D02*
X69581698Y-81875000D01*
X70096651Y-81603349D02*
X70200000Y-81500000D01*
X69450000Y-81900000D02*
X69475000Y-81875000D01*
D31*
%TO.N,Net-(Q3-Pad1)*%
X131571611Y-75599500D02*
X141533161Y-75599500D01*
X118748795Y-76648136D02*
X119731303Y-75665627D01*
X131403592Y-75431481D02*
X131571611Y-75599500D01*
X117917455Y-76648136D02*
X118748795Y-76648136D01*
X117234007Y-78146620D02*
X117234007Y-77331584D01*
X130353587Y-75431481D02*
X131403592Y-75431481D01*
X117234007Y-77331584D02*
X117917455Y-76648136D01*
X141533161Y-75599500D02*
X142173543Y-76239882D01*
X130119441Y-75665627D02*
X130353587Y-75431481D01*
X119731303Y-75665627D02*
X130119441Y-75665627D01*
D27*
%TO.N,IO9*%
X113300000Y-80400000D02*
X112500000Y-80400000D01*
X112000000Y-80900000D02*
X111400000Y-80900000D01*
X112500000Y-80400000D02*
X112000000Y-80900000D01*
X111400000Y-80900000D02*
X110100000Y-79600000D01*
%TD*%
%TA.AperFunction,Conductor*%
%TO.N,BATT1-*%
G36*
X76121837Y-75207529D02*
G01*
X76128866Y-75224500D01*
X76127039Y-75233684D01*
X76099500Y-75300170D01*
X76099500Y-75399829D01*
X76138021Y-75492830D01*
X76138021Y-75511199D01*
X76132819Y-75518985D01*
X73534334Y-78117471D01*
X73517363Y-78124500D01*
X73315090Y-78124500D01*
X73250588Y-78151216D01*
X72854229Y-78547573D01*
X72837259Y-78554602D01*
X72833506Y-78554307D01*
X72750000Y-78541081D01*
X72639085Y-78558648D01*
X72539036Y-78609625D01*
X72459625Y-78689036D01*
X72408648Y-78789085D01*
X72391081Y-78900000D01*
X72408648Y-79010914D01*
X72459625Y-79110963D01*
X72459626Y-79110964D01*
X72459628Y-79110967D01*
X72507191Y-79158530D01*
X72514220Y-79175500D01*
X72507191Y-79192471D01*
X72490220Y-79199500D01*
X71702601Y-79199500D01*
X71673288Y-79205330D01*
X71673282Y-79205332D01*
X71640047Y-79227539D01*
X71640039Y-79227547D01*
X71617832Y-79260782D01*
X71617830Y-79260787D01*
X71612000Y-79290096D01*
X71612000Y-79909898D01*
X71617830Y-79939211D01*
X71617832Y-79939217D01*
X71640039Y-79972452D01*
X71640040Y-79972453D01*
X71640043Y-79972457D01*
X71640046Y-79972459D01*
X71640047Y-79972460D01*
X71673282Y-79994667D01*
X71673287Y-79994669D01*
X71702601Y-80000500D01*
X73272398Y-80000499D01*
X73301713Y-79994669D01*
X73301714Y-79994667D01*
X73301717Y-79994667D01*
X73331151Y-79975000D01*
X73334957Y-79972457D01*
X73343900Y-79959072D01*
X73357167Y-79939217D01*
X73357169Y-79939212D01*
X73357169Y-79939211D01*
X73363000Y-79909899D01*
X73363000Y-79799500D01*
X73370029Y-79782529D01*
X73382842Y-79777221D01*
X73382592Y-79775961D01*
X73384909Y-79775500D01*
X73449411Y-79748783D01*
X73449411Y-79748782D01*
X73449413Y-79748782D01*
X73645767Y-79552425D01*
X73662737Y-79545396D01*
X73666491Y-79545691D01*
X73670823Y-79546378D01*
X73749997Y-79558919D01*
X73749998Y-79558919D01*
X73749998Y-79558918D01*
X73750000Y-79558919D01*
X73860912Y-79541352D01*
X73872962Y-79535211D01*
X73891274Y-79533770D01*
X73905242Y-79545699D01*
X73906684Y-79564012D01*
X73900829Y-79573567D01*
X73372416Y-80101979D01*
X73355445Y-80109008D01*
X73338474Y-80101979D01*
X73335489Y-80098340D01*
X73334957Y-80097543D01*
X73334953Y-80097540D01*
X73334952Y-80097539D01*
X73301717Y-80075332D01*
X73301712Y-80075330D01*
X73272399Y-80069500D01*
X71702601Y-80069500D01*
X71673288Y-80075330D01*
X71673282Y-80075332D01*
X71640047Y-80097539D01*
X71640039Y-80097547D01*
X71617832Y-80130782D01*
X71617830Y-80130787D01*
X71612000Y-80160096D01*
X71612000Y-80779898D01*
X71617830Y-80809211D01*
X71617832Y-80809217D01*
X71640039Y-80842452D01*
X71640040Y-80842453D01*
X71640043Y-80842457D01*
X71640046Y-80842459D01*
X71640047Y-80842460D01*
X71673282Y-80864667D01*
X71673287Y-80864669D01*
X71702601Y-80870500D01*
X73272398Y-80870499D01*
X73301713Y-80864669D01*
X73301714Y-80864667D01*
X73301717Y-80864667D01*
X73323776Y-80849927D01*
X73334957Y-80842457D01*
X73343819Y-80829193D01*
X73357167Y-80809217D01*
X73357169Y-80809212D01*
X73357281Y-80808648D01*
X73363000Y-80779899D01*
X73362999Y-80671966D01*
X73370028Y-80654997D01*
X73377811Y-80649795D01*
X73401521Y-80639976D01*
X74487968Y-79553529D01*
X74504939Y-79546500D01*
X77895061Y-79546500D01*
X77912032Y-79553529D01*
X78609497Y-80250994D01*
X78616526Y-80267965D01*
X78609497Y-80284936D01*
X78596281Y-80291669D01*
X78489088Y-80308647D01*
X78489087Y-80308647D01*
X78389036Y-80359625D01*
X78309625Y-80439036D01*
X78258648Y-80539085D01*
X78241081Y-80650000D01*
X78258648Y-80760914D01*
X78309625Y-80860963D01*
X78309626Y-80860964D01*
X78309628Y-80860967D01*
X78367471Y-80918810D01*
X78374500Y-80935780D01*
X78374500Y-81934909D01*
X78401216Y-81999412D01*
X78426217Y-82024413D01*
X78475588Y-82073783D01*
X78540090Y-82100500D01*
X78540091Y-82100500D01*
X78609909Y-82100500D01*
X80042363Y-82100500D01*
X80059334Y-82107529D01*
X81129587Y-83177782D01*
X81161435Y-83190974D01*
X81194090Y-83204501D01*
X81194091Y-83204501D01*
X81266699Y-83204501D01*
X81266707Y-83204500D01*
X84471363Y-83204500D01*
X84488333Y-83211529D01*
X84534975Y-83258170D01*
X84580087Y-83303282D01*
X84625220Y-83321977D01*
X84644590Y-83330001D01*
X84644591Y-83330001D01*
X84717199Y-83330001D01*
X84717207Y-83330000D01*
X96430409Y-83330000D01*
X96494913Y-83303282D01*
X97015665Y-82782528D01*
X97032636Y-82775500D01*
X98392409Y-82775500D01*
X98409380Y-82782529D01*
X98649824Y-83022972D01*
X98656853Y-83039943D01*
X98656558Y-83043697D01*
X98643332Y-83127204D01*
X98653379Y-83190640D01*
X98649090Y-83208501D01*
X98633428Y-83218099D01*
X98615567Y-83213810D01*
X98612709Y-83211370D01*
X98610967Y-83209628D01*
X98610964Y-83209626D01*
X98610963Y-83209625D01*
X98510914Y-83158648D01*
X98434902Y-83146609D01*
X98400000Y-83141081D01*
X98399999Y-83141081D01*
X98371779Y-83145550D01*
X98358840Y-83144018D01*
X98322122Y-83128808D01*
X98322121Y-83128808D01*
X98252302Y-83128808D01*
X98252300Y-83128808D01*
X98187800Y-83155524D01*
X98022716Y-83320605D01*
X98022717Y-83320606D01*
X98021346Y-83321977D01*
X97971977Y-83371346D01*
X97971976Y-83371347D01*
X97883129Y-83460195D01*
X97800853Y-83542471D01*
X97783882Y-83549500D01*
X80469370Y-83549500D01*
X80452399Y-83542471D01*
X80445370Y-83525500D01*
X80452398Y-83508530D01*
X80514877Y-83446052D01*
X80565857Y-83345997D01*
X80583424Y-83235085D01*
X80565857Y-83124173D01*
X80565856Y-83124171D01*
X80565856Y-83124170D01*
X80514879Y-83024121D01*
X80514878Y-83024120D01*
X80514877Y-83024118D01*
X80435472Y-82944713D01*
X80435469Y-82944711D01*
X80435468Y-82944710D01*
X80335419Y-82893733D01*
X80224505Y-82876166D01*
X80113590Y-82893733D01*
X80013541Y-82944710D01*
X79934130Y-83024121D01*
X79883153Y-83124170D01*
X79865586Y-83235085D01*
X79883153Y-83345999D01*
X79934130Y-83446048D01*
X79934131Y-83446049D01*
X79934133Y-83446052D01*
X79996611Y-83508530D01*
X80003640Y-83525500D01*
X79996611Y-83542471D01*
X79979640Y-83549500D01*
X79957636Y-83549500D01*
X79940665Y-83542471D01*
X79436363Y-83038168D01*
X79429334Y-83021197D01*
X79436363Y-83004226D01*
X79442439Y-82999813D01*
X79460962Y-82990375D01*
X79460962Y-82990374D01*
X79460967Y-82990372D01*
X79540372Y-82910967D01*
X79591352Y-82810912D01*
X79608919Y-82700000D01*
X79591352Y-82589088D01*
X79591351Y-82589086D01*
X79591351Y-82589085D01*
X79540374Y-82489036D01*
X79540373Y-82489035D01*
X79540372Y-82489033D01*
X79460967Y-82409628D01*
X79460964Y-82409626D01*
X79460963Y-82409625D01*
X79360914Y-82358648D01*
X79250000Y-82341081D01*
X79139085Y-82358648D01*
X79039036Y-82409625D01*
X78959625Y-82489036D01*
X78908648Y-82589085D01*
X78891081Y-82700000D01*
X78908648Y-82810914D01*
X78959625Y-82910963D01*
X78959626Y-82910964D01*
X78959628Y-82910967D01*
X79039033Y-82990372D01*
X79061396Y-83001766D01*
X79073325Y-83015733D01*
X79074500Y-83023150D01*
X79074500Y-83134909D01*
X79101216Y-83199410D01*
X79101217Y-83199411D01*
X79101218Y-83199413D01*
X79401806Y-83500000D01*
X79660335Y-83758529D01*
X79667364Y-83775500D01*
X79660335Y-83792471D01*
X79643364Y-83799500D01*
X73387000Y-83799500D01*
X73370029Y-83792471D01*
X73363000Y-83775500D01*
X73363000Y-83533689D01*
X73362999Y-83291362D01*
X73370028Y-83274392D01*
X73378612Y-83268876D01*
X73508461Y-83220445D01*
X73508465Y-83220443D01*
X73625401Y-83132905D01*
X73625405Y-83132901D01*
X73712943Y-83015965D01*
X73712945Y-83015961D01*
X73763995Y-82879091D01*
X73763996Y-82879086D01*
X73770500Y-82818592D01*
X73770500Y-82733581D01*
X76495500Y-82733581D01*
X76495500Y-82866419D01*
X76502202Y-82891431D01*
X76528162Y-82988317D01*
X76529881Y-82994730D01*
X76596300Y-83109770D01*
X76690230Y-83203700D01*
X76805270Y-83270119D01*
X76933581Y-83304500D01*
X76933582Y-83304500D01*
X77066418Y-83304500D01*
X77066419Y-83304500D01*
X77194730Y-83270119D01*
X77309770Y-83203700D01*
X77403700Y-83109770D01*
X77470119Y-82994730D01*
X77504500Y-82866419D01*
X77504500Y-82733581D01*
X77470119Y-82605270D01*
X77403700Y-82490230D01*
X77309770Y-82396300D01*
X77194730Y-82329881D01*
X77194729Y-82329880D01*
X77194728Y-82329880D01*
X77113383Y-82308084D01*
X77066419Y-82295500D01*
X76933581Y-82295500D01*
X76899201Y-82304712D01*
X76805271Y-82329880D01*
X76690230Y-82396300D01*
X76596300Y-82490230D01*
X76529880Y-82605271D01*
X76505388Y-82696679D01*
X76495500Y-82733581D01*
X73770500Y-82733581D01*
X73770500Y-82724001D01*
X73770499Y-82724000D01*
X71204501Y-82724000D01*
X71204500Y-82724001D01*
X71204500Y-82818583D01*
X71210884Y-82877970D01*
X71208405Y-82891431D01*
X71158648Y-82989087D01*
X71158647Y-82989088D01*
X71151753Y-83032615D01*
X71142156Y-83048277D01*
X71124294Y-83052564D01*
X71111080Y-83045832D01*
X71051283Y-82986035D01*
X71018437Y-82964088D01*
X70948176Y-82917141D01*
X70833620Y-82869692D01*
X70833613Y-82869689D01*
X70712004Y-82845500D01*
X70712000Y-82845500D01*
X70588000Y-82845500D01*
X70587995Y-82845500D01*
X70466386Y-82869689D01*
X70466379Y-82869692D01*
X70351823Y-82917141D01*
X70248719Y-82986033D01*
X70161033Y-83073719D01*
X70092141Y-83176823D01*
X70044692Y-83291379D01*
X70044689Y-83291386D01*
X70020500Y-83412995D01*
X70020500Y-83537004D01*
X70044689Y-83658613D01*
X70044692Y-83658620D01*
X70089300Y-83766316D01*
X70089300Y-83784685D01*
X70076311Y-83797673D01*
X70067127Y-83799500D01*
X69536020Y-83799500D01*
X69519049Y-83792471D01*
X69512020Y-83775500D01*
X69512157Y-83772935D01*
X69518000Y-83718583D01*
X69518000Y-83624001D01*
X69517999Y-83624000D01*
X68005000Y-83624000D01*
X67988029Y-83616971D01*
X67981000Y-83600000D01*
X67981000Y-83140000D01*
X67988029Y-83123029D01*
X68005000Y-83116000D01*
X69517999Y-83116000D01*
X69518000Y-83115999D01*
X69518000Y-83021407D01*
X69511496Y-82960913D01*
X69511495Y-82960908D01*
X69460445Y-82824038D01*
X69460443Y-82824034D01*
X69372905Y-82707098D01*
X69372901Y-82707094D01*
X69255965Y-82619556D01*
X69255961Y-82619554D01*
X69126112Y-82571122D01*
X69112668Y-82558605D01*
X69110499Y-82548635D01*
X69110499Y-82497637D01*
X69117528Y-82480666D01*
X69540666Y-82057529D01*
X69557637Y-82050500D01*
X69616607Y-82050500D01*
X69681111Y-82023782D01*
X69919015Y-81785878D01*
X69935986Y-81778849D01*
X69967569Y-81778849D01*
X69984538Y-81785877D01*
X69989033Y-81790372D01*
X69989035Y-81790373D01*
X69989036Y-81790374D01*
X70089085Y-81841351D01*
X70089086Y-81841351D01*
X70089088Y-81841352D01*
X70200000Y-81858919D01*
X70310912Y-81841352D01*
X70410967Y-81790372D01*
X70490372Y-81710967D01*
X70541352Y-81610912D01*
X70558919Y-81500000D01*
X71141081Y-81500000D01*
X71158648Y-81610914D01*
X71209625Y-81710963D01*
X71209626Y-81710964D01*
X71209628Y-81710967D01*
X71289033Y-81790372D01*
X71289035Y-81790373D01*
X71289037Y-81790375D01*
X71316532Y-81804384D01*
X71328462Y-81818351D01*
X71327021Y-81836663D01*
X71324850Y-81840150D01*
X71262056Y-81924034D01*
X71262054Y-81924037D01*
X71211004Y-82060908D01*
X71211003Y-82060913D01*
X71204500Y-82121407D01*
X71204500Y-82215999D01*
X71204501Y-82216000D01*
X73770499Y-82216000D01*
X73770500Y-82215999D01*
X73770500Y-82121407D01*
X73763996Y-82060913D01*
X73763995Y-82060908D01*
X73712945Y-81924038D01*
X73712943Y-81924034D01*
X73625405Y-81807098D01*
X73625401Y-81807094D01*
X73508465Y-81719556D01*
X73508461Y-81719554D01*
X73378612Y-81671123D01*
X73365168Y-81658606D01*
X73362999Y-81648639D01*
X73362999Y-81450000D01*
X76541081Y-81450000D01*
X76558648Y-81560914D01*
X76609625Y-81660963D01*
X76609626Y-81660964D01*
X76609628Y-81660967D01*
X76689033Y-81740372D01*
X76689035Y-81740373D01*
X76689036Y-81740374D01*
X76789085Y-81791351D01*
X76789086Y-81791351D01*
X76789088Y-81791352D01*
X76900000Y-81808919D01*
X77010912Y-81791352D01*
X77011413Y-81791097D01*
X77110963Y-81740374D01*
X77110962Y-81740374D01*
X77110967Y-81740372D01*
X77190372Y-81660967D01*
X77241352Y-81560912D01*
X77258919Y-81450000D01*
X77241352Y-81339088D01*
X77241351Y-81339086D01*
X77241351Y-81339085D01*
X77190374Y-81239036D01*
X77190373Y-81239035D01*
X77190372Y-81239033D01*
X77110967Y-81159628D01*
X77110964Y-81159626D01*
X77110963Y-81159625D01*
X77010914Y-81108648D01*
X76900000Y-81091081D01*
X76789085Y-81108648D01*
X76689036Y-81159625D01*
X76609625Y-81239036D01*
X76558648Y-81339085D01*
X76541081Y-81450000D01*
X73362999Y-81450000D01*
X73362999Y-81160102D01*
X73362680Y-81158500D01*
X73357428Y-81132088D01*
X73357169Y-81130787D01*
X73357168Y-81130786D01*
X73357167Y-81130782D01*
X73334960Y-81097547D01*
X73334959Y-81097546D01*
X73334957Y-81097543D01*
X73334953Y-81097540D01*
X73334952Y-81097539D01*
X73301717Y-81075332D01*
X73301712Y-81075330D01*
X73272399Y-81069500D01*
X71702601Y-81069500D01*
X71673288Y-81075330D01*
X71673282Y-81075332D01*
X71640047Y-81097539D01*
X71640039Y-81097547D01*
X71617831Y-81130783D01*
X71617829Y-81130790D01*
X71616747Y-81136229D01*
X71606541Y-81151501D01*
X71589455Y-81155249D01*
X71500000Y-81141081D01*
X71499999Y-81141081D01*
X71389085Y-81158648D01*
X71289036Y-81209625D01*
X71209625Y-81289036D01*
X71158648Y-81389085D01*
X71141081Y-81500000D01*
X70558919Y-81500000D01*
X70541352Y-81389088D01*
X70538943Y-81384361D01*
X70537502Y-81366051D01*
X70549431Y-81352082D01*
X70565010Y-81349927D01*
X70588000Y-81354500D01*
X70588004Y-81354500D01*
X70711996Y-81354500D01*
X70712000Y-81354500D01*
X70833618Y-81330309D01*
X70933260Y-81289036D01*
X70948176Y-81282858D01*
X70948177Y-81282857D01*
X70948180Y-81282856D01*
X71051283Y-81213965D01*
X71138965Y-81126283D01*
X71207856Y-81023180D01*
X71212917Y-81010963D01*
X71221999Y-80989036D01*
X71255309Y-80908618D01*
X71279500Y-80787000D01*
X71279500Y-80663000D01*
X71268883Y-80609625D01*
X71255310Y-80541386D01*
X71255309Y-80541385D01*
X71255309Y-80541382D01*
X71226111Y-80470891D01*
X71207858Y-80426823D01*
X71191948Y-80403012D01*
X71138965Y-80323717D01*
X71051283Y-80236035D01*
X71008619Y-80207528D01*
X70948176Y-80167141D01*
X70838603Y-80121756D01*
X70833618Y-80119691D01*
X70833617Y-80119690D01*
X70833615Y-80119690D01*
X70790256Y-80111065D01*
X70774983Y-80100859D01*
X70771400Y-80082843D01*
X70777967Y-80070558D01*
X70808225Y-80040301D01*
X70859205Y-79940246D01*
X70876772Y-79829334D01*
X70859205Y-79718422D01*
X70859204Y-79718420D01*
X70859204Y-79718419D01*
X70808227Y-79618370D01*
X70808226Y-79618369D01*
X70808225Y-79618367D01*
X70728820Y-79538962D01*
X70728817Y-79538960D01*
X70728816Y-79538959D01*
X70628767Y-79487982D01*
X70592120Y-79482177D01*
X70541999Y-79474239D01*
X70526338Y-79464642D01*
X70522049Y-79446781D01*
X70531647Y-79431119D01*
X70534858Y-79429151D01*
X70585675Y-79403259D01*
X70610967Y-79390372D01*
X70690372Y-79310967D01*
X70741352Y-79210912D01*
X70758919Y-79100000D01*
X70741352Y-78989088D01*
X70741351Y-78989086D01*
X70741351Y-78989085D01*
X70690374Y-78889036D01*
X70690373Y-78889035D01*
X70690372Y-78889033D01*
X70610967Y-78809628D01*
X70610964Y-78809626D01*
X70610963Y-78809625D01*
X70510914Y-78758648D01*
X70400000Y-78741081D01*
X70289085Y-78758648D01*
X70189036Y-78809625D01*
X70189033Y-78809627D01*
X70189033Y-78809628D01*
X70122946Y-78875714D01*
X70105977Y-78882743D01*
X70089006Y-78875714D01*
X70081977Y-78858743D01*
X70081977Y-78826514D01*
X70089006Y-78809543D01*
X70425854Y-78472695D01*
X70769976Y-78128574D01*
X70800500Y-78054882D01*
X70800500Y-78024500D01*
X70807529Y-78007529D01*
X70824500Y-78000500D01*
X71939882Y-78000500D01*
X72013574Y-77969976D01*
X72676020Y-77307528D01*
X72692991Y-77300500D01*
X73939882Y-77300500D01*
X74013574Y-77269976D01*
X74176290Y-77107258D01*
X74193260Y-77100230D01*
X74197011Y-77100525D01*
X74217010Y-77103693D01*
X74249997Y-77108919D01*
X74249998Y-77108919D01*
X74249999Y-77108918D01*
X74250000Y-77108919D01*
X74360912Y-77091352D01*
X74460967Y-77040372D01*
X74540372Y-76960967D01*
X74591352Y-76860912D01*
X74608919Y-76750000D01*
X74591352Y-76639088D01*
X74591351Y-76639086D01*
X74591351Y-76639085D01*
X74540374Y-76539036D01*
X74540373Y-76539035D01*
X74540372Y-76539033D01*
X74460967Y-76459628D01*
X74460964Y-76459626D01*
X74460963Y-76459625D01*
X74360914Y-76408648D01*
X74250000Y-76391081D01*
X74139085Y-76408648D01*
X74039036Y-76459625D01*
X73959625Y-76539036D01*
X73908648Y-76639085D01*
X73891081Y-76750000D01*
X73899473Y-76802985D01*
X73895184Y-76820846D01*
X73892739Y-76823709D01*
X73823980Y-76892470D01*
X73807009Y-76899500D01*
X72560116Y-76899500D01*
X72538533Y-76908439D01*
X72538533Y-76908440D01*
X72486426Y-76930024D01*
X72486424Y-76930025D01*
X72486422Y-76930027D01*
X72430023Y-76986425D01*
X72430024Y-76986426D01*
X71823979Y-77592471D01*
X71807008Y-77599500D01*
X70560117Y-77599500D01*
X70486428Y-77630022D01*
X70430022Y-77686428D01*
X70399500Y-77760117D01*
X70399500Y-77922007D01*
X70392471Y-77938978D01*
X70094629Y-78236819D01*
X70077658Y-78243848D01*
X70060687Y-78236819D01*
X70057703Y-78233182D01*
X70053937Y-78227546D01*
X70053935Y-78227543D01*
X70053931Y-78227540D01*
X70053930Y-78227539D01*
X70020695Y-78205332D01*
X70020690Y-78205330D01*
X69991381Y-78199500D01*
X69855019Y-78199500D01*
X69838048Y-78192471D01*
X69831019Y-78175500D01*
X69838048Y-78158529D01*
X69844123Y-78154116D01*
X69953216Y-78098530D01*
X69953215Y-78098530D01*
X69953220Y-78098528D01*
X70048528Y-78003220D01*
X70109719Y-77883126D01*
X70130804Y-77750000D01*
X70109719Y-77616874D01*
X70109718Y-77616872D01*
X70109718Y-77616871D01*
X70048530Y-77496783D01*
X70048529Y-77496782D01*
X70048528Y-77496780D01*
X69953220Y-77401472D01*
X69953217Y-77401470D01*
X69953216Y-77401469D01*
X69833128Y-77340281D01*
X69700000Y-77319196D01*
X69566872Y-77340281D01*
X69555395Y-77346129D01*
X69537082Y-77347569D01*
X69523115Y-77335639D01*
X69520500Y-77324744D01*
X69520500Y-77271407D01*
X69513996Y-77210913D01*
X69513995Y-77210908D01*
X69462945Y-77074038D01*
X69462943Y-77074034D01*
X69375405Y-76957098D01*
X69375401Y-76957094D01*
X69293456Y-76895750D01*
X69836831Y-76895750D01*
X69854398Y-77006664D01*
X69905375Y-77106713D01*
X69905376Y-77106714D01*
X69905378Y-77106717D01*
X69984783Y-77186122D01*
X69984785Y-77186123D01*
X69984786Y-77186124D01*
X70084835Y-77237101D01*
X70084836Y-77237101D01*
X70084838Y-77237102D01*
X70195750Y-77254669D01*
X70306662Y-77237102D01*
X70406717Y-77186122D01*
X70486122Y-77106717D01*
X70537102Y-77006662D01*
X70554669Y-76895750D01*
X70537102Y-76784838D01*
X70537101Y-76784836D01*
X70537101Y-76784835D01*
X70486124Y-76684786D01*
X70486123Y-76684785D01*
X70486122Y-76684783D01*
X70406717Y-76605378D01*
X70406714Y-76605376D01*
X70406713Y-76605375D01*
X70306664Y-76554398D01*
X70195750Y-76536831D01*
X70084835Y-76554398D01*
X69984786Y-76605375D01*
X69905375Y-76684786D01*
X69854398Y-76784835D01*
X69836831Y-76895750D01*
X69293456Y-76895750D01*
X69258465Y-76869556D01*
X69258461Y-76869554D01*
X69128612Y-76821123D01*
X69115168Y-76808606D01*
X69112999Y-76798639D01*
X69112999Y-76310102D01*
X69107169Y-76280787D01*
X69107168Y-76280786D01*
X69107167Y-76280782D01*
X69084960Y-76247547D01*
X69084959Y-76247546D01*
X69084957Y-76247543D01*
X69084953Y-76247540D01*
X69084952Y-76247539D01*
X69051717Y-76225332D01*
X69051712Y-76225330D01*
X69022399Y-76219500D01*
X67452601Y-76219500D01*
X67423288Y-76225330D01*
X67423282Y-76225332D01*
X67390047Y-76247539D01*
X67390039Y-76247547D01*
X67367832Y-76280782D01*
X67367830Y-76280787D01*
X67362000Y-76310096D01*
X67362000Y-76762362D01*
X67354971Y-76779333D01*
X67354970Y-76779333D01*
X67297118Y-76837184D01*
X67288535Y-76842700D01*
X67232887Y-76863456D01*
X67214530Y-76862800D01*
X67202013Y-76849356D01*
X67200500Y-76840969D01*
X67200500Y-75414060D01*
X67205947Y-75398836D01*
X67291396Y-75294716D01*
X67294716Y-75291396D01*
X67327724Y-75264307D01*
X67345300Y-75258976D01*
X67361500Y-75267635D01*
X67366832Y-75285212D01*
X67366487Y-75287542D01*
X67362000Y-75310096D01*
X67362000Y-75929898D01*
X67367830Y-75959211D01*
X67367831Y-75959214D01*
X67390039Y-75992452D01*
X67390040Y-75992453D01*
X67390043Y-75992457D01*
X67390046Y-75992459D01*
X67390047Y-75992460D01*
X67423282Y-76014667D01*
X67423287Y-76014669D01*
X67452601Y-76020500D01*
X69022398Y-76020499D01*
X69051713Y-76014669D01*
X69051714Y-76014667D01*
X69051717Y-76014667D01*
X69082477Y-75994114D01*
X69084957Y-75992457D01*
X69098736Y-75971835D01*
X69107169Y-75959214D01*
X69107169Y-75959212D01*
X69107227Y-75958919D01*
X69113000Y-75929899D01*
X69113000Y-75900000D01*
X69241081Y-75900000D01*
X69258648Y-76010914D01*
X69309625Y-76110963D01*
X69309626Y-76110964D01*
X69309628Y-76110967D01*
X69389033Y-76190372D01*
X69389035Y-76190373D01*
X69389036Y-76190374D01*
X69489085Y-76241351D01*
X69489086Y-76241351D01*
X69489088Y-76241352D01*
X69600000Y-76258919D01*
X69710912Y-76241352D01*
X69810967Y-76190372D01*
X69890372Y-76110967D01*
X69941352Y-76010912D01*
X69958919Y-75900000D01*
X69941352Y-75789088D01*
X69941351Y-75789086D01*
X69941351Y-75789085D01*
X69890374Y-75689036D01*
X69890373Y-75689035D01*
X69890372Y-75689033D01*
X69810967Y-75609628D01*
X69810964Y-75609626D01*
X69810963Y-75609625D01*
X69710914Y-75558648D01*
X69600000Y-75541081D01*
X69489085Y-75558648D01*
X69389036Y-75609625D01*
X69309625Y-75689036D01*
X69258648Y-75789085D01*
X69241081Y-75900000D01*
X69113000Y-75900000D01*
X69112999Y-75310102D01*
X69107169Y-75280787D01*
X69107168Y-75280786D01*
X69107167Y-75280782D01*
X69084960Y-75247547D01*
X69084959Y-75247546D01*
X69084957Y-75247543D01*
X69080335Y-75244455D01*
X69070130Y-75229183D01*
X69073713Y-75211167D01*
X69088986Y-75200961D01*
X69093669Y-75200500D01*
X76104866Y-75200500D01*
X76121837Y-75207529D01*
G37*
%TD.AperFunction*%
%TA.AperFunction,Conductor*%
G36*
X101192914Y-81786530D02*
G01*
X101194805Y-81791097D01*
X101199944Y-81796236D01*
X103515942Y-81796236D01*
X103521080Y-81791097D01*
X103522972Y-81786530D01*
X103539943Y-81779501D01*
X103821364Y-81779501D01*
X103838335Y-81786530D01*
X104550587Y-82498782D01*
X104550588Y-82498782D01*
X104550589Y-82498783D01*
X104615090Y-82525500D01*
X104615091Y-82525500D01*
X104684909Y-82525500D01*
X105614219Y-82525500D01*
X105631189Y-82532529D01*
X105639033Y-82540372D01*
X105739085Y-82591351D01*
X105739086Y-82591351D01*
X105739088Y-82591352D01*
X105850000Y-82608919D01*
X105960912Y-82591352D01*
X106060967Y-82540372D01*
X106122149Y-82479189D01*
X106139119Y-82472161D01*
X106156090Y-82479190D01*
X106163119Y-82496161D01*
X106163119Y-82959287D01*
X106156090Y-82976258D01*
X106139119Y-82983287D01*
X106122148Y-82976258D01*
X105988151Y-82842261D01*
X105847108Y-82701218D01*
X105847106Y-82701217D01*
X105847105Y-82701216D01*
X105782605Y-82674500D01*
X105782604Y-82674500D01*
X104229338Y-82674500D01*
X104212367Y-82667471D01*
X104205634Y-82654255D01*
X104191352Y-82564088D01*
X104191352Y-82564087D01*
X104140374Y-82464036D01*
X104140373Y-82464035D01*
X104140372Y-82464033D01*
X104060967Y-82384628D01*
X104060964Y-82384626D01*
X104060963Y-82384625D01*
X103960914Y-82333648D01*
X103850000Y-82316081D01*
X103739085Y-82333648D01*
X103639036Y-82384625D01*
X103559625Y-82464036D01*
X103508648Y-82564085D01*
X103491081Y-82675000D01*
X103508648Y-82785914D01*
X103559625Y-82885963D01*
X103559626Y-82885964D01*
X103559628Y-82885967D01*
X103639033Y-82965372D01*
X103639035Y-82965373D01*
X103639036Y-82965374D01*
X103739085Y-83016351D01*
X103739086Y-83016351D01*
X103739088Y-83016352D01*
X103850000Y-83033919D01*
X103850001Y-83033918D01*
X103850002Y-83033919D01*
X103850003Y-83033919D01*
X103930322Y-83021197D01*
X103959358Y-83016598D01*
X103972295Y-83018128D01*
X103990091Y-83025500D01*
X104059909Y-83025500D01*
X105665058Y-83025500D01*
X105682028Y-83032529D01*
X105813354Y-83163854D01*
X105820384Y-83180825D01*
X105813355Y-83197795D01*
X105796384Y-83204825D01*
X105792631Y-83204530D01*
X105781301Y-83202736D01*
X105670386Y-83220303D01*
X105570337Y-83271280D01*
X105490926Y-83350691D01*
X105439949Y-83450740D01*
X105422382Y-83561655D01*
X105439949Y-83672569D01*
X105486843Y-83764604D01*
X105488284Y-83782917D01*
X105476355Y-83796884D01*
X105465459Y-83799500D01*
X102409479Y-83799500D01*
X102392508Y-83792471D01*
X102385479Y-83775500D01*
X102389634Y-83762711D01*
X102389515Y-83762650D01*
X102389901Y-83761892D01*
X102390064Y-83761391D01*
X102390373Y-83760965D01*
X102441351Y-83660914D01*
X102441351Y-83660913D01*
X102441352Y-83660912D01*
X102458919Y-83550000D01*
X102441352Y-83439088D01*
X102441351Y-83439086D01*
X102441351Y-83439085D01*
X102390374Y-83339036D01*
X102390373Y-83339035D01*
X102390372Y-83339033D01*
X102310967Y-83259628D01*
X102310964Y-83259626D01*
X102310962Y-83259624D01*
X102310388Y-83259207D01*
X102310139Y-83258801D01*
X102309631Y-83258293D01*
X102309753Y-83258170D01*
X102300795Y-83243542D01*
X102300500Y-83239794D01*
X102300500Y-83142170D01*
X102307529Y-83125199D01*
X102308964Y-83123764D01*
X102325935Y-83116735D01*
X103017842Y-83116735D01*
X103027612Y-83114791D01*
X103047156Y-83110905D01*
X103047157Y-83110903D01*
X103047160Y-83110903D01*
X103069219Y-83096163D01*
X103080400Y-83088693D01*
X103096877Y-83064033D01*
X103102610Y-83055453D01*
X103102612Y-83055448D01*
X103103186Y-83052564D01*
X103108443Y-83026135D01*
X103108442Y-82767597D01*
X103115471Y-82750629D01*
X103124055Y-82745112D01*
X103253904Y-82696681D01*
X103253908Y-82696679D01*
X103370844Y-82609141D01*
X103370848Y-82609137D01*
X103458386Y-82492201D01*
X103458388Y-82492197D01*
X103509438Y-82355327D01*
X103509439Y-82355322D01*
X103515943Y-82294828D01*
X103515943Y-82246237D01*
X103515942Y-82246236D01*
X101199944Y-82246236D01*
X101199943Y-82246237D01*
X101199943Y-82294828D01*
X101206446Y-82355322D01*
X101206447Y-82355327D01*
X101257497Y-82492197D01*
X101257499Y-82492201D01*
X101345037Y-82609137D01*
X101345041Y-82609141D01*
X101461977Y-82696679D01*
X101461981Y-82696681D01*
X101591830Y-82745112D01*
X101605274Y-82757629D01*
X101607443Y-82767599D01*
X101607443Y-83026134D01*
X101613273Y-83055447D01*
X101613275Y-83055453D01*
X101635482Y-83088688D01*
X101635483Y-83088689D01*
X101635486Y-83088693D01*
X101635489Y-83088695D01*
X101635490Y-83088696D01*
X101668725Y-83110903D01*
X101668730Y-83110905D01*
X101698044Y-83116736D01*
X101875500Y-83116735D01*
X101892470Y-83123764D01*
X101899500Y-83140735D01*
X101899500Y-83239794D01*
X101892471Y-83256765D01*
X101889612Y-83259207D01*
X101889037Y-83259624D01*
X101809625Y-83339036D01*
X101758648Y-83439085D01*
X101741081Y-83550000D01*
X101758648Y-83660914D01*
X101809626Y-83760965D01*
X101809936Y-83761391D01*
X101810018Y-83761734D01*
X101810485Y-83762650D01*
X101810265Y-83762761D01*
X101814226Y-83779252D01*
X101804630Y-83794915D01*
X101790521Y-83799500D01*
X98659780Y-83799500D01*
X98642809Y-83792471D01*
X98635780Y-83775500D01*
X98642808Y-83758530D01*
X98690372Y-83710967D01*
X98741352Y-83610912D01*
X98758919Y-83500000D01*
X98748871Y-83436563D01*
X98753160Y-83418703D01*
X98768821Y-83409105D01*
X98786683Y-83413394D01*
X98789540Y-83415833D01*
X98791284Y-83417577D01*
X98791286Y-83417578D01*
X98791287Y-83417579D01*
X98891336Y-83468556D01*
X98891337Y-83468556D01*
X98891339Y-83468557D01*
X99002251Y-83486124D01*
X99113163Y-83468557D01*
X99213218Y-83417577D01*
X99292623Y-83338172D01*
X99295499Y-83332529D01*
X99318097Y-83288175D01*
X99332064Y-83276245D01*
X99350376Y-83277686D01*
X99358892Y-83284956D01*
X99359622Y-83285960D01*
X99359626Y-83285964D01*
X99359628Y-83285967D01*
X99439033Y-83365372D01*
X99439035Y-83365373D01*
X99439036Y-83365374D01*
X99539085Y-83416351D01*
X99539086Y-83416351D01*
X99539088Y-83416352D01*
X99650000Y-83433919D01*
X99760912Y-83416352D01*
X99860967Y-83365372D01*
X99940372Y-83285967D01*
X99945960Y-83275000D01*
X100741081Y-83275000D01*
X100758648Y-83385914D01*
X100809625Y-83485963D01*
X100809626Y-83485964D01*
X100809628Y-83485967D01*
X100889033Y-83565372D01*
X100889035Y-83565373D01*
X100889036Y-83565374D01*
X100989085Y-83616351D01*
X100989086Y-83616351D01*
X100989088Y-83616352D01*
X101100000Y-83633919D01*
X101210912Y-83616352D01*
X101310967Y-83565372D01*
X101390372Y-83485967D01*
X101441352Y-83385912D01*
X101458919Y-83275000D01*
X101441352Y-83164088D01*
X101441351Y-83164086D01*
X101441351Y-83164085D01*
X101390374Y-83064036D01*
X101390373Y-83064035D01*
X101390372Y-83064033D01*
X101310967Y-82984628D01*
X101310964Y-82984626D01*
X101310963Y-82984625D01*
X101210914Y-82933648D01*
X101100000Y-82916081D01*
X100989085Y-82933648D01*
X100889036Y-82984625D01*
X100809625Y-83064036D01*
X100758648Y-83164085D01*
X100741081Y-83275000D01*
X99945960Y-83275000D01*
X99991352Y-83185912D01*
X100008919Y-83075000D01*
X99991352Y-82964088D01*
X99991351Y-82964086D01*
X99991351Y-82964085D01*
X99940374Y-82864036D01*
X99940373Y-82864035D01*
X99940372Y-82864033D01*
X99860967Y-82784628D01*
X99860964Y-82784626D01*
X99860963Y-82784625D01*
X99760914Y-82733648D01*
X99686970Y-82721936D01*
X99650000Y-82716081D01*
X99649999Y-82716081D01*
X99566493Y-82729307D01*
X99548632Y-82725018D01*
X99545768Y-82722573D01*
X99287228Y-82464033D01*
X99024413Y-82201218D01*
X99024411Y-82201217D01*
X99024410Y-82201216D01*
X98959910Y-82174500D01*
X98959909Y-82174500D01*
X96715091Y-82174500D01*
X96715090Y-82174500D01*
X96650588Y-82201216D01*
X96601217Y-82250586D01*
X96601218Y-82250587D01*
X96129834Y-82721971D01*
X96112863Y-82729000D01*
X94777137Y-82729000D01*
X94760166Y-82721971D01*
X94753137Y-82705000D01*
X94760166Y-82688029D01*
X94907823Y-82540372D01*
X95356331Y-82091862D01*
X95373301Y-82084834D01*
X95390272Y-82091863D01*
X95397301Y-82108834D01*
X95397006Y-82112588D01*
X95391441Y-82147729D01*
X95391081Y-82150000D01*
X95396240Y-82182574D01*
X95408648Y-82260914D01*
X95459625Y-82360963D01*
X95459626Y-82360964D01*
X95459628Y-82360967D01*
X95539033Y-82440372D01*
X95539035Y-82440373D01*
X95539036Y-82440374D01*
X95639085Y-82491351D01*
X95639086Y-82491351D01*
X95639088Y-82491352D01*
X95750000Y-82508919D01*
X95860912Y-82491352D01*
X95960967Y-82440372D01*
X96040372Y-82360967D01*
X96091352Y-82260912D01*
X96108919Y-82150000D01*
X96108559Y-82147729D01*
X96096847Y-82073782D01*
X96095692Y-82066492D01*
X96099979Y-82048631D01*
X96102426Y-82045767D01*
X96361665Y-81786530D01*
X96378635Y-81779501D01*
X101175943Y-81779501D01*
X101192914Y-81786530D01*
G37*
%TD.AperFunction*%
%TA.AperFunction,Conductor*%
G36*
X130275632Y-81582529D02*
G01*
X130282661Y-81599500D01*
X130275632Y-81616471D01*
X130238862Y-81653240D01*
X130134566Y-81809328D01*
X130062731Y-81982757D01*
X130062728Y-81982764D01*
X130026107Y-82166873D01*
X130026107Y-82336739D01*
X130026108Y-82336740D01*
X130729107Y-82336740D01*
X130729107Y-82844740D01*
X130026108Y-82844740D01*
X130026107Y-82844741D01*
X130026107Y-83014606D01*
X130062728Y-83198715D01*
X130062731Y-83198722D01*
X130134566Y-83372151D01*
X130238862Y-83528239D01*
X130371607Y-83660984D01*
X130513126Y-83755545D01*
X130523331Y-83770818D01*
X130519747Y-83788834D01*
X130504474Y-83799039D01*
X130499792Y-83799500D01*
X124458422Y-83799500D01*
X124441451Y-83792471D01*
X124434422Y-83775500D01*
X124441451Y-83758529D01*
X124445088Y-83755545D01*
X124586606Y-83660984D01*
X124719351Y-83528239D01*
X124823645Y-83372152D01*
X124855478Y-83295299D01*
X124860674Y-83287520D01*
X126565665Y-81582528D01*
X126582636Y-81575500D01*
X130258661Y-81575500D01*
X130275632Y-81582529D01*
G37*
%TD.AperFunction*%
%TA.AperFunction,Conductor*%
G36*
X126285335Y-81332529D02*
G01*
X126292364Y-81349500D01*
X126285335Y-81366471D01*
X124814094Y-82837711D01*
X124797123Y-82844740D01*
X124229107Y-82844740D01*
X124229107Y-82216012D01*
X124191047Y-82124126D01*
X124120721Y-82053800D01*
X124028835Y-82015740D01*
X123929379Y-82015740D01*
X123837493Y-82053800D01*
X123767167Y-82124126D01*
X123729107Y-82216012D01*
X123729107Y-82844740D01*
X123026108Y-82844740D01*
X123026107Y-82844741D01*
X123026107Y-83014606D01*
X123062728Y-83198715D01*
X123062731Y-83198722D01*
X123098449Y-83284955D01*
X123098449Y-83303324D01*
X123085460Y-83316312D01*
X123067091Y-83316312D01*
X123059305Y-83311110D01*
X122614612Y-82866417D01*
X122168151Y-82419956D01*
X122168149Y-82419955D01*
X122168148Y-82419954D01*
X122103648Y-82393238D01*
X122103647Y-82393238D01*
X114027065Y-82393238D01*
X114010094Y-82386209D01*
X114003065Y-82369238D01*
X114010094Y-82352267D01*
X114536928Y-81825433D01*
X114553899Y-81818404D01*
X123094890Y-81818404D01*
X123111861Y-81825433D01*
X123118890Y-81842404D01*
X123117063Y-81851588D01*
X123062730Y-81982757D01*
X123062728Y-81982764D01*
X123026107Y-82166873D01*
X123026107Y-82336739D01*
X123026108Y-82336740D01*
X123725106Y-82336740D01*
X123725107Y-82336739D01*
X123725107Y-81840240D01*
X123732136Y-81823269D01*
X123749107Y-81816240D01*
X124209107Y-81816240D01*
X124226078Y-81823269D01*
X124233107Y-81840240D01*
X124233107Y-82336739D01*
X124233108Y-82336740D01*
X124932106Y-82336740D01*
X124932107Y-82336739D01*
X124932107Y-82166881D01*
X124932106Y-82166873D01*
X124895485Y-81982764D01*
X124895482Y-81982757D01*
X124829900Y-81824424D01*
X124829900Y-81806055D01*
X124842889Y-81793067D01*
X124852073Y-81791240D01*
X125569169Y-81791240D01*
X125633673Y-81764522D01*
X126065666Y-81332529D01*
X126082637Y-81325500D01*
X126268364Y-81325500D01*
X126285335Y-81332529D01*
G37*
%TD.AperFunction*%
%TA.AperFunction,Conductor*%
G36*
X109169972Y-75582529D02*
G01*
X109462152Y-75874708D01*
X109462155Y-75874712D01*
X109463522Y-75876079D01*
X109463523Y-75876080D01*
X111425173Y-77837730D01*
X111432202Y-77854700D01*
X111432202Y-79387199D01*
X111462724Y-79460888D01*
X111462725Y-79460889D01*
X111462726Y-79460891D01*
X111879268Y-79877433D01*
X111886297Y-79894403D01*
X111879268Y-79911374D01*
X111862297Y-79918403D01*
X111858546Y-79918108D01*
X111728727Y-79897547D01*
X111595598Y-79918632D01*
X111475510Y-79979820D01*
X111380196Y-80075134D01*
X111319008Y-80195222D01*
X111297923Y-80328351D01*
X111319008Y-80461479D01*
X111363795Y-80549378D01*
X111365236Y-80567690D01*
X111353307Y-80581658D01*
X111334995Y-80583099D01*
X111325440Y-80577245D01*
X110643636Y-79895441D01*
X110636607Y-79878470D01*
X110638433Y-79869287D01*
X110685044Y-79756762D01*
X110705682Y-79600000D01*
X110685044Y-79443238D01*
X110684321Y-79441493D01*
X110624538Y-79297164D01*
X110624535Y-79297158D01*
X110617202Y-79287601D01*
X110528282Y-79171718D01*
X110402841Y-79075464D01*
X110402835Y-79075461D01*
X110256767Y-79014957D01*
X110256763Y-79014956D01*
X110100000Y-78994318D01*
X109943236Y-79014956D01*
X109943232Y-79014957D01*
X109797164Y-79075461D01*
X109797158Y-79075464D01*
X109671720Y-79171716D01*
X109671716Y-79171720D01*
X109575464Y-79297158D01*
X109575461Y-79297164D01*
X109514957Y-79443232D01*
X109514956Y-79443236D01*
X109494318Y-79600000D01*
X109514956Y-79756763D01*
X109514957Y-79756767D01*
X109575461Y-79902835D01*
X109575464Y-79902841D01*
X109671718Y-80028282D01*
X109797159Y-80124536D01*
X109797164Y-80124538D01*
X109943232Y-80185042D01*
X109943234Y-80185042D01*
X109943238Y-80185044D01*
X110100000Y-80205682D01*
X110256762Y-80185044D01*
X110369286Y-80138434D01*
X110387654Y-80138434D01*
X110395441Y-80143636D01*
X111198662Y-80946857D01*
X111205691Y-80963828D01*
X111198662Y-80980799D01*
X111181691Y-80987828D01*
X110374006Y-80987828D01*
X110357035Y-80980799D01*
X110350006Y-80963828D01*
X110352622Y-80952932D01*
X110398025Y-80863821D01*
X110398025Y-80863820D01*
X110398026Y-80863819D01*
X110415593Y-80752907D01*
X110398026Y-80641995D01*
X110398025Y-80641993D01*
X110398025Y-80641992D01*
X110347048Y-80541943D01*
X110347047Y-80541942D01*
X110347046Y-80541940D01*
X110267641Y-80462535D01*
X110267638Y-80462533D01*
X110267637Y-80462532D01*
X110167588Y-80411555D01*
X110056674Y-80393988D01*
X109945759Y-80411555D01*
X109845710Y-80462532D01*
X109766299Y-80541943D01*
X109715322Y-80641992D01*
X109697755Y-80752907D01*
X109715322Y-80863821D01*
X109726158Y-80885087D01*
X109727599Y-80903400D01*
X109715670Y-80917367D01*
X109697357Y-80918808D01*
X109693878Y-80917367D01*
X109672612Y-80906531D01*
X109561698Y-80888964D01*
X109450783Y-80906531D01*
X109350734Y-80957508D01*
X109271323Y-81036919D01*
X109220346Y-81136968D01*
X109202779Y-81247883D01*
X109220346Y-81358797D01*
X109271323Y-81458846D01*
X109271324Y-81458847D01*
X109271326Y-81458850D01*
X109350731Y-81538255D01*
X109350733Y-81538256D01*
X109350734Y-81538257D01*
X109450783Y-81589234D01*
X109450784Y-81589234D01*
X109450786Y-81589235D01*
X109561698Y-81606802D01*
X109672610Y-81589235D01*
X109762420Y-81543474D01*
X109780731Y-81542034D01*
X109790286Y-81547888D01*
X110001202Y-81758804D01*
X110001203Y-81758804D01*
X110001204Y-81758805D01*
X110074893Y-81789328D01*
X110074894Y-81789328D01*
X110154658Y-81789328D01*
X110210603Y-81766155D01*
X110219787Y-81764328D01*
X113424849Y-81764328D01*
X113434033Y-81766155D01*
X113489977Y-81789328D01*
X113489978Y-81789328D01*
X113569742Y-81789328D01*
X113643434Y-81758804D01*
X114150226Y-81252012D01*
X114167197Y-81244983D01*
X125598879Y-81244983D01*
X125615850Y-81252012D01*
X125622879Y-81268983D01*
X125615850Y-81285954D01*
X125468594Y-81433211D01*
X125451623Y-81440240D01*
X124473777Y-81440240D01*
X124460443Y-81436195D01*
X124430518Y-81416199D01*
X124257089Y-81344364D01*
X124257082Y-81344362D01*
X124233107Y-81339593D01*
X124233107Y-81391240D01*
X124226078Y-81408211D01*
X124209107Y-81415240D01*
X123749107Y-81415240D01*
X123732136Y-81408211D01*
X123725107Y-81391240D01*
X123725107Y-81339593D01*
X123701131Y-81344362D01*
X123701124Y-81344363D01*
X123529200Y-81415577D01*
X123520016Y-81417404D01*
X114421024Y-81417404D01*
X114347335Y-81447926D01*
X113555685Y-82239576D01*
X113538714Y-82246605D01*
X113457486Y-82246605D01*
X113383797Y-82277127D01*
X112679175Y-82981749D01*
X112662204Y-82988778D01*
X112289429Y-82988778D01*
X112284749Y-82988317D01*
X112284553Y-82988278D01*
X112284550Y-82988278D01*
X111354762Y-82988278D01*
X111337792Y-82981249D01*
X111332913Y-82976370D01*
X111332911Y-82976369D01*
X111332910Y-82976368D01*
X111259222Y-82945846D01*
X111259221Y-82945846D01*
X106538119Y-82945846D01*
X106521148Y-82938817D01*
X106514119Y-82921846D01*
X106514119Y-82815657D01*
X106521148Y-82798686D01*
X106538119Y-82791657D01*
X106555088Y-82798685D01*
X106556652Y-82800249D01*
X106556654Y-82800250D01*
X106556655Y-82800251D01*
X106656704Y-82851228D01*
X106656705Y-82851228D01*
X106656707Y-82851229D01*
X106767619Y-82868796D01*
X106878531Y-82851229D01*
X106978586Y-82800249D01*
X107021751Y-82757084D01*
X107036430Y-82742406D01*
X107053400Y-82735377D01*
X109184247Y-82735377D01*
X109201217Y-82742406D01*
X109243746Y-82784934D01*
X109243745Y-82784934D01*
X109356780Y-82842528D01*
X109356781Y-82842528D01*
X109356783Y-82842529D01*
X109482087Y-82862375D01*
X109607391Y-82842529D01*
X109720429Y-82784933D01*
X109810137Y-82695225D01*
X109864653Y-82588229D01*
X109869062Y-82582162D01*
X109892976Y-82558249D01*
X109943956Y-82458194D01*
X109961523Y-82347282D01*
X109943956Y-82236370D01*
X109943955Y-82236368D01*
X109943955Y-82236367D01*
X109892978Y-82136318D01*
X109892977Y-82136317D01*
X109892976Y-82136315D01*
X109813571Y-82056910D01*
X109813568Y-82056908D01*
X109813567Y-82056907D01*
X109713518Y-82005930D01*
X109602604Y-81988363D01*
X109491689Y-82005930D01*
X109391637Y-82056909D01*
X109391635Y-82056911D01*
X109386683Y-82061862D01*
X109373470Y-82068593D01*
X109356783Y-82071236D01*
X109356782Y-82071236D01*
X109243748Y-82128830D01*
X109154034Y-82218544D01*
X109127169Y-82271273D01*
X109113202Y-82283202D01*
X109105785Y-82284377D01*
X107053400Y-82284377D01*
X107036430Y-82277348D01*
X106978584Y-82219503D01*
X106878531Y-82168524D01*
X106814499Y-82158382D01*
X106798837Y-82148785D01*
X106794550Y-82130923D01*
X106801282Y-82117709D01*
X106881035Y-82037958D01*
X106907754Y-81973454D01*
X106907754Y-81903636D01*
X106907754Y-81901708D01*
X106907753Y-81901694D01*
X106907753Y-81609124D01*
X106914782Y-81592153D01*
X106931753Y-81585124D01*
X106948724Y-81592153D01*
X106953137Y-81598229D01*
X106959624Y-81610962D01*
X106959626Y-81610964D01*
X106959628Y-81610967D01*
X107039033Y-81690372D01*
X107039035Y-81690373D01*
X107039036Y-81690374D01*
X107139085Y-81741351D01*
X107139086Y-81741351D01*
X107139088Y-81741352D01*
X107250000Y-81758919D01*
X107360912Y-81741352D01*
X107460967Y-81690372D01*
X107540372Y-81610967D01*
X107579502Y-81534170D01*
X107591351Y-81510914D01*
X107591351Y-81510913D01*
X107591352Y-81510912D01*
X107608919Y-81400000D01*
X107591352Y-81289088D01*
X107591351Y-81289086D01*
X107591351Y-81289085D01*
X107540374Y-81189036D01*
X107540373Y-81189035D01*
X107540372Y-81189033D01*
X107460967Y-81109628D01*
X107438604Y-81098233D01*
X107426674Y-81084265D01*
X107425500Y-81076849D01*
X107425500Y-80017458D01*
X107432529Y-80000487D01*
X107445743Y-79993754D01*
X107460912Y-79991352D01*
X107560967Y-79940372D01*
X107640372Y-79860967D01*
X107691352Y-79760912D01*
X107708919Y-79650000D01*
X107707932Y-79643769D01*
X107697233Y-79576218D01*
X107692521Y-79546470D01*
X107696808Y-79528609D01*
X107712470Y-79519012D01*
X107730332Y-79523299D01*
X107733196Y-79525745D01*
X108060225Y-79852774D01*
X108067254Y-79869745D01*
X108067254Y-81527189D01*
X108060225Y-81544159D01*
X107991694Y-81612690D01*
X107940716Y-81712741D01*
X107923149Y-81823656D01*
X107940716Y-81934570D01*
X107991693Y-82034619D01*
X107991694Y-82034620D01*
X107991696Y-82034623D01*
X108071101Y-82114028D01*
X108071103Y-82114029D01*
X108071104Y-82114030D01*
X108171153Y-82165007D01*
X108171154Y-82165007D01*
X108171156Y-82165008D01*
X108282068Y-82182575D01*
X108392980Y-82165008D01*
X108493035Y-82114028D01*
X108572440Y-82034623D01*
X108623420Y-81934568D01*
X108640987Y-81823656D01*
X108623420Y-81712744D01*
X108623419Y-81712742D01*
X108623419Y-81712741D01*
X108571583Y-81611006D01*
X108572036Y-81610775D01*
X108568254Y-81599128D01*
X108568254Y-79706212D01*
X108530119Y-79614146D01*
X108459651Y-79543677D01*
X108459651Y-79543678D01*
X107556257Y-78640284D01*
X107549228Y-78623313D01*
X107549524Y-78619558D01*
X107549622Y-78618943D01*
X107556740Y-78574001D01*
X107562278Y-78539041D01*
X107562278Y-78539039D01*
X107544711Y-78428127D01*
X107544710Y-78428125D01*
X107544710Y-78428124D01*
X107493733Y-78328075D01*
X107493732Y-78328074D01*
X107493731Y-78328072D01*
X107414326Y-78248667D01*
X107414323Y-78248665D01*
X107414322Y-78248664D01*
X107314273Y-78197687D01*
X107203359Y-78180120D01*
X107092444Y-78197687D01*
X106992393Y-78248665D01*
X106948776Y-78292282D01*
X106931806Y-78299311D01*
X106914836Y-78292282D01*
X106776458Y-78153904D01*
X106769429Y-78136933D01*
X106769429Y-78106240D01*
X106776458Y-78089269D01*
X106793429Y-78082240D01*
X106810398Y-78089268D01*
X106811962Y-78090832D01*
X106811964Y-78090833D01*
X106811965Y-78090834D01*
X106912014Y-78141811D01*
X106912015Y-78141811D01*
X106912017Y-78141812D01*
X107022929Y-78159379D01*
X107133841Y-78141812D01*
X107142534Y-78137383D01*
X107233892Y-78090834D01*
X107233891Y-78090834D01*
X107233896Y-78090832D01*
X107313301Y-78011427D01*
X107364281Y-77911372D01*
X107381505Y-77802624D01*
X107388236Y-77789412D01*
X108294072Y-76883576D01*
X108294074Y-76883576D01*
X108364541Y-76813109D01*
X108388600Y-76755026D01*
X108402677Y-76721041D01*
X108402677Y-76538350D01*
X108405293Y-76527454D01*
X108411593Y-76515091D01*
X108445092Y-76449344D01*
X108462659Y-76338432D01*
X108445092Y-76227520D01*
X108445091Y-76227518D01*
X108445091Y-76227517D01*
X108394114Y-76127468D01*
X108394113Y-76127467D01*
X108394112Y-76127465D01*
X108314707Y-76048060D01*
X108314704Y-76048058D01*
X108314703Y-76048057D01*
X108214654Y-75997080D01*
X108103740Y-75979513D01*
X107992825Y-75997080D01*
X107892776Y-76048057D01*
X107813365Y-76127468D01*
X107762388Y-76227517D01*
X107744821Y-76338432D01*
X107762388Y-76449346D01*
X107813365Y-76549395D01*
X107813366Y-76549396D01*
X107813368Y-76549399D01*
X107849577Y-76585608D01*
X107856606Y-76602578D01*
X107849577Y-76619549D01*
X107033976Y-77435150D01*
X107020760Y-77441883D01*
X106912017Y-77459107D01*
X106912016Y-77459108D01*
X106810397Y-77510884D01*
X106792084Y-77512325D01*
X106778117Y-77500396D01*
X106775501Y-77489500D01*
X106775501Y-77465090D01*
X106767298Y-77445287D01*
X106748782Y-77400587D01*
X106732452Y-77384257D01*
X106725424Y-77367288D01*
X106732453Y-77350317D01*
X106749424Y-77343288D01*
X106753168Y-77343582D01*
X106850000Y-77358919D01*
X106960912Y-77341352D01*
X107060967Y-77290372D01*
X107140372Y-77210967D01*
X107191352Y-77110912D01*
X107208919Y-77000000D01*
X107191352Y-76889088D01*
X107191351Y-76889086D01*
X107191351Y-76889085D01*
X107140374Y-76789036D01*
X107140373Y-76789035D01*
X107140372Y-76789033D01*
X107060967Y-76709628D01*
X107060964Y-76709626D01*
X107060963Y-76709625D01*
X106960914Y-76658648D01*
X106897655Y-76648629D01*
X106850000Y-76641081D01*
X106849998Y-76641081D01*
X106841204Y-76642473D01*
X106823343Y-76638183D01*
X106813747Y-76622520D01*
X106815278Y-76609584D01*
X106825500Y-76584909D01*
X106825500Y-76515091D01*
X106825500Y-76215091D01*
X106825500Y-76215090D01*
X106798783Y-76150588D01*
X106749413Y-76101217D01*
X106749413Y-76101218D01*
X106691977Y-76043782D01*
X106691970Y-76043776D01*
X106264666Y-75616471D01*
X106257637Y-75599500D01*
X106264666Y-75582529D01*
X106281637Y-75575500D01*
X109153001Y-75575500D01*
X109169972Y-75582529D01*
G37*
%TD.AperFunction*%
%TA.AperFunction,Conductor*%
G36*
X141888144Y-81329720D02*
G01*
X141895173Y-81346691D01*
X141888144Y-81363660D01*
X141335867Y-81915938D01*
X140784334Y-82467471D01*
X140767363Y-82474500D01*
X138437707Y-82474500D01*
X138437699Y-82474499D01*
X138434909Y-82474499D01*
X138365091Y-82474499D01*
X138365090Y-82474499D01*
X138333234Y-82487695D01*
X138300587Y-82501218D01*
X138300586Y-82501219D01*
X137834334Y-82967471D01*
X137817363Y-82974500D01*
X133093603Y-82974500D01*
X133076632Y-82967471D01*
X133069603Y-82950500D01*
X133069603Y-82928779D01*
X133031468Y-82836714D01*
X133031467Y-82836713D01*
X133031467Y-82836712D01*
X132449117Y-82254362D01*
X132442383Y-82241145D01*
X132425160Y-82132402D01*
X132425159Y-82132400D01*
X132425159Y-82132399D01*
X132374182Y-82032350D01*
X132374181Y-82032349D01*
X132374180Y-82032347D01*
X132294775Y-81952942D01*
X132294772Y-81952940D01*
X132294771Y-81952939D01*
X132194722Y-81901962D01*
X132114265Y-81889219D01*
X132083808Y-81884395D01*
X132083807Y-81884395D01*
X132000301Y-81897621D01*
X131982440Y-81893332D01*
X131979576Y-81890887D01*
X131455160Y-81366471D01*
X131448131Y-81349500D01*
X131455160Y-81332529D01*
X131472131Y-81325500D01*
X132725744Y-81325500D01*
X132742715Y-81332529D01*
X132935266Y-81525080D01*
X132940468Y-81532867D01*
X132963639Y-81588807D01*
X132963640Y-81588808D01*
X132963641Y-81588810D01*
X133387851Y-82013020D01*
X133387852Y-82013020D01*
X133387853Y-82013021D01*
X133461542Y-82043544D01*
X133461543Y-82043544D01*
X133541307Y-82043544D01*
X134070930Y-82043544D01*
X134087901Y-82050573D01*
X134090343Y-82053432D01*
X134090760Y-82054006D01*
X134090762Y-82054008D01*
X134090764Y-82054011D01*
X134170169Y-82133416D01*
X134170171Y-82133417D01*
X134170172Y-82133418D01*
X134270221Y-82184395D01*
X134270222Y-82184395D01*
X134270224Y-82184396D01*
X134381136Y-82201963D01*
X134492048Y-82184396D01*
X134516130Y-82172126D01*
X134592099Y-82133418D01*
X134592098Y-82133418D01*
X134592103Y-82133416D01*
X134671508Y-82054011D01*
X134671511Y-82054006D01*
X134671929Y-82053432D01*
X134672334Y-82053183D01*
X134672843Y-82052675D01*
X134672965Y-82052797D01*
X134687594Y-82043839D01*
X134691342Y-82043544D01*
X135407276Y-82043544D01*
X135480966Y-82013021D01*
X135480966Y-82013020D01*
X135480968Y-82013020D01*
X135538080Y-81955908D01*
X135558152Y-81935837D01*
X135575122Y-81928808D01*
X138997454Y-81928808D01*
X139071146Y-81898284D01*
X139380620Y-81588810D01*
X139639710Y-81329720D01*
X139656681Y-81322691D01*
X141871173Y-81322691D01*
X141888144Y-81329720D01*
G37*
%TD.AperFunction*%
%TA.AperFunction,Conductor*%
G36*
X131233107Y-82360740D02*
G01*
X131233107Y-82820740D01*
X131229107Y-82830397D01*
X131229107Y-82351082D01*
X131233107Y-82360740D01*
G37*
%TD.AperFunction*%
%TA.AperFunction,Conductor*%
G36*
X68695449Y-78403029D02*
G01*
X68702478Y-78420000D01*
X68702478Y-78427999D01*
X68702479Y-78428000D01*
X69061093Y-78428000D01*
X69121591Y-78421495D01*
X69121594Y-78421495D01*
X69148590Y-78411425D01*
X69166947Y-78412079D01*
X69179464Y-78425523D01*
X69180978Y-78433911D01*
X69180978Y-79009898D01*
X69186808Y-79039211D01*
X69186810Y-79039217D01*
X69209017Y-79072452D01*
X69209018Y-79072453D01*
X69209021Y-79072457D01*
X69209024Y-79072459D01*
X69209025Y-79072460D01*
X69242260Y-79094667D01*
X69242265Y-79094669D01*
X69271579Y-79100500D01*
X69672319Y-79100499D01*
X69672329Y-79100500D01*
X69675118Y-79100500D01*
X69759654Y-79100500D01*
X69759658Y-79100499D01*
X69974841Y-79100499D01*
X69991812Y-79107528D01*
X69998841Y-79124499D01*
X69991812Y-79141470D01*
X69840810Y-79292471D01*
X69823839Y-79299500D01*
X69271579Y-79299500D01*
X69242266Y-79305330D01*
X69242260Y-79305332D01*
X69209025Y-79327539D01*
X69209017Y-79327547D01*
X69186810Y-79360782D01*
X69186808Y-79360787D01*
X69180978Y-79390096D01*
X69180978Y-80109898D01*
X69186808Y-80139211D01*
X69186810Y-80139217D01*
X69209017Y-80172452D01*
X69209018Y-80172453D01*
X69209021Y-80172457D01*
X69209024Y-80172459D01*
X69209025Y-80172460D01*
X69242260Y-80194667D01*
X69242264Y-80194668D01*
X69242265Y-80194669D01*
X69256919Y-80197584D01*
X69272192Y-80207787D01*
X69275776Y-80225803D01*
X69274545Y-80229859D01*
X69274500Y-80230090D01*
X69274500Y-80426849D01*
X69267471Y-80443820D01*
X69261396Y-80448233D01*
X69239034Y-80459627D01*
X69159625Y-80539036D01*
X69108648Y-80639085D01*
X69091081Y-80750000D01*
X69108648Y-80860914D01*
X69159625Y-80960963D01*
X69159626Y-80960964D01*
X69159628Y-80960967D01*
X69234929Y-81036268D01*
X69241958Y-81053238D01*
X69234929Y-81070209D01*
X69228856Y-81074621D01*
X69219034Y-81079626D01*
X69186189Y-81112471D01*
X69169219Y-81119500D01*
X69134499Y-81119500D01*
X69117528Y-81112471D01*
X69110499Y-81095500D01*
X69110499Y-81060101D01*
X69104669Y-81030788D01*
X69104667Y-81030782D01*
X69082460Y-80997547D01*
X69082459Y-80997546D01*
X69082457Y-80997543D01*
X69082453Y-80997540D01*
X69082452Y-80997539D01*
X69049217Y-80975332D01*
X69049212Y-80975330D01*
X69019899Y-80969500D01*
X67450101Y-80969500D01*
X67420788Y-80975330D01*
X67420782Y-80975332D01*
X67387547Y-80997539D01*
X67387539Y-80997547D01*
X67365332Y-81030782D01*
X67365330Y-81030787D01*
X67359500Y-81060096D01*
X67359500Y-81679898D01*
X67365330Y-81709211D01*
X67365332Y-81709217D01*
X67387539Y-81742452D01*
X67387540Y-81742453D01*
X67387543Y-81742457D01*
X67387546Y-81742459D01*
X67387547Y-81742460D01*
X67420782Y-81764667D01*
X67420787Y-81764669D01*
X67450101Y-81770500D01*
X69019898Y-81770499D01*
X69049213Y-81764669D01*
X69049214Y-81764667D01*
X69049217Y-81764667D01*
X69071916Y-81749500D01*
X69082457Y-81742457D01*
X69093787Y-81725500D01*
X69104667Y-81709217D01*
X69104669Y-81709212D01*
X69110499Y-81679903D01*
X69110500Y-81679899D01*
X69110500Y-81644500D01*
X69117529Y-81627529D01*
X69134500Y-81620500D01*
X69169219Y-81620500D01*
X69186189Y-81627529D01*
X69219033Y-81660373D01*
X69319085Y-81711351D01*
X69319086Y-81711351D01*
X69319088Y-81711352D01*
X69334172Y-81713741D01*
X69349833Y-81723338D01*
X69354122Y-81741199D01*
X69347388Y-81754416D01*
X69109454Y-81992349D01*
X69092483Y-81999378D01*
X69079149Y-81995333D01*
X69049214Y-81975331D01*
X69049212Y-81975330D01*
X69019899Y-81969500D01*
X67450101Y-81969500D01*
X67420788Y-81975330D01*
X67420782Y-81975332D01*
X67387547Y-81997539D01*
X67387539Y-81997547D01*
X67365332Y-82030782D01*
X67365330Y-82030787D01*
X67359500Y-82060096D01*
X67359500Y-82548636D01*
X67352471Y-82565607D01*
X67343887Y-82571123D01*
X67232887Y-82612523D01*
X67214530Y-82611867D01*
X67202013Y-82598423D01*
X67200500Y-82590036D01*
X67200500Y-80156636D01*
X67207529Y-80139665D01*
X67224500Y-80132636D01*
X67241469Y-80139664D01*
X67250587Y-80148782D01*
X67250588Y-80148782D01*
X67250589Y-80148783D01*
X67315090Y-80175500D01*
X67315091Y-80175500D01*
X67376295Y-80175500D01*
X67389628Y-80179545D01*
X67412260Y-80194667D01*
X67412265Y-80194669D01*
X67441579Y-80200500D01*
X68161376Y-80200499D01*
X68190691Y-80194669D01*
X68190692Y-80194667D01*
X68190695Y-80194667D01*
X68216440Y-80177465D01*
X68223935Y-80172457D01*
X68232194Y-80160096D01*
X68246145Y-80139217D01*
X68246147Y-80139212D01*
X68247455Y-80132636D01*
X68251978Y-80109899D01*
X68251977Y-79521362D01*
X68259006Y-79504392D01*
X68267590Y-79498876D01*
X68397439Y-79450445D01*
X68397443Y-79450443D01*
X68514379Y-79362905D01*
X68514383Y-79362901D01*
X68601921Y-79245965D01*
X68601923Y-79245961D01*
X68652973Y-79109091D01*
X68652974Y-79109086D01*
X68659478Y-79048592D01*
X68659478Y-78904001D01*
X68659477Y-78904000D01*
X67571478Y-78904000D01*
X67554507Y-78896971D01*
X67547478Y-78880000D01*
X67547478Y-78420000D01*
X67554507Y-78403029D01*
X67571478Y-78396000D01*
X68678478Y-78396000D01*
X68695449Y-78403029D01*
G37*
%TD.AperFunction*%
%TA.AperFunction,Conductor*%
G36*
X105684000Y-74372262D02*
G01*
X105688664Y-74372728D01*
X105780213Y-74391056D01*
X105795472Y-74401279D01*
X105799500Y-74414588D01*
X105799500Y-74893363D01*
X105792471Y-74910334D01*
X105775500Y-74917363D01*
X105758529Y-74910334D01*
X105698195Y-74850000D01*
X105624413Y-74776218D01*
X105624411Y-74776217D01*
X105624410Y-74776216D01*
X105559910Y-74749500D01*
X105559909Y-74749500D01*
X100973150Y-74749500D01*
X100956179Y-74742471D01*
X100951767Y-74736398D01*
X100940372Y-74714033D01*
X100860967Y-74634628D01*
X100860964Y-74634626D01*
X100860963Y-74634625D01*
X100760914Y-74583648D01*
X100650000Y-74566081D01*
X100539085Y-74583648D01*
X100439036Y-74634625D01*
X100359625Y-74714036D01*
X100308648Y-74814085D01*
X100291081Y-74925000D01*
X100308648Y-75035914D01*
X100359625Y-75135963D01*
X100359626Y-75135964D01*
X100359628Y-75135967D01*
X100439033Y-75215372D01*
X100439035Y-75215373D01*
X100439036Y-75215374D01*
X100539085Y-75266351D01*
X100539086Y-75266351D01*
X100539088Y-75266352D01*
X100650000Y-75283919D01*
X100760912Y-75266352D01*
X100860967Y-75215372D01*
X100940372Y-75135967D01*
X100951766Y-75113603D01*
X100965733Y-75101675D01*
X100973150Y-75100500D01*
X105442363Y-75100500D01*
X105459334Y-75107529D01*
X105647417Y-75295612D01*
X105811361Y-75459555D01*
X105818390Y-75476526D01*
X105811361Y-75493497D01*
X105794390Y-75500526D01*
X104998093Y-75500526D01*
X104981123Y-75493497D01*
X104952278Y-75464652D01*
X104852226Y-75413674D01*
X104741312Y-75396107D01*
X104630397Y-75413674D01*
X104530348Y-75464651D01*
X104450937Y-75544062D01*
X104399960Y-75644111D01*
X104382393Y-75755026D01*
X104399960Y-75865940D01*
X104450937Y-75965989D01*
X104450938Y-75965990D01*
X104450940Y-75965993D01*
X104530345Y-76045398D01*
X104530347Y-76045399D01*
X104530348Y-76045400D01*
X104630397Y-76096377D01*
X104630398Y-76096377D01*
X104630400Y-76096378D01*
X104741312Y-76113945D01*
X104852224Y-76096378D01*
X104952279Y-76045398D01*
X105031684Y-75965993D01*
X105052685Y-75924776D01*
X105083331Y-75864630D01*
X105097298Y-75852701D01*
X105104715Y-75851526D01*
X105385532Y-75851526D01*
X105402503Y-75858555D01*
X105409532Y-75875526D01*
X105402503Y-75892495D01*
X105400940Y-75894059D01*
X105400937Y-75894062D01*
X105349960Y-75994111D01*
X105332393Y-76105026D01*
X105347070Y-76197697D01*
X105345538Y-76210635D01*
X105324500Y-76261428D01*
X105324500Y-76478933D01*
X105317471Y-76495904D01*
X105300500Y-76502933D01*
X105283530Y-76495904D01*
X105252278Y-76464652D01*
X105152226Y-76413674D01*
X105041312Y-76396107D01*
X104930397Y-76413674D01*
X104830348Y-76464651D01*
X104750937Y-76544062D01*
X104699960Y-76644111D01*
X104682393Y-76755026D01*
X104699960Y-76865940D01*
X104716015Y-76897449D01*
X104717456Y-76915762D01*
X104705527Y-76929729D01*
X104687214Y-76931170D01*
X104683735Y-76929729D01*
X104652226Y-76913674D01*
X104541312Y-76896107D01*
X104430397Y-76913674D01*
X104330348Y-76964651D01*
X104250937Y-77044062D01*
X104199960Y-77144111D01*
X104182393Y-77255026D01*
X104199960Y-77365940D01*
X104250937Y-77465989D01*
X104250938Y-77465990D01*
X104250940Y-77465993D01*
X104330345Y-77545398D01*
X104330347Y-77545399D01*
X104330348Y-77545400D01*
X104430397Y-77596377D01*
X104430398Y-77596377D01*
X104430400Y-77596378D01*
X104541312Y-77613945D01*
X104652224Y-77596378D01*
X104752279Y-77545398D01*
X104831684Y-77465993D01*
X104867632Y-77395441D01*
X104870428Y-77389953D01*
X104884395Y-77378024D01*
X104902708Y-77379465D01*
X104914637Y-77393432D01*
X104915812Y-77400849D01*
X104915812Y-79381875D01*
X104908783Y-79398846D01*
X104902708Y-79403259D01*
X104880346Y-79414653D01*
X104800937Y-79494062D01*
X104749960Y-79594111D01*
X104732393Y-79705026D01*
X104749960Y-79815940D01*
X104800937Y-79915989D01*
X104800938Y-79915990D01*
X104800940Y-79915993D01*
X104880345Y-79995398D01*
X104880347Y-79995399D01*
X104880348Y-79995400D01*
X104980397Y-80046377D01*
X104980398Y-80046377D01*
X104980400Y-80046378D01*
X105091312Y-80063945D01*
X105202224Y-80046378D01*
X105302279Y-79995398D01*
X105381684Y-79915993D01*
X105432664Y-79815938D01*
X105450231Y-79705026D01*
X105432664Y-79594114D01*
X105432663Y-79594112D01*
X105432663Y-79594111D01*
X105381686Y-79494062D01*
X105381685Y-79494061D01*
X105381684Y-79494059D01*
X105302279Y-79414654D01*
X105281513Y-79404073D01*
X105279916Y-79403259D01*
X105267986Y-79389291D01*
X105266812Y-79381875D01*
X105266812Y-77394360D01*
X105273840Y-77377390D01*
X105648782Y-77002449D01*
X105675500Y-76937945D01*
X105675500Y-76884780D01*
X105682529Y-76867809D01*
X105699500Y-76860780D01*
X105716469Y-76867808D01*
X105789033Y-76940372D01*
X105789035Y-76940373D01*
X105789036Y-76940374D01*
X105889085Y-76991351D01*
X105889086Y-76991351D01*
X105889088Y-76991352D01*
X106000000Y-77008919D01*
X106110912Y-76991352D01*
X106131796Y-76980711D01*
X106210604Y-76940557D01*
X106228916Y-76939116D01*
X106242884Y-76951045D01*
X106245500Y-76961941D01*
X106245500Y-77186220D01*
X106238471Y-77203191D01*
X106221500Y-77210220D01*
X106204530Y-77203191D01*
X106160967Y-77159628D01*
X106160964Y-77159626D01*
X106160963Y-77159625D01*
X106060914Y-77108648D01*
X105950000Y-77091081D01*
X105839085Y-77108648D01*
X105739036Y-77159625D01*
X105659625Y-77239036D01*
X105608648Y-77339085D01*
X105591081Y-77450000D01*
X105608648Y-77560914D01*
X105659625Y-77660963D01*
X105659626Y-77660964D01*
X105659628Y-77660967D01*
X105739033Y-77740372D01*
X105739035Y-77740373D01*
X105739036Y-77740374D01*
X105839085Y-77791351D01*
X105839086Y-77791351D01*
X105839088Y-77791352D01*
X105950000Y-77808919D01*
X106060912Y-77791352D01*
X106160967Y-77740372D01*
X106240372Y-77660967D01*
X106291352Y-77560912D01*
X106300577Y-77502662D01*
X106310175Y-77487002D01*
X106328036Y-77482713D01*
X106341252Y-77489447D01*
X106411399Y-77559593D01*
X106418429Y-77576564D01*
X106418429Y-78254479D01*
X106445145Y-78318980D01*
X106445146Y-78318981D01*
X106445147Y-78318983D01*
X106591830Y-78465666D01*
X106598859Y-78482636D01*
X106598859Y-80807510D01*
X106591830Y-80824480D01*
X106583474Y-80832836D01*
X106583472Y-80832838D01*
X106583471Y-80832840D01*
X106578441Y-80844983D01*
X106575634Y-80851760D01*
X106562645Y-80864748D01*
X106544276Y-80864748D01*
X106536491Y-80859546D01*
X106495593Y-80818649D01*
X106495594Y-80818649D01*
X106382559Y-80761055D01*
X106257253Y-80741209D01*
X106131946Y-80761055D01*
X106018914Y-80818648D01*
X105929200Y-80908362D01*
X105871607Y-81021394D01*
X105851761Y-81146701D01*
X105852402Y-81150747D01*
X105848113Y-81168609D01*
X105832451Y-81178206D01*
X105828697Y-81178501D01*
X102339438Y-81178501D01*
X102322467Y-81171472D01*
X102315438Y-81154501D01*
X102316785Y-81146574D01*
X102343670Y-81069739D01*
X102343671Y-81069736D01*
X102362796Y-80900001D01*
X102362796Y-80900000D01*
X102359095Y-80867164D01*
X102364179Y-80849513D01*
X102375017Y-80841823D01*
X102530958Y-80787257D01*
X102530968Y-80787252D01*
X102532644Y-80786198D01*
X102299999Y-80553553D01*
X101682081Y-81171472D01*
X101665110Y-81178501D01*
X101534890Y-81178501D01*
X101517919Y-81171472D01*
X101221583Y-80875136D01*
X101475000Y-80875136D01*
X101475000Y-80924864D01*
X101494030Y-80970807D01*
X101529193Y-81005970D01*
X101575136Y-81025000D01*
X101624864Y-81025000D01*
X101670807Y-81005970D01*
X101705970Y-80970807D01*
X101725000Y-80924864D01*
X101725000Y-80875136D01*
X101705970Y-80829193D01*
X101670807Y-80794030D01*
X101624864Y-80775000D01*
X101575136Y-80775000D01*
X101529193Y-80794030D01*
X101494030Y-80829193D01*
X101475000Y-80875136D01*
X101221583Y-80875136D01*
X100950000Y-80603553D01*
X100382081Y-81171472D01*
X100365110Y-81178501D01*
X100234890Y-81178501D01*
X100217919Y-81171472D01*
X99921583Y-80875136D01*
X100175000Y-80875136D01*
X100175000Y-80924864D01*
X100194030Y-80970807D01*
X100229193Y-81005970D01*
X100275136Y-81025000D01*
X100324864Y-81025000D01*
X100370807Y-81005970D01*
X100405970Y-80970807D01*
X100425000Y-80924864D01*
X100425000Y-80875136D01*
X100405970Y-80829193D01*
X100370807Y-80794030D01*
X100324864Y-80775000D01*
X100275136Y-80775000D01*
X100229193Y-80794030D01*
X100194030Y-80829193D01*
X100175000Y-80875136D01*
X99921583Y-80875136D01*
X99700000Y-80653553D01*
X99182081Y-81171472D01*
X99165110Y-81178501D01*
X99034890Y-81178501D01*
X99017919Y-81171472D01*
X98721583Y-80875136D01*
X98975000Y-80875136D01*
X98975000Y-80924864D01*
X98994030Y-80970807D01*
X99029193Y-81005970D01*
X99075136Y-81025000D01*
X99124864Y-81025000D01*
X99170807Y-81005970D01*
X99205970Y-80970807D01*
X99225000Y-80924864D01*
X99225000Y-80875136D01*
X99205970Y-80829193D01*
X99170807Y-80794030D01*
X99124864Y-80775000D01*
X99075136Y-80775000D01*
X99029193Y-80794030D01*
X98994030Y-80829193D01*
X98975000Y-80875136D01*
X98721583Y-80875136D01*
X98386063Y-80539616D01*
X100293170Y-80539616D01*
X100300000Y-80546446D01*
X100306830Y-80539616D01*
X100306830Y-80539615D01*
X100300001Y-80532785D01*
X100293170Y-80539616D01*
X98386063Y-80539616D01*
X98373801Y-80527354D01*
X98366772Y-80510383D01*
X98371073Y-80500000D01*
X104741081Y-80500000D01*
X104758648Y-80610914D01*
X104809625Y-80710963D01*
X104809626Y-80710964D01*
X104809628Y-80710967D01*
X104889033Y-80790372D01*
X104889035Y-80790373D01*
X104889036Y-80790374D01*
X104989085Y-80841351D01*
X104989086Y-80841351D01*
X104989088Y-80841352D01*
X105100000Y-80858919D01*
X105210912Y-80841352D01*
X105310967Y-80790372D01*
X105390372Y-80710967D01*
X105441352Y-80610912D01*
X105458919Y-80500000D01*
X105441352Y-80389088D01*
X105441351Y-80389086D01*
X105441351Y-80389085D01*
X105390374Y-80289036D01*
X105390373Y-80289035D01*
X105390372Y-80289033D01*
X105310967Y-80209628D01*
X105310964Y-80209626D01*
X105310963Y-80209625D01*
X105210914Y-80158648D01*
X105100000Y-80141081D01*
X104989085Y-80158648D01*
X104889036Y-80209625D01*
X104809625Y-80289036D01*
X104758648Y-80389085D01*
X104741081Y-80500000D01*
X98371073Y-80500000D01*
X98373801Y-80493413D01*
X98406830Y-80460383D01*
X98406830Y-80460382D01*
X98400000Y-80453552D01*
X98400000Y-80453553D01*
X98021582Y-80075136D01*
X98275000Y-80075136D01*
X98275000Y-80124864D01*
X98294030Y-80170807D01*
X98329193Y-80205970D01*
X98375136Y-80225000D01*
X98424864Y-80225000D01*
X98470807Y-80205970D01*
X98505970Y-80170807D01*
X98525000Y-80124864D01*
X98525000Y-80100000D01*
X98753554Y-80100000D01*
X99000000Y-80346446D01*
X99246446Y-80100000D01*
X99221582Y-80075136D01*
X99475000Y-80075136D01*
X99475000Y-80124864D01*
X99494030Y-80170807D01*
X99529193Y-80205970D01*
X99575136Y-80225000D01*
X99624864Y-80225000D01*
X99670807Y-80205970D01*
X99705970Y-80170807D01*
X99725000Y-80124864D01*
X99725000Y-80099999D01*
X99953553Y-80099999D01*
X100300000Y-80446446D01*
X100646446Y-80100000D01*
X100621582Y-80075136D01*
X100875000Y-80075136D01*
X100875000Y-80124864D01*
X100894030Y-80170807D01*
X100929193Y-80205970D01*
X100975136Y-80225000D01*
X101024864Y-80225000D01*
X101070807Y-80205970D01*
X101105970Y-80170807D01*
X101125000Y-80124864D01*
X101125000Y-80100000D01*
X101353554Y-80100000D01*
X101600000Y-80346446D01*
X101846446Y-80100000D01*
X101821582Y-80075136D01*
X102075000Y-80075136D01*
X102075000Y-80124864D01*
X102094030Y-80170807D01*
X102129193Y-80205970D01*
X102175136Y-80225000D01*
X102224864Y-80225000D01*
X102270807Y-80205970D01*
X102305970Y-80170807D01*
X102325000Y-80124864D01*
X102325000Y-80099999D01*
X102553553Y-80099999D01*
X102886198Y-80432644D01*
X102887252Y-80430968D01*
X102887257Y-80430958D01*
X102943670Y-80269739D01*
X102943671Y-80269736D01*
X102962796Y-80100001D01*
X102962796Y-80099998D01*
X102943671Y-79930263D01*
X102943670Y-79930260D01*
X102887254Y-79769034D01*
X102887253Y-79769032D01*
X102886198Y-79767354D01*
X102553553Y-80099999D01*
X102325000Y-80099999D01*
X102325000Y-80075136D01*
X102305970Y-80029193D01*
X102270807Y-79994030D01*
X102224864Y-79975000D01*
X102175136Y-79975000D01*
X102129193Y-79994030D01*
X102094030Y-80029193D01*
X102075000Y-80075136D01*
X101821582Y-80075136D01*
X101600000Y-79853554D01*
X101353554Y-80100000D01*
X101125000Y-80100000D01*
X101125000Y-80075136D01*
X101105970Y-80029193D01*
X101070807Y-79994030D01*
X101024864Y-79975000D01*
X100975136Y-79975000D01*
X100929193Y-79994030D01*
X100894030Y-80029193D01*
X100875000Y-80075136D01*
X100621582Y-80075136D01*
X100313799Y-79767353D01*
X100302700Y-79768605D01*
X100297330Y-79768606D01*
X100286198Y-79767354D01*
X99953553Y-80099999D01*
X99725000Y-80099999D01*
X99725000Y-80075136D01*
X99705970Y-80029193D01*
X99670807Y-79994030D01*
X99624864Y-79975000D01*
X99575136Y-79975000D01*
X99529193Y-79994030D01*
X99494030Y-80029193D01*
X99475000Y-80075136D01*
X99221582Y-80075136D01*
X99000000Y-79853554D01*
X98753554Y-80100000D01*
X98525000Y-80100000D01*
X98525000Y-80075136D01*
X98505970Y-80029193D01*
X98470807Y-79994030D01*
X98424864Y-79975000D01*
X98375136Y-79975000D01*
X98329193Y-79994030D01*
X98294030Y-80029193D01*
X98275000Y-80075136D01*
X98021582Y-80075136D01*
X97713801Y-79767355D01*
X97712744Y-79769036D01*
X97656329Y-79930260D01*
X97656328Y-79930263D01*
X97648960Y-79995661D01*
X97640075Y-80011738D01*
X97622424Y-80016823D01*
X97608140Y-80009945D01*
X97397695Y-79799500D01*
X97174413Y-79576218D01*
X97174411Y-79576217D01*
X97174410Y-79576216D01*
X97111117Y-79550000D01*
X98203554Y-79550000D01*
X98400000Y-79746446D01*
X98596446Y-79550000D01*
X99403554Y-79550000D01*
X99600000Y-79746446D01*
X99796446Y-79550000D01*
X100803554Y-79550000D01*
X101000000Y-79746446D01*
X101196446Y-79550000D01*
X102003554Y-79550000D01*
X102200000Y-79746446D01*
X102396446Y-79550000D01*
X102200000Y-79353554D01*
X102003554Y-79550000D01*
X101196446Y-79550000D01*
X101000000Y-79353554D01*
X100803554Y-79550000D01*
X99796446Y-79550000D01*
X99600000Y-79353554D01*
X99403554Y-79550000D01*
X98596446Y-79550000D01*
X98400000Y-79353554D01*
X98203554Y-79550000D01*
X97111117Y-79550000D01*
X97109910Y-79549500D01*
X97109909Y-79549500D01*
X96173150Y-79549500D01*
X96156179Y-79542471D01*
X96151767Y-79536398D01*
X96140372Y-79514033D01*
X96138758Y-79512419D01*
X96131730Y-79495450D01*
X96138759Y-79478479D01*
X96144827Y-79474070D01*
X96210967Y-79440372D01*
X96290372Y-79360967D01*
X96339643Y-79264267D01*
X96341351Y-79260914D01*
X96341351Y-79260913D01*
X96341352Y-79260912D01*
X96358919Y-79150000D01*
X96341352Y-79039088D01*
X96341351Y-79039086D01*
X96341351Y-79039085D01*
X96321435Y-78999998D01*
X97637204Y-78999998D01*
X97637204Y-79000001D01*
X97656328Y-79169736D01*
X97656329Y-79169739D01*
X97712742Y-79330958D01*
X97712747Y-79330968D01*
X97713800Y-79332644D01*
X98046445Y-78999999D01*
X98021582Y-78975136D01*
X98275000Y-78975136D01*
X98275000Y-79024864D01*
X98294030Y-79070807D01*
X98329193Y-79105970D01*
X98375136Y-79125000D01*
X98424864Y-79125000D01*
X98470807Y-79105970D01*
X98505970Y-79070807D01*
X98525000Y-79024864D01*
X98525000Y-79000000D01*
X98753554Y-79000000D01*
X99000000Y-79246446D01*
X99246446Y-79000000D01*
X99221582Y-78975136D01*
X99475000Y-78975136D01*
X99475000Y-79024864D01*
X99494030Y-79070807D01*
X99529193Y-79105970D01*
X99575136Y-79125000D01*
X99624864Y-79125000D01*
X99670807Y-79105970D01*
X99705970Y-79070807D01*
X99725000Y-79024864D01*
X99725000Y-78999999D01*
X99953553Y-78999999D01*
X100286198Y-79332644D01*
X100297331Y-79331393D01*
X100302698Y-79331394D01*
X100313800Y-79332644D01*
X100646445Y-78999999D01*
X100621582Y-78975136D01*
X100875000Y-78975136D01*
X100875000Y-79024864D01*
X100894030Y-79070807D01*
X100929193Y-79105970D01*
X100975136Y-79125000D01*
X101024864Y-79125000D01*
X101070807Y-79105970D01*
X101105970Y-79070807D01*
X101125000Y-79024864D01*
X101125000Y-79000000D01*
X101353554Y-79000000D01*
X101600000Y-79246446D01*
X101846446Y-79000000D01*
X101821582Y-78975136D01*
X102075000Y-78975136D01*
X102075000Y-79024864D01*
X102094030Y-79070807D01*
X102129193Y-79105970D01*
X102175136Y-79125000D01*
X102224864Y-79125000D01*
X102270807Y-79105970D01*
X102305970Y-79070807D01*
X102325000Y-79024864D01*
X102325000Y-78999999D01*
X102553553Y-78999999D01*
X102886198Y-79332644D01*
X102887252Y-79330968D01*
X102887257Y-79330958D01*
X102931323Y-79205026D01*
X104082393Y-79205026D01*
X104099960Y-79315940D01*
X104150937Y-79415989D01*
X104150938Y-79415990D01*
X104150940Y-79415993D01*
X104230345Y-79495398D01*
X104230347Y-79495399D01*
X104230348Y-79495400D01*
X104330397Y-79546377D01*
X104330398Y-79546377D01*
X104330400Y-79546378D01*
X104441312Y-79563945D01*
X104552224Y-79546378D01*
X104652279Y-79495398D01*
X104731684Y-79415993D01*
X104782664Y-79315938D01*
X104800231Y-79205026D01*
X104782664Y-79094114D01*
X104782663Y-79094112D01*
X104782663Y-79094111D01*
X104731686Y-78994062D01*
X104731685Y-78994061D01*
X104731684Y-78994059D01*
X104652279Y-78914654D01*
X104652276Y-78914652D01*
X104652275Y-78914651D01*
X104552226Y-78863674D01*
X104441312Y-78846107D01*
X104330397Y-78863674D01*
X104230348Y-78914651D01*
X104150937Y-78994062D01*
X104099960Y-79094111D01*
X104082393Y-79205026D01*
X102931323Y-79205026D01*
X102943670Y-79169739D01*
X102943671Y-79169736D01*
X102962796Y-79000001D01*
X102962796Y-78999998D01*
X102943671Y-78830263D01*
X102943670Y-78830260D01*
X102887254Y-78669034D01*
X102887253Y-78669032D01*
X102886198Y-78667354D01*
X102553553Y-78999999D01*
X102325000Y-78999999D01*
X102325000Y-78975136D01*
X102305970Y-78929193D01*
X102270807Y-78894030D01*
X102224864Y-78875000D01*
X102175136Y-78875000D01*
X102129193Y-78894030D01*
X102094030Y-78929193D01*
X102075000Y-78975136D01*
X101821582Y-78975136D01*
X101600000Y-78753554D01*
X101353554Y-79000000D01*
X101125000Y-79000000D01*
X101125000Y-78975136D01*
X101105970Y-78929193D01*
X101070807Y-78894030D01*
X101024864Y-78875000D01*
X100975136Y-78875000D01*
X100929193Y-78894030D01*
X100894030Y-78929193D01*
X100875000Y-78975136D01*
X100621582Y-78975136D01*
X100313799Y-78667353D01*
X100302700Y-78668605D01*
X100297330Y-78668606D01*
X100286198Y-78667354D01*
X99953553Y-78999999D01*
X99725000Y-78999999D01*
X99725000Y-78975136D01*
X99705970Y-78929193D01*
X99670807Y-78894030D01*
X99624864Y-78875000D01*
X99575136Y-78875000D01*
X99529193Y-78894030D01*
X99494030Y-78929193D01*
X99475000Y-78975136D01*
X99221582Y-78975136D01*
X99000000Y-78753554D01*
X98753554Y-79000000D01*
X98525000Y-79000000D01*
X98525000Y-78975136D01*
X98505970Y-78929193D01*
X98470807Y-78894030D01*
X98424864Y-78875000D01*
X98375136Y-78875000D01*
X98329193Y-78894030D01*
X98294030Y-78929193D01*
X98275000Y-78975136D01*
X98021582Y-78975136D01*
X97713801Y-78667355D01*
X97712744Y-78669036D01*
X97656329Y-78830260D01*
X97656328Y-78830263D01*
X97637204Y-78999998D01*
X96321435Y-78999998D01*
X96290374Y-78939036D01*
X96290373Y-78939035D01*
X96290372Y-78939033D01*
X96210967Y-78859628D01*
X96210964Y-78859626D01*
X96210963Y-78859625D01*
X96110914Y-78808648D01*
X96000000Y-78791081D01*
X95889085Y-78808648D01*
X95789036Y-78859625D01*
X95709625Y-78939036D01*
X95658649Y-79039084D01*
X95658646Y-79039092D01*
X95655657Y-79057966D01*
X95648924Y-79071182D01*
X95476122Y-79243983D01*
X95300587Y-79419519D01*
X95300587Y-79419520D01*
X95300586Y-79419519D01*
X95251216Y-79468890D01*
X95224500Y-79533392D01*
X95224500Y-79667363D01*
X95217471Y-79684333D01*
X95021829Y-79879975D01*
X95021829Y-79879976D01*
X95021828Y-79879975D01*
X94972458Y-79929346D01*
X94945742Y-79993848D01*
X94945742Y-81197734D01*
X94938713Y-81214705D01*
X94921742Y-81221734D01*
X94904771Y-81214705D01*
X94900358Y-81208630D01*
X94890374Y-81189036D01*
X94890373Y-81189035D01*
X94890372Y-81189033D01*
X94810967Y-81109628D01*
X94810964Y-81109626D01*
X94810963Y-81109625D01*
X94710914Y-81058648D01*
X94600000Y-81041081D01*
X94489085Y-81058648D01*
X94389036Y-81109625D01*
X94309625Y-81189036D01*
X94258648Y-81289085D01*
X94241081Y-81400000D01*
X94258648Y-81510914D01*
X94309625Y-81610963D01*
X94309626Y-81610964D01*
X94309628Y-81610967D01*
X94389033Y-81690372D01*
X94389035Y-81690373D01*
X94389036Y-81690374D01*
X94489085Y-81741351D01*
X94489086Y-81741351D01*
X94489088Y-81741352D01*
X94600000Y-81758919D01*
X94710912Y-81741352D01*
X94810967Y-81690372D01*
X94890372Y-81610967D01*
X94929502Y-81534170D01*
X94941351Y-81510914D01*
X94941351Y-81510913D01*
X94941352Y-81510912D01*
X94957414Y-81409497D01*
X94967011Y-81393838D01*
X94984872Y-81389549D01*
X94998086Y-81396281D01*
X95117471Y-81515666D01*
X95124500Y-81532636D01*
X95124500Y-81817363D01*
X95117471Y-81834334D01*
X94479834Y-82471971D01*
X94462863Y-82479000D01*
X87921889Y-82479000D01*
X87904918Y-82471971D01*
X87596892Y-82163945D01*
X87284165Y-81851218D01*
X87284163Y-81851217D01*
X87284162Y-81851216D01*
X87219662Y-81824500D01*
X87219661Y-81824500D01*
X87132637Y-81824500D01*
X87115667Y-81817471D01*
X87070412Y-81772216D01*
X87005910Y-81745500D01*
X87005909Y-81745500D01*
X81153637Y-81745500D01*
X81136666Y-81738471D01*
X80782529Y-81384334D01*
X80775500Y-81367363D01*
X80775500Y-81258392D01*
X80748783Y-81193890D01*
X80698056Y-81143162D01*
X80698041Y-81143149D01*
X80354892Y-80800000D01*
X81691081Y-80800000D01*
X81708648Y-80910914D01*
X81759625Y-81010963D01*
X81759626Y-81010964D01*
X81759628Y-81010967D01*
X81839033Y-81090372D01*
X81839035Y-81090373D01*
X81839036Y-81090374D01*
X81939085Y-81141351D01*
X81939086Y-81141351D01*
X81939088Y-81141352D01*
X82050000Y-81158919D01*
X82160912Y-81141352D01*
X82260967Y-81090372D01*
X82340372Y-81010967D01*
X82391352Y-80910912D01*
X82393080Y-80900000D01*
X83091081Y-80900000D01*
X83108648Y-81010914D01*
X83159625Y-81110963D01*
X83159626Y-81110964D01*
X83159628Y-81110967D01*
X83239033Y-81190372D01*
X83239035Y-81190373D01*
X83239036Y-81190374D01*
X83339085Y-81241351D01*
X83339086Y-81241351D01*
X83339088Y-81241352D01*
X83450000Y-81258919D01*
X83560912Y-81241352D01*
X83660967Y-81190372D01*
X83740372Y-81110967D01*
X83791352Y-81010912D01*
X83808919Y-80900000D01*
X83791352Y-80789088D01*
X83791351Y-80789086D01*
X83791351Y-80789085D01*
X83740374Y-80689036D01*
X83740373Y-80689035D01*
X83740372Y-80689033D01*
X83660967Y-80609628D01*
X83660964Y-80609626D01*
X83660963Y-80609625D01*
X83560914Y-80558648D01*
X83450000Y-80541081D01*
X83339085Y-80558648D01*
X83239036Y-80609625D01*
X83159625Y-80689036D01*
X83108648Y-80789085D01*
X83091081Y-80900000D01*
X82393080Y-80900000D01*
X82408919Y-80800000D01*
X82391352Y-80689088D01*
X82391351Y-80689086D01*
X82391351Y-80689085D01*
X82340374Y-80589036D01*
X82340373Y-80589035D01*
X82340372Y-80589033D01*
X82260967Y-80509628D01*
X82260964Y-80509626D01*
X82260963Y-80509625D01*
X82160914Y-80458648D01*
X82050000Y-80441081D01*
X81939085Y-80458648D01*
X81839036Y-80509625D01*
X81759625Y-80589036D01*
X81708648Y-80689085D01*
X81691081Y-80800000D01*
X80354892Y-80800000D01*
X80208445Y-80653553D01*
X79710396Y-80155503D01*
X79710394Y-80155502D01*
X79710393Y-80155501D01*
X79645893Y-80128785D01*
X79645892Y-80128785D01*
X79064330Y-80128785D01*
X79047359Y-80121756D01*
X78575600Y-79649997D01*
X78101627Y-79176024D01*
X78101625Y-79176023D01*
X78101624Y-79176022D01*
X78027936Y-79145500D01*
X78027935Y-79145500D01*
X74451829Y-79145500D01*
X74372065Y-79145500D01*
X74372064Y-79145500D01*
X74298374Y-79176022D01*
X74123565Y-79350830D01*
X74106595Y-79357859D01*
X74089624Y-79350829D01*
X74082595Y-79333859D01*
X74085212Y-79322962D01*
X74091352Y-79310912D01*
X74108919Y-79200000D01*
X74091352Y-79089088D01*
X74091351Y-79089086D01*
X74091351Y-79089085D01*
X74040374Y-78989036D01*
X74040373Y-78989035D01*
X74040372Y-78989033D01*
X73960967Y-78909628D01*
X73960964Y-78909626D01*
X73960963Y-78909625D01*
X73860914Y-78858648D01*
X73750000Y-78841081D01*
X73639085Y-78858648D01*
X73539036Y-78909625D01*
X73459625Y-78989036D01*
X73408648Y-79089085D01*
X73395761Y-79170453D01*
X73391081Y-79200000D01*
X73396565Y-79234628D01*
X73397124Y-79238153D01*
X73392835Y-79256014D01*
X73377173Y-79265612D01*
X73359312Y-79261323D01*
X73353464Y-79255241D01*
X73335451Y-79228283D01*
X73334957Y-79227543D01*
X73334953Y-79227540D01*
X73334952Y-79227539D01*
X73301717Y-79205332D01*
X73301712Y-79205330D01*
X73272403Y-79199500D01*
X73272399Y-79199500D01*
X73009780Y-79199500D01*
X72992809Y-79192471D01*
X72985780Y-79175500D01*
X72992808Y-79158530D01*
X73040372Y-79110967D01*
X73091352Y-79010912D01*
X73108919Y-78900000D01*
X73108439Y-78896971D01*
X73097873Y-78830260D01*
X73095692Y-78816493D01*
X73099979Y-78798632D01*
X73102418Y-78795775D01*
X73348195Y-78550000D01*
X77541081Y-78550000D01*
X77558648Y-78660914D01*
X77609625Y-78760963D01*
X77609626Y-78760964D01*
X77609628Y-78760967D01*
X77689033Y-78840372D01*
X77689035Y-78840373D01*
X77689036Y-78840374D01*
X77789085Y-78891351D01*
X77789086Y-78891351D01*
X77789088Y-78891352D01*
X77900000Y-78908919D01*
X77900000Y-78908918D01*
X77900002Y-78908919D01*
X77900003Y-78908919D01*
X77940999Y-78902425D01*
X77983505Y-78895692D01*
X78001365Y-78899979D01*
X78004229Y-78902425D01*
X78050587Y-78948783D01*
X78115090Y-78975500D01*
X78115091Y-78975500D01*
X78306682Y-78975500D01*
X78323653Y-78982529D01*
X78328855Y-78990316D01*
X78375461Y-79102835D01*
X78375464Y-79102841D01*
X78471718Y-79228282D01*
X78597159Y-79324536D01*
X78597164Y-79324538D01*
X78743232Y-79385042D01*
X78743234Y-79385042D01*
X78743238Y-79385044D01*
X78900000Y-79405682D01*
X79056762Y-79385044D01*
X79202841Y-79324536D01*
X79328282Y-79228282D01*
X79424536Y-79102841D01*
X79471145Y-78990315D01*
X79484133Y-78977327D01*
X79493318Y-78975500D01*
X79684909Y-78975500D01*
X79749413Y-78948782D01*
X80145769Y-78552424D01*
X80162739Y-78545396D01*
X80166491Y-78545691D01*
X80191563Y-78549663D01*
X80249997Y-78558919D01*
X80249998Y-78558919D01*
X80249999Y-78558918D01*
X80250000Y-78558919D01*
X80360912Y-78541352D01*
X80460967Y-78490372D01*
X80540372Y-78410967D01*
X80591352Y-78310912D01*
X80608919Y-78200000D01*
X80593080Y-78100000D01*
X83091081Y-78100000D01*
X83108648Y-78210914D01*
X83159625Y-78310963D01*
X83159626Y-78310964D01*
X83159628Y-78310967D01*
X83239033Y-78390372D01*
X83239035Y-78390373D01*
X83239036Y-78390374D01*
X83339085Y-78441351D01*
X83339086Y-78441351D01*
X83339088Y-78441352D01*
X83450000Y-78458919D01*
X83560912Y-78441352D01*
X83565246Y-78439144D01*
X83660963Y-78390374D01*
X83660962Y-78390374D01*
X83660967Y-78390372D01*
X83740372Y-78310967D01*
X83791352Y-78210912D01*
X83808919Y-78100000D01*
X83791352Y-77989088D01*
X83791351Y-77989086D01*
X83791351Y-77989085D01*
X83740374Y-77889036D01*
X83740373Y-77889035D01*
X83740372Y-77889033D01*
X83660967Y-77809628D01*
X83660964Y-77809626D01*
X83660963Y-77809625D01*
X83560914Y-77758648D01*
X83450000Y-77741081D01*
X83339085Y-77758648D01*
X83239036Y-77809625D01*
X83159625Y-77889036D01*
X83108648Y-77989085D01*
X83091081Y-78100000D01*
X80593080Y-78100000D01*
X80591352Y-78089088D01*
X80591351Y-78089086D01*
X80591351Y-78089085D01*
X80540374Y-77989036D01*
X80540373Y-77989035D01*
X80540372Y-77989033D01*
X80460967Y-77909628D01*
X80460964Y-77909626D01*
X80460963Y-77909625D01*
X80360914Y-77858648D01*
X80250000Y-77841081D01*
X80139085Y-77858648D01*
X80039036Y-77909625D01*
X79959625Y-77989036D01*
X79908648Y-78089085D01*
X79894961Y-78175500D01*
X79891081Y-78200000D01*
X79903726Y-78279840D01*
X79904307Y-78283505D01*
X79900018Y-78301366D01*
X79897573Y-78304230D01*
X79584334Y-78617471D01*
X79567363Y-78624500D01*
X79493318Y-78624500D01*
X79476347Y-78617471D01*
X79471145Y-78609684D01*
X79466030Y-78597336D01*
X79424536Y-78497159D01*
X79328282Y-78371718D01*
X79202841Y-78275464D01*
X79202835Y-78275461D01*
X79056767Y-78214957D01*
X79056763Y-78214956D01*
X78900000Y-78194318D01*
X78743236Y-78214956D01*
X78743232Y-78214957D01*
X78597164Y-78275461D01*
X78597158Y-78275464D01*
X78471720Y-78371716D01*
X78471716Y-78371720D01*
X78375464Y-78497158D01*
X78375461Y-78497164D01*
X78328855Y-78609684D01*
X78315867Y-78622673D01*
X78306682Y-78624500D01*
X78275220Y-78624500D01*
X78258249Y-78617471D01*
X78251220Y-78600500D01*
X78251515Y-78596746D01*
X78255117Y-78574001D01*
X78258919Y-78550000D01*
X78241352Y-78439088D01*
X78241351Y-78439086D01*
X78241351Y-78439085D01*
X78190374Y-78339036D01*
X78190373Y-78339035D01*
X78190372Y-78339033D01*
X78110967Y-78259628D01*
X78110964Y-78259626D01*
X78110963Y-78259625D01*
X78010914Y-78208648D01*
X77900000Y-78191081D01*
X77789085Y-78208648D01*
X77689036Y-78259625D01*
X77609625Y-78339036D01*
X77558648Y-78439085D01*
X77541081Y-78550000D01*
X73348195Y-78550000D01*
X73415666Y-78482529D01*
X73432637Y-78475500D01*
X73634909Y-78475500D01*
X73699413Y-78448782D01*
X74248195Y-77900000D01*
X74691081Y-77900000D01*
X74708648Y-78010914D01*
X74759625Y-78110963D01*
X74759626Y-78110964D01*
X74759628Y-78110967D01*
X74839033Y-78190372D01*
X74839035Y-78190373D01*
X74839036Y-78190374D01*
X74939085Y-78241351D01*
X74939086Y-78241351D01*
X74939088Y-78241352D01*
X75050000Y-78258919D01*
X75160912Y-78241352D01*
X75260967Y-78190372D01*
X75340372Y-78110967D01*
X75391352Y-78010912D01*
X75408919Y-77900000D01*
X75391352Y-77789088D01*
X75391351Y-77789086D01*
X75391351Y-77789085D01*
X75340374Y-77689036D01*
X75340373Y-77689035D01*
X75340372Y-77689033D01*
X75260967Y-77609628D01*
X75260964Y-77609626D01*
X75260963Y-77609625D01*
X75160914Y-77558648D01*
X75050000Y-77541081D01*
X74939085Y-77558648D01*
X74839036Y-77609625D01*
X74759625Y-77689036D01*
X74708648Y-77789085D01*
X74691081Y-77900000D01*
X74248195Y-77900000D01*
X76449411Y-75698782D01*
X76449413Y-75698782D01*
X76498782Y-75649413D01*
X76512905Y-75615315D01*
X76525893Y-75602327D01*
X76535078Y-75600500D01*
X78204908Y-75600500D01*
X78221879Y-75607529D01*
X78228908Y-75624500D01*
X78221879Y-75641471D01*
X78217677Y-75644821D01*
X78097738Y-75720183D01*
X77970183Y-75847738D01*
X77874210Y-76000478D01*
X77814632Y-76170744D01*
X77794435Y-76349998D01*
X77794435Y-76350001D01*
X77814632Y-76529255D01*
X77874210Y-76699521D01*
X77964176Y-76842700D01*
X77970184Y-76852262D01*
X78097738Y-76979816D01*
X78250478Y-77075789D01*
X78420745Y-77135368D01*
X78562946Y-77151390D01*
X78599999Y-77155565D01*
X78600000Y-77155565D01*
X78600001Y-77155565D01*
X78618152Y-77153519D01*
X78779255Y-77135368D01*
X78949522Y-77075789D01*
X79102262Y-76979816D01*
X79229816Y-76852262D01*
X79325789Y-76699522D01*
X79385368Y-76529255D01*
X79403854Y-76365186D01*
X79405565Y-76350001D01*
X79405565Y-76349998D01*
X79401070Y-76310102D01*
X79385368Y-76170745D01*
X79325789Y-76000478D01*
X79229816Y-75847738D01*
X79102262Y-75720184D01*
X79102261Y-75720183D01*
X78982323Y-75644821D01*
X78971694Y-75629840D01*
X78974771Y-75611731D01*
X78989752Y-75601102D01*
X78995092Y-75600500D01*
X83136297Y-75600500D01*
X83153268Y-75607529D01*
X84996471Y-77450732D01*
X85003500Y-77467703D01*
X85003500Y-77794219D01*
X84996471Y-77811190D01*
X84979500Y-77818219D01*
X84962532Y-77811192D01*
X84960967Y-77809628D01*
X84960966Y-77809627D01*
X84860914Y-77758648D01*
X84750000Y-77741081D01*
X84639085Y-77758648D01*
X84539036Y-77809625D01*
X84459625Y-77889036D01*
X84408648Y-77989085D01*
X84391081Y-78100000D01*
X84408648Y-78210914D01*
X84459625Y-78310963D01*
X84459626Y-78310964D01*
X84459628Y-78310967D01*
X84539033Y-78390372D01*
X84539035Y-78390373D01*
X84539036Y-78390374D01*
X84639085Y-78441351D01*
X84639086Y-78441351D01*
X84639088Y-78441352D01*
X84750000Y-78458919D01*
X84860912Y-78441352D01*
X84865246Y-78439144D01*
X84960965Y-78390373D01*
X84960964Y-78390373D01*
X84960967Y-78390372D01*
X84974952Y-78376386D01*
X84991921Y-78369357D01*
X85008892Y-78376386D01*
X85014095Y-78384173D01*
X85041634Y-78450658D01*
X85041635Y-78450659D01*
X85041636Y-78450661D01*
X85071471Y-78480496D01*
X85078500Y-78497466D01*
X85078500Y-79146453D01*
X85071471Y-79163424D01*
X85054500Y-79170453D01*
X85050747Y-79170158D01*
X85025000Y-79166081D01*
X84914085Y-79183648D01*
X84814036Y-79234625D01*
X84734625Y-79314036D01*
X84683648Y-79414085D01*
X84666081Y-79525000D01*
X84683648Y-79635914D01*
X84734625Y-79735963D01*
X84734626Y-79735964D01*
X84734628Y-79735967D01*
X84814033Y-79815372D01*
X84814035Y-79815373D01*
X84814036Y-79815374D01*
X84914085Y-79866351D01*
X84914086Y-79866351D01*
X84914088Y-79866352D01*
X85025000Y-79883919D01*
X85135912Y-79866352D01*
X85235967Y-79815372D01*
X85315372Y-79735967D01*
X85366352Y-79635912D01*
X85383919Y-79525000D01*
X85383055Y-79519548D01*
X85370968Y-79443236D01*
X85370692Y-79441492D01*
X85374979Y-79423631D01*
X85377418Y-79420775D01*
X85402782Y-79395413D01*
X85417052Y-79360963D01*
X85429500Y-79330909D01*
X85429500Y-78497466D01*
X85436528Y-78480496D01*
X85466364Y-78450661D01*
X85491336Y-78390373D01*
X85504500Y-78358593D01*
X85504500Y-77304170D01*
X85466365Y-77212104D01*
X85395897Y-77141635D01*
X85395897Y-77141636D01*
X83495732Y-75241471D01*
X83488703Y-75224500D01*
X83495732Y-75207529D01*
X83512703Y-75200500D01*
X85479176Y-75200500D01*
X85496147Y-75207529D01*
X85503176Y-75224500D01*
X85496147Y-75241471D01*
X85490072Y-75245884D01*
X85414036Y-75284625D01*
X85334625Y-75364036D01*
X85283648Y-75464085D01*
X85266081Y-75575000D01*
X85283648Y-75685914D01*
X85334625Y-75785963D01*
X85334626Y-75785964D01*
X85334628Y-75785967D01*
X85414033Y-75865372D01*
X85414035Y-75865373D01*
X85414036Y-75865374D01*
X85514085Y-75916351D01*
X85514086Y-75916351D01*
X85514088Y-75916352D01*
X85625000Y-75933919D01*
X85735912Y-75916352D01*
X85747757Y-75910317D01*
X85807432Y-75879911D01*
X85835967Y-75865372D01*
X85915372Y-75785967D01*
X85966352Y-75685912D01*
X85983919Y-75575000D01*
X85966352Y-75464088D01*
X85966351Y-75464086D01*
X85966351Y-75464085D01*
X85915374Y-75364036D01*
X85915373Y-75364035D01*
X85915372Y-75364033D01*
X85835967Y-75284628D01*
X85835964Y-75284626D01*
X85835963Y-75284625D01*
X85759928Y-75245884D01*
X85747999Y-75231916D01*
X85749440Y-75213604D01*
X85763408Y-75201675D01*
X85770824Y-75200500D01*
X86576000Y-75200500D01*
X86592971Y-75207529D01*
X86600000Y-75224500D01*
X86600000Y-79119204D01*
X86600001Y-79119204D01*
X93599999Y-79119204D01*
X93600000Y-79119204D01*
X93600000Y-78450000D01*
X98203554Y-78450000D01*
X98400000Y-78646446D01*
X98596446Y-78450000D01*
X99403554Y-78450000D01*
X99600000Y-78646446D01*
X99796446Y-78450000D01*
X100803554Y-78450000D01*
X101000000Y-78646446D01*
X101196446Y-78450000D01*
X102003554Y-78450000D01*
X102200000Y-78646446D01*
X102396446Y-78450000D01*
X102200000Y-78253554D01*
X102003554Y-78450000D01*
X101196446Y-78450000D01*
X101000000Y-78253554D01*
X100803554Y-78450000D01*
X99796446Y-78450000D01*
X99600000Y-78253554D01*
X99403554Y-78450000D01*
X98596446Y-78450000D01*
X98400000Y-78253554D01*
X98203554Y-78450000D01*
X93600000Y-78450000D01*
X93600000Y-77550000D01*
X93741081Y-77550000D01*
X93758648Y-77660914D01*
X93809625Y-77760963D01*
X93809626Y-77760964D01*
X93809628Y-77760967D01*
X93889033Y-77840372D01*
X93889035Y-77840373D01*
X93889036Y-77840374D01*
X93989085Y-77891351D01*
X93989086Y-77891351D01*
X93989088Y-77891352D01*
X94100000Y-77908919D01*
X94156324Y-77899998D01*
X97637204Y-77899998D01*
X97637204Y-77900001D01*
X97656328Y-78069736D01*
X97656329Y-78069739D01*
X97712742Y-78230958D01*
X97712747Y-78230968D01*
X97713800Y-78232644D01*
X98046445Y-77899999D01*
X98021582Y-77875136D01*
X98275000Y-77875136D01*
X98275000Y-77924864D01*
X98294030Y-77970807D01*
X98329193Y-78005970D01*
X98375136Y-78025000D01*
X98424864Y-78025000D01*
X98470807Y-78005970D01*
X98505970Y-77970807D01*
X98525000Y-77924864D01*
X98525000Y-77900000D01*
X98753554Y-77900000D01*
X99000000Y-78146446D01*
X99246446Y-77900000D01*
X99221582Y-77875136D01*
X99475000Y-77875136D01*
X99475000Y-77924864D01*
X99494030Y-77970807D01*
X99529193Y-78005970D01*
X99575136Y-78025000D01*
X99624864Y-78025000D01*
X99670807Y-78005970D01*
X99705970Y-77970807D01*
X99725000Y-77924864D01*
X99725000Y-77900000D01*
X99953554Y-77900000D01*
X100286198Y-78232644D01*
X100297331Y-78231393D01*
X100302698Y-78231394D01*
X100313800Y-78232644D01*
X100646445Y-77899999D01*
X100621582Y-77875136D01*
X100875000Y-77875136D01*
X100875000Y-77924864D01*
X100894030Y-77970807D01*
X100929193Y-78005970D01*
X100975136Y-78025000D01*
X101024864Y-78025000D01*
X101070807Y-78005970D01*
X101105970Y-77970807D01*
X101125000Y-77924864D01*
X101125000Y-77900000D01*
X101353554Y-77900000D01*
X101600000Y-78146446D01*
X101846446Y-77900000D01*
X101821582Y-77875136D01*
X102075000Y-77875136D01*
X102075000Y-77924864D01*
X102094030Y-77970807D01*
X102129193Y-78005970D01*
X102175136Y-78025000D01*
X102224864Y-78025000D01*
X102270807Y-78005970D01*
X102305970Y-77970807D01*
X102325000Y-77924864D01*
X102325000Y-77899999D01*
X102553553Y-77899999D01*
X102886198Y-78232644D01*
X102887252Y-78230968D01*
X102887257Y-78230958D01*
X102943670Y-78069739D01*
X102943671Y-78069736D01*
X102962796Y-77900001D01*
X102962796Y-77899998D01*
X102943671Y-77730263D01*
X102943670Y-77730260D01*
X102887254Y-77569034D01*
X102887253Y-77569032D01*
X102886198Y-77567354D01*
X102553553Y-77899999D01*
X102325000Y-77899999D01*
X102325000Y-77875136D01*
X102305970Y-77829193D01*
X102270807Y-77794030D01*
X102224864Y-77775000D01*
X102175136Y-77775000D01*
X102129193Y-77794030D01*
X102094030Y-77829193D01*
X102075000Y-77875136D01*
X101821582Y-77875136D01*
X101600000Y-77653554D01*
X101353554Y-77900000D01*
X101125000Y-77900000D01*
X101125000Y-77875136D01*
X101105970Y-77829193D01*
X101070807Y-77794030D01*
X101024864Y-77775000D01*
X100975136Y-77775000D01*
X100929193Y-77794030D01*
X100894030Y-77829193D01*
X100875000Y-77875136D01*
X100621582Y-77875136D01*
X100300000Y-77553554D01*
X99953554Y-77900000D01*
X99725000Y-77900000D01*
X99725000Y-77875136D01*
X99705970Y-77829193D01*
X99670807Y-77794030D01*
X99624864Y-77775000D01*
X99575136Y-77775000D01*
X99529193Y-77794030D01*
X99494030Y-77829193D01*
X99475000Y-77875136D01*
X99221582Y-77875136D01*
X99000000Y-77653554D01*
X98753554Y-77900000D01*
X98525000Y-77900000D01*
X98525000Y-77875136D01*
X98505970Y-77829193D01*
X98470807Y-77794030D01*
X98424864Y-77775000D01*
X98375136Y-77775000D01*
X98329193Y-77794030D01*
X98294030Y-77829193D01*
X98275000Y-77875136D01*
X98021582Y-77875136D01*
X97713801Y-77567355D01*
X97712744Y-77569036D01*
X97656329Y-77730260D01*
X97656328Y-77730263D01*
X97637204Y-77899998D01*
X94156324Y-77899998D01*
X94210912Y-77891352D01*
X94310967Y-77840372D01*
X94390372Y-77760967D01*
X94441352Y-77660912D01*
X94458919Y-77550000D01*
X94441352Y-77439088D01*
X94441351Y-77439086D01*
X94441351Y-77439085D01*
X94390374Y-77339036D01*
X94390373Y-77339035D01*
X94390372Y-77339033D01*
X94310967Y-77259628D01*
X94310964Y-77259626D01*
X94310963Y-77259625D01*
X94221027Y-77213801D01*
X98067355Y-77213801D01*
X98400000Y-77546446D01*
X98406830Y-77539616D01*
X98406830Y-77539615D01*
X98373801Y-77506586D01*
X98366772Y-77489616D01*
X98373801Y-77472645D01*
X98386064Y-77460382D01*
X100293169Y-77460382D01*
X100300000Y-77467213D01*
X100306829Y-77460383D01*
X100299999Y-77453553D01*
X100293169Y-77460382D01*
X98386064Y-77460382D01*
X98746446Y-77100000D01*
X98721582Y-77075136D01*
X98975000Y-77075136D01*
X98975000Y-77124864D01*
X98994030Y-77170807D01*
X99029193Y-77205970D01*
X99075136Y-77225000D01*
X99124864Y-77225000D01*
X99170807Y-77205970D01*
X99205970Y-77170807D01*
X99225000Y-77124864D01*
X99225000Y-77100000D01*
X99453554Y-77100000D01*
X99700000Y-77346446D01*
X99946446Y-77100000D01*
X99921582Y-77075136D01*
X100175000Y-77075136D01*
X100175000Y-77124864D01*
X100194030Y-77170807D01*
X100229193Y-77205970D01*
X100275136Y-77225000D01*
X100324864Y-77225000D01*
X100370807Y-77205970D01*
X100405970Y-77170807D01*
X100425000Y-77124864D01*
X100425000Y-77100000D01*
X100653554Y-77100000D01*
X100950000Y-77396446D01*
X101246446Y-77100000D01*
X101221582Y-77075136D01*
X101475000Y-77075136D01*
X101475000Y-77124864D01*
X101494030Y-77170807D01*
X101529193Y-77205970D01*
X101575136Y-77225000D01*
X101624864Y-77225000D01*
X101670807Y-77205970D01*
X101705970Y-77170807D01*
X101725000Y-77124864D01*
X101725000Y-77099999D01*
X101953553Y-77099999D01*
X102299999Y-77446445D01*
X102532644Y-77213800D01*
X102530968Y-77212747D01*
X102530958Y-77212742D01*
X102375017Y-77158176D01*
X102361321Y-77145936D01*
X102359095Y-77132835D01*
X102362796Y-77099999D01*
X102362796Y-77099998D01*
X102343671Y-76930263D01*
X102343670Y-76930260D01*
X102287254Y-76769034D01*
X102287253Y-76769032D01*
X102286198Y-76767354D01*
X101953553Y-77099999D01*
X101725000Y-77099999D01*
X101725000Y-77075136D01*
X101705970Y-77029193D01*
X101670807Y-76994030D01*
X101624864Y-76975000D01*
X101575136Y-76975000D01*
X101529193Y-76994030D01*
X101494030Y-77029193D01*
X101475000Y-77075136D01*
X101221582Y-77075136D01*
X100950000Y-76803554D01*
X100653554Y-77100000D01*
X100425000Y-77100000D01*
X100425000Y-77075136D01*
X100405970Y-77029193D01*
X100370807Y-76994030D01*
X100324864Y-76975000D01*
X100275136Y-76975000D01*
X100229193Y-76994030D01*
X100194030Y-77029193D01*
X100175000Y-77075136D01*
X99921582Y-77075136D01*
X99700000Y-76853554D01*
X99453554Y-77100000D01*
X99225000Y-77100000D01*
X99225000Y-77075136D01*
X99205970Y-77029193D01*
X99170807Y-76994030D01*
X99124864Y-76975000D01*
X99075136Y-76975000D01*
X99029193Y-76994030D01*
X98994030Y-77029193D01*
X98975000Y-77075136D01*
X98721582Y-77075136D01*
X98413801Y-76767355D01*
X98412744Y-76769036D01*
X98356329Y-76930260D01*
X98356328Y-76930263D01*
X98337204Y-77099998D01*
X98337204Y-77100001D01*
X98339443Y-77119875D01*
X98334358Y-77137526D01*
X98318281Y-77146411D01*
X98230263Y-77156328D01*
X98230260Y-77156329D01*
X98069036Y-77212744D01*
X98067355Y-77213801D01*
X94221027Y-77213801D01*
X94210914Y-77208648D01*
X94100000Y-77191081D01*
X93989085Y-77208648D01*
X93889036Y-77259625D01*
X93809625Y-77339036D01*
X93758648Y-77439085D01*
X93741081Y-77550000D01*
X93600000Y-77550000D01*
X93600000Y-76413801D01*
X98767355Y-76413801D01*
X99099999Y-76746445D01*
X99432643Y-76413801D01*
X99967355Y-76413801D01*
X100299999Y-76746445D01*
X100632643Y-76413801D01*
X101267355Y-76413801D01*
X101599999Y-76746445D01*
X101932644Y-76413800D01*
X101930968Y-76412747D01*
X101930958Y-76412742D01*
X101769739Y-76356329D01*
X101769736Y-76356328D01*
X101600001Y-76337204D01*
X101599999Y-76337204D01*
X101430263Y-76356328D01*
X101430260Y-76356329D01*
X101269036Y-76412744D01*
X101267355Y-76413801D01*
X100632643Y-76413801D01*
X100632644Y-76413800D01*
X100630968Y-76412747D01*
X100630958Y-76412742D01*
X100469739Y-76356329D01*
X100469736Y-76356328D01*
X100300001Y-76337204D01*
X100299999Y-76337204D01*
X100130263Y-76356328D01*
X100130260Y-76356329D01*
X99969036Y-76412744D01*
X99967355Y-76413801D01*
X99432643Y-76413801D01*
X99432644Y-76413800D01*
X99430968Y-76412747D01*
X99430958Y-76412742D01*
X99269739Y-76356329D01*
X99269736Y-76356328D01*
X99100001Y-76337204D01*
X99099999Y-76337204D01*
X98930263Y-76356328D01*
X98930260Y-76356329D01*
X98769036Y-76412744D01*
X98767355Y-76413801D01*
X93600000Y-76413801D01*
X93600000Y-75600000D01*
X103141081Y-75600000D01*
X103158648Y-75710914D01*
X103209625Y-75810963D01*
X103209626Y-75810964D01*
X103209628Y-75810967D01*
X103289033Y-75890372D01*
X103289035Y-75890373D01*
X103289036Y-75890374D01*
X103389085Y-75941351D01*
X103389086Y-75941351D01*
X103389088Y-75941352D01*
X103500000Y-75958919D01*
X103610912Y-75941352D01*
X103710967Y-75890372D01*
X103790372Y-75810967D01*
X103841352Y-75710912D01*
X103858919Y-75600000D01*
X103841352Y-75489088D01*
X103841351Y-75489086D01*
X103841351Y-75489085D01*
X103790374Y-75389036D01*
X103790373Y-75389035D01*
X103790372Y-75389033D01*
X103710967Y-75309628D01*
X103710964Y-75309626D01*
X103710963Y-75309625D01*
X103610914Y-75258648D01*
X103500000Y-75241081D01*
X103389085Y-75258648D01*
X103289036Y-75309625D01*
X103209625Y-75389036D01*
X103158648Y-75489085D01*
X103141081Y-75600000D01*
X93600000Y-75600000D01*
X93600000Y-75224500D01*
X93607029Y-75207529D01*
X93624000Y-75200500D01*
X95039882Y-75200500D01*
X95113574Y-75169976D01*
X95169976Y-75113574D01*
X95200500Y-75039882D01*
X95200500Y-74850000D01*
X98316081Y-74850000D01*
X98333648Y-74960914D01*
X98384625Y-75060963D01*
X98384626Y-75060964D01*
X98384628Y-75060967D01*
X98464033Y-75140372D01*
X98464035Y-75140373D01*
X98464036Y-75140374D01*
X98564085Y-75191351D01*
X98564086Y-75191351D01*
X98564088Y-75191352D01*
X98675000Y-75208919D01*
X98785912Y-75191352D01*
X98885967Y-75140372D01*
X98965372Y-75060967D01*
X99016352Y-74960912D01*
X99033919Y-74850000D01*
X99016352Y-74739088D01*
X99016351Y-74739086D01*
X99016351Y-74739085D01*
X98965374Y-74639036D01*
X98965373Y-74639035D01*
X98965372Y-74639033D01*
X98885967Y-74559628D01*
X98885964Y-74559626D01*
X98885963Y-74559625D01*
X98785914Y-74508648D01*
X98675000Y-74491081D01*
X98564085Y-74508648D01*
X98464036Y-74559625D01*
X98384625Y-74639036D01*
X98333648Y-74739085D01*
X98316081Y-74850000D01*
X95200500Y-74850000D01*
X95200500Y-74401237D01*
X95207529Y-74384266D01*
X95219843Y-74377693D01*
X95319097Y-74358078D01*
X95323780Y-74357623D01*
X105684000Y-74372262D01*
G37*
%TD.AperFunction*%
%TA.AperFunction,Conductor*%
G36*
X127309204Y-78687878D02*
G01*
X127316233Y-78704849D01*
X127316233Y-79080400D01*
X127346755Y-79154089D01*
X127346756Y-79154090D01*
X127346757Y-79154092D01*
X129087603Y-80894938D01*
X129087604Y-80894938D01*
X129087605Y-80894939D01*
X129161294Y-80925462D01*
X129161295Y-80925462D01*
X129241060Y-80925462D01*
X135100403Y-80925462D01*
X135117374Y-80932491D01*
X135124106Y-80945704D01*
X135127390Y-80966433D01*
X135129452Y-80979456D01*
X135180429Y-81079505D01*
X135180430Y-81079506D01*
X135180432Y-81079509D01*
X135259837Y-81158914D01*
X135259839Y-81158915D01*
X135259840Y-81158916D01*
X135359889Y-81209893D01*
X135359890Y-81209893D01*
X135359892Y-81209894D01*
X135470804Y-81227461D01*
X135581716Y-81209894D01*
X135681771Y-81158914D01*
X135761176Y-81079509D01*
X135812156Y-80979454D01*
X135817501Y-80945705D01*
X135827098Y-80930046D01*
X135841205Y-80925462D01*
X139418927Y-80925462D01*
X139435898Y-80932491D01*
X139442927Y-80949462D01*
X139435898Y-80966431D01*
X139266101Y-81136229D01*
X139097070Y-81305260D01*
X138881551Y-81520779D01*
X138864580Y-81527808D01*
X135442247Y-81527808D01*
X135368557Y-81558330D01*
X135291372Y-81635515D01*
X135274402Y-81642544D01*
X134691342Y-81642544D01*
X134674371Y-81635515D01*
X134671929Y-81632656D01*
X134671511Y-81632081D01*
X134671509Y-81632079D01*
X134671508Y-81632077D01*
X134592103Y-81552672D01*
X134592100Y-81552670D01*
X134592099Y-81552669D01*
X134492050Y-81501692D01*
X134381136Y-81484125D01*
X134270221Y-81501692D01*
X134170172Y-81552669D01*
X134090760Y-81632081D01*
X134090343Y-81632656D01*
X134089937Y-81632904D01*
X134089429Y-81633413D01*
X134089306Y-81633290D01*
X134074678Y-81642249D01*
X134070930Y-81642544D01*
X133594417Y-81642544D01*
X133577446Y-81635515D01*
X133415130Y-81473199D01*
X133247191Y-81305260D01*
X133247189Y-81305259D01*
X133247188Y-81305258D01*
X133191248Y-81282087D01*
X133183461Y-81276885D01*
X133047657Y-81141081D01*
X132907794Y-81001218D01*
X132907792Y-81001217D01*
X132907791Y-81001216D01*
X132843291Y-80974500D01*
X132843290Y-80974500D01*
X126034909Y-80974500D01*
X126003395Y-80974500D01*
X125986424Y-80967471D01*
X125979395Y-80950500D01*
X125986424Y-80933529D01*
X126243074Y-80676879D01*
X127018689Y-79901264D01*
X127049213Y-79827572D01*
X127049213Y-79747808D01*
X127049213Y-78834507D01*
X127056242Y-78817536D01*
X127069457Y-78810802D01*
X127109625Y-78804441D01*
X127209680Y-78753461D01*
X127275263Y-78687877D01*
X127292233Y-78680849D01*
X127309204Y-78687878D01*
G37*
%TD.AperFunction*%
%TA.AperFunction,Conductor*%
G36*
X126041017Y-78185505D02*
G01*
X126048046Y-78202476D01*
X126041017Y-78219445D01*
X126023644Y-78236819D01*
X126008338Y-78252125D01*
X125957361Y-78352174D01*
X125939794Y-78463089D01*
X125957361Y-78574003D01*
X126008338Y-78674052D01*
X126008339Y-78674053D01*
X126008341Y-78674056D01*
X126087746Y-78753461D01*
X126087748Y-78753462D01*
X126087749Y-78753463D01*
X126187798Y-78804440D01*
X126187799Y-78804440D01*
X126187801Y-78804441D01*
X126227968Y-78810802D01*
X126243629Y-78820400D01*
X126248213Y-78834507D01*
X126248213Y-79529009D01*
X126241184Y-79545980D01*
X126124136Y-79663028D01*
X126107165Y-79670057D01*
X126090194Y-79663028D01*
X126083626Y-79650739D01*
X126074332Y-79604014D01*
X126074330Y-79604007D01*
X126000232Y-79425118D01*
X125892654Y-79264116D01*
X125755730Y-79127192D01*
X125594728Y-79019614D01*
X125415839Y-78945516D01*
X125415832Y-78945514D01*
X125233107Y-78909168D01*
X125233107Y-79636160D01*
X125183808Y-79615740D01*
X124774406Y-79615740D01*
X124725107Y-79636160D01*
X124725107Y-78909168D01*
X124542381Y-78945514D01*
X124542374Y-78945516D01*
X124363485Y-79019614D01*
X124202483Y-79127192D01*
X124065559Y-79264116D01*
X123957981Y-79425118D01*
X123883884Y-79604005D01*
X123883882Y-79604014D01*
X123877373Y-79636740D01*
X124723707Y-79636740D01*
X124673332Y-79657606D01*
X124595973Y-79734965D01*
X124554107Y-79836039D01*
X124554107Y-79945441D01*
X124595973Y-80046515D01*
X124673332Y-80123874D01*
X124723707Y-80144740D01*
X123877373Y-80144740D01*
X123883882Y-80177465D01*
X123883884Y-80177474D01*
X123957981Y-80356361D01*
X123991583Y-80406649D01*
X123995167Y-80424665D01*
X123984962Y-80439938D01*
X123971628Y-80443983D01*
X122646423Y-80443983D01*
X122629452Y-80436954D01*
X122622423Y-80419983D01*
X122629451Y-80403013D01*
X122686910Y-80345555D01*
X122748101Y-80225461D01*
X122769186Y-80092335D01*
X122748101Y-79959209D01*
X122748100Y-79959207D01*
X122748100Y-79959206D01*
X122686912Y-79839118D01*
X122686911Y-79839117D01*
X122686910Y-79839115D01*
X122591602Y-79743807D01*
X122591599Y-79743805D01*
X122591598Y-79743804D01*
X122471510Y-79682616D01*
X122338382Y-79661531D01*
X122205253Y-79682616D01*
X122085165Y-79743804D01*
X121989851Y-79839118D01*
X121928663Y-79959206D01*
X121907578Y-80092335D01*
X121928663Y-80225463D01*
X121989851Y-80345551D01*
X121989852Y-80345552D01*
X121989854Y-80345555D01*
X122047312Y-80403013D01*
X122054341Y-80419983D01*
X122047312Y-80436954D01*
X122030341Y-80443983D01*
X113868634Y-80443983D01*
X113794945Y-80474505D01*
X113288151Y-80981299D01*
X113271180Y-80988328D01*
X112338132Y-80988328D01*
X112333452Y-80987867D01*
X112333256Y-80987828D01*
X112333253Y-80987828D01*
X112218309Y-80987828D01*
X112201338Y-80980799D01*
X112194309Y-80963828D01*
X112201338Y-80946857D01*
X112565666Y-80582529D01*
X112582637Y-80575500D01*
X112976850Y-80575500D01*
X112993821Y-80582529D01*
X112998232Y-80588601D01*
X113009628Y-80610967D01*
X113089033Y-80690372D01*
X113089035Y-80690373D01*
X113089036Y-80690374D01*
X113189085Y-80741351D01*
X113189086Y-80741351D01*
X113189088Y-80741352D01*
X113300000Y-80758919D01*
X113410912Y-80741352D01*
X113510967Y-80690372D01*
X113590372Y-80610967D01*
X113641352Y-80510912D01*
X113658919Y-80400000D01*
X113641352Y-80289088D01*
X113641351Y-80289086D01*
X113641351Y-80289085D01*
X113590374Y-80189036D01*
X113590373Y-80189035D01*
X113590372Y-80189033D01*
X113510967Y-80109628D01*
X113510964Y-80109626D01*
X113510963Y-80109625D01*
X113410914Y-80058648D01*
X113300000Y-80041081D01*
X113189085Y-80058648D01*
X113089036Y-80109625D01*
X113009627Y-80189034D01*
X113006473Y-80195225D01*
X112998233Y-80211396D01*
X112984267Y-80223325D01*
X112976850Y-80224500D01*
X112537707Y-80224500D01*
X112537699Y-80224499D01*
X112534909Y-80224499D01*
X112465091Y-80224499D01*
X112465090Y-80224499D01*
X112437246Y-80236033D01*
X112400587Y-80251218D01*
X112400585Y-80251219D01*
X112400583Y-80251221D01*
X112180911Y-80470891D01*
X112163941Y-80477920D01*
X112146970Y-80470890D01*
X112139941Y-80453920D01*
X112140236Y-80450173D01*
X112158051Y-80337695D01*
X112159531Y-80328353D01*
X112159531Y-80328351D01*
X112138446Y-80195225D01*
X112138445Y-80195223D01*
X112138445Y-80195222D01*
X112077257Y-80075134D01*
X112077256Y-80075133D01*
X112077255Y-80075131D01*
X111981947Y-79979823D01*
X111981944Y-79979821D01*
X111981943Y-79979820D01*
X111943821Y-79960396D01*
X111931892Y-79946428D01*
X111933333Y-79928116D01*
X111947301Y-79916187D01*
X111959402Y-79915474D01*
X111960744Y-79915741D01*
X112040508Y-79915741D01*
X112076398Y-79900875D01*
X112095246Y-79893067D01*
X112104430Y-79891241D01*
X118538983Y-79891241D01*
X118548166Y-79893067D01*
X118552356Y-79894803D01*
X118604111Y-79916241D01*
X118604112Y-79916241D01*
X118683876Y-79916241D01*
X118757568Y-79885717D01*
X119444232Y-79199051D01*
X119461201Y-79192024D01*
X119478172Y-79199053D01*
X119485201Y-79216024D01*
X119483032Y-79225994D01*
X119448427Y-79301768D01*
X119448426Y-79301771D01*
X119427944Y-79444228D01*
X119448426Y-79586685D01*
X119508214Y-79717601D01*
X119602463Y-79826371D01*
X119723538Y-79904181D01*
X119861630Y-79944728D01*
X119861631Y-79944728D01*
X120005551Y-79944728D01*
X120005552Y-79944728D01*
X120143644Y-79904181D01*
X120264719Y-79826371D01*
X120358968Y-79717601D01*
X120418756Y-79586685D01*
X120439238Y-79444228D01*
X120418756Y-79301771D01*
X120358968Y-79170855D01*
X120264719Y-79062085D01*
X120264718Y-79062084D01*
X120143646Y-78984276D01*
X120143641Y-78984274D01*
X120089370Y-78968339D01*
X120005552Y-78943728D01*
X119861630Y-78943728D01*
X119829303Y-78953220D01*
X119722408Y-78984606D01*
X119704145Y-78982642D01*
X119692619Y-78968339D01*
X119694583Y-78950076D01*
X119698671Y-78944612D01*
X120457779Y-78185504D01*
X120474750Y-78178476D01*
X126024046Y-78178476D01*
X126041017Y-78185505D01*
G37*
%TD.AperFunction*%
%TA.AperFunction,Conductor*%
G36*
X155875074Y-75207529D02*
G01*
X156462587Y-75795041D01*
X157050100Y-75207529D01*
X157067071Y-75200500D01*
X157718793Y-75200500D01*
X157735764Y-75207529D01*
X157742793Y-75224500D01*
X157735764Y-75241471D01*
X157731768Y-75244690D01*
X157627134Y-75311933D01*
X157532884Y-75420705D01*
X157515804Y-75458103D01*
X157510944Y-75465103D01*
X156821797Y-76154251D01*
X157513785Y-76846239D01*
X157556204Y-76785661D01*
X157556206Y-76785658D01*
X157649236Y-76586156D01*
X157706206Y-76373537D01*
X157723428Y-76176695D01*
X157731910Y-76160402D01*
X157749429Y-76154878D01*
X157754096Y-76155758D01*
X157886301Y-76194577D01*
X157984197Y-76194577D01*
X158001168Y-76201606D01*
X158008065Y-76216067D01*
X158009167Y-76226548D01*
X158013503Y-76267807D01*
X158068746Y-76437826D01*
X158068751Y-76437837D01*
X158158141Y-76592666D01*
X158277765Y-76725522D01*
X158277768Y-76725525D01*
X158327143Y-76761398D01*
X158422407Y-76830612D01*
X158485261Y-76858595D01*
X158497906Y-76871918D01*
X158499500Y-76880520D01*
X158499500Y-77068748D01*
X158507874Y-77099999D01*
X158522966Y-77156328D01*
X158523386Y-77157892D01*
X158569530Y-77237816D01*
X158650910Y-77319196D01*
X158718660Y-77386946D01*
X158725689Y-77403917D01*
X158725445Y-77407332D01*
X158718001Y-77459108D01*
X158717255Y-77464300D01*
X158737737Y-77606757D01*
X158737738Y-77606759D01*
X158794535Y-77731127D01*
X158797525Y-77737673D01*
X158891774Y-77846443D01*
X158953026Y-77885806D01*
X158963501Y-77900893D01*
X158964050Y-77905995D01*
X158964050Y-78356986D01*
X158957021Y-78373957D01*
X158940050Y-78380986D01*
X158935060Y-78380462D01*
X158893921Y-78371718D01*
X158789391Y-78349500D01*
X158610609Y-78349500D01*
X158481768Y-78376886D01*
X158435728Y-78386672D01*
X158272410Y-78459387D01*
X158272400Y-78459393D01*
X158127768Y-78564474D01*
X158127765Y-78564477D01*
X158008141Y-78697333D01*
X157918751Y-78852162D01*
X157918746Y-78852173D01*
X157863503Y-79022192D01*
X157857471Y-79079584D01*
X157852468Y-79127192D01*
X157851921Y-79132395D01*
X157843156Y-79148538D01*
X157825543Y-79153755D01*
X157809400Y-79144990D01*
X157804870Y-79136097D01*
X157786649Y-79068097D01*
X157786650Y-79068097D01*
X157693624Y-78868604D01*
X157651198Y-78808011D01*
X156600000Y-79859210D01*
X156032000Y-80427208D01*
X156018821Y-80433936D01*
X153467182Y-80842199D01*
X153449314Y-80837939D01*
X153439691Y-80822292D01*
X153443951Y-80804424D01*
X153446413Y-80801535D01*
X155159719Y-79088229D01*
X155176689Y-79081201D01*
X155180441Y-79081496D01*
X155263950Y-79094724D01*
X155374862Y-79077157D01*
X155374864Y-79077155D01*
X155376018Y-79076973D01*
X155393880Y-79081262D01*
X155403478Y-79096923D01*
X155402955Y-79106889D01*
X155356380Y-79280712D01*
X155356380Y-79280713D01*
X155337195Y-79500000D01*
X155356380Y-79719285D01*
X155413350Y-79931904D01*
X155506375Y-80131396D01*
X155548800Y-80191987D01*
X156240789Y-79499999D01*
X155611337Y-78870547D01*
X155604308Y-78853576D01*
X155605097Y-78848597D01*
X155605006Y-78848583D01*
X155605302Y-78846717D01*
X155622869Y-78735805D01*
X155605302Y-78624893D01*
X155605301Y-78624891D01*
X155605301Y-78624890D01*
X155554324Y-78524841D01*
X155554323Y-78524840D01*
X155554322Y-78524838D01*
X155478284Y-78448800D01*
X155908011Y-78448800D01*
X156599999Y-79140788D01*
X157291987Y-78448800D01*
X157231396Y-78406375D01*
X157031904Y-78313350D01*
X156819284Y-78256380D01*
X156819286Y-78256380D01*
X156600000Y-78237195D01*
X156380714Y-78256380D01*
X156168095Y-78313350D01*
X155968604Y-78406375D01*
X155908011Y-78448800D01*
X155478284Y-78448800D01*
X155474917Y-78445433D01*
X155474914Y-78445431D01*
X155474913Y-78445430D01*
X155374864Y-78394453D01*
X155263950Y-78376886D01*
X155153035Y-78394453D01*
X155052986Y-78445430D01*
X154973575Y-78524841D01*
X154922598Y-78624890D01*
X154909694Y-78706363D01*
X154905031Y-78735805D01*
X154916723Y-78809628D01*
X154918257Y-78819310D01*
X154913968Y-78837171D01*
X154911523Y-78840035D01*
X153134089Y-80617471D01*
X153117118Y-80624500D01*
X151982735Y-80624500D01*
X151965764Y-80617471D01*
X151958735Y-80600500D01*
X151965764Y-80583529D01*
X153331174Y-79218119D01*
X153348145Y-79211090D01*
X154142016Y-79211090D01*
X154215708Y-79180566D01*
X154272110Y-79124164D01*
X154302634Y-79050472D01*
X154302634Y-78549663D01*
X154309662Y-78532693D01*
X154483527Y-78358827D01*
X154500497Y-78351799D01*
X154504248Y-78352094D01*
X154524247Y-78355262D01*
X154557234Y-78360488D01*
X154557235Y-78360488D01*
X154557236Y-78360487D01*
X154557237Y-78360488D01*
X154668149Y-78342921D01*
X154768204Y-78291941D01*
X154847609Y-78212536D01*
X154894609Y-78120292D01*
X154898588Y-78112483D01*
X154898588Y-78112482D01*
X154898589Y-78112481D01*
X154916156Y-78001569D01*
X154898589Y-77890657D01*
X154898588Y-77890655D01*
X154898588Y-77890654D01*
X154847611Y-77790605D01*
X154847610Y-77790604D01*
X154847609Y-77790602D01*
X154768204Y-77711197D01*
X154768201Y-77711195D01*
X154768200Y-77711194D01*
X154668151Y-77660217D01*
X154557237Y-77642650D01*
X154446322Y-77660217D01*
X154346273Y-77711194D01*
X154266862Y-77790605D01*
X154215885Y-77890654D01*
X154200303Y-77989036D01*
X154198318Y-78001569D01*
X154201419Y-78021151D01*
X154206710Y-78054553D01*
X154202421Y-78072414D01*
X154199976Y-78075277D01*
X153988560Y-78286695D01*
X153932156Y-78343099D01*
X153901634Y-78416789D01*
X153901634Y-78786090D01*
X153894605Y-78803061D01*
X153877634Y-78810090D01*
X153215270Y-78810090D01*
X153141581Y-78840612D01*
X151442157Y-80540036D01*
X151425186Y-80547065D01*
X151354609Y-80547065D01*
X151337638Y-80540036D01*
X151330609Y-80523065D01*
X151337638Y-80506094D01*
X152126133Y-79717599D01*
X154499203Y-77344527D01*
X154516173Y-77337499D01*
X154519924Y-77337794D01*
X154535621Y-77340281D01*
X154572910Y-77346188D01*
X154572911Y-77346188D01*
X154572912Y-77346187D01*
X154572913Y-77346188D01*
X154683825Y-77328621D01*
X154783880Y-77277641D01*
X154856071Y-77205450D01*
X155770598Y-77205450D01*
X155831180Y-77247871D01*
X155831186Y-77247875D01*
X156030682Y-77340901D01*
X156243302Y-77397871D01*
X156243300Y-77397871D01*
X156462587Y-77417056D01*
X156681872Y-77397871D01*
X156894491Y-77340901D01*
X157093993Y-77247871D01*
X157093996Y-77247869D01*
X157154574Y-77205450D01*
X156462586Y-76513462D01*
X155770598Y-77205450D01*
X154856071Y-77205450D01*
X154863285Y-77198236D01*
X154914265Y-77098181D01*
X154931832Y-76987269D01*
X154914265Y-76876357D01*
X154914264Y-76876355D01*
X154914264Y-76876354D01*
X154863287Y-76776305D01*
X154863286Y-76776304D01*
X154863285Y-76776302D01*
X154783880Y-76696897D01*
X154783877Y-76696895D01*
X154783876Y-76696894D01*
X154683827Y-76645917D01*
X154572913Y-76628350D01*
X154461998Y-76645917D01*
X154361949Y-76696894D01*
X154282538Y-76776305D01*
X154231561Y-76876354D01*
X154213994Y-76987269D01*
X154222386Y-77040253D01*
X154218097Y-77058114D01*
X154215652Y-77060978D01*
X151036097Y-80240535D01*
X151019126Y-80247564D01*
X148935453Y-80247564D01*
X148861764Y-80278086D01*
X148622417Y-80517433D01*
X148605446Y-80524462D01*
X148038322Y-80524462D01*
X148021351Y-80517433D01*
X148014322Y-80500462D01*
X148021350Y-80483492D01*
X150421877Y-78082966D01*
X150421877Y-78082965D01*
X151100701Y-77404141D01*
X151117711Y-77374679D01*
X151158517Y-77303998D01*
X151160240Y-77301420D01*
X151224737Y-77217368D01*
X151285245Y-77071289D01*
X151305883Y-76914527D01*
X151285245Y-76757765D01*
X151284110Y-76755026D01*
X151224739Y-76611691D01*
X151224736Y-76611685D01*
X151222613Y-76608918D01*
X151128483Y-76486245D01*
X151003042Y-76389991D01*
X151003036Y-76389988D01*
X150856968Y-76329484D01*
X150856964Y-76329483D01*
X150700201Y-76308845D01*
X150543437Y-76329483D01*
X150543433Y-76329484D01*
X150490807Y-76351283D01*
X150472438Y-76351283D01*
X150459450Y-76338294D01*
X150457829Y-76325976D01*
X150459345Y-76314466D01*
X150459345Y-76314464D01*
X150438707Y-76157702D01*
X150437902Y-76155759D01*
X150437278Y-76154252D01*
X155199782Y-76154252D01*
X155218967Y-76373537D01*
X155275937Y-76586156D01*
X155368962Y-76785648D01*
X155411387Y-76846239D01*
X156103375Y-76154251D01*
X155411387Y-75462263D01*
X155368962Y-75522856D01*
X155275937Y-75722347D01*
X155218967Y-75934966D01*
X155199782Y-76154252D01*
X150437278Y-76154252D01*
X150378201Y-76011628D01*
X150378198Y-76011622D01*
X150377653Y-76010912D01*
X150281945Y-75886182D01*
X150156504Y-75789928D01*
X150156498Y-75789925D01*
X150094815Y-75764375D01*
X150087028Y-75759173D01*
X150003159Y-75675304D01*
X149915083Y-75587228D01*
X149800955Y-75521336D01*
X149800954Y-75521335D01*
X149800953Y-75521335D01*
X149694568Y-75492830D01*
X149673661Y-75487228D01*
X149541877Y-75487228D01*
X149468790Y-75506810D01*
X149450579Y-75504412D01*
X149445608Y-75500599D01*
X149332143Y-75387134D01*
X149186478Y-75241469D01*
X149179450Y-75224500D01*
X149186479Y-75207529D01*
X149203450Y-75200500D01*
X155858103Y-75200500D01*
X155875074Y-75207529D01*
G37*
%TD.AperFunction*%
%TA.AperFunction,Conductor*%
G36*
X127901248Y-77151390D02*
G01*
X129638239Y-78888381D01*
X129645268Y-78905352D01*
X129638239Y-78922323D01*
X129625950Y-78928891D01*
X129542381Y-78945514D01*
X129542374Y-78945516D01*
X129363485Y-79019614D01*
X129202483Y-79127192D01*
X129065559Y-79264116D01*
X128957981Y-79425118D01*
X128883884Y-79604005D01*
X128883882Y-79604014D01*
X128877373Y-79636740D01*
X129723707Y-79636740D01*
X129673332Y-79657606D01*
X129595973Y-79734965D01*
X129554107Y-79836039D01*
X129554107Y-79945441D01*
X129595973Y-80046515D01*
X129673332Y-80123874D01*
X129723707Y-80144740D01*
X128914447Y-80144740D01*
X128897476Y-80137711D01*
X127724262Y-78964497D01*
X127717233Y-78947526D01*
X127717233Y-77952166D01*
X127686710Y-77878476D01*
X127630308Y-77822073D01*
X127616233Y-77807999D01*
X127592436Y-77798142D01*
X127579448Y-77785153D01*
X127579448Y-77766784D01*
X127587007Y-77756932D01*
X127652397Y-77706758D01*
X127748651Y-77581317D01*
X127809159Y-77435238D01*
X127829797Y-77278476D01*
X127817095Y-77181991D01*
X127815713Y-77171493D01*
X127820468Y-77153751D01*
X127836376Y-77144566D01*
X127839508Y-77144361D01*
X127884277Y-77144361D01*
X127901248Y-77151390D01*
G37*
%TD.AperFunction*%
%TA.AperFunction,Conductor*%
G36*
X111668889Y-75207529D02*
G01*
X111675918Y-75224500D01*
X111668889Y-75241471D01*
X111662814Y-75245884D01*
X111611661Y-75271947D01*
X111521947Y-75361661D01*
X111464354Y-75474693D01*
X111444508Y-75600000D01*
X111464354Y-75725306D01*
X111521947Y-75838338D01*
X111521948Y-75838339D01*
X111521950Y-75838342D01*
X111611658Y-75928050D01*
X111611660Y-75928051D01*
X111611661Y-75928052D01*
X111724693Y-75985645D01*
X111724694Y-75985645D01*
X111724696Y-75985646D01*
X111850000Y-76005492D01*
X111975304Y-75985646D01*
X112002410Y-75971835D01*
X112088338Y-75928052D01*
X112088337Y-75928052D01*
X112088342Y-75928050D01*
X112178050Y-75838342D01*
X112182952Y-75828721D01*
X112196918Y-75816791D01*
X112215230Y-75818231D01*
X112221303Y-75822642D01*
X112239033Y-75840372D01*
X112239035Y-75840373D01*
X112239036Y-75840374D01*
X112339085Y-75891351D01*
X112339086Y-75891351D01*
X112339088Y-75891352D01*
X112450000Y-75908919D01*
X112560912Y-75891352D01*
X112660967Y-75840372D01*
X112740372Y-75760967D01*
X112791352Y-75660912D01*
X112803009Y-75587311D01*
X112812606Y-75571652D01*
X112830467Y-75567363D01*
X112846129Y-75576961D01*
X112850418Y-75587314D01*
X112864354Y-75675306D01*
X112921947Y-75788338D01*
X112921948Y-75788339D01*
X112921950Y-75788342D01*
X112994843Y-75861235D01*
X113001872Y-75878205D01*
X112994843Y-75895176D01*
X112981627Y-75901909D01*
X112939088Y-75908647D01*
X112939087Y-75908647D01*
X112839036Y-75959625D01*
X112759625Y-76039036D01*
X112708648Y-76139085D01*
X112691081Y-76250000D01*
X112708648Y-76360914D01*
X112759625Y-76460963D01*
X112759626Y-76460964D01*
X112759628Y-76460967D01*
X112839033Y-76540372D01*
X112839035Y-76540373D01*
X112839036Y-76540374D01*
X112939085Y-76591351D01*
X112939086Y-76591351D01*
X112939088Y-76591352D01*
X113050000Y-76608919D01*
X113160912Y-76591352D01*
X113260967Y-76540372D01*
X113340372Y-76460967D01*
X113391352Y-76360912D01*
X113408919Y-76250000D01*
X113408530Y-76247547D01*
X113401693Y-76204381D01*
X113395566Y-76165699D01*
X113398601Y-76151896D01*
X113397877Y-76151597D01*
X113413474Y-76113945D01*
X113425501Y-76084909D01*
X113425501Y-76074998D01*
X114344435Y-76074998D01*
X114344435Y-76075001D01*
X114364632Y-76254255D01*
X114424210Y-76424521D01*
X114517081Y-76572323D01*
X114520184Y-76577262D01*
X114647738Y-76704816D01*
X114800478Y-76800789D01*
X114970745Y-76860368D01*
X115116567Y-76876798D01*
X115149999Y-76880565D01*
X115150000Y-76880565D01*
X115150001Y-76880565D01*
X115183433Y-76876798D01*
X115329255Y-76860368D01*
X115499522Y-76800789D01*
X115652262Y-76704816D01*
X115779816Y-76577262D01*
X115875789Y-76424522D01*
X115935368Y-76254255D01*
X115955565Y-76075000D01*
X115935368Y-75895745D01*
X115875789Y-75725478D01*
X115779816Y-75572738D01*
X115652262Y-75445184D01*
X115652261Y-75445183D01*
X115499521Y-75349210D01*
X115329255Y-75289632D01*
X115150001Y-75269435D01*
X115149999Y-75269435D01*
X114970744Y-75289632D01*
X114800478Y-75349210D01*
X114647738Y-75445183D01*
X114520183Y-75572738D01*
X114424210Y-75725478D01*
X114364632Y-75895744D01*
X114344435Y-76074998D01*
X113425501Y-76074998D01*
X113425501Y-76015091D01*
X113425501Y-76013163D01*
X113425500Y-76013149D01*
X113425500Y-75924776D01*
X113432529Y-75907805D01*
X113438605Y-75903392D01*
X113488337Y-75878053D01*
X113488337Y-75878052D01*
X113488342Y-75878050D01*
X113578050Y-75788342D01*
X113635646Y-75675304D01*
X113655492Y-75550000D01*
X113635646Y-75424696D01*
X113635645Y-75424694D01*
X113635645Y-75424693D01*
X113578052Y-75311661D01*
X113578051Y-75311660D01*
X113578050Y-75311658D01*
X113507861Y-75241469D01*
X113500833Y-75224500D01*
X113507862Y-75207529D01*
X113524833Y-75200500D01*
X130172366Y-75200500D01*
X130189337Y-75207529D01*
X130196366Y-75224500D01*
X130189337Y-75241469D01*
X130099615Y-75331192D01*
X130022709Y-75408098D01*
X130005738Y-75415127D01*
X119681473Y-75415127D01*
X119589408Y-75453261D01*
X119589406Y-75453262D01*
X119589406Y-75453263D01*
X118882269Y-76160402D01*
X118652064Y-76390607D01*
X118635093Y-76397636D01*
X117867625Y-76397636D01*
X117775560Y-76435770D01*
X117092110Y-77119220D01*
X117092109Y-77119219D01*
X117021641Y-77189688D01*
X116983507Y-77281754D01*
X116983507Y-77415760D01*
X116976478Y-77432731D01*
X116459210Y-77949999D01*
X116970856Y-78461645D01*
X116986086Y-78465459D01*
X116988754Y-78467759D01*
X116995665Y-78474670D01*
X116995667Y-78474671D01*
X116995668Y-78474672D01*
X117108700Y-78532265D01*
X117108701Y-78532265D01*
X117108703Y-78532266D01*
X117234007Y-78552112D01*
X117359311Y-78532266D01*
X117472349Y-78474670D01*
X117562057Y-78384962D01*
X117619653Y-78271924D01*
X117639499Y-78146620D01*
X117619653Y-78021316D01*
X117619652Y-78021314D01*
X117619652Y-78021313D01*
X117567865Y-77919675D01*
X117889338Y-77919675D01*
X117909820Y-78062132D01*
X117909821Y-78062134D01*
X117953843Y-78158529D01*
X117969608Y-78193048D01*
X118063857Y-78301818D01*
X118184932Y-78379628D01*
X118323024Y-78420175D01*
X118323025Y-78420175D01*
X118466945Y-78420175D01*
X118466946Y-78420175D01*
X118605038Y-78379628D01*
X118726113Y-78301818D01*
X118820362Y-78193048D01*
X118880150Y-78062132D01*
X118900632Y-77919675D01*
X118880150Y-77777218D01*
X118820362Y-77646302D01*
X118726113Y-77537532D01*
X118726112Y-77537531D01*
X118605040Y-77459723D01*
X118605035Y-77459721D01*
X118555876Y-77445287D01*
X118466946Y-77419175D01*
X118323024Y-77419175D01*
X118276856Y-77432731D01*
X118184934Y-77459721D01*
X118184929Y-77459723D01*
X118063857Y-77537531D01*
X117969607Y-77646303D01*
X117914585Y-77766784D01*
X117909820Y-77777218D01*
X117889338Y-77919675D01*
X117567865Y-77919675D01*
X117562058Y-77908279D01*
X117491536Y-77837756D01*
X117484507Y-77820786D01*
X117484507Y-77445287D01*
X117491536Y-77428316D01*
X118014187Y-76905665D01*
X118031158Y-76898636D01*
X118798624Y-76898636D01*
X118868829Y-76869556D01*
X118890692Y-76860500D01*
X119828034Y-75923155D01*
X119845005Y-75916127D01*
X120736291Y-75916127D01*
X120753262Y-75923156D01*
X120760291Y-75940127D01*
X120754429Y-75955843D01*
X120698405Y-76020499D01*
X120663129Y-76061210D01*
X120603343Y-76192122D01*
X120603342Y-76192125D01*
X120582860Y-76334582D01*
X120603342Y-76477039D01*
X120614212Y-76500841D01*
X120647813Y-76574417D01*
X120663130Y-76607955D01*
X120757379Y-76716725D01*
X120878454Y-76794535D01*
X121016546Y-76835082D01*
X121016547Y-76835082D01*
X121160467Y-76835082D01*
X121160468Y-76835082D01*
X121298560Y-76794535D01*
X121419635Y-76716725D01*
X121513884Y-76607955D01*
X121573672Y-76477039D01*
X121574155Y-76475394D01*
X121574667Y-76475544D01*
X121583000Y-76461483D01*
X121600796Y-76456931D01*
X121616598Y-76466295D01*
X121619224Y-76470718D01*
X121667882Y-76577262D01*
X121676982Y-76597188D01*
X121771231Y-76705958D01*
X121892306Y-76783768D01*
X122030398Y-76824315D01*
X122030399Y-76824315D01*
X122174319Y-76824315D01*
X122174320Y-76824315D01*
X122312412Y-76783768D01*
X122433487Y-76705958D01*
X122527736Y-76597188D01*
X122587524Y-76466272D01*
X122608006Y-76323815D01*
X122587524Y-76181358D01*
X122527736Y-76050442D01*
X122445766Y-75955843D01*
X122439966Y-75938415D01*
X122448188Y-75921989D01*
X122463905Y-75916127D01*
X130069613Y-75916127D01*
X130135870Y-75916127D01*
X130152841Y-75923156D01*
X130159870Y-75940127D01*
X130159626Y-75943542D01*
X130149400Y-76014667D01*
X130146983Y-76031481D01*
X130165419Y-76159707D01*
X130205531Y-76247539D01*
X130219234Y-76277544D01*
X130304064Y-76375446D01*
X130304066Y-76375447D01*
X130304067Y-76375448D01*
X130326134Y-76389629D01*
X130330130Y-76392848D01*
X130657546Y-76720264D01*
X130748871Y-76772991D01*
X130850732Y-76800284D01*
X131745719Y-76800284D01*
X131762690Y-76807313D01*
X131764754Y-76809667D01*
X131775489Y-76823657D01*
X131900930Y-76919911D01*
X131900935Y-76919913D01*
X132047003Y-76980417D01*
X132047005Y-76980417D01*
X132047009Y-76980419D01*
X132203771Y-77001057D01*
X132360533Y-76980419D01*
X132506612Y-76919911D01*
X132632053Y-76823657D01*
X132728307Y-76698216D01*
X132784435Y-76562711D01*
X132788813Y-76552142D01*
X132788813Y-76552141D01*
X132788815Y-76552137D01*
X132809453Y-76395375D01*
X132788815Y-76238613D01*
X132784220Y-76227520D01*
X132728309Y-76092539D01*
X132728306Y-76092533D01*
X132632053Y-75967093D01*
X132632048Y-75967089D01*
X132632046Y-75967087D01*
X132535546Y-75893040D01*
X132526361Y-75877133D01*
X132531116Y-75859390D01*
X132547023Y-75850205D01*
X132550156Y-75850000D01*
X136374527Y-75850000D01*
X136391498Y-75857029D01*
X136398527Y-75874000D01*
X136391498Y-75890971D01*
X136114382Y-76168085D01*
X136097411Y-76175114D01*
X136093657Y-76174819D01*
X136061510Y-76169728D01*
X135936203Y-76189574D01*
X135823171Y-76247167D01*
X135733457Y-76336881D01*
X135675864Y-76449913D01*
X135656018Y-76575220D01*
X135675864Y-76700526D01*
X135733457Y-76813558D01*
X135733458Y-76813559D01*
X135733460Y-76813562D01*
X135823168Y-76903270D01*
X135823170Y-76903271D01*
X135823171Y-76903272D01*
X135936203Y-76960865D01*
X135936204Y-76960865D01*
X135936206Y-76960866D01*
X136061510Y-76980712D01*
X136186814Y-76960866D01*
X136299852Y-76903270D01*
X136389560Y-76813562D01*
X136447156Y-76700524D01*
X136467002Y-76575220D01*
X136466543Y-76572323D01*
X136461910Y-76543072D01*
X136466197Y-76525211D01*
X136468637Y-76522352D01*
X136718784Y-76272206D01*
X136735755Y-76265177D01*
X140574791Y-76265177D01*
X140591762Y-76272206D01*
X141324232Y-77004676D01*
X141324233Y-77004676D01*
X141324234Y-77004677D01*
X141416299Y-77042812D01*
X141416301Y-77042812D01*
X142603205Y-77042812D01*
X142661261Y-77018763D01*
X142695273Y-77004676D01*
X142938548Y-76761401D01*
X142957646Y-76715294D01*
X142976684Y-76669333D01*
X142976684Y-76272386D01*
X142983713Y-76255415D01*
X143449344Y-75789784D01*
X143466315Y-75782755D01*
X145312603Y-75782755D01*
X145329574Y-75789784D01*
X146016305Y-76476514D01*
X146016318Y-76476529D01*
X146053252Y-76513462D01*
X146088143Y-76548353D01*
X146122809Y-76562712D01*
X146176181Y-76584820D01*
X146177816Y-76585497D01*
X146186768Y-76591952D01*
X146231966Y-76644114D01*
X146263023Y-76679956D01*
X146340810Y-76729947D01*
X146372003Y-76749993D01*
X146496300Y-76786489D01*
X146576659Y-76786489D01*
X146593630Y-76793518D01*
X147007446Y-77207334D01*
X147007445Y-77207334D01*
X147036474Y-77236362D01*
X147063395Y-77263283D01*
X147131917Y-77302844D01*
X147208344Y-77323323D01*
X147524039Y-77323323D01*
X147541010Y-77330352D01*
X147542177Y-77331606D01*
X147572664Y-77366790D01*
X147679034Y-77435150D01*
X147681644Y-77436827D01*
X147805941Y-77473323D01*
X147805943Y-77473323D01*
X147935483Y-77473323D01*
X147935485Y-77473323D01*
X148059782Y-77436827D01*
X148168762Y-77366790D01*
X148169501Y-77365938D01*
X148191732Y-77340281D01*
X148253595Y-77268886D01*
X148307410Y-77151049D01*
X148325846Y-77022823D01*
X148307410Y-76894597D01*
X148253595Y-76776760D01*
X148230399Y-76749990D01*
X148168764Y-76678857D01*
X148168762Y-76678856D01*
X148059786Y-76608821D01*
X148059783Y-76608819D01*
X148059782Y-76608819D01*
X148056839Y-76607955D01*
X148038527Y-76602578D01*
X147935485Y-76572323D01*
X147805941Y-76572323D01*
X147732951Y-76593754D01*
X147681646Y-76608818D01*
X147681639Y-76608821D01*
X147572664Y-76678855D01*
X147542177Y-76714040D01*
X147525751Y-76722262D01*
X147524039Y-76722323D01*
X147382319Y-76722323D01*
X147365348Y-76715294D01*
X147020907Y-76370853D01*
X147013878Y-76353882D01*
X147014123Y-76350465D01*
X147014191Y-76349998D01*
X147015874Y-76338294D01*
X147016205Y-76335992D01*
X147016205Y-76335991D01*
X147016205Y-76335989D01*
X146997769Y-76207763D01*
X146943954Y-76089926D01*
X146916999Y-76058818D01*
X146859123Y-75992023D01*
X146859121Y-75992022D01*
X146750145Y-75921987D01*
X146750142Y-75921985D01*
X146750141Y-75921985D01*
X146749630Y-75921835D01*
X146710399Y-75910316D01*
X146625844Y-75885489D01*
X146496300Y-75885489D01*
X146423310Y-75906920D01*
X146372005Y-75921984D01*
X146371998Y-75921987D01*
X146265480Y-75990442D01*
X146247403Y-75993703D01*
X146235534Y-75987223D01*
X145923615Y-75675304D01*
X145568203Y-75319891D01*
X145568201Y-75319890D01*
X145568200Y-75319889D01*
X145476136Y-75281755D01*
X145476134Y-75281755D01*
X143402440Y-75281755D01*
X143302784Y-75281755D01*
X143302782Y-75281755D01*
X143210717Y-75319889D01*
X142532300Y-75998306D01*
X142515329Y-76005335D01*
X142498359Y-75998306D01*
X142411885Y-75911832D01*
X142411882Y-75911830D01*
X142411881Y-75911829D01*
X142298849Y-75854236D01*
X142210100Y-75840180D01*
X142173543Y-75834390D01*
X142173542Y-75834390D01*
X142141394Y-75839481D01*
X142123532Y-75835192D01*
X142120669Y-75832747D01*
X141898683Y-75610761D01*
X141675058Y-75387136D01*
X141675056Y-75387135D01*
X141675055Y-75387134D01*
X141582991Y-75349000D01*
X141582989Y-75349000D01*
X131685312Y-75349000D01*
X131668342Y-75341971D01*
X131621087Y-75294716D01*
X131567842Y-75241470D01*
X131560813Y-75224500D01*
X131567843Y-75207529D01*
X131584813Y-75200500D01*
X146734940Y-75200500D01*
X146751911Y-75207529D01*
X146758940Y-75224500D01*
X146751911Y-75241469D01*
X146727030Y-75266351D01*
X146704496Y-75288885D01*
X146653519Y-75388934D01*
X146635952Y-75499849D01*
X146653519Y-75610763D01*
X146704496Y-75710812D01*
X146704497Y-75710813D01*
X146704499Y-75710816D01*
X146783904Y-75790221D01*
X146783906Y-75790222D01*
X146783907Y-75790223D01*
X146883956Y-75841200D01*
X146883957Y-75841200D01*
X146883959Y-75841201D01*
X146994871Y-75858768D01*
X147105783Y-75841201D01*
X147119151Y-75834390D01*
X147205834Y-75790223D01*
X147205833Y-75790223D01*
X147205838Y-75790221D01*
X147285243Y-75710816D01*
X147285245Y-75710810D01*
X147286036Y-75709724D01*
X147301697Y-75700126D01*
X147305453Y-75699830D01*
X148926375Y-75699830D01*
X148943346Y-75706859D01*
X149026710Y-75790223D01*
X149108260Y-75871772D01*
X149115289Y-75888743D01*
X149114471Y-75894954D01*
X149108738Y-75916352D01*
X149107269Y-75921836D01*
X149107269Y-76053620D01*
X149120023Y-76101218D01*
X149140453Y-76177469D01*
X149141377Y-76180914D01*
X149206286Y-76293340D01*
X149207270Y-76295043D01*
X149245447Y-76333221D01*
X149252271Y-76347058D01*
X149268619Y-76471226D01*
X149268620Y-76471231D01*
X149329124Y-76617299D01*
X149329125Y-76617302D01*
X149329127Y-76617305D01*
X149348203Y-76642165D01*
X149353163Y-76656775D01*
X149353163Y-77673830D01*
X149362724Y-77709518D01*
X149360326Y-77727730D01*
X149356513Y-77732700D01*
X147490486Y-79598729D01*
X147473515Y-79605758D01*
X147438520Y-79605758D01*
X147421549Y-79598729D01*
X147414520Y-79581758D01*
X147421549Y-79564787D01*
X147425545Y-79561568D01*
X147449181Y-79546378D01*
X147518879Y-79501586D01*
X147613128Y-79392816D01*
X147672916Y-79261900D01*
X147693398Y-79119443D01*
X147672916Y-78976986D01*
X147613128Y-78846070D01*
X147518879Y-78737300D01*
X147518878Y-78737299D01*
X147397806Y-78659491D01*
X147397801Y-78659489D01*
X147348155Y-78644912D01*
X147259712Y-78618943D01*
X147115790Y-78618943D01*
X147088584Y-78626930D01*
X147072034Y-78631790D01*
X147053770Y-78629826D01*
X147048302Y-78625733D01*
X146844064Y-78421495D01*
X146638031Y-78215462D01*
X146638029Y-78215461D01*
X146638028Y-78215460D01*
X146545964Y-78177326D01*
X146545962Y-78177326D01*
X145832660Y-78177326D01*
X145815689Y-78170297D01*
X145808660Y-78153326D01*
X145815688Y-78136356D01*
X145831749Y-78120296D01*
X145882729Y-78020241D01*
X145900296Y-77909329D01*
X145882729Y-77798417D01*
X145882728Y-77798415D01*
X145882728Y-77798414D01*
X145831751Y-77698365D01*
X145831750Y-77698364D01*
X145831749Y-77698362D01*
X145752344Y-77618957D01*
X145752341Y-77618955D01*
X145752340Y-77618954D01*
X145652291Y-77567977D01*
X145541377Y-77550410D01*
X145430462Y-77567977D01*
X145330413Y-77618954D01*
X145251002Y-77698365D01*
X145200025Y-77798414D01*
X145182458Y-77909329D01*
X145200025Y-78020243D01*
X145251002Y-78120292D01*
X145251003Y-78120293D01*
X145251005Y-78120296D01*
X145267065Y-78136356D01*
X145274094Y-78153326D01*
X145267065Y-78170297D01*
X145250094Y-78177326D01*
X144081536Y-78177326D01*
X144064565Y-78170297D01*
X143758278Y-77864010D01*
X143435550Y-77541281D01*
X143435548Y-77541280D01*
X143435547Y-77541279D01*
X143343483Y-77503145D01*
X143343481Y-77503145D01*
X141391962Y-77503145D01*
X141374991Y-77496116D01*
X141154016Y-77275141D01*
X141147283Y-77261926D01*
X141137475Y-77199998D01*
X143619435Y-77199998D01*
X143619435Y-77200001D01*
X143639632Y-77379255D01*
X143699210Y-77549521D01*
X143794360Y-77700950D01*
X143795184Y-77702262D01*
X143922738Y-77829816D01*
X144075478Y-77925789D01*
X144245745Y-77985368D01*
X144404152Y-78003216D01*
X144424999Y-78005565D01*
X144425000Y-78005565D01*
X144425001Y-78005565D01*
X144443152Y-78003519D01*
X144604255Y-77985368D01*
X144774522Y-77925789D01*
X144927262Y-77829816D01*
X145054816Y-77702262D01*
X145150789Y-77549522D01*
X145210368Y-77379255D01*
X145229336Y-77210908D01*
X145230565Y-77200001D01*
X145230565Y-77199998D01*
X145225820Y-77157890D01*
X145210368Y-77020745D01*
X145150789Y-76850478D01*
X145054816Y-76697738D01*
X144927262Y-76570184D01*
X144927261Y-76570183D01*
X144774521Y-76474210D01*
X144604255Y-76414632D01*
X144425001Y-76394435D01*
X144424999Y-76394435D01*
X144245744Y-76414632D01*
X144075478Y-76474210D01*
X143922738Y-76570183D01*
X143795183Y-76697738D01*
X143699210Y-76850478D01*
X143639632Y-77020744D01*
X143619435Y-77199998D01*
X141137475Y-77199998D01*
X141134623Y-77181994D01*
X141134622Y-77181992D01*
X141134622Y-77181991D01*
X141083645Y-77081942D01*
X141083644Y-77081941D01*
X141083643Y-77081939D01*
X141004238Y-77002534D01*
X141004235Y-77002532D01*
X141004234Y-77002531D01*
X140904185Y-76951554D01*
X140793271Y-76933987D01*
X140682356Y-76951554D01*
X140582307Y-77002531D01*
X140502896Y-77081942D01*
X140451919Y-77181991D01*
X140434352Y-77292906D01*
X140451919Y-77403820D01*
X140502896Y-77503869D01*
X140502897Y-77503870D01*
X140502899Y-77503873D01*
X140582304Y-77583278D01*
X140582306Y-77583279D01*
X140582307Y-77583280D01*
X140682356Y-77634257D01*
X140682357Y-77634257D01*
X140682359Y-77634258D01*
X140793271Y-77651825D01*
X140806145Y-77649785D01*
X140824005Y-77654071D01*
X140826871Y-77656518D01*
X141065895Y-77895542D01*
X141065894Y-77895542D01*
X141136363Y-77966010D01*
X141228429Y-78004145D01*
X141228431Y-78004145D01*
X143179950Y-78004145D01*
X143196921Y-78011174D01*
X143754099Y-78568351D01*
X143754112Y-78568366D01*
X143825938Y-78640191D01*
X143918004Y-78678326D01*
X143918006Y-78678326D01*
X144110827Y-78678326D01*
X146382431Y-78678326D01*
X146399402Y-78685355D01*
X146692638Y-78978591D01*
X146699667Y-78995562D01*
X146699423Y-78998977D01*
X146682138Y-79119204D01*
X146682104Y-79119443D01*
X146702586Y-79261900D01*
X146722421Y-79305332D01*
X146761134Y-79390102D01*
X146762374Y-79392816D01*
X146851261Y-79495398D01*
X146856623Y-79501586D01*
X146949957Y-79561568D01*
X146960434Y-79576656D01*
X146957172Y-79594733D01*
X146942084Y-79605210D01*
X146936982Y-79605758D01*
X141644358Y-79605758D01*
X141627387Y-79598729D01*
X141620358Y-79581758D01*
X141620358Y-78910891D01*
X141627386Y-78893921D01*
X141660230Y-78861078D01*
X141711210Y-78761023D01*
X141728777Y-78650111D01*
X141711210Y-78539199D01*
X141711209Y-78539197D01*
X141711209Y-78539196D01*
X141660232Y-78439147D01*
X141660231Y-78439146D01*
X141660230Y-78439144D01*
X141580825Y-78359739D01*
X141580822Y-78359737D01*
X141580821Y-78359736D01*
X141480772Y-78308759D01*
X141369858Y-78291192D01*
X141258943Y-78308759D01*
X141158894Y-78359736D01*
X141079483Y-78439147D01*
X141028506Y-78539196D01*
X141010939Y-78650111D01*
X141028506Y-78761025D01*
X141079483Y-78861074D01*
X141079484Y-78861075D01*
X141079486Y-78861078D01*
X141112329Y-78893921D01*
X141119358Y-78910891D01*
X141119358Y-79581758D01*
X141112329Y-79598729D01*
X141095358Y-79605758D01*
X132245709Y-79605758D01*
X132228738Y-79598729D01*
X132221709Y-79581758D01*
X132228738Y-79564787D01*
X132232734Y-79561568D01*
X132254112Y-79547829D01*
X132301095Y-79517635D01*
X132395344Y-79408865D01*
X132455132Y-79277949D01*
X132475614Y-79135492D01*
X132455132Y-78993035D01*
X132395344Y-78862119D01*
X132301095Y-78753349D01*
X132301094Y-78753348D01*
X132180022Y-78675540D01*
X132180017Y-78675538D01*
X132125358Y-78659489D01*
X132041928Y-78634992D01*
X131898006Y-78634992D01*
X131879983Y-78640284D01*
X131850367Y-78648979D01*
X131832103Y-78647015D01*
X131820578Y-78632712D01*
X131821774Y-78615983D01*
X131841811Y-78572111D01*
X131862293Y-78429654D01*
X131841811Y-78287197D01*
X131782023Y-78156281D01*
X131694267Y-78055005D01*
X131688467Y-78037577D01*
X131696689Y-78021151D01*
X131712406Y-78015289D01*
X134895543Y-78015289D01*
X134912514Y-78022318D01*
X135540612Y-78650416D01*
X135540611Y-78650416D01*
X135571045Y-78680849D01*
X135596561Y-78706365D01*
X135665083Y-78745926D01*
X135741510Y-78766405D01*
X135741511Y-78766405D01*
X138385093Y-78766405D01*
X138385094Y-78766405D01*
X138461521Y-78745926D01*
X138530043Y-78706365D01*
X138585992Y-78650416D01*
X138591496Y-78644911D01*
X138608466Y-78637883D01*
X138746014Y-78637883D01*
X138746015Y-78637883D01*
X138884107Y-78597336D01*
X139005182Y-78519526D01*
X139099431Y-78410756D01*
X139159219Y-78279840D01*
X139179701Y-78137383D01*
X139159219Y-77994926D01*
X139099431Y-77864010D01*
X139005182Y-77755240D01*
X139005181Y-77755239D01*
X138884109Y-77677431D01*
X138884104Y-77677429D01*
X138829081Y-77661273D01*
X138746015Y-77636883D01*
X138602093Y-77636883D01*
X138551208Y-77651824D01*
X138464003Y-77677429D01*
X138463998Y-77677431D01*
X138342926Y-77755239D01*
X138248676Y-77864011D01*
X138191555Y-77989088D01*
X138188889Y-77994926D01*
X138169852Y-78127332D01*
X138168407Y-78137385D01*
X138168407Y-78137388D01*
X138168494Y-78137994D01*
X138168407Y-78138334D01*
X138168407Y-78139100D01*
X138168211Y-78139100D01*
X138163948Y-78155791D01*
X138148149Y-78165161D01*
X138144738Y-78165405D01*
X135915485Y-78165405D01*
X135898514Y-78158376D01*
X135558357Y-77818219D01*
X135214467Y-77474329D01*
X135209848Y-77471662D01*
X135145945Y-77434768D01*
X135145944Y-77434767D01*
X135145943Y-77434767D01*
X135079844Y-77417056D01*
X135069518Y-77414289D01*
X135069517Y-77414289D01*
X131756597Y-77414289D01*
X131739627Y-77407260D01*
X131664629Y-77332262D01*
X131664626Y-77332260D01*
X131664625Y-77332259D01*
X131564576Y-77281282D01*
X131453662Y-77263715D01*
X131342747Y-77281282D01*
X131242698Y-77332259D01*
X131163287Y-77411670D01*
X131112310Y-77511719D01*
X131094743Y-77622633D01*
X131100064Y-77656235D01*
X131099542Y-77666198D01*
X131097124Y-77675225D01*
X131097124Y-77675227D01*
X131097124Y-77754351D01*
X131106989Y-77791167D01*
X131117589Y-77830728D01*
X131117603Y-77830778D01*
X131154994Y-77895542D01*
X131157165Y-77899301D01*
X131180583Y-77922720D01*
X131187612Y-77939690D01*
X131180582Y-77956661D01*
X131170374Y-77962718D01*
X131146593Y-77969701D01*
X131146590Y-77969702D01*
X131025518Y-78047510D01*
X130931268Y-78156282D01*
X130871482Y-78287194D01*
X130871481Y-78287197D01*
X130857538Y-78384173D01*
X130850999Y-78429654D01*
X130854292Y-78452559D01*
X130849749Y-78470357D01*
X130833951Y-78479730D01*
X130818536Y-78476759D01*
X130771925Y-78449848D01*
X130771924Y-78449847D01*
X130771923Y-78449847D01*
X130666109Y-78421495D01*
X130644631Y-78415740D01*
X130644630Y-78415740D01*
X130591167Y-78415740D01*
X130574196Y-78408711D01*
X129495837Y-77330352D01*
X128408847Y-76243361D01*
X128294719Y-76177469D01*
X128294718Y-76177468D01*
X128294717Y-76177468D01*
X128208067Y-76154251D01*
X128167425Y-76143361D01*
X128167424Y-76143361D01*
X126703110Y-76143361D01*
X126688500Y-76138401D01*
X126663640Y-76119325D01*
X126663637Y-76119323D01*
X126663634Y-76119322D01*
X126517566Y-76058818D01*
X126517562Y-76058817D01*
X126360799Y-76038179D01*
X126204035Y-76058817D01*
X126204031Y-76058818D01*
X126057963Y-76119322D01*
X126057957Y-76119325D01*
X125932519Y-76215577D01*
X125932515Y-76215581D01*
X125836263Y-76341019D01*
X125836260Y-76341025D01*
X125775756Y-76487093D01*
X125775755Y-76487097D01*
X125755117Y-76643861D01*
X125774595Y-76791812D01*
X125769840Y-76809555D01*
X125767771Y-76811916D01*
X125396551Y-77183138D01*
X125379580Y-77190167D01*
X120049108Y-77190167D01*
X120028630Y-77195654D01*
X119972682Y-77210645D01*
X119925621Y-77237816D01*
X119925620Y-77237815D01*
X119904162Y-77250204D01*
X118422584Y-78731783D01*
X118405613Y-78738812D01*
X116539544Y-78738812D01*
X116522573Y-78731783D01*
X116100000Y-78309210D01*
X115677427Y-78731783D01*
X115660456Y-78738812D01*
X114273725Y-78738812D01*
X114256754Y-78731783D01*
X114237415Y-78712444D01*
X114230681Y-78699228D01*
X114209719Y-78566874D01*
X114209718Y-78566872D01*
X114209718Y-78566871D01*
X114148530Y-78446783D01*
X114148529Y-78446782D01*
X114148528Y-78446780D01*
X114053220Y-78351472D01*
X114053217Y-78351470D01*
X114053216Y-78351469D01*
X113933128Y-78290281D01*
X113800000Y-78269196D01*
X113666871Y-78290281D01*
X113546783Y-78351469D01*
X113451469Y-78446783D01*
X113390281Y-78566871D01*
X113369196Y-78700000D01*
X113390281Y-78833128D01*
X113451469Y-78953216D01*
X113451470Y-78953217D01*
X113451472Y-78953220D01*
X113546780Y-79048528D01*
X113546782Y-79048529D01*
X113546783Y-79048530D01*
X113666871Y-79109718D01*
X113666872Y-79109718D01*
X113666874Y-79109719D01*
X113799228Y-79130681D01*
X113812444Y-79137415D01*
X113954801Y-79279772D01*
X114023324Y-79319334D01*
X114099750Y-79339812D01*
X118579587Y-79339812D01*
X118579588Y-79339812D01*
X118656015Y-79319333D01*
X118724537Y-79279772D01*
X118780486Y-79223823D01*
X118780486Y-79223822D01*
X120206112Y-77798196D01*
X120223083Y-77791167D01*
X120227076Y-77791167D01*
X120244047Y-77798196D01*
X120251076Y-77815167D01*
X120244047Y-77832136D01*
X119400647Y-78675538D01*
X118542973Y-79533212D01*
X118526002Y-79540241D01*
X112119118Y-79540241D01*
X112102147Y-79533212D01*
X111840231Y-79271296D01*
X111833202Y-79254325D01*
X111833202Y-77949995D01*
X115087123Y-77949995D01*
X115087123Y-77950004D01*
X115106583Y-78147599D01*
X115164226Y-78337614D01*
X115230041Y-78460746D01*
X115740788Y-77949999D01*
X115230041Y-77439252D01*
X115164226Y-77562385D01*
X115106583Y-77752400D01*
X115087123Y-77949995D01*
X111833202Y-77949995D01*
X111833202Y-77650267D01*
X111802679Y-77576578D01*
X111802678Y-77576577D01*
X111802678Y-77576576D01*
X111746276Y-77520174D01*
X111746274Y-77520173D01*
X111746273Y-77520172D01*
X111672585Y-77489650D01*
X111672584Y-77489650D01*
X111592820Y-77489650D01*
X111590502Y-77490111D01*
X111590317Y-77489180D01*
X111575575Y-77489168D01*
X111567807Y-77483974D01*
X111163874Y-77080041D01*
X115589252Y-77080041D01*
X116099999Y-77590788D01*
X116610746Y-77080041D01*
X116487614Y-77014226D01*
X116297599Y-76956583D01*
X116100005Y-76937123D01*
X116099995Y-76937123D01*
X115902400Y-76956583D01*
X115712385Y-77014226D01*
X115589252Y-77080041D01*
X111163874Y-77080041D01*
X109710353Y-75626520D01*
X109710346Y-75626514D01*
X109529015Y-75445183D01*
X109335051Y-75251218D01*
X109335049Y-75251217D01*
X109335048Y-75251216D01*
X109324080Y-75246673D01*
X109311091Y-75233684D01*
X109311091Y-75215316D01*
X109324080Y-75202327D01*
X109333264Y-75200500D01*
X111651918Y-75200500D01*
X111668889Y-75207529D01*
G37*
%TD.AperFunction*%
%TD*%
D35*
X106264024Y-81244906D03*
X95850000Y-79725000D03*
X79850000Y-81150000D03*
X99650000Y-83075000D03*
X74250000Y-76750000D03*
D36*
X122338382Y-80092335D03*
D37*
X159206944Y-79430058D03*
X159222902Y-77464300D03*
X157958262Y-75694077D03*
D35*
X70517853Y-79829334D03*
X69430000Y-81370000D03*
X108103740Y-76338432D03*
X107250000Y-81400000D03*
X107350000Y-79650000D03*
X107022929Y-77800460D03*
X106767619Y-82509877D03*
X109602604Y-82347282D03*
X107203359Y-78539039D03*
X108282068Y-81823656D03*
D37*
X126360799Y-76643861D03*
X149853663Y-76314464D03*
X127224115Y-77278476D03*
D35*
X141369858Y-78650111D03*
X146994871Y-75499849D03*
D36*
X113800000Y-78700000D03*
D37*
X150700201Y-76914527D03*
D35*
X112450000Y-75550000D03*
X113050000Y-76250000D03*
X106850000Y-77000000D03*
X80250000Y-78200000D03*
X105781301Y-83561655D03*
X105850000Y-82250000D03*
X70195750Y-76895750D03*
X95750000Y-82150000D03*
D36*
X111728727Y-80328351D03*
D35*
X94600000Y-81400000D03*
X103500000Y-75600000D03*
X69600000Y-75900000D03*
X75050000Y-77900000D03*
X94100000Y-77550000D03*
D37*
X118394985Y-77919675D03*
D35*
X71500000Y-83100000D03*
D37*
X119933591Y-79444228D03*
D36*
X131972762Y-83026192D03*
D35*
X77900000Y-78550000D03*
X101100000Y-83275000D03*
X98675000Y-74850000D03*
X126298713Y-78463089D03*
X110056674Y-80752907D03*
X126998713Y-78463089D03*
X109561698Y-81247883D03*
D38*
X136061510Y-76575220D03*
D36*
X146561072Y-76335989D03*
X147870713Y-77022823D03*
D35*
X86365978Y-76395473D03*
X72487500Y-82470000D03*
X156684822Y-78386429D03*
X100250000Y-83450000D03*
X135810133Y-82510205D03*
D38*
X108857163Y-76960761D03*
D35*
X134114032Y-79210880D03*
X91725000Y-79360221D03*
X133471543Y-76120176D03*
D36*
X155637711Y-75556992D03*
D35*
X137405096Y-81243364D03*
X69800000Y-82400000D03*
X69700000Y-83300000D03*
D36*
X113800000Y-77700000D03*
D35*
X138188988Y-79291242D03*
X140772773Y-81908792D03*
D36*
X156060441Y-79209422D03*
D35*
X139764685Y-81592586D03*
X156551717Y-77507381D03*
X90724579Y-79356853D03*
X82050000Y-78225500D03*
X93873563Y-76899500D03*
X93862472Y-75650000D03*
X134434819Y-78379661D03*
X93911041Y-78949500D03*
X140174828Y-77634956D03*
X137635098Y-82500578D03*
X137305303Y-76525730D03*
D38*
X110899695Y-78569517D03*
D35*
X111476258Y-82705720D03*
X155927117Y-78023742D03*
X108913796Y-80744229D03*
X122865457Y-78713732D03*
X88737346Y-79366419D03*
X152860858Y-80062216D03*
X86369347Y-77395893D03*
X134424875Y-77155052D03*
X119879671Y-76656732D03*
X77800000Y-79800000D03*
X133225052Y-79128151D03*
X89737766Y-79366419D03*
X134256811Y-76412787D03*
X93458326Y-79364204D03*
X128073316Y-78238505D03*
X137515167Y-77653704D03*
X157859542Y-76971134D03*
X86350000Y-75450000D03*
X150077042Y-79958564D03*
X93887472Y-78125000D03*
X139362773Y-77580695D03*
X87733557Y-79366419D03*
X68650000Y-78300000D03*
D38*
X108863649Y-78945427D03*
D35*
X74150000Y-80250000D03*
X113062508Y-82066434D03*
X88850000Y-81875500D03*
X153658593Y-75432702D03*
D37*
X129332992Y-76543861D03*
D35*
X133727888Y-78527669D03*
X123380387Y-76864554D03*
X157565825Y-78567349D03*
D36*
X114950000Y-78150000D03*
D35*
X92728789Y-79360221D03*
D36*
X140153708Y-76608881D03*
D35*
X133073351Y-77127011D03*
X86362472Y-78450000D03*
X134959554Y-79253266D03*
X155975420Y-76885782D03*
D36*
X144862389Y-79269721D03*
X130602116Y-76031481D03*
D37*
X131969967Y-79135492D03*
D36*
X69700000Y-77750000D03*
D37*
X121088507Y-76334582D03*
X122102359Y-76323815D03*
D35*
X68237500Y-75620000D03*
D37*
X131356646Y-78429654D03*
D35*
X70400000Y-79100000D03*
X69450000Y-80750000D03*
D37*
X138674054Y-78137383D03*
D35*
X131453662Y-77622634D03*
D37*
X147187751Y-79119443D03*
D35*
X140793271Y-77292906D03*
X85025000Y-79525000D03*
X72750000Y-78900000D03*
X71500000Y-81500000D03*
X80224505Y-83235085D03*
X96000000Y-79150000D03*
X76900000Y-81450000D03*
X73750000Y-79200000D03*
X79150000Y-81450000D03*
X86950000Y-82725500D03*
X104891312Y-81805026D03*
X106000000Y-76650000D03*
X84750000Y-78100000D03*
X105691312Y-76105026D03*
X105091312Y-79705026D03*
X85625000Y-75575000D03*
X84100000Y-82600000D03*
X104441312Y-79205026D03*
X105950000Y-77450000D03*
X83450000Y-80900000D03*
X83450000Y-78100000D03*
X105041312Y-76755026D03*
X104541312Y-77255026D03*
X82050000Y-80800000D03*
X154572913Y-76987269D03*
X100650000Y-74925000D03*
X135470804Y-80868542D03*
X102100000Y-83550000D03*
X154557237Y-78001569D03*
X104741312Y-75755026D03*
X134381136Y-81843044D03*
X103850000Y-82675000D03*
X155263950Y-78735805D03*
X132083808Y-82243314D03*
X99002251Y-83127205D03*
X78600000Y-80650000D03*
X79250000Y-82700000D03*
X98400000Y-83500000D03*
X70200000Y-81500000D03*
D38*
X117234007Y-78146620D03*
X142173543Y-76239882D03*
D35*
X145541377Y-77909329D03*
X113300000Y-80400000D03*
X105100000Y-80500000D03*
D37*
X77000000Y-82800000D03*
D39*
X123979107Y-82590740D03*
D40*
X124979107Y-79890740D03*
X129979107Y-79890740D03*
D39*
X130979107Y-82590740D03*
D38*
X98400000Y-77900000D03*
X98400000Y-79000000D03*
X98400000Y-80100000D03*
X99100000Y-77100000D03*
X99100000Y-80900000D03*
X99600000Y-77900000D03*
X99600000Y-79000000D03*
X99600000Y-80100000D03*
X100300000Y-77100000D03*
X100300000Y-80900000D03*
X101000000Y-77900000D03*
X101000000Y-79000000D03*
X101000000Y-80100000D03*
X101600000Y-77100000D03*
X101600000Y-80900000D03*
X102200000Y-77900000D03*
X102200000Y-79000000D03*
X102200000Y-80100000D03*
D37*
X70650000Y-80725000D03*
X70650000Y-83475000D03*
X114568842Y-83376871D03*
X121088842Y-83386871D03*
M02*
